G04*
G04 #@! TF.GenerationSoftware,Altium Limited,Altium Designer,24.4.1 (13)*
G04*
G04 Layer_Color=128*
%FSLAX25Y25*%
%MOIN*%
G70*
G04*
G04 #@! TF.SameCoordinates,4EE5E999-D737-4110-A4F5-E65D847AD794*
G04*
G04*
G04 #@! TF.FilePolarity,Positive*
G04*
G01*
G75*
%ADD16R,0.10433X0.10000*%
%ADD17R,0.03000X0.05000*%
%ADD18R,0.04528X0.05709*%
%ADD19R,0.06500X0.06000*%
%ADD20R,0.06000X0.06500*%
%ADD22R,0.08858X0.06496*%
%ADD24R,0.05787X0.03819*%
%ADD27R,0.02559X0.06004*%
%ADD112R,0.06496X0.08858*%
%ADD113R,0.03740X0.05709*%
%ADD114R,0.05000X0.03000*%
%ADD115R,0.10000X0.10433*%
%ADD116R,0.07677X0.02559*%
%ADD117R,0.13976X0.06102*%
D16*
X744254Y1361500D02*
D03*
X765116D02*
D03*
X567116D02*
D03*
X666116Y1362000D02*
D03*
X645254D02*
D03*
X546116Y1361240D02*
D03*
D17*
X734998Y1361500D02*
D03*
X755860D02*
D03*
X557860D02*
D03*
X656860Y1362000D02*
D03*
X635998D02*
D03*
X536860Y1361240D02*
D03*
D18*
X701000Y1252500D02*
D03*
X708087D02*
D03*
X795000Y1263500D02*
D03*
X787913D02*
D03*
X795043Y1224000D02*
D03*
X787957D02*
D03*
X795543Y817000D02*
D03*
X788457D02*
D03*
X701500Y845500D02*
D03*
X708587D02*
D03*
X795500Y856500D02*
D03*
X788413D02*
D03*
X795000Y1060000D02*
D03*
X787913D02*
D03*
X701000Y1049000D02*
D03*
X708087D02*
D03*
X795043Y1020500D02*
D03*
X787957D02*
D03*
D19*
X758100Y1297500D02*
D03*
Y1310500D02*
D03*
Y1329000D02*
D03*
Y1342000D02*
D03*
X740600Y1297500D02*
D03*
Y1310500D02*
D03*
X704100Y1322000D02*
D03*
Y1335000D02*
D03*
X687100Y1322000D02*
D03*
Y1335000D02*
D03*
X658900Y1342500D02*
D03*
Y1329500D02*
D03*
X641600D02*
D03*
Y1342500D02*
D03*
Y1298000D02*
D03*
Y1311000D02*
D03*
X659100Y1298000D02*
D03*
Y1311000D02*
D03*
X740600Y1329000D02*
D03*
Y1342000D02*
D03*
X588100Y1322500D02*
D03*
Y1335500D02*
D03*
X605100Y1322500D02*
D03*
Y1335500D02*
D03*
X542600Y1297500D02*
D03*
Y1310500D02*
D03*
X560100Y1297500D02*
D03*
Y1310500D02*
D03*
X506100Y1322000D02*
D03*
Y1335000D02*
D03*
X560100Y1329000D02*
D03*
Y1342000D02*
D03*
X542600Y1329000D02*
D03*
Y1342000D02*
D03*
X489100Y1322000D02*
D03*
Y1335000D02*
D03*
X786500Y638000D02*
D03*
Y651000D02*
D03*
X527000Y1237500D02*
D03*
Y1224500D02*
D03*
X724500Y1252500D02*
D03*
Y1239500D02*
D03*
X725000Y845500D02*
D03*
Y832500D02*
D03*
X724500Y1049000D02*
D03*
Y1036000D02*
D03*
D20*
X627500Y1360500D02*
D03*
X614500D02*
D03*
X601500D02*
D03*
X588500D02*
D03*
X726500Y1360000D02*
D03*
X713500D02*
D03*
X700500D02*
D03*
X687500D02*
D03*
X502500D02*
D03*
X489500D02*
D03*
X528500D02*
D03*
X515500D02*
D03*
X714000Y1225500D02*
D03*
X701000D02*
D03*
X714000Y1214500D02*
D03*
X701000D02*
D03*
X714500Y807500D02*
D03*
X701500D02*
D03*
X714500Y818500D02*
D03*
X701500D02*
D03*
X714000Y1011000D02*
D03*
X701000D02*
D03*
X714000Y1022000D02*
D03*
X701000D02*
D03*
D22*
X729965Y1300263D02*
D03*
X713035D02*
D03*
X630965Y1300763D02*
D03*
X614035D02*
D03*
X531965Y1300263D02*
D03*
X515035D02*
D03*
D24*
X724500Y1231035D02*
D03*
Y1224500D02*
D03*
X725000Y824035D02*
D03*
Y817500D02*
D03*
X724500Y1027535D02*
D03*
Y1021000D02*
D03*
D27*
X617000Y1341677D02*
D03*
X622000D02*
D03*
X627000D02*
D03*
X632000D02*
D03*
Y1320323D02*
D03*
X627000D02*
D03*
X622000D02*
D03*
X617000D02*
D03*
X716000Y1341354D02*
D03*
X721000D02*
D03*
X726000D02*
D03*
X731000D02*
D03*
Y1320000D02*
D03*
X726000D02*
D03*
X721000D02*
D03*
X716000D02*
D03*
X518000Y1341177D02*
D03*
X523000D02*
D03*
X528000D02*
D03*
X533000D02*
D03*
Y1319823D02*
D03*
X528000D02*
D03*
X523000D02*
D03*
X518000D02*
D03*
D112*
X804000Y654929D02*
D03*
Y638000D02*
D03*
X512000Y1220571D02*
D03*
Y1237500D02*
D03*
D113*
X803563Y1254000D02*
D03*
X811437D02*
D03*
X803500Y1244500D02*
D03*
X811374D02*
D03*
X802937Y1213500D02*
D03*
X810811D02*
D03*
X803000Y1203500D02*
D03*
X810874D02*
D03*
Y1224000D02*
D03*
X803000D02*
D03*
X811437Y1263500D02*
D03*
X803563D02*
D03*
X811374Y817000D02*
D03*
X803500D02*
D03*
X803437Y806500D02*
D03*
X811311D02*
D03*
X811937Y856500D02*
D03*
X804063D02*
D03*
X803500Y1041000D02*
D03*
X811374D02*
D03*
X803500Y796500D02*
D03*
X811374D02*
D03*
X804063Y847000D02*
D03*
X811937D02*
D03*
X804000Y837500D02*
D03*
X811874D02*
D03*
X803000Y1000000D02*
D03*
X810874D02*
D03*
X803563Y1050500D02*
D03*
X811437D02*
D03*
Y1060000D02*
D03*
X803563D02*
D03*
X802937Y1010000D02*
D03*
X810811D02*
D03*
X810874Y1020500D02*
D03*
X803000D02*
D03*
D114*
X823000Y1253756D02*
D03*
X822000Y1212756D02*
D03*
X823500Y846756D02*
D03*
X823000Y1050256D02*
D03*
X822500Y805756D02*
D03*
X822000Y1009256D02*
D03*
D115*
X823000Y1244500D02*
D03*
X822000Y1203500D02*
D03*
X823500Y837500D02*
D03*
X823000Y1041000D02*
D03*
X822500Y796500D02*
D03*
X822000Y1000000D02*
D03*
D116*
X776602Y1011000D02*
D03*
Y1016000D02*
D03*
Y1021000D02*
D03*
Y1026000D02*
D03*
Y1031000D02*
D03*
Y1036000D02*
D03*
Y1041000D02*
D03*
Y1046000D02*
D03*
X739398D02*
D03*
Y1041000D02*
D03*
Y1036000D02*
D03*
Y1031000D02*
D03*
Y1026000D02*
D03*
Y1021000D02*
D03*
Y1016000D02*
D03*
Y1011000D02*
D03*
X777102Y807500D02*
D03*
Y812500D02*
D03*
Y817500D02*
D03*
Y822500D02*
D03*
Y827500D02*
D03*
Y832500D02*
D03*
Y837500D02*
D03*
Y842500D02*
D03*
X739898D02*
D03*
Y837500D02*
D03*
Y832500D02*
D03*
Y827500D02*
D03*
Y822500D02*
D03*
Y817500D02*
D03*
Y812500D02*
D03*
Y807500D02*
D03*
X776602Y1214500D02*
D03*
Y1219500D02*
D03*
Y1224500D02*
D03*
Y1229500D02*
D03*
Y1234500D02*
D03*
Y1239500D02*
D03*
Y1244500D02*
D03*
Y1249500D02*
D03*
X739398D02*
D03*
Y1244500D02*
D03*
Y1239500D02*
D03*
Y1234500D02*
D03*
Y1229500D02*
D03*
Y1224500D02*
D03*
Y1219500D02*
D03*
Y1214500D02*
D03*
D117*
X653146Y1151000D02*
D03*
Y1128165D02*
D03*
Y741400D02*
D03*
Y718565D02*
D03*
Y943000D02*
D03*
Y920165D02*
D03*
M02*
