G04*
G04 #@! TF.GenerationSoftware,Altium Limited,Altium Designer,24.4.1 (13)*
G04*
G04 Layer_Color=32896*
%FSLAX25Y25*%
%MOIN*%
G70*
G04*
G04 #@! TF.SameCoordinates,4EE5E999-D737-4110-A4F5-E65D847AD794*
G04*
G04*
G04 #@! TF.FilePolarity,Positive*
G04*
G01*
G75*
%ADD10C,0.01000*%
%ADD11C,0.00787*%
%ADD13C,0.00500*%
%ADD14C,0.00400*%
D10*
X751903Y1360791D02*
G03*
X751903Y1360791I-177J0D01*
G01*
X772766D02*
G03*
X772766Y1360791I-177J0D01*
G01*
X574766D02*
G03*
X574766Y1360791I-177J0D01*
G01*
X673766Y1361291D02*
G03*
X673766Y1361291I-177J0D01*
G01*
X652904D02*
G03*
X652904Y1361291I-177J0D01*
G01*
X553766Y1360532D02*
G03*
X553766Y1360532I-177J0D01*
G01*
X822468Y1237028D02*
G03*
X822468Y1237028I-177J0D01*
G01*
X821469Y1196028D02*
G03*
X821469Y1196028I-177J0D01*
G01*
X822968Y830028D02*
G03*
X822968Y830028I-177J0D01*
G01*
X822468Y1033528D02*
G03*
X822468Y1033528I-177J0D01*
G01*
X821968Y789028D02*
G03*
X821968Y789028I-177J0D01*
G01*
X821469Y992528D02*
G03*
X821469Y992528I-177J0D01*
G01*
X751416Y1374658D02*
Y1369660D01*
X748917D01*
X748084Y1370493D01*
Y1373825D01*
X748917Y1374658D01*
X751416D01*
X746418Y1369660D02*
X744752D01*
X745585D01*
Y1374658D01*
X746418Y1373825D01*
X742252D02*
X741419Y1374658D01*
X739753D01*
X738920Y1373825D01*
Y1372992D01*
X739753Y1372159D01*
X740586D01*
X739753D01*
X738920Y1371326D01*
Y1370493D01*
X739753Y1369660D01*
X741419D01*
X742252Y1370493D01*
X809600Y668463D02*
X806268D01*
Y667630D01*
X809600Y664298D01*
Y663464D01*
X806268D01*
X804602D02*
X802936D01*
X803769D01*
Y668463D01*
X804602Y667630D01*
X797937Y663464D02*
Y668463D01*
X800436Y665964D01*
X797104D01*
X506400Y1207037D02*
X509732D01*
Y1207870D01*
X506400Y1211202D01*
Y1212035D01*
X509732D01*
X511398D02*
X513064D01*
X512231D01*
Y1207037D01*
X511398Y1207870D01*
X515564D02*
X516397Y1207037D01*
X518063D01*
X518896Y1207870D01*
Y1208703D01*
X518063Y1209536D01*
X517230D01*
X518063D01*
X518896Y1210369D01*
Y1211202D01*
X518063Y1212035D01*
X516397D01*
X515564Y1211202D01*
X743498Y1294663D02*
Y1297996D01*
X742665D01*
X739333Y1294663D01*
X738500D01*
Y1297996D01*
X743498Y1302994D02*
Y1299662D01*
X740999D01*
X741832Y1301328D01*
Y1302161D01*
X740999Y1302994D01*
X739333D01*
X738500Y1302161D01*
Y1300495D01*
X739333Y1299662D01*
X644498Y1295163D02*
Y1298496D01*
X643665D01*
X640333Y1295163D01*
X639500D01*
Y1298496D01*
X643665Y1300162D02*
X644498Y1300995D01*
Y1302661D01*
X643665Y1303494D01*
X642832D01*
X641999Y1302661D01*
Y1301828D01*
Y1302661D01*
X641166Y1303494D01*
X640333D01*
X639500Y1302661D01*
Y1300995D01*
X640333Y1300162D01*
X545498Y1294663D02*
Y1297996D01*
X544665D01*
X541333Y1294663D01*
X540500D01*
Y1297996D01*
Y1299662D02*
Y1301328D01*
Y1300495D01*
X545498D01*
X544665Y1299662D01*
X799831Y844501D02*
Y849499D01*
X797331D01*
X796498Y848666D01*
Y847000D01*
X797331Y846167D01*
X799831D01*
X798165D02*
X796498Y844501D01*
X794832D02*
X793166D01*
X793999D01*
Y849499D01*
X794832Y848666D01*
X790667Y844501D02*
X789001D01*
X789834D01*
Y849499D01*
X790667Y848666D01*
X786502D02*
X785669Y849499D01*
X784002D01*
X783169Y848666D01*
Y847833D01*
X784002Y847000D01*
X783169Y846167D01*
Y845334D01*
X784002Y844501D01*
X785669D01*
X786502Y845334D01*
Y846167D01*
X785669Y847000D01*
X786502Y847833D01*
Y848666D01*
X785669Y847000D02*
X784002D01*
X799831Y835001D02*
Y839999D01*
X797331D01*
X796498Y839166D01*
Y837500D01*
X797331Y836667D01*
X799831D01*
X798165D02*
X796498Y835001D01*
X794832D02*
X793166D01*
X793999D01*
Y839999D01*
X794832Y839166D01*
X790667Y835001D02*
X789001D01*
X789834D01*
Y839999D01*
X790667Y839166D01*
X786502Y839999D02*
X783169D01*
Y839166D01*
X786502Y835834D01*
Y835001D01*
X799331Y804501D02*
Y809499D01*
X796832D01*
X795998Y808666D01*
Y807000D01*
X796832Y806167D01*
X799331D01*
X797664D02*
X795998Y804501D01*
X794332D02*
X792666D01*
X793499D01*
Y809499D01*
X794332Y808666D01*
X790167Y804501D02*
X788501D01*
X789334D01*
Y809499D01*
X790167Y808666D01*
X783502Y804501D02*
Y809499D01*
X786002Y807000D01*
X782669D01*
X797498Y794001D02*
Y798999D01*
X794998D01*
X794165Y798166D01*
Y796500D01*
X794998Y795667D01*
X797498D01*
X795831D02*
X794165Y794001D01*
X792499D02*
X790833D01*
X791666D01*
Y798999D01*
X792499Y798166D01*
X788334Y794001D02*
X786668D01*
X787501D01*
Y798999D01*
X788334Y798166D01*
X784168Y794001D02*
X782502D01*
X783335D01*
Y798999D01*
X784168Y798166D01*
X799331Y1048001D02*
Y1052999D01*
X796832D01*
X795998Y1052166D01*
Y1050500D01*
X796832Y1049667D01*
X799331D01*
X797664D02*
X795998Y1048001D01*
X794332D02*
X792666D01*
X793499D01*
Y1052999D01*
X794332Y1052166D01*
X790167Y1048001D02*
X788501D01*
X789334D01*
Y1052999D01*
X790167Y1052166D01*
X786002D02*
X785169Y1052999D01*
X783502D01*
X782669Y1052166D01*
Y1048834D01*
X783502Y1048001D01*
X785169D01*
X786002Y1048834D01*
Y1052166D01*
X799747Y1038501D02*
Y1043499D01*
X797248D01*
X796415Y1042666D01*
Y1041000D01*
X797248Y1040167D01*
X799747D01*
X798081D02*
X796415Y1038501D01*
X794749D02*
X793083D01*
X793916D01*
Y1043499D01*
X794749Y1042666D01*
X790584D02*
X789750Y1043499D01*
X788084D01*
X787251Y1042666D01*
Y1039334D01*
X788084Y1038501D01*
X789750D01*
X790584Y1039334D01*
Y1042666D01*
X785585Y1039334D02*
X784752Y1038501D01*
X783086D01*
X782253Y1039334D01*
Y1042666D01*
X783086Y1043499D01*
X784752D01*
X785585Y1042666D01*
Y1041833D01*
X784752Y1041000D01*
X782253D01*
X799247Y1008501D02*
Y1013499D01*
X796748D01*
X795915Y1012666D01*
Y1011000D01*
X796748Y1010167D01*
X799247D01*
X797581D02*
X795915Y1008501D01*
X794249D02*
X792583D01*
X793416D01*
Y1013499D01*
X794249Y1012666D01*
X790084D02*
X789250Y1013499D01*
X787584D01*
X786751Y1012666D01*
Y1009334D01*
X787584Y1008501D01*
X789250D01*
X790084Y1009334D01*
Y1012666D01*
X781753Y1013499D02*
X783419Y1012666D01*
X785085Y1011000D01*
Y1009334D01*
X784252Y1008501D01*
X782586D01*
X781753Y1009334D01*
Y1010167D01*
X782586Y1011000D01*
X785085D01*
X797247Y997501D02*
Y1002499D01*
X794748D01*
X793915Y1001666D01*
Y1000000D01*
X794748Y999167D01*
X797247D01*
X795581D02*
X793915Y997501D01*
X792249D02*
X790583D01*
X791416D01*
Y1002499D01*
X792249Y1001666D01*
X788084D02*
X787250Y1002499D01*
X785584D01*
X784751Y1001666D01*
Y998334D01*
X785584Y997501D01*
X787250D01*
X788084Y998334D01*
Y1001666D01*
X783085D02*
X782252Y1002499D01*
X780586D01*
X779753Y1001666D01*
Y1000833D01*
X780586Y1000000D01*
X781419D01*
X780586D01*
X779753Y999167D01*
Y998334D01*
X780586Y997501D01*
X782252D01*
X783085Y998334D01*
X799247Y1251501D02*
Y1256499D01*
X796748D01*
X795915Y1255666D01*
Y1254000D01*
X796748Y1253167D01*
X799247D01*
X797581D02*
X795915Y1251501D01*
X794249D02*
X792583D01*
X793416D01*
Y1256499D01*
X794249Y1255666D01*
X790084D02*
X789250Y1256499D01*
X787584D01*
X786751Y1255666D01*
Y1252334D01*
X787584Y1251501D01*
X789250D01*
X790084Y1252334D01*
Y1255666D01*
X781753Y1251501D02*
X785085D01*
X781753Y1254833D01*
Y1255666D01*
X782586Y1256499D01*
X784252D01*
X785085Y1255666D01*
X799414Y1242001D02*
Y1246999D01*
X796915D01*
X796082Y1246166D01*
Y1244500D01*
X796915Y1243667D01*
X799414D01*
X797748D02*
X796082Y1242001D01*
X794416D02*
X792750D01*
X793583D01*
Y1246999D01*
X794416Y1246166D01*
X790250D02*
X789417Y1246999D01*
X787751D01*
X786918Y1246166D01*
Y1242834D01*
X787751Y1242001D01*
X789417D01*
X790250Y1242834D01*
Y1246166D01*
X785252Y1242001D02*
X783586D01*
X784419D01*
Y1246999D01*
X785252Y1246166D01*
X797164Y1211501D02*
Y1216499D01*
X794665D01*
X793832Y1215666D01*
Y1214000D01*
X794665Y1213167D01*
X797164D01*
X795498D02*
X793832Y1211501D01*
X792166Y1212334D02*
X791333Y1211501D01*
X789667D01*
X788834Y1212334D01*
Y1215666D01*
X789667Y1216499D01*
X791333D01*
X792166Y1215666D01*
Y1214833D01*
X791333Y1214000D01*
X788834D01*
X787168Y1215666D02*
X786335Y1216499D01*
X784669D01*
X783836Y1215666D01*
Y1214833D01*
X784669Y1214000D01*
X783836Y1213167D01*
Y1212334D01*
X784669Y1211501D01*
X786335D01*
X787168Y1212334D01*
Y1213167D01*
X786335Y1214000D01*
X787168Y1214833D01*
Y1215666D01*
X786335Y1214000D02*
X784669D01*
X646992Y711383D02*
Y706384D01*
X649491D01*
X650324Y707217D01*
Y708883D01*
X649491Y709717D01*
X646992D01*
X648658D02*
X650324Y711383D01*
X651990Y710550D02*
X652823Y711383D01*
X654490D01*
X655323Y710550D01*
Y707217D01*
X654490Y706384D01*
X652823D01*
X651990Y707217D01*
Y708050D01*
X652823Y708883D01*
X655323D01*
X656989Y706384D02*
X660321D01*
Y707217D01*
X656989Y710550D01*
Y711383D01*
X646992Y913000D02*
Y908002D01*
X649491D01*
X650324Y908835D01*
Y910501D01*
X649491Y911334D01*
X646992D01*
X648658D02*
X650324Y913000D01*
X651990Y912167D02*
X652823Y913000D01*
X654490D01*
X655323Y912167D01*
Y908835D01*
X654490Y908002D01*
X652823D01*
X651990Y908835D01*
Y909668D01*
X652823Y910501D01*
X655323D01*
X660321Y908002D02*
X658655Y908835D01*
X656989Y910501D01*
Y912167D01*
X657822Y913000D01*
X659488D01*
X660321Y912167D01*
Y911334D01*
X659488Y910501D01*
X656989D01*
X797164Y1201001D02*
Y1205999D01*
X794665D01*
X793832Y1205166D01*
Y1203500D01*
X794665Y1202667D01*
X797164D01*
X795498D02*
X793832Y1201001D01*
X792166Y1201834D02*
X791333Y1201001D01*
X789667D01*
X788834Y1201834D01*
Y1205166D01*
X789667Y1205999D01*
X791333D01*
X792166Y1205166D01*
Y1204333D01*
X791333Y1203500D01*
X788834D01*
X783836Y1205999D02*
X787168D01*
Y1203500D01*
X785502Y1204333D01*
X784669D01*
X783836Y1203500D01*
Y1201834D01*
X784669Y1201001D01*
X786335D01*
X787168Y1201834D01*
X646992Y1120983D02*
Y1115984D01*
X649491D01*
X650324Y1116817D01*
Y1118484D01*
X649491Y1119316D01*
X646992D01*
X648658D02*
X650324Y1120983D01*
X651990Y1120150D02*
X652823Y1120983D01*
X654490D01*
X655323Y1120150D01*
Y1116817D01*
X654490Y1115984D01*
X652823D01*
X651990Y1116817D01*
Y1117650D01*
X652823Y1118484D01*
X655323D01*
X659488Y1120983D02*
Y1115984D01*
X656989Y1118484D01*
X660321D01*
X789600Y657700D02*
Y662698D01*
X787101D01*
X786268Y661865D01*
Y660199D01*
X787101Y659366D01*
X789600D01*
X787934D02*
X786268Y657700D01*
X784602Y658533D02*
X783769Y657700D01*
X782102D01*
X781269Y658533D01*
Y661865D01*
X782102Y662698D01*
X783769D01*
X784602Y661865D01*
Y661032D01*
X783769Y660199D01*
X781269D01*
X779603Y657700D02*
X777937D01*
X778770D01*
Y662698D01*
X779603Y661865D01*
X523800Y1217800D02*
Y1212802D01*
X526299D01*
X527132Y1213635D01*
Y1215301D01*
X526299Y1216134D01*
X523800D01*
X525466D02*
X527132Y1217800D01*
X528798Y1216967D02*
X529631Y1217800D01*
X531298D01*
X532131Y1216967D01*
Y1213635D01*
X531298Y1212802D01*
X529631D01*
X528798Y1213635D01*
Y1214468D01*
X529631Y1215301D01*
X532131D01*
X533797Y1213635D02*
X534630Y1212802D01*
X536296D01*
X537129Y1213635D01*
Y1216967D01*
X536296Y1217800D01*
X534630D01*
X533797Y1216967D01*
Y1213635D01*
X701000Y1315300D02*
Y1310302D01*
X703499D01*
X704332Y1311135D01*
Y1312801D01*
X703499Y1313634D01*
X701000D01*
X702666D02*
X704332Y1315300D01*
X708498D02*
Y1310302D01*
X705998Y1312801D01*
X709331D01*
X710997Y1311135D02*
X711830Y1310302D01*
X713496D01*
X714329Y1311135D01*
Y1311968D01*
X713496Y1312801D01*
X714329Y1313634D01*
Y1314467D01*
X713496Y1315300D01*
X711830D01*
X710997Y1314467D01*
Y1313634D01*
X711830Y1312801D01*
X710997Y1311968D01*
Y1311135D01*
X711830Y1312801D02*
X713496D01*
X755000Y1290800D02*
Y1285802D01*
X757499D01*
X758332Y1286635D01*
Y1288301D01*
X757499Y1289134D01*
X755000D01*
X756666D02*
X758332Y1290800D01*
X762498D02*
Y1285802D01*
X759998Y1288301D01*
X763331D01*
X768329Y1285802D02*
X766663Y1286635D01*
X764997Y1288301D01*
Y1289967D01*
X765830Y1290800D01*
X767496D01*
X768329Y1289967D01*
Y1289134D01*
X767496Y1288301D01*
X764997D01*
X754900Y1322300D02*
Y1317302D01*
X757399D01*
X758232Y1318135D01*
Y1319801D01*
X757399Y1320634D01*
X754900D01*
X756566D02*
X758232Y1322300D01*
X762398D02*
Y1317302D01*
X759898Y1319801D01*
X763231D01*
X768229Y1317302D02*
X764897D01*
Y1319801D01*
X766563Y1318968D01*
X767396D01*
X768229Y1319801D01*
Y1321467D01*
X767396Y1322300D01*
X765730D01*
X764897Y1321467D01*
X737500Y1322300D02*
Y1317302D01*
X739999D01*
X740832Y1318135D01*
Y1319801D01*
X739999Y1320634D01*
X737500D01*
X739166D02*
X740832Y1322300D01*
X744998D02*
Y1317302D01*
X742498Y1319801D01*
X745831D01*
X747497Y1318135D02*
X748330Y1317302D01*
X749996D01*
X750829Y1318135D01*
Y1318968D01*
X749996Y1319801D01*
X749163D01*
X749996D01*
X750829Y1320634D01*
Y1321467D01*
X749996Y1322300D01*
X748330D01*
X747497Y1321467D01*
X733200Y1356800D02*
X738198D01*
Y1359299D01*
X737365Y1360132D01*
X735699D01*
X734866Y1359299D01*
Y1356800D01*
Y1358466D02*
X733200Y1360132D01*
Y1364298D02*
X738198D01*
X735699Y1361798D01*
Y1365131D01*
X733200Y1370129D02*
Y1366797D01*
X736532Y1370129D01*
X737365D01*
X738198Y1369296D01*
Y1367630D01*
X737365Y1366797D01*
X737500Y1290800D02*
Y1285802D01*
X739999D01*
X740832Y1286635D01*
Y1288301D01*
X739999Y1289134D01*
X737500D01*
X739166D02*
X740832Y1290800D01*
X744998D02*
Y1285802D01*
X742498Y1288301D01*
X745831D01*
X747497Y1286635D02*
X748330Y1285802D01*
X749996D01*
X750829Y1286635D01*
Y1289967D01*
X749996Y1290800D01*
X748330D01*
X747497Y1289967D01*
Y1286635D01*
X684000Y1315300D02*
Y1310302D01*
X686499D01*
X687332Y1311135D01*
Y1312801D01*
X686499Y1313634D01*
X684000D01*
X685666D02*
X687332Y1315300D01*
X688998Y1311135D02*
X689831Y1310302D01*
X691498D01*
X692331Y1311135D01*
Y1311968D01*
X691498Y1312801D01*
X690664D01*
X691498D01*
X692331Y1313634D01*
Y1314467D01*
X691498Y1315300D01*
X689831D01*
X688998Y1314467D01*
X693997D02*
X694830Y1315300D01*
X696496D01*
X697329Y1314467D01*
Y1311135D01*
X696496Y1310302D01*
X694830D01*
X693997Y1311135D01*
Y1311968D01*
X694830Y1312801D01*
X697329D01*
X707200Y1356900D02*
X712198D01*
Y1359399D01*
X711365Y1360232D01*
X709699D01*
X708866Y1359399D01*
Y1356900D01*
Y1358566D02*
X707200Y1360232D01*
X711365Y1361898D02*
X712198Y1362731D01*
Y1364398D01*
X711365Y1365231D01*
X710532D01*
X709699Y1364398D01*
Y1363564D01*
Y1364398D01*
X708866Y1365231D01*
X708033D01*
X707200Y1364398D01*
Y1362731D01*
X708033Y1361898D01*
X711365Y1366897D02*
X712198Y1367730D01*
Y1369396D01*
X711365Y1370229D01*
X710532D01*
X709699Y1369396D01*
X708866Y1370229D01*
X708033D01*
X707200Y1369396D01*
Y1367730D01*
X708033Y1366897D01*
X708866D01*
X709699Y1367730D01*
X710532Y1366897D01*
X711365D01*
X709699Y1367730D02*
Y1369396D01*
X602000Y1315800D02*
Y1310802D01*
X604499D01*
X605332Y1311635D01*
Y1313301D01*
X604499Y1314134D01*
X602000D01*
X603666D02*
X605332Y1315800D01*
X606998Y1311635D02*
X607831Y1310802D01*
X609498D01*
X610331Y1311635D01*
Y1312468D01*
X609498Y1313301D01*
X608665D01*
X609498D01*
X610331Y1314134D01*
Y1314967D01*
X609498Y1315800D01*
X607831D01*
X606998Y1314967D01*
X611997Y1310802D02*
X615329D01*
Y1311635D01*
X611997Y1314967D01*
Y1315800D01*
X656000Y1291300D02*
Y1286302D01*
X658499D01*
X659332Y1287135D01*
Y1288801D01*
X658499Y1289634D01*
X656000D01*
X657666D02*
X659332Y1291300D01*
X660998Y1287135D02*
X661831Y1286302D01*
X663498D01*
X664331Y1287135D01*
Y1287968D01*
X663498Y1288801D01*
X662665D01*
X663498D01*
X664331Y1289634D01*
Y1290467D01*
X663498Y1291300D01*
X661831D01*
X660998Y1290467D01*
X669329Y1286302D02*
X665997D01*
Y1288801D01*
X667663Y1287968D01*
X668496D01*
X669329Y1288801D01*
Y1290467D01*
X668496Y1291300D01*
X666830D01*
X665997Y1290467D01*
X662000Y1349200D02*
Y1354198D01*
X659501D01*
X658668Y1353365D01*
Y1351699D01*
X659501Y1350866D01*
X662000D01*
X660334D02*
X658668Y1349200D01*
X657002Y1353365D02*
X656169Y1354198D01*
X654502D01*
X653669Y1353365D01*
Y1352532D01*
X654502Y1351699D01*
X655336D01*
X654502D01*
X653669Y1350866D01*
Y1350033D01*
X654502Y1349200D01*
X656169D01*
X657002Y1350033D01*
X649504Y1349200D02*
Y1354198D01*
X652003Y1351699D01*
X648671D01*
X638500Y1322800D02*
Y1317802D01*
X640999D01*
X641832Y1318635D01*
Y1320301D01*
X640999Y1321134D01*
X638500D01*
X640166D02*
X641832Y1322800D01*
X643498Y1318635D02*
X644331Y1317802D01*
X645998D01*
X646831Y1318635D01*
Y1319468D01*
X645998Y1320301D01*
X645164D01*
X645998D01*
X646831Y1321134D01*
Y1321967D01*
X645998Y1322800D01*
X644331D01*
X643498Y1321967D01*
X651829Y1322800D02*
X648497D01*
X651829Y1319468D01*
Y1318635D01*
X650996Y1317802D01*
X649330D01*
X648497Y1318635D01*
X624831Y1367501D02*
Y1372499D01*
X622332D01*
X621499Y1371666D01*
Y1370000D01*
X622332Y1369167D01*
X624831D01*
X623165D02*
X621499Y1367501D01*
X619833Y1371666D02*
X619000Y1372499D01*
X617334D01*
X616501Y1371666D01*
Y1370833D01*
X617334Y1370000D01*
X618167D01*
X617334D01*
X616501Y1369167D01*
Y1368334D01*
X617334Y1367501D01*
X619000D01*
X619833Y1368334D01*
X614835Y1367501D02*
X613168D01*
X614002D01*
Y1372499D01*
X614835Y1371666D01*
X638400Y1291300D02*
Y1286302D01*
X640899D01*
X641732Y1287135D01*
Y1288801D01*
X640899Y1289634D01*
X638400D01*
X640066D02*
X641732Y1291300D01*
X646731D02*
X643398D01*
X646731Y1287968D01*
Y1287135D01*
X645898Y1286302D01*
X644231D01*
X643398Y1287135D01*
X648397Y1290467D02*
X649230Y1291300D01*
X650896D01*
X651729Y1290467D01*
Y1287135D01*
X650896Y1286302D01*
X649230D01*
X648397Y1287135D01*
Y1287968D01*
X649230Y1288801D01*
X651729D01*
X584900Y1315800D02*
Y1310802D01*
X587399D01*
X588232Y1311635D01*
Y1313301D01*
X587399Y1314134D01*
X584900D01*
X586566D02*
X588232Y1315800D01*
X593231D02*
X589898D01*
X593231Y1312468D01*
Y1311635D01*
X592398Y1310802D01*
X590731D01*
X589898Y1311635D01*
X594897D02*
X595730Y1310802D01*
X597396D01*
X598229Y1311635D01*
Y1312468D01*
X597396Y1313301D01*
X598229Y1314134D01*
Y1314967D01*
X597396Y1315800D01*
X595730D01*
X594897Y1314967D01*
Y1314134D01*
X595730Y1313301D01*
X594897Y1312468D01*
Y1311635D01*
X595730Y1313301D02*
X597396D01*
X599664Y1367501D02*
Y1372499D01*
X597165D01*
X596332Y1371666D01*
Y1370000D01*
X597165Y1369167D01*
X599664D01*
X597998D02*
X596332Y1367501D01*
X591334D02*
X594666D01*
X591334Y1370833D01*
Y1371666D01*
X592167Y1372499D01*
X593833D01*
X594666Y1371666D01*
X589668Y1372499D02*
X586336D01*
Y1371666D01*
X589668Y1368334D01*
Y1367501D01*
X502900Y1315300D02*
Y1310302D01*
X505399D01*
X506232Y1311135D01*
Y1312801D01*
X505399Y1313634D01*
X502900D01*
X504566D02*
X506232Y1315300D01*
X511231D02*
X507898D01*
X511231Y1311968D01*
Y1311135D01*
X510398Y1310302D01*
X508731D01*
X507898Y1311135D01*
X516229Y1310302D02*
X514563Y1311135D01*
X512897Y1312801D01*
Y1314467D01*
X513730Y1315300D01*
X515396D01*
X516229Y1314467D01*
Y1313634D01*
X515396Y1312801D01*
X512897D01*
X557000Y1290800D02*
Y1285802D01*
X559499D01*
X560332Y1286635D01*
Y1288301D01*
X559499Y1289134D01*
X557000D01*
X558666D02*
X560332Y1290800D01*
X565331D02*
X561998D01*
X565331Y1287468D01*
Y1286635D01*
X564498Y1285802D01*
X562831D01*
X561998Y1286635D01*
X569496Y1290800D02*
Y1285802D01*
X566997Y1288301D01*
X570329D01*
X556900Y1322300D02*
Y1317302D01*
X559399D01*
X560232Y1318135D01*
Y1319801D01*
X559399Y1320634D01*
X556900D01*
X558566D02*
X560232Y1322300D01*
X565231D02*
X561898D01*
X565231Y1318968D01*
Y1318135D01*
X564398Y1317302D01*
X562731D01*
X561898Y1318135D01*
X566897D02*
X567730Y1317302D01*
X569396D01*
X570229Y1318135D01*
Y1318968D01*
X569396Y1319801D01*
X568563D01*
X569396D01*
X570229Y1320634D01*
Y1321467D01*
X569396Y1322300D01*
X567730D01*
X566897Y1321467D01*
X539500Y1322300D02*
Y1317302D01*
X541999D01*
X542832Y1318135D01*
Y1319801D01*
X541999Y1320634D01*
X539500D01*
X541166D02*
X542832Y1322300D01*
X547831D02*
X544498D01*
X547831Y1318968D01*
Y1318135D01*
X546998Y1317302D01*
X545331D01*
X544498Y1318135D01*
X549497Y1322300D02*
X551163D01*
X550330D01*
Y1317302D01*
X549497Y1318135D01*
X535200Y1356800D02*
X540198D01*
Y1359299D01*
X539365Y1360132D01*
X537699D01*
X536866Y1359299D01*
Y1356800D01*
Y1358466D02*
X535200Y1360132D01*
Y1365131D02*
Y1361798D01*
X538532Y1365131D01*
X539365D01*
X540198Y1364298D01*
Y1362631D01*
X539365Y1361798D01*
Y1366797D02*
X540198Y1367630D01*
Y1369296D01*
X539365Y1370129D01*
X536033D01*
X535200Y1369296D01*
Y1367630D01*
X536033Y1366797D01*
X539365D01*
X539400Y1290800D02*
Y1285802D01*
X541899D01*
X542732Y1286635D01*
Y1288301D01*
X541899Y1289134D01*
X539400D01*
X541066D02*
X542732Y1290800D01*
X544398D02*
X546065D01*
X545231D01*
Y1285802D01*
X544398Y1286635D01*
X548564D02*
X549397Y1285802D01*
X551063D01*
X551896Y1286635D01*
Y1287468D01*
X551063Y1288301D01*
X551896Y1289134D01*
Y1289967D01*
X551063Y1290800D01*
X549397D01*
X548564Y1289967D01*
Y1289134D01*
X549397Y1288301D01*
X548564Y1287468D01*
Y1286635D01*
X549397Y1288301D02*
X551063D01*
X485900Y1315300D02*
Y1310302D01*
X488399D01*
X489232Y1311135D01*
Y1312801D01*
X488399Y1313634D01*
X485900D01*
X487566D02*
X489232Y1315300D01*
X490898D02*
X492564D01*
X491731D01*
Y1310302D01*
X490898Y1311135D01*
X495064Y1310302D02*
X498396D01*
Y1311135D01*
X495064Y1314467D01*
Y1315300D01*
X509200Y1356900D02*
X514198D01*
Y1359399D01*
X513365Y1360232D01*
X511699D01*
X510866Y1359399D01*
Y1356900D01*
Y1358566D02*
X509200Y1360232D01*
Y1361898D02*
Y1363564D01*
Y1362731D01*
X514198D01*
X513365Y1361898D01*
X514198Y1369396D02*
X513365Y1367730D01*
X511699Y1366064D01*
X510033D01*
X509200Y1366897D01*
Y1368563D01*
X510033Y1369396D01*
X510866D01*
X511699Y1368563D01*
Y1366064D01*
X829248Y857501D02*
Y862499D01*
X826749D01*
X825916Y861666D01*
Y860000D01*
X826749Y859167D01*
X829248D01*
X827582D02*
X825916Y857501D01*
X824250D02*
X822583D01*
X823417D01*
Y862499D01*
X824250Y861666D01*
X816752Y862499D02*
X820084D01*
Y860000D01*
X818418Y860833D01*
X817585D01*
X816752Y860000D01*
Y858334D01*
X817585Y857501D01*
X819251D01*
X820084Y858334D01*
X719748Y834001D02*
Y838999D01*
X717249D01*
X716416Y838166D01*
Y836500D01*
X717249Y835667D01*
X719748D01*
X718082D02*
X716416Y834001D01*
X714750D02*
X713084D01*
X713916D01*
Y838999D01*
X714750Y838166D01*
X708085Y834001D02*
Y838999D01*
X710584Y836500D01*
X707252D01*
X706748Y824001D02*
Y828999D01*
X704249D01*
X703416Y828166D01*
Y826500D01*
X704249Y825667D01*
X706748D01*
X705082D02*
X703416Y824001D01*
X701750D02*
X700083D01*
X700916D01*
Y828999D01*
X701750Y828166D01*
X697584D02*
X696751Y828999D01*
X695085D01*
X694252Y828166D01*
Y827333D01*
X695085Y826500D01*
X695918D01*
X695085D01*
X694252Y825667D01*
Y824834D01*
X695085Y824001D01*
X696751D01*
X697584Y824834D01*
X731748Y805501D02*
Y810499D01*
X729249D01*
X728416Y809666D01*
Y808000D01*
X729249Y807167D01*
X731748D01*
X730082D02*
X728416Y805501D01*
X726750D02*
X725083D01*
X725916D01*
Y810499D01*
X726750Y809666D01*
X719252Y805501D02*
X722584D01*
X719252Y808833D01*
Y809666D01*
X720085Y810499D01*
X721751D01*
X722584Y809666D01*
X813437Y824200D02*
Y829198D01*
X810938D01*
X810105Y828365D01*
Y826699D01*
X810938Y825866D01*
X813437D01*
X811771D02*
X810105Y824200D01*
X808439D02*
X806773D01*
X807605D01*
Y829198D01*
X808439Y828365D01*
X804273Y824200D02*
X802607D01*
X803440D01*
Y829198D01*
X804273Y828365D01*
X828748Y1061501D02*
Y1066499D01*
X826249D01*
X825416Y1065666D01*
Y1064000D01*
X826249Y1063167D01*
X828748D01*
X827082D02*
X825416Y1061501D01*
X823750D02*
X822083D01*
X822917D01*
Y1066499D01*
X823750Y1065666D01*
X819584D02*
X818751Y1066499D01*
X817085D01*
X816252Y1065666D01*
Y1062334D01*
X817085Y1061501D01*
X818751D01*
X819584Y1062334D01*
Y1065666D01*
X719165Y1037501D02*
Y1042499D01*
X716666D01*
X715833Y1041666D01*
Y1040000D01*
X716666Y1039167D01*
X719165D01*
X717499D02*
X715833Y1037501D01*
X714167Y1038334D02*
X713334Y1037501D01*
X711668D01*
X710835Y1038334D01*
Y1041666D01*
X711668Y1042499D01*
X713334D01*
X714167Y1041666D01*
Y1040833D01*
X713334Y1040000D01*
X710835D01*
X706665Y1027501D02*
Y1032499D01*
X704166D01*
X703333Y1031666D01*
Y1030000D01*
X704166Y1029167D01*
X706665D01*
X704999D02*
X703333Y1027501D01*
X701667Y1031666D02*
X700834Y1032499D01*
X699168D01*
X698335Y1031666D01*
Y1030833D01*
X699168Y1030000D01*
X698335Y1029167D01*
Y1028334D01*
X699168Y1027501D01*
X700834D01*
X701667Y1028334D01*
Y1029167D01*
X700834Y1030000D01*
X701667Y1030833D01*
Y1031666D01*
X700834Y1030000D02*
X699168D01*
X728165Y1008001D02*
Y1012999D01*
X725666D01*
X724833Y1012166D01*
Y1010500D01*
X725666Y1009667D01*
X728165D01*
X726499D02*
X724833Y1008001D01*
X723167Y1012999D02*
X719835D01*
Y1012166D01*
X723167Y1008834D01*
Y1008001D01*
X812937Y1027700D02*
Y1032698D01*
X810438D01*
X809605Y1031865D01*
Y1030199D01*
X810438Y1029366D01*
X812937D01*
X811271D02*
X809605Y1027700D01*
X804606Y1032698D02*
X806273Y1031865D01*
X807939Y1030199D01*
Y1028533D01*
X807106Y1027700D01*
X805439D01*
X804606Y1028533D01*
Y1029366D01*
X805439Y1030199D01*
X807939D01*
X824665Y1264501D02*
Y1269499D01*
X822166D01*
X821333Y1268666D01*
Y1267000D01*
X822166Y1266167D01*
X824665D01*
X822999D02*
X821333Y1264501D01*
X816335Y1269499D02*
X819667D01*
Y1267000D01*
X818001Y1267833D01*
X817168D01*
X816335Y1267000D01*
Y1265334D01*
X817168Y1264501D01*
X818834D01*
X819667Y1265334D01*
X719165Y1241001D02*
Y1245999D01*
X716666D01*
X715833Y1245166D01*
Y1243500D01*
X716666Y1242667D01*
X719165D01*
X717499D02*
X715833Y1241001D01*
X711668D02*
Y1245999D01*
X714167Y1243500D01*
X710835D01*
X706165Y1231001D02*
Y1235999D01*
X703666D01*
X702833Y1235166D01*
Y1233500D01*
X703666Y1232667D01*
X706165D01*
X704499D02*
X702833Y1231001D01*
X701167Y1235166D02*
X700334Y1235999D01*
X698668D01*
X697835Y1235166D01*
Y1234333D01*
X698668Y1233500D01*
X699501D01*
X698668D01*
X697835Y1232667D01*
Y1231834D01*
X698668Y1231001D01*
X700334D01*
X701167Y1231834D01*
X727665Y1212001D02*
Y1216999D01*
X725166D01*
X724333Y1216166D01*
Y1214500D01*
X725166Y1213667D01*
X727665D01*
X725999D02*
X724333Y1212001D01*
X719335D02*
X722667D01*
X719335Y1215333D01*
Y1216166D01*
X720168Y1216999D01*
X721834D01*
X722667Y1216166D01*
X813332Y1230001D02*
Y1234999D01*
X810833D01*
X810000Y1234166D01*
Y1232500D01*
X810833Y1231667D01*
X813332D01*
X811666D02*
X810000Y1230001D01*
X808334D02*
X806668D01*
X807501D01*
Y1234999D01*
X808334Y1234166D01*
X704602Y1344477D02*
Y1342811D01*
Y1343644D01*
X709600D01*
Y1344477D01*
Y1342811D01*
X705435Y1336980D02*
X704602Y1337813D01*
Y1339479D01*
X705435Y1340312D01*
X708767D01*
X709600Y1339479D01*
Y1337813D01*
X708767Y1336980D01*
X704602Y1331981D02*
X705435Y1333647D01*
X707101Y1335314D01*
X708767D01*
X709600Y1334480D01*
Y1332814D01*
X708767Y1331981D01*
X707934D01*
X707101Y1332814D01*
Y1335314D01*
X605602Y1344800D02*
Y1343134D01*
Y1343967D01*
X610600D01*
Y1344800D01*
Y1343134D01*
X606435Y1337302D02*
X605602Y1338136D01*
Y1339802D01*
X606435Y1340635D01*
X609767D01*
X610600Y1339802D01*
Y1338136D01*
X609767Y1337302D01*
X605602Y1332304D02*
Y1335636D01*
X608101D01*
X607268Y1333970D01*
Y1333137D01*
X608101Y1332304D01*
X609767D01*
X610600Y1333137D01*
Y1334803D01*
X609767Y1335636D01*
X506602Y1344300D02*
Y1342634D01*
Y1343467D01*
X511600D01*
Y1344300D01*
Y1342634D01*
X507435Y1336802D02*
X506602Y1337636D01*
Y1339302D01*
X507435Y1340135D01*
X510767D01*
X511600Y1339302D01*
Y1337636D01*
X510767Y1336802D01*
X511600Y1332637D02*
X506602D01*
X509101Y1335136D01*
Y1331804D01*
X736000Y795202D02*
X737666D01*
X736833D01*
Y800200D01*
X736000D01*
X737666D01*
X743498Y796035D02*
X742664Y795202D01*
X740998D01*
X740165Y796035D01*
Y799367D01*
X740998Y800200D01*
X742664D01*
X743498Y799367D01*
X745164Y796035D02*
X745997Y795202D01*
X747663D01*
X748496Y796035D01*
Y796868D01*
X747663Y797701D01*
X746830D01*
X747663D01*
X748496Y798534D01*
Y799367D01*
X747663Y800200D01*
X745997D01*
X745164Y799367D01*
X735500Y998702D02*
X737166D01*
X736333D01*
Y1003700D01*
X735500D01*
X737166D01*
X742998Y999535D02*
X742165Y998702D01*
X740498D01*
X739665Y999535D01*
Y1002867D01*
X740498Y1003700D01*
X742165D01*
X742998Y1002867D01*
X747996Y1003700D02*
X744664D01*
X747996Y1000368D01*
Y999535D01*
X747163Y998702D01*
X745497D01*
X744664Y999535D01*
X735500Y1202202D02*
X737166D01*
X736333D01*
Y1207200D01*
X735500D01*
X737166D01*
X742998Y1203035D02*
X742165Y1202202D01*
X740498D01*
X739665Y1203035D01*
Y1206367D01*
X740498Y1207200D01*
X742165D01*
X742998Y1206367D01*
X744664Y1207200D02*
X746330D01*
X745497D01*
Y1202202D01*
X744664Y1203035D01*
X772278Y1374658D02*
Y1369660D01*
X769779D01*
X768946Y1370493D01*
Y1373825D01*
X769779Y1374658D01*
X772278D01*
X767280Y1369660D02*
X765614D01*
X766447D01*
Y1374658D01*
X767280Y1373825D01*
X760615Y1369660D02*
Y1374658D01*
X763115Y1372159D01*
X759782D01*
X673278Y1375158D02*
Y1370160D01*
X670779D01*
X669946Y1370993D01*
Y1374325D01*
X670779Y1375158D01*
X673278D01*
X668280Y1370160D02*
X666614D01*
X667447D01*
Y1375158D01*
X668280Y1374325D01*
X664115Y1370160D02*
X662449D01*
X663282D01*
Y1375158D01*
X664115Y1374325D01*
X652416Y1375158D02*
Y1370160D01*
X649917D01*
X649084Y1370993D01*
Y1374325D01*
X649917Y1375158D01*
X652416D01*
X647418Y1370160D02*
X645752D01*
X646585D01*
Y1375158D01*
X647418Y1374325D01*
X643252D02*
X642419Y1375158D01*
X640753D01*
X639920Y1374325D01*
Y1370993D01*
X640753Y1370160D01*
X642419D01*
X643252Y1370993D01*
Y1374325D01*
X574278Y1374658D02*
Y1369660D01*
X571779D01*
X570946Y1370493D01*
Y1373825D01*
X571779Y1374658D01*
X574278D01*
X569280Y1373825D02*
X568447Y1374658D01*
X566781D01*
X565948Y1373825D01*
Y1372992D01*
X566781Y1372159D01*
X565948Y1371326D01*
Y1370493D01*
X566781Y1369660D01*
X568447D01*
X569280Y1370493D01*
Y1371326D01*
X568447Y1372159D01*
X569280Y1372992D01*
Y1373825D01*
X568447Y1372159D02*
X566781D01*
X553278Y1374398D02*
Y1369400D01*
X550779D01*
X549946Y1370233D01*
Y1373565D01*
X550779Y1374398D01*
X553278D01*
X548280D02*
X544948D01*
Y1373565D01*
X548280Y1370233D01*
Y1369400D01*
X828165Y854999D02*
Y850001D01*
X825666D01*
X824833Y850834D01*
Y854166D01*
X825666Y854999D01*
X828165D01*
X819835D02*
X821501Y854166D01*
X823167Y852500D01*
Y850834D01*
X822334Y850001D01*
X820668D01*
X819835Y850834D01*
Y851667D01*
X820668Y852500D01*
X823167D01*
X827665Y813999D02*
Y809001D01*
X825166D01*
X824333Y809834D01*
Y813166D01*
X825166Y813999D01*
X827665D01*
X819335D02*
X822667D01*
Y811500D01*
X821001Y812333D01*
X820168D01*
X819335Y811500D01*
Y809834D01*
X820168Y809001D01*
X821834D01*
X822667Y809834D01*
X827665Y1058499D02*
Y1053501D01*
X825166D01*
X824333Y1054334D01*
Y1057666D01*
X825166Y1058499D01*
X827665D01*
X820168Y1053501D02*
Y1058499D01*
X822667Y1056000D01*
X819335D01*
X827665Y1017499D02*
Y1012501D01*
X825166D01*
X824333Y1013334D01*
Y1016666D01*
X825166Y1017499D01*
X827665D01*
X822667Y1016666D02*
X821834Y1017499D01*
X820168D01*
X819335Y1016666D01*
Y1015833D01*
X820168Y1015000D01*
X821001D01*
X820168D01*
X819335Y1014167D01*
Y1013334D01*
X820168Y1012501D01*
X821834D01*
X822667Y1013334D01*
X827665Y1261999D02*
Y1257001D01*
X825166D01*
X824333Y1257834D01*
Y1261166D01*
X825166Y1261999D01*
X827665D01*
X819335Y1257001D02*
X822667D01*
X819335Y1260333D01*
Y1261166D01*
X820168Y1261999D01*
X821834D01*
X822667Y1261166D01*
X824832Y1220999D02*
Y1216001D01*
X822333D01*
X821500Y1216834D01*
Y1220166D01*
X822333Y1220999D01*
X824832D01*
X819834Y1216001D02*
X818168D01*
X819001D01*
Y1220999D01*
X819834Y1220166D01*
X778916Y858666D02*
X779749Y859499D01*
X781415D01*
X782248Y858666D01*
Y855334D01*
X781415Y854501D01*
X779749D01*
X778916Y855334D01*
X777250Y854501D02*
X775584D01*
X776416D01*
Y859499D01*
X777250Y858666D01*
X769752Y854501D02*
X773084D01*
X769752Y857833D01*
Y858666D01*
X770585Y859499D01*
X772251D01*
X773084Y858666D01*
X716083Y828666D02*
X716916Y829499D01*
X718582D01*
X719415Y828666D01*
Y825334D01*
X718582Y824501D01*
X716916D01*
X716083Y825334D01*
X714417Y824501D02*
X712750D01*
X713584D01*
Y829499D01*
X714417Y828666D01*
X710251Y824501D02*
X708585D01*
X709418D01*
Y829499D01*
X710251Y828666D01*
X703416Y838666D02*
X704249Y839499D01*
X705915D01*
X706748Y838666D01*
Y835334D01*
X705915Y834501D01*
X704249D01*
X703416Y835334D01*
X701750Y834501D02*
X700083D01*
X700916D01*
Y839499D01*
X701750Y838666D01*
X697584D02*
X696751Y839499D01*
X695085D01*
X694252Y838666D01*
Y835334D01*
X695085Y834501D01*
X696751D01*
X697584Y835334D01*
Y838666D01*
X794833Y827166D02*
X795666Y827999D01*
X797332D01*
X798165Y827166D01*
Y823834D01*
X797332Y823001D01*
X795666D01*
X794833Y823834D01*
X793167D02*
X792334Y823001D01*
X790668D01*
X789835Y823834D01*
Y827166D01*
X790668Y827999D01*
X792334D01*
X793167Y827166D01*
Y826333D01*
X792334Y825500D01*
X789835D01*
X777833Y1062166D02*
X778666Y1062999D01*
X780332D01*
X781165Y1062166D01*
Y1058834D01*
X780332Y1058001D01*
X778666D01*
X777833Y1058834D01*
X776167Y1062166D02*
X775334Y1062999D01*
X773668D01*
X772835Y1062166D01*
Y1061333D01*
X773668Y1060500D01*
X772835Y1059667D01*
Y1058834D01*
X773668Y1058001D01*
X775334D01*
X776167Y1058834D01*
Y1059667D01*
X775334Y1060500D01*
X776167Y1061333D01*
Y1062166D01*
X775334Y1060500D02*
X773668D01*
X715333Y1032166D02*
X716166Y1032999D01*
X717832D01*
X718665Y1032166D01*
Y1028834D01*
X717832Y1028001D01*
X716166D01*
X715333Y1028834D01*
X713667Y1032999D02*
X710335D01*
Y1032166D01*
X713667Y1028834D01*
Y1028001D01*
X702833Y1042166D02*
X703666Y1042999D01*
X705332D01*
X706165Y1042166D01*
Y1038834D01*
X705332Y1038001D01*
X703666D01*
X702833Y1038834D01*
X697835Y1042999D02*
X699501Y1042166D01*
X701167Y1040500D01*
Y1038834D01*
X700334Y1038001D01*
X698668D01*
X697835Y1038834D01*
Y1039667D01*
X698668Y1040500D01*
X701167D01*
X794333Y1030666D02*
X795166Y1031499D01*
X796832D01*
X797665Y1030666D01*
Y1027334D01*
X796832Y1026501D01*
X795166D01*
X794333Y1027334D01*
X789335Y1031499D02*
X792667D01*
Y1029000D01*
X791001Y1029833D01*
X790168D01*
X789335Y1029000D01*
Y1027334D01*
X790168Y1026501D01*
X791834D01*
X792667Y1027334D01*
X778333Y1265166D02*
X779166Y1265999D01*
X780832D01*
X781665Y1265166D01*
Y1261834D01*
X780832Y1261001D01*
X779166D01*
X778333Y1261834D01*
X774168Y1261001D02*
Y1265999D01*
X776667Y1263500D01*
X773335D01*
X715333Y1235666D02*
X716166Y1236499D01*
X717832D01*
X718665Y1235666D01*
Y1232334D01*
X717832Y1231501D01*
X716166D01*
X715333Y1232334D01*
X713667Y1235666D02*
X712834Y1236499D01*
X711168D01*
X710335Y1235666D01*
Y1234833D01*
X711168Y1234000D01*
X712001D01*
X711168D01*
X710335Y1233167D01*
Y1232334D01*
X711168Y1231501D01*
X712834D01*
X713667Y1232334D01*
X702833Y1245666D02*
X703666Y1246499D01*
X705332D01*
X706165Y1245666D01*
Y1242334D01*
X705332Y1241501D01*
X703666D01*
X702833Y1242334D01*
X697835Y1241501D02*
X701167D01*
X697835Y1244833D01*
Y1245666D01*
X698668Y1246499D01*
X700334D01*
X701167Y1245666D01*
X794500Y1234166D02*
X795333Y1234999D01*
X796999D01*
X797832Y1234166D01*
Y1230834D01*
X796999Y1230001D01*
X795333D01*
X794500Y1230834D01*
X792834Y1230001D02*
X791168D01*
X792001D01*
Y1234999D01*
X792834Y1234166D01*
D11*
X712240Y1252500D02*
G03*
X712240Y1252500I-197J0D01*
G01*
X784154Y1263500D02*
G03*
X784154Y1263500I-197J0D01*
G01*
X784197Y1224000D02*
G03*
X784197Y1224000I-197J0D01*
G01*
X784697Y817000D02*
G03*
X784697Y817000I-197J0D01*
G01*
X712740Y845500D02*
G03*
X712740Y845500I-197J0D01*
G01*
X784654Y856500D02*
G03*
X784654Y856500I-197J0D01*
G01*
X784154Y1060000D02*
G03*
X784154Y1060000I-197J0D01*
G01*
X712240Y1049000D02*
G03*
X712240Y1049000I-197J0D01*
G01*
X784197Y1020500D02*
G03*
X784197Y1020500I-197J0D01*
G01*
X614854Y1325500D02*
Y1336500D01*
Y1325500D02*
X634146D01*
Y1336500D01*
X614854D02*
X634146D01*
X614000Y1338496D02*
Y1344500D01*
X713854Y1325177D02*
Y1336177D01*
Y1325177D02*
X733146D01*
Y1336177D01*
X713854D02*
X733146D01*
X713000Y1338173D02*
Y1344177D01*
X515854Y1325000D02*
Y1336000D01*
Y1325000D02*
X535146D01*
Y1336000D01*
X515854D02*
X535146D01*
X515000Y1337996D02*
Y1344000D01*
X798980Y636228D02*
Y656701D01*
X809020Y634752D02*
Y656701D01*
X517020Y1218799D02*
Y1239272D01*
X506980Y1218799D02*
Y1240748D01*
X807500Y1251933D02*
Y1256067D01*
X807437Y1242433D02*
Y1246567D01*
X806874Y1211433D02*
Y1215567D01*
X806937Y1201433D02*
Y1205567D01*
Y1221933D02*
Y1226067D01*
X807500Y1261433D02*
Y1265567D01*
X735323Y1007500D02*
X743000D01*
X745500Y1008224D02*
Y1048776D01*
X770500D01*
Y1008224D02*
Y1048776D01*
X745500Y1008224D02*
X770500D01*
X807437Y814933D02*
Y819067D01*
X807374Y804433D02*
Y808567D01*
X808000Y854433D02*
Y858567D01*
X807437Y1038933D02*
Y1043067D01*
Y794433D02*
Y798567D01*
X808000Y844933D02*
Y849067D01*
X807937Y835433D02*
Y839567D01*
X806937Y997933D02*
Y1002067D01*
X807500Y1048433D02*
Y1052567D01*
Y1057933D02*
Y1062067D01*
X806874Y1007933D02*
Y1012067D01*
X806937Y1018433D02*
Y1022567D01*
X735823Y804000D02*
X743500D01*
X746000Y804724D02*
Y845276D01*
X771000D01*
Y804724D02*
Y845276D01*
X746000Y804724D02*
X771000D01*
X735323Y1211000D02*
X743000D01*
X745500Y1211724D02*
Y1252276D01*
X770500D01*
Y1211724D02*
Y1252276D01*
X745500Y1211724D02*
X770500D01*
X711264Y1305283D02*
X731736D01*
X709787Y1295244D02*
X731736D01*
X612264Y1305783D02*
X632736D01*
X610787Y1295744D02*
X632736D01*
X513264Y1305283D02*
X533736D01*
X511787Y1295244D02*
X533736D01*
X646945Y1139583D02*
X659347D01*
X646945Y729983D02*
X659347D01*
X646945Y931583D02*
X659347D01*
D13*
X761900Y1294100D02*
Y1313900D01*
X754200Y1294100D02*
X761900D01*
X754200D02*
Y1313900D01*
X761900D01*
Y1325600D02*
Y1345400D01*
X754200Y1325600D02*
X761900D01*
X754200D02*
Y1345400D01*
X761900D01*
X744400Y1294100D02*
Y1313900D01*
X736700Y1294100D02*
X744400D01*
X736700D02*
Y1313900D01*
X744400D01*
X611100Y1364300D02*
X630900D01*
Y1356600D02*
Y1364300D01*
X611100Y1356600D02*
X630900D01*
X611100D02*
Y1364300D01*
X585100D02*
X604900D01*
Y1356600D02*
Y1364300D01*
X585100Y1356600D02*
X604900D01*
X585100D02*
Y1364300D01*
X710100Y1363800D02*
X729900D01*
Y1356100D02*
Y1363800D01*
X710100Y1356100D02*
X729900D01*
X710100D02*
Y1363800D01*
X684100D02*
X703900D01*
Y1356100D02*
Y1363800D01*
X684100Y1356100D02*
X703900D01*
X684100D02*
Y1363800D01*
X707900Y1318600D02*
Y1338400D01*
X700200Y1318600D02*
X707900D01*
X700200D02*
Y1338400D01*
X707900D01*
X690900Y1318600D02*
Y1338400D01*
X683200Y1318600D02*
X690900D01*
X683200D02*
Y1338400D01*
X690900D01*
X655100Y1326100D02*
Y1345900D01*
X662800D01*
Y1326100D02*
Y1345900D01*
X655100Y1326100D02*
X662800D01*
X645400D02*
Y1345900D01*
X637700Y1326100D02*
X645400D01*
X637700D02*
Y1345900D01*
X645400D01*
Y1294600D02*
Y1314400D01*
X637700Y1294600D02*
X645400D01*
X637700D02*
Y1314400D01*
X645400D01*
X662900Y1294600D02*
Y1314400D01*
X655200Y1294600D02*
X662900D01*
X655200D02*
Y1314400D01*
X662900D01*
X744400Y1325600D02*
Y1345400D01*
X736700Y1325600D02*
X744400D01*
X736700D02*
Y1345400D01*
X744400D01*
X591900Y1319100D02*
Y1338900D01*
X584200Y1319100D02*
X591900D01*
X584200D02*
Y1338900D01*
X591900D01*
X608900Y1319100D02*
Y1338900D01*
X601200Y1319100D02*
X608900D01*
X601200D02*
Y1338900D01*
X608900D01*
X546400Y1294100D02*
Y1313900D01*
X538700Y1294100D02*
X546400D01*
X538700D02*
Y1313900D01*
X546400D01*
X563900Y1294100D02*
Y1313900D01*
X556200Y1294100D02*
X563900D01*
X556200D02*
Y1313900D01*
X563900D01*
X509900Y1318600D02*
Y1338400D01*
X502200Y1318600D02*
X509900D01*
X502200D02*
Y1338400D01*
X509900D01*
X486100Y1363800D02*
X505900D01*
Y1356100D02*
Y1363800D01*
X486100Y1356100D02*
X505900D01*
X486100D02*
Y1363800D01*
X512100D02*
X531900D01*
Y1356100D02*
Y1363800D01*
X512100Y1356100D02*
X531900D01*
X512100D02*
Y1363800D01*
X563900Y1325600D02*
Y1345400D01*
X556200Y1325600D02*
X563900D01*
X556200D02*
Y1345400D01*
X563900D01*
X546400Y1325600D02*
Y1345400D01*
X538700Y1325600D02*
X546400D01*
X538700D02*
Y1345400D01*
X546400D01*
X492900Y1318600D02*
Y1338400D01*
X485200Y1318600D02*
X492900D01*
X485200D02*
Y1338400D01*
X492900D01*
X782700Y634600D02*
X790400D01*
Y654400D01*
X782700D02*
X790400D01*
X782700Y634600D02*
Y654400D01*
X523100Y1240900D02*
X530800D01*
X523100Y1221100D02*
Y1240900D01*
Y1221100D02*
X530800D01*
Y1240900D01*
X720600Y1255900D02*
X728300D01*
X720600Y1236100D02*
Y1255900D01*
Y1236100D02*
X728300D01*
Y1255900D01*
X717400Y1221700D02*
Y1229400D01*
X697600D02*
X717400D01*
X697600Y1221700D02*
Y1229400D01*
Y1221700D02*
X717400D01*
Y1210700D02*
Y1218400D01*
X697600D02*
X717400D01*
X697600Y1210700D02*
Y1218400D01*
Y1210700D02*
X717400D01*
X720500Y1221768D02*
Y1233768D01*
X728500D01*
Y1221768D02*
Y1233768D01*
X720500Y1221768D02*
X728500D01*
X712043Y1248500D02*
Y1251000D01*
X697543Y1248500D02*
X712043D01*
X697543D02*
Y1256500D01*
X712043D01*
Y1254000D02*
Y1256500D01*
X800709Y1250063D02*
X814291D01*
X800709D02*
Y1257937D01*
X814291Y1250063D02*
Y1257937D01*
X800709D02*
X814291D01*
X800646Y1240563D02*
X814228D01*
X800646D02*
Y1248437D01*
X814228Y1240563D02*
Y1248437D01*
X800646D02*
X814228D01*
X800083Y1209563D02*
X813665D01*
X800083D02*
Y1217437D01*
X813665Y1209563D02*
Y1217437D01*
X800083D02*
X813665D01*
X800146Y1199563D02*
X813728D01*
X800146D02*
Y1207437D01*
X813728Y1199563D02*
Y1207437D01*
X800146D02*
X813728D01*
X800146Y1227937D02*
X813728D01*
Y1220063D02*
Y1227937D01*
X800146Y1220063D02*
Y1227937D01*
Y1220063D02*
X813728D01*
X800709Y1267437D02*
X814291D01*
Y1259563D02*
Y1267437D01*
X800709Y1259563D02*
Y1267437D01*
Y1259563D02*
X814291D01*
X783957Y1265000D02*
Y1267500D01*
X798457D01*
Y1259500D02*
Y1267500D01*
X783957Y1259500D02*
X798457D01*
X783957D02*
Y1262000D01*
X784000Y1225500D02*
Y1228000D01*
X798500D01*
Y1220000D02*
Y1228000D01*
X784000Y1220000D02*
X798500D01*
X784000D02*
Y1222500D01*
X800646Y820937D02*
X814228D01*
Y813063D02*
Y820937D01*
X800646Y813063D02*
Y820937D01*
Y813063D02*
X814228D01*
X800583Y802563D02*
X814165D01*
X800583D02*
Y810437D01*
X814165Y802563D02*
Y810437D01*
X800583D02*
X814165D01*
X717900Y803700D02*
Y811400D01*
X698100D02*
X717900D01*
X698100Y803700D02*
Y811400D01*
Y803700D02*
X717900D01*
X784500Y818500D02*
Y821000D01*
X799000D01*
Y813000D02*
Y821000D01*
X784500Y813000D02*
X799000D01*
X784500D02*
Y815500D01*
X721100Y848900D02*
X728800D01*
X721100Y829100D02*
Y848900D01*
Y829100D02*
X728800D01*
Y848900D01*
X801209Y860437D02*
X814791D01*
Y852563D02*
Y860437D01*
X801209Y852563D02*
Y860437D01*
Y852563D02*
X814791D01*
X712543Y841500D02*
Y844000D01*
X698043Y841500D02*
X712543D01*
X698043D02*
Y849500D01*
X712543D01*
Y847000D02*
Y849500D01*
X800646Y1037063D02*
X814228D01*
X800646D02*
Y1044937D01*
X814228Y1037063D02*
Y1044937D01*
X800646D02*
X814228D01*
X800646Y792563D02*
X814228D01*
X800646D02*
Y800437D01*
X814228Y792563D02*
Y800437D01*
X800646D02*
X814228D01*
X801209Y843063D02*
X814791D01*
X801209D02*
Y850937D01*
X814791Y843063D02*
Y850937D01*
X801209D02*
X814791D01*
X717900Y814700D02*
Y822400D01*
X698100D02*
X717900D01*
X698100Y814700D02*
Y822400D01*
Y814700D02*
X717900D01*
X801146Y833563D02*
X814728D01*
X801146D02*
Y841437D01*
X814728Y833563D02*
Y841437D01*
X801146D02*
X814728D01*
X784457Y858000D02*
Y860500D01*
X798957D01*
Y852500D02*
Y860500D01*
X784457Y852500D02*
X798957D01*
X784457D02*
Y855000D01*
X721000Y814768D02*
Y826768D01*
X729000D01*
Y814768D02*
Y826768D01*
X721000Y814768D02*
X729000D01*
X800146Y996063D02*
X813728D01*
X800146D02*
Y1003937D01*
X813728Y996063D02*
Y1003937D01*
X800146D02*
X813728D01*
X800709Y1046563D02*
X814291D01*
X800709D02*
Y1054437D01*
X814291Y1046563D02*
Y1054437D01*
X800709D02*
X814291D01*
X783957Y1061500D02*
Y1064000D01*
X798457D01*
Y1056000D02*
Y1064000D01*
X783957Y1056000D02*
X798457D01*
X783957D02*
Y1058500D01*
X800709Y1063937D02*
X814291D01*
Y1056063D02*
Y1063937D01*
X800709Y1056063D02*
Y1063937D01*
Y1056063D02*
X814291D01*
X717400Y1007200D02*
Y1014900D01*
X697600D02*
X717400D01*
X697600Y1007200D02*
Y1014900D01*
Y1007200D02*
X717400D01*
X720600Y1052400D02*
X728300D01*
X720600Y1032600D02*
Y1052400D01*
Y1032600D02*
X728300D01*
Y1052400D01*
X800083Y1006063D02*
X813665D01*
X800083D02*
Y1013937D01*
X813665Y1006063D02*
Y1013937D01*
X800083D02*
X813665D01*
X712043Y1045000D02*
Y1047500D01*
X697543Y1045000D02*
X712043D01*
X697543D02*
Y1053000D01*
X712043D01*
Y1050500D02*
Y1053000D01*
X720500Y1018268D02*
Y1030268D01*
X728500D01*
Y1018268D02*
Y1030268D01*
X720500Y1018268D02*
X728500D01*
X800146Y1024437D02*
X813728D01*
Y1016563D02*
Y1024437D01*
X800146Y1016563D02*
Y1024437D01*
Y1016563D02*
X813728D01*
X784000Y1022000D02*
Y1024500D01*
X798500D01*
Y1016500D02*
Y1024500D01*
X784000Y1016500D02*
X798500D01*
X784000D02*
Y1019000D01*
X717400Y1018200D02*
Y1025900D01*
X697600D02*
X717400D01*
X697600Y1018200D02*
Y1025900D01*
Y1018200D02*
X717400D01*
D14*
X755100Y1300900D02*
Y1307100D01*
X761100Y1300900D02*
Y1307100D01*
X755100Y1332400D02*
Y1338600D01*
X761100Y1332400D02*
Y1338600D01*
X737600Y1300900D02*
Y1307100D01*
X743600Y1300900D02*
Y1307100D01*
X617900Y1357500D02*
X624100D01*
X617900Y1363500D02*
X624100D01*
X591900Y1357500D02*
X598100D01*
X591900Y1363500D02*
X598100D01*
X716900Y1357000D02*
X723100D01*
X716900Y1363000D02*
X723100D01*
X690900Y1357000D02*
X697100D01*
X690900Y1363000D02*
X697100D01*
X701100Y1325400D02*
Y1331600D01*
X707100Y1325400D02*
Y1331600D01*
X684100Y1325400D02*
Y1331600D01*
X690100Y1325400D02*
Y1331600D01*
X661900Y1332900D02*
Y1339100D01*
X655900Y1332900D02*
Y1339100D01*
X638600Y1332900D02*
Y1339100D01*
X644600Y1332900D02*
Y1339100D01*
X638600Y1301400D02*
Y1307600D01*
X644600Y1301400D02*
Y1307600D01*
X656100Y1301400D02*
Y1307600D01*
X662100Y1301400D02*
Y1307600D01*
X737600Y1332400D02*
Y1338600D01*
X743600Y1332400D02*
Y1338600D01*
X585100Y1325900D02*
Y1332100D01*
X591100Y1325900D02*
Y1332100D01*
X602100Y1325900D02*
Y1332100D01*
X608100Y1325900D02*
Y1332100D01*
X539600Y1300900D02*
Y1307100D01*
X545600Y1300900D02*
Y1307100D01*
X557100Y1300900D02*
Y1307100D01*
X563100Y1300900D02*
Y1307100D01*
X503100Y1325400D02*
Y1331600D01*
X509100Y1325400D02*
Y1331600D01*
X492900Y1357000D02*
X499100D01*
X492900Y1363000D02*
X499100D01*
X518900Y1357000D02*
X525100D01*
X518900Y1363000D02*
X525100D01*
X557100Y1332400D02*
Y1338600D01*
X563100Y1332400D02*
Y1338600D01*
X539600Y1332400D02*
Y1338600D01*
X545600Y1332400D02*
Y1338600D01*
X486100Y1325400D02*
Y1331600D01*
X492100Y1325400D02*
Y1331600D01*
X783500Y641400D02*
Y647600D01*
X789500Y641400D02*
Y647600D01*
X530000Y1227900D02*
Y1234100D01*
X524000Y1227900D02*
Y1234100D01*
X727500Y1242900D02*
Y1249100D01*
X721500Y1242900D02*
Y1249100D01*
X704400Y1222500D02*
X710600D01*
X704400Y1228500D02*
X710600D01*
X704400Y1211500D02*
X710600D01*
X704400Y1217500D02*
X710600D01*
X704900Y804500D02*
X711100D01*
X704900Y810500D02*
X711100D01*
X728000Y835900D02*
Y842100D01*
X722000Y835900D02*
Y842100D01*
X704900Y815500D02*
X711100D01*
X704900Y821500D02*
X711100D01*
X704400Y1008000D02*
X710600D01*
X704400Y1014000D02*
X710600D01*
X727500Y1039400D02*
Y1045600D01*
X721500Y1039400D02*
Y1045600D01*
X704400Y1019000D02*
X710600D01*
X704400Y1025000D02*
X710600D01*
M02*
