G04*
G04 #@! TF.GenerationSoftware,Altium Limited,Altium Designer,24.4.1 (13)*
G04*
G04 Layer_Color=16711935*
%FSLAX25Y25*%
%MOIN*%
G70*
G04*
G04 #@! TF.SameCoordinates,4EE5E999-D737-4110-A4F5-E65D847AD794*
G04*
G04*
G04 #@! TF.FilePolarity,Positive*
G04*
G01*
G75*
%ADD10C,0.01000*%
%ADD11C,0.00787*%
%ADD12C,0.00394*%
D10*
X739000Y1364980D02*
X746736D01*
Y1357500D02*
Y1364980D01*
X739000Y1357500D02*
X746736D01*
X739000D02*
Y1364980D01*
X746616Y1357760D02*
Y1365240D01*
X738880Y1357760D02*
X746616D01*
X738880D02*
Y1365240D01*
X746616D01*
X722811Y1455260D02*
Y1462740D01*
Y1455260D02*
X730547D01*
Y1462740D01*
X722811D02*
X730547D01*
X538488Y1152520D02*
Y1267480D01*
X640850D01*
Y1152520D02*
Y1267480D01*
X538488Y1152520D02*
X640850D01*
X630311Y1455260D02*
Y1462740D01*
Y1455260D02*
X638047D01*
Y1462740D01*
X630311D02*
X638047D01*
X630311Y1435760D02*
Y1443240D01*
Y1435760D02*
X638047D01*
Y1443240D01*
X630311D02*
X638047D01*
X722811Y1435760D02*
Y1443240D01*
Y1435760D02*
X730547D01*
Y1443240D01*
X722811D02*
X730547D01*
X760000Y1364980D02*
X767736D01*
Y1357500D02*
Y1364980D01*
X760000Y1357500D02*
X767736D01*
X760000D02*
Y1364980D01*
X538488Y972520D02*
Y1087480D01*
X640850D01*
Y972520D02*
Y1087480D01*
X538488Y972520D02*
X640850D01*
X542311Y1455260D02*
Y1462740D01*
Y1455260D02*
X550047D01*
Y1462740D01*
X542311D02*
X550047D01*
X430819Y972520D02*
Y1087480D01*
X533181D01*
Y972520D02*
Y1087480D01*
X430819Y972520D02*
X533181D01*
X430819Y1153020D02*
Y1267980D01*
X533181D01*
Y1153020D02*
Y1267980D01*
X430819Y1153020D02*
X533181D01*
X759742Y1365240D02*
X767478D01*
X759742Y1357760D02*
Y1365240D01*
Y1357760D02*
X767478D01*
Y1365240D01*
X561742D02*
X569478D01*
X561742Y1357760D02*
Y1365240D01*
Y1357760D02*
X569478D01*
Y1365240D01*
X660742Y1365740D02*
X668478D01*
X660742Y1358260D02*
Y1365740D01*
Y1358260D02*
X668478D01*
Y1365740D01*
X639880D02*
X647616D01*
X639880Y1358260D02*
Y1365740D01*
Y1358260D02*
X647616D01*
Y1365740D01*
X540742Y1364980D02*
X548478D01*
X540742Y1357500D02*
Y1364980D01*
Y1357500D02*
X548478D01*
Y1364980D01*
X541000D02*
X548736D01*
Y1357500D02*
Y1364980D01*
X541000Y1357500D02*
X548736D01*
X541000D02*
Y1364980D01*
X640000Y1365480D02*
X647736D01*
Y1358000D02*
Y1365480D01*
X640000Y1358000D02*
X647736D01*
X640000D02*
Y1365480D01*
X562000Y1364980D02*
X569736D01*
Y1357500D02*
Y1364980D01*
X562000Y1357500D02*
X569736D01*
X562000D02*
Y1364980D01*
X661000Y1365480D02*
X668736D01*
Y1358000D02*
Y1365480D01*
X661000Y1358000D02*
X668736D01*
X661000D02*
Y1365480D01*
X542311Y1435760D02*
Y1443240D01*
Y1435760D02*
X550047D01*
Y1443240D01*
X542311D02*
X550047D01*
X819260Y1242138D02*
X826740D01*
X819260D02*
Y1249874D01*
X826740D01*
Y1242138D02*
Y1249874D01*
X818260Y1201138D02*
X825740D01*
X818260D02*
Y1208874D01*
X825740D01*
Y1201138D02*
Y1208874D01*
X819760Y835138D02*
X827240D01*
X819760D02*
Y842874D01*
X827240D01*
Y835138D02*
Y842874D01*
X819260Y1038638D02*
X826740D01*
X819260D02*
Y1046374D01*
X826740D01*
Y1038638D02*
Y1046374D01*
X818760Y794138D02*
X826240D01*
X818760D02*
Y801874D01*
X826240D01*
Y794138D02*
Y801874D01*
X818260Y997638D02*
X825740D01*
X818260D02*
Y1005374D01*
X825740D01*
Y997638D02*
Y1005374D01*
D11*
X698606Y1415882D02*
X706480D01*
Y1410960D02*
Y1415882D01*
X698606Y1410960D02*
X706480D01*
X698606D02*
Y1415882D01*
Y1492959D02*
X706480D01*
Y1488038D02*
Y1492959D01*
X698606Y1488038D02*
X706480D01*
X698606D02*
Y1492959D01*
X606106D02*
X613980D01*
Y1488038D02*
Y1492959D01*
X606106Y1488038D02*
X613980D01*
X606106D02*
Y1492959D01*
X754996Y1474039D02*
Y1478961D01*
X747122D02*
X754996D01*
X747122Y1474039D02*
Y1478961D01*
Y1474039D02*
X754996D01*
X566622D02*
X574496D01*
X566622D02*
Y1478961D01*
X574496D01*
Y1474039D02*
Y1478961D01*
X518106Y1415882D02*
X525980D01*
Y1410960D02*
Y1415882D01*
X518106Y1410960D02*
X525980D01*
X518106D02*
Y1415882D01*
X790039Y1392020D02*
X794961D01*
Y1399894D01*
X790039D02*
X794961D01*
X790039Y1392020D02*
Y1399894D01*
X662496Y1474039D02*
Y1478961D01*
X654622D02*
X662496D01*
X654622Y1474039D02*
Y1478961D01*
Y1474039D02*
X662496D01*
X606106Y1415882D02*
X613980D01*
Y1410960D02*
Y1415882D01*
X606106Y1410960D02*
X613980D01*
X606106D02*
Y1415882D01*
X790039Y1564520D02*
X794961D01*
Y1572394D01*
X790039D02*
X794961D01*
X790039Y1564520D02*
Y1572394D01*
Y1449520D02*
X794961D01*
Y1457394D01*
X790039D02*
X794961D01*
X790039Y1449520D02*
Y1457394D01*
X518106Y1492959D02*
X525980D01*
Y1488038D02*
Y1492959D01*
X518106Y1488038D02*
X525980D01*
X518106D02*
Y1492959D01*
X790039Y1334520D02*
X794961D01*
Y1342394D01*
X790039D02*
X794961D01*
X790039Y1334520D02*
Y1342394D01*
X754996Y1426539D02*
Y1431461D01*
X747122D02*
X754996D01*
X747122Y1426539D02*
Y1431461D01*
Y1426539D02*
X754996D01*
X566622D02*
X574496D01*
X566622D02*
Y1431461D01*
X574496D01*
Y1426539D02*
Y1431461D01*
X662496Y1426539D02*
Y1431461D01*
X654622D02*
X662496D01*
X654622Y1426539D02*
Y1431461D01*
Y1426539D02*
X662496D01*
X708480Y1250039D02*
Y1254961D01*
X700606Y1250039D02*
X708480D01*
X700606D02*
Y1254961D01*
X708480D01*
X787520Y1261039D02*
Y1265961D01*
X795394D01*
Y1261039D02*
Y1265961D01*
X787520Y1261039D02*
X795394D01*
X787563Y1221539D02*
Y1226461D01*
X795437D01*
Y1221539D02*
Y1226461D01*
X787563Y1221539D02*
X795437D01*
X788063Y814539D02*
Y819461D01*
X795937D01*
Y814539D02*
Y819461D01*
X788063Y814539D02*
X795937D01*
X708980Y843039D02*
Y847961D01*
X701106Y843039D02*
X708980D01*
X701106D02*
Y847961D01*
X708980D01*
X788020Y854039D02*
Y858961D01*
X795894D01*
Y854039D02*
Y858961D01*
X788020Y854039D02*
X795894D01*
X787520Y1057539D02*
Y1062461D01*
X795394D01*
Y1057539D02*
Y1062461D01*
X787520Y1057539D02*
X795394D01*
X708480Y1046539D02*
Y1051461D01*
X700606Y1046539D02*
X708480D01*
X700606D02*
Y1051461D01*
X708480D01*
X787563Y1018039D02*
Y1022961D01*
X795437D01*
Y1018039D02*
Y1022961D01*
X787563Y1018039D02*
X795437D01*
X790039Y1686520D02*
X794961D01*
Y1694394D01*
X790039D02*
X794961D01*
X790039Y1686520D02*
Y1694394D01*
X653563Y1557961D02*
X661437D01*
Y1553039D02*
Y1557961D01*
X653563Y1553039D02*
X661437D01*
X653563D02*
Y1557961D01*
X647063Y1632961D02*
X654937D01*
Y1628039D02*
Y1632961D01*
X647063Y1628039D02*
X654937D01*
X647063D02*
Y1632961D01*
X790039Y1507020D02*
Y1514894D01*
X794961D01*
Y1507020D02*
Y1514894D01*
X790039Y1507020D02*
X794961D01*
X790039Y1622020D02*
Y1629894D01*
X794961D01*
Y1622020D02*
Y1629894D01*
X790039Y1622020D02*
X794961D01*
X752280Y1691634D02*
X760154D01*
X752280D02*
Y1696555D01*
X760154D01*
Y1691634D02*
Y1696555D01*
X739610Y1694394D02*
X745909D01*
X739610Y1681795D02*
Y1694394D01*
Y1681795D02*
X745909D01*
Y1694394D01*
D12*
X790039Y1473909D02*
X794961D01*
Y1481783D01*
X790039D02*
X794961D01*
X790039Y1473909D02*
Y1481783D01*
X620299Y1429272D02*
X623547Y1432520D01*
X620299Y1422480D02*
Y1432520D01*
Y1422480D02*
X640772D01*
Y1432520D01*
X620299D02*
X640772D01*
X790039Y1531409D02*
X794961D01*
Y1539283D01*
X790039D02*
X794961D01*
X790039Y1531409D02*
Y1539283D01*
Y1358909D02*
X794961D01*
Y1366783D01*
X790039D02*
X794961D01*
X790039Y1358909D02*
Y1366783D01*
X446490Y404287D02*
X489010D01*
Y502713D01*
X446490D02*
X489010D01*
X446490Y404287D02*
Y502713D01*
X777039Y1301331D02*
Y1309205D01*
X781961D01*
Y1301331D02*
Y1309205D01*
X777039Y1301331D02*
X781961D01*
X777039Y1588831D02*
Y1596705D01*
X781961D01*
Y1588831D02*
Y1596705D01*
X777039Y1588831D02*
X781961D01*
X777039Y1531331D02*
Y1539205D01*
X781961D01*
Y1531331D02*
Y1539205D01*
X777039Y1531331D02*
X781961D01*
X669000Y1735500D02*
Y1755500D01*
X693000D01*
Y1735500D02*
Y1755500D01*
X669000Y1735500D02*
X693000D01*
X801110Y1647032D02*
X894811D01*
X801110D02*
Y1700969D01*
X894811D01*
Y1647032D02*
Y1700969D01*
X801610Y1582532D02*
X895311D01*
X801610D02*
Y1636469D01*
X895311D01*
Y1582532D02*
Y1636469D01*
X826539Y1732831D02*
X831461D01*
Y1740705D01*
X826539D02*
X831461D01*
X826539Y1732831D02*
Y1740705D01*
X801610Y1352532D02*
X895311D01*
X801610D02*
Y1406469D01*
X895311D01*
Y1352532D02*
Y1406469D01*
X399740Y404287D02*
X442260D01*
Y502713D01*
X399740D02*
X442260D01*
X399740Y404287D02*
Y502713D01*
X712799Y1429272D02*
X716047Y1432520D01*
X712799Y1422480D02*
Y1432520D01*
Y1422480D02*
X733272D01*
Y1432520D01*
X712799D02*
X733272D01*
X777039Y1358831D02*
Y1366705D01*
X781961D01*
Y1358831D02*
Y1366705D01*
X777039Y1358831D02*
X781961D01*
X620299Y1481020D02*
X640772D01*
Y1470980D02*
Y1481020D01*
X620299Y1470980D02*
X640772D01*
X620299D02*
Y1481020D01*
Y1477772D02*
X623547Y1481020D01*
X657539Y1533063D02*
Y1540937D01*
X662461D01*
Y1533063D02*
Y1540937D01*
X657539Y1533063D02*
X662461D01*
X532299Y1477772D02*
X535547Y1481020D01*
X532299Y1470980D02*
Y1481020D01*
Y1470980D02*
X552772D01*
Y1481020D01*
X532299D02*
X552772D01*
X532299Y1429272D02*
X535547Y1432520D01*
X532299Y1422480D02*
Y1432520D01*
Y1422480D02*
X552772D01*
Y1432520D01*
X532299D02*
X552772D01*
X644319Y1572937D02*
X645961Y1571295D01*
X641039Y1572937D02*
X645961D01*
X641039Y1565063D02*
Y1572937D01*
Y1565063D02*
X645961D01*
Y1572937D01*
X790039Y1416909D02*
X794961D01*
Y1424783D01*
X790039D02*
X794961D01*
X790039Y1416909D02*
Y1424783D01*
Y1301409D02*
X794961D01*
Y1309283D01*
X790039D02*
X794961D01*
X790039Y1301409D02*
Y1309283D01*
X801610Y1467532D02*
X895311D01*
X801610D02*
Y1521469D01*
X895311D01*
Y1467532D02*
Y1521469D01*
X665402Y1441823D02*
Y1457177D01*
X646111Y1441823D02*
X665402D01*
X646111D02*
Y1457177D01*
X665402D01*
X660402D02*
X665402Y1452177D01*
X801610Y1525032D02*
X895311D01*
X801610D02*
Y1578969D01*
X895311D01*
Y1525032D02*
Y1578969D01*
X752902Y1457177D02*
X757902Y1452177D01*
X738611Y1457177D02*
X757902D01*
X738611Y1441823D02*
Y1457177D01*
Y1441823D02*
X757902D01*
Y1457177D01*
X577402Y1441823D02*
Y1457177D01*
X558111Y1441823D02*
X577402D01*
X558111D02*
Y1457177D01*
X577402D01*
X572402D02*
X577402Y1452177D01*
X712799Y1477772D02*
X716047Y1481020D01*
X712799Y1470980D02*
Y1481020D01*
Y1470980D02*
X733272D01*
Y1481020D01*
X712799D02*
X733272D01*
X493240Y404287D02*
X535760D01*
Y502713D01*
X493240D02*
X535760D01*
X493240Y404287D02*
Y502713D01*
X777039Y1416831D02*
Y1424705D01*
X781961D01*
Y1416831D02*
Y1424705D01*
X777039Y1416831D02*
X781961D01*
X643063Y1531539D02*
X650937D01*
X643063D02*
Y1536461D01*
X650937D01*
Y1531539D02*
Y1536461D01*
X801610Y1295032D02*
X895311D01*
X801610D02*
Y1348969D01*
X895311D01*
Y1295032D02*
Y1348969D01*
X668110Y1590532D02*
X761811D01*
X668110D02*
Y1644469D01*
X761811D01*
Y1590532D02*
Y1644469D01*
X777039Y1473831D02*
Y1481705D01*
X781961D01*
Y1473831D02*
Y1481705D01*
X777039Y1473831D02*
X781961D01*
X605000Y1735500D02*
Y1755500D01*
X629000D01*
Y1735500D02*
Y1755500D01*
X605000Y1735500D02*
X629000D01*
X801610Y1410032D02*
X895311D01*
X801610D02*
Y1463969D01*
X895311D01*
Y1410032D02*
Y1463969D01*
X508500Y1624500D02*
X535500D01*
Y1584500D02*
Y1624500D01*
X508500Y1584500D02*
X535500D01*
X508500D02*
Y1624500D01*
Y1619500D02*
X513500Y1624500D01*
X614854Y1323323D02*
Y1338677D01*
Y1323323D02*
X634146D01*
Y1338677D01*
X614854D02*
X634146D01*
X614854Y1333677D02*
X619854Y1338677D01*
X713854Y1323000D02*
Y1338354D01*
Y1323000D02*
X733146D01*
Y1338354D01*
X713854D02*
X733146D01*
X713854Y1333354D02*
X718854Y1338354D01*
X515854Y1322823D02*
Y1338177D01*
Y1322823D02*
X535146D01*
Y1338177D01*
X515854D02*
X535146D01*
X515854Y1333177D02*
X520854Y1338177D01*
X530146Y1338354D02*
X535146Y1333354D01*
X515854Y1338354D02*
X535146D01*
X515854Y1323000D02*
Y1338354D01*
Y1323000D02*
X535146D01*
Y1338354D01*
X513264Y1295244D02*
X533736D01*
X513264D02*
Y1305283D01*
X533736D01*
Y1295244D02*
Y1305283D01*
X530488Y1295244D02*
X533736Y1298492D01*
X634146Y1323323D02*
Y1338677D01*
X614854Y1323323D02*
X634146D01*
X614854D02*
Y1338677D01*
X634146D01*
X629146D02*
X634146Y1333677D01*
X733146Y1322823D02*
Y1338177D01*
X713854Y1322823D02*
X733146D01*
X713854D02*
Y1338177D01*
X733146D01*
X728146D02*
X733146Y1333177D01*
X728488Y1295480D02*
X731736Y1298728D01*
Y1295480D02*
Y1305520D01*
X711264D02*
X731736D01*
X711264Y1295480D02*
Y1305520D01*
Y1295480D02*
X731736D01*
X612264Y1295744D02*
X632736D01*
X612264D02*
Y1305783D01*
X632736D01*
Y1295744D02*
Y1305783D01*
X629488Y1295744D02*
X632736Y1298992D01*
X508500Y1677500D02*
X535500D01*
Y1637500D02*
Y1677500D01*
X508500Y1637500D02*
X535500D01*
X508500D02*
Y1677500D01*
Y1672500D02*
X513500Y1677500D01*
X805772Y636228D02*
X809020Y639476D01*
X798980Y636228D02*
X809020D01*
X798980D02*
Y656701D01*
X809020D01*
Y636228D02*
Y656701D01*
X506980Y1236024D02*
X510228Y1239272D01*
X506980D02*
X517020D01*
Y1218799D02*
Y1239272D01*
X506980Y1218799D02*
X517020D01*
X506980D02*
Y1239272D01*
X722039Y1223831D02*
Y1231705D01*
Y1223831D02*
X726961D01*
Y1231705D01*
X722039D02*
X726961D01*
X803465Y1251539D02*
X811535D01*
Y1256461D01*
X803465D02*
X811535D01*
X803465Y1251539D02*
Y1256461D01*
X803402Y1242039D02*
X811472D01*
Y1246961D01*
X803402D02*
X811472D01*
X803402Y1242039D02*
Y1246961D01*
X802839Y1211039D02*
X810910D01*
Y1215961D01*
X802839D02*
X810910D01*
X802839Y1211039D02*
Y1215961D01*
X802902Y1201039D02*
X810972D01*
Y1205961D01*
X802902D02*
X810972D01*
X802902Y1201039D02*
Y1205961D01*
Y1226461D02*
X810972D01*
X802902Y1221539D02*
Y1226461D01*
Y1221539D02*
X810972D01*
Y1226461D01*
X803465Y1265961D02*
X811535D01*
X803465Y1261039D02*
Y1265961D01*
Y1261039D02*
X811535D01*
Y1265961D01*
X743236Y1013224D02*
X748236Y1008224D01*
X743236D02*
Y1048776D01*
X772764D01*
Y1008224D02*
Y1048776D01*
X743236Y1008224D02*
X772764D01*
X803402Y819461D02*
X811472D01*
X803402Y814539D02*
Y819461D01*
Y814539D02*
X811472D01*
Y819461D01*
X803339Y804039D02*
X811410D01*
Y808961D01*
X803339D02*
X811410D01*
X803339Y804039D02*
Y808961D01*
X803965Y858961D02*
X812035D01*
X803965Y854039D02*
Y858961D01*
Y854039D02*
X812035D01*
Y858961D01*
X803402Y1038539D02*
X811472D01*
Y1043461D01*
X803402D02*
X811472D01*
X803402Y1038539D02*
Y1043461D01*
Y794039D02*
X811472D01*
Y798961D01*
X803402D02*
X811472D01*
X803402Y794039D02*
Y798961D01*
X803965Y844539D02*
X812035D01*
Y849461D01*
X803965D02*
X812035D01*
X803965Y844539D02*
Y849461D01*
X803902Y835039D02*
X811972D01*
Y839961D01*
X803902D02*
X811972D01*
X803902Y835039D02*
Y839961D01*
X722539Y816831D02*
Y824705D01*
Y816831D02*
X727461D01*
Y824705D01*
X722539D02*
X727461D01*
X802902Y997539D02*
X810972D01*
Y1002461D01*
X802902D02*
X810972D01*
X802902Y997539D02*
Y1002461D01*
X803465Y1048039D02*
X811535D01*
Y1052961D01*
X803465D02*
X811535D01*
X803465Y1048039D02*
Y1052961D01*
Y1062461D02*
X811535D01*
X803465Y1057539D02*
Y1062461D01*
Y1057539D02*
X811535D01*
Y1062461D01*
X802839Y1007539D02*
X810910D01*
Y1012461D01*
X802839D02*
X810910D01*
X802839Y1007539D02*
Y1012461D01*
X722039Y1020331D02*
Y1028205D01*
Y1020331D02*
X726961D01*
Y1028205D01*
X722039D02*
X726961D01*
X802902Y1022961D02*
X810972D01*
X802902Y1018039D02*
Y1022961D01*
Y1018039D02*
X810972D01*
Y1022961D01*
X743736Y809724D02*
X748736Y804724D01*
X743736D02*
Y845276D01*
X773264D01*
Y804724D02*
Y845276D01*
X743736Y804724D02*
X773264D01*
X743236Y1216724D02*
X748236Y1211724D01*
X743236D02*
Y1252276D01*
X772764D01*
Y1211724D02*
Y1252276D01*
X743236Y1211724D02*
X772764D01*
X790039Y1588909D02*
Y1596783D01*
X794961D01*
Y1588909D02*
Y1596783D01*
X790039Y1588909D02*
X794961D01*
X777039Y1653331D02*
Y1661205D01*
X781961D01*
Y1653331D02*
Y1661205D01*
X777039Y1653331D02*
X781961D01*
X711264Y1298492D02*
X714512Y1295244D01*
X711264D02*
Y1305283D01*
X731736D01*
Y1295244D02*
Y1305283D01*
X711264Y1295244D02*
X731736D01*
X612264Y1298992D02*
X615512Y1295744D01*
X612264D02*
Y1305783D01*
X632736D01*
Y1295744D02*
Y1305783D01*
X612264Y1295744D02*
X632736D01*
X513264Y1298492D02*
X516512Y1295244D01*
X513264D02*
Y1305283D01*
X533736D01*
Y1295244D02*
Y1305283D01*
X513264Y1295244D02*
X533736D01*
X646552Y1126886D02*
X659740D01*
X646552D02*
Y1152280D01*
X659740D01*
Y1126886D02*
Y1152280D01*
X646552Y717286D02*
X659740D01*
X646552D02*
Y742680D01*
X659740D01*
Y717286D02*
Y742680D01*
X646552Y918886D02*
X659740D01*
X646552D02*
Y944280D01*
X659740D01*
Y918886D02*
Y944280D01*
X761811Y1525532D02*
Y1579469D01*
X668110D02*
X761811D01*
X668110Y1525532D02*
Y1579469D01*
Y1525532D02*
X761811D01*
X790039Y1653409D02*
X794961D01*
Y1661283D01*
X790039D02*
X794961D01*
X790039Y1653409D02*
Y1661283D01*
X645039Y1614063D02*
X649961D01*
Y1621937D01*
X645039D02*
X649961D01*
X645039Y1614063D02*
Y1621937D01*
X646563Y1602039D02*
Y1606961D01*
Y1602039D02*
X654437D01*
Y1606961D01*
X646563D02*
X654437D01*
X726799Y1675299D02*
X731720D01*
X726799Y1667425D02*
Y1675299D01*
Y1667425D02*
X731720D01*
Y1675299D01*
X734965Y1710705D02*
Y1724484D01*
X760555D01*
Y1710705D02*
Y1724484D01*
X734965Y1710705D02*
X760555D01*
X734965Y1715705D02*
X739965Y1710705D01*
X742323Y1670555D02*
X750197D01*
Y1665634D02*
Y1670555D01*
X742323Y1665634D02*
X750197D01*
X742323D02*
Y1670555D01*
Y1668913D02*
X743965Y1670555D01*
M02*
