G04*
G04 #@! TF.GenerationSoftware,Altium Limited,Altium Designer,24.4.1 (13)*
G04*
G04 Layer_Physical_Order=1*
G04 Layer_Color=255*
%FSLAX25Y25*%
%MOIN*%
G70*
G04*
G04 #@! TF.SameCoordinates,4EE5E999-D737-4110-A4F5-E65D847AD794*
G04*
G04*
G04 #@! TF.FilePolarity,Positive*
G04*
G01*
G75*
%ADD10C,0.01000*%
%ADD16R,0.10433X0.10000*%
%ADD17R,0.03000X0.05000*%
%ADD18R,0.04528X0.05709*%
%ADD19R,0.06500X0.06000*%
%ADD20R,0.06000X0.06500*%
%ADD21R,0.05709X0.04724*%
%ADD22R,0.08858X0.06496*%
%ADD23R,0.23819X0.26772*%
%ADD24R,0.05787X0.03819*%
%ADD25R,0.05709X0.04528*%
%ADD26R,0.05512X0.03543*%
%ADD27R,0.02559X0.06004*%
%ADD28R,0.04724X0.05709*%
%ADD29R,0.03819X0.05787*%
%ADD30R,0.02559X0.07874*%
%ADD31R,0.12598X0.07874*%
%ADD32R,0.07087X0.04528*%
%ADD33R,0.03543X0.05512*%
%ADD79C,0.07000*%
%ADD80C,0.10000*%
%ADD81C,0.08700*%
%ADD82C,0.12992*%
%ADD83O,0.08600X0.06000*%
%ADD84C,0.07087*%
%ADD85C,0.05906*%
%ADD86R,0.05906X0.05906*%
%ADD87C,0.12800*%
%ADD88R,0.06791X0.06791*%
%ADD89C,0.06791*%
%ADD90R,0.10000X0.16000*%
%ADD91R,0.16000X0.10000*%
%ADD92C,0.11811*%
%ADD93R,0.04724X0.04724*%
%ADD94C,0.04724*%
%ADD95C,0.11300*%
%ADD96O,0.09000X0.06500*%
%ADD97R,0.09000X0.06500*%
%ADD98O,0.18898X0.26772*%
%ADD99C,0.08661*%
%ADD100C,0.12700*%
%ADD101C,0.05500*%
%ADD102R,0.05500X0.05500*%
%ADD103C,0.12000*%
%ADD104O,0.09000X0.08300*%
%ADD105C,0.15748*%
%ADD106C,0.24803*%
%ADD107R,0.04461X0.04461*%
%ADD108C,0.04461*%
%ADD109C,0.03400*%
%ADD110C,0.05000*%
G36*
X643500Y1114000D02*
Y935500D01*
X786000Y793000D01*
Y422000D01*
X773941Y409941D01*
X748489D01*
Y438000D01*
X771000D01*
Y791000D01*
X640000Y922000D01*
X518500D01*
X511500Y929000D01*
Y941000D01*
X552829D01*
X553058Y940446D01*
X552971Y940358D01*
X552051Y938982D01*
X551417Y937452D01*
X551094Y935828D01*
Y934172D01*
X551417Y932548D01*
X552051Y931019D01*
X552971Y929642D01*
X554142Y928471D01*
X555518Y927551D01*
X557048Y926917D01*
X558672Y926595D01*
X560328D01*
X561952Y926917D01*
X563482Y927551D01*
X564858Y928471D01*
X566029Y929642D01*
X566949Y931019D01*
X567583Y932548D01*
X567906Y934172D01*
Y935828D01*
X567583Y937452D01*
X566949Y938982D01*
X566029Y940358D01*
X565941Y940446D01*
X566171Y941000D01*
X628000D01*
X633000Y946000D01*
Y1108500D01*
X631000Y1110500D01*
X619000Y1110500D01*
Y1122000D01*
X635500D01*
X643500Y1114000D01*
D02*
G37*
G36*
X708000Y436511D02*
Y410000D01*
X687385D01*
X687326Y410024D01*
Y437500D01*
X662326Y462500D01*
X468000D01*
X426000Y420500D01*
X409000D01*
Y427500D01*
X455500Y474000D01*
X670511D01*
X708000Y436511D01*
D02*
G37*
G36*
X645848Y437500D02*
Y409941D01*
X626000D01*
Y437000D01*
X617000Y446000D01*
X586507D01*
X585976Y446355D01*
X585000Y446549D01*
X519000D01*
D01*
X519000D01*
X518806Y446510D01*
X518024Y446355D01*
X517750Y446172D01*
X517493Y446000D01*
X498500D01*
X474000Y421500D01*
X456000D01*
Y427500D01*
X488000Y459500D01*
X623848D01*
X645848Y437500D01*
D02*
G37*
G36*
X585000Y410256D02*
X584685Y409941D01*
X565000D01*
Y424500D01*
X502500D01*
X502500Y427500D01*
X519000Y444000D01*
X585000D01*
Y410256D01*
D02*
G37*
D10*
X790146Y1662555D02*
Y1663047D01*
X788152Y1665041D02*
X790146Y1663047D01*
X786459Y1665041D02*
X788152D01*
X790146Y1662555D02*
X792008Y1660693D01*
X792500D01*
X786000Y1665500D02*
X786459Y1665041D01*
X771900Y1661000D02*
X776400Y1665500D01*
X786000D01*
X779500Y1660535D02*
X779535Y1660500D01*
X786000D01*
Y1424000D02*
Y1453400D01*
X779500Y1424035D02*
X785965D01*
X788000Y1448554D02*
X789359Y1449913D01*
X786000Y1453400D02*
X789600Y1457000D01*
X788000Y1436546D02*
X792500Y1432046D01*
X788000Y1436546D02*
Y1448554D01*
X785965Y1424035D02*
X786000Y1424000D01*
X681000Y1440500D02*
X689500Y1432000D01*
X681000Y1440500D02*
Y1484800D01*
X785429Y1479500D02*
X786000D01*
X783894Y1481035D02*
X785429Y1479500D01*
X782435Y1481035D02*
X783894D01*
X792000Y1237500D02*
X799251Y1244751D01*
X792000Y1231500D02*
Y1237500D01*
X775686Y1231500D02*
X784000D01*
X775100Y1232086D02*
X775686Y1231500D01*
X775100Y1232086D02*
Y1307635D01*
X799251Y1244751D02*
X803608D01*
X817400Y1258543D01*
X415500Y1297239D02*
X423000Y1304739D01*
Y1360400D01*
X425600Y1363000D01*
X425500Y1465500D02*
X437000Y1454000D01*
X417000Y1503000D02*
X425500Y1494500D01*
Y1465500D02*
Y1494500D01*
X408500Y1290086D02*
X409086Y1289500D01*
X408500Y1305500D02*
X415500Y1312500D01*
X409086Y1289500D02*
X430100D01*
X408500Y1290086D02*
Y1305500D01*
X782700Y1366035D02*
Y1395200D01*
X617400Y1513400D02*
X617900Y1513900D01*
X641000D01*
X617400Y1486100D02*
Y1513400D01*
X607600Y1486100D02*
X617400D01*
X513400Y1689300D02*
Y1698600D01*
X401701Y1746599D02*
X410700Y1737600D01*
X594300Y1569400D02*
X639600D01*
X493346Y1763654D02*
X528485Y1728515D01*
X639600Y1569400D02*
X647557D01*
X402286Y1763654D02*
X493346D01*
X401701Y1763068D02*
X402286Y1763654D01*
X401701Y1746599D02*
Y1763068D01*
X420650Y1757450D02*
X436900D01*
X437951Y1756399D01*
X408051Y1747500D02*
X410700D01*
X407093Y1748459D02*
X408051Y1747500D01*
X410751Y1752300D02*
X411401Y1752950D01*
X407093Y1748459D02*
X410110D01*
X437951Y1657549D02*
X441000Y1654500D01*
X439951Y1641600D02*
X449300D01*
X410751Y1749100D02*
Y1752300D01*
X437951Y1657549D02*
Y1756399D01*
X434601Y1752950D02*
X435951Y1751600D01*
X410110Y1748459D02*
X410751Y1749100D01*
X449300Y1641600D02*
X452200Y1644500D01*
X411401Y1752950D02*
X434601D01*
X435951Y1645600D02*
Y1751600D01*
Y1645600D02*
X439951Y1641600D01*
X558100Y1605600D02*
X594300Y1569400D01*
X532485Y1605600D02*
X558100D01*
X640000Y1576100D02*
X674600D01*
X647557Y1569400D02*
X647957Y1569000D01*
X647457Y1630500D02*
Y1648957D01*
X737760Y1705700D02*
Y1705784D01*
X630500Y1609500D02*
X642346Y1621346D01*
X737760Y1705700D02*
X742760D01*
X647457Y1625943D02*
Y1630500D01*
X704284Y1705784D02*
X737760D01*
X742760Y1694000D02*
Y1705700D01*
X647457Y1648957D02*
X704284Y1705784D01*
X533800Y1613326D02*
Y1658674D01*
X537626Y1609500D02*
X630500D01*
X533800Y1613326D02*
X537626Y1609500D01*
X533800Y1658674D02*
X537626Y1662500D01*
X647457Y1625943D02*
X647500Y1621346D01*
X742760Y1705700D02*
Y1705784D01*
X642346Y1621346D02*
X647500D01*
X489500Y1722500D02*
X513400Y1698600D01*
X489500Y1732500D02*
X521000D01*
X526400Y1608100D02*
Y1727100D01*
Y1608100D02*
X531200Y1603300D01*
X521000Y1732500D02*
X526400Y1727100D01*
X441000Y1654500D02*
X452200D01*
X532100Y969306D02*
Y1065600D01*
X504594Y765206D02*
X586800Y683000D01*
X504594Y765206D02*
Y941800D01*
X532100Y969306D01*
X472611Y428111D02*
X496500Y452000D01*
X467750Y413811D02*
X472611Y418672D01*
X496500Y452000D02*
X611663D01*
X472611Y418672D02*
Y428111D01*
X611663Y452000D02*
X626163Y437500D01*
X563723Y434277D02*
X565000Y433000D01*
X561494Y434277D02*
X563723D01*
X560217Y433000D02*
X561494Y434277D01*
X533689Y433000D02*
X560217D01*
X565000Y409941D02*
Y433000D01*
X514500Y413811D02*
X533689Y433000D01*
X461000Y469000D02*
X664500D01*
X421000Y413811D02*
Y429000D01*
X461000Y469000D01*
X664500D02*
X687326Y446174D01*
Y437500D02*
Y446174D01*
Y409941D02*
Y437500D01*
X748200Y1685700D02*
X752805Y1681095D01*
X747900Y1686000D02*
X748200Y1685700D01*
X647957Y1569000D02*
X648000D01*
X639200Y1569800D02*
X639600Y1569400D01*
X755756Y1438900D02*
X758400D01*
X628100Y1310200D02*
X632000Y1314100D01*
X625000Y1307100D02*
X628100Y1310200D01*
X716000Y1344200D02*
Y1345800D01*
Y1341177D02*
Y1344200D01*
X610400Y1344600D02*
X617000D01*
X511353Y1405647D02*
Y1467405D01*
X520000Y1354400D02*
Y1355400D01*
Y1392600D02*
Y1397000D01*
Y1355400D02*
Y1392600D01*
X518000Y1352400D02*
Y1353400D01*
Y1341354D02*
Y1352400D01*
X533000Y1300263D02*
X535800D01*
X531965D02*
X533000D01*
X528000D02*
Y1320000D01*
X545850Y1300950D02*
X549300Y1297500D01*
X533000Y1280000D02*
Y1300263D01*
X630965Y1303700D02*
X634800D01*
X632000Y1280000D02*
Y1300763D01*
X634800D01*
X730965Y1300500D02*
X733600D01*
X729965D02*
X730965D01*
X726000D02*
Y1319823D01*
X730965Y1278000D02*
Y1300500D01*
X761600Y1688900D02*
X781400D01*
X754973D02*
X761600D01*
X742520Y1668095D02*
Y1682189D01*
X744800Y1427500D02*
X748300Y1424000D01*
X744800Y1427500D02*
X747516D01*
X732476Y1390276D02*
Y1410824D01*
X706087Y1489900D02*
X710676D01*
X661043Y1540268D02*
X682232D01*
X661043D02*
Y1555500D01*
X655016Y1497516D02*
X680500Y1523000D01*
X655016Y1480000D02*
Y1497516D01*
X706087Y1389087D02*
Y1408000D01*
Y1413421D01*
Y1388513D02*
Y1389087D01*
X655016Y1460100D02*
Y1476000D01*
X680200Y1363200D02*
X706087Y1389087D01*
X679100Y1362100D02*
X680200Y1363200D01*
X655016Y1402266D02*
Y1408000D01*
Y1425584D01*
X679100Y1301900D02*
Y1328900D01*
X716000Y1300500D02*
Y1319823D01*
Y1284100D02*
Y1300500D01*
X653768Y1601400D02*
X676100D01*
X567016Y1480516D02*
Y1500684D01*
X525587Y1494413D02*
Y1510400D01*
Y1490499D02*
Y1494413D01*
X639000Y1476000D02*
X655016D01*
X653256Y1460100D02*
X655016D01*
X648256Y1434300D02*
Y1438823D01*
Y1432200D02*
Y1434300D01*
X495200Y1475200D02*
X513200Y1493200D01*
X639976Y1423920D02*
X648256Y1432200D01*
X654200Y1334300D02*
X655700D01*
X621200D02*
X654200D01*
X619800D02*
X621200D01*
X617000Y1330100D02*
Y1331500D01*
Y1320323D02*
Y1330100D01*
X581250Y1417550D02*
X591213Y1407587D01*
X613587Y1388189D02*
Y1409600D01*
X621200Y1334300D02*
X622000Y1335100D01*
X617000Y1330100D02*
X621200Y1334300D01*
X617000Y1300763D02*
Y1320323D01*
X551000Y1414500D02*
Y1427500D01*
X523000Y1347300D02*
Y1353443D01*
X515000Y1300263D02*
Y1313800D01*
X511600Y1300263D02*
X515000D01*
X494037D02*
X511600D01*
X492259Y1301953D02*
X493023Y1301277D01*
X484200Y1309086D02*
X492259Y1301953D01*
X492300Y1302000D02*
X493023Y1301277D01*
X515000Y1300263D02*
X515035D01*
X530900Y1427500D02*
Y1440000D01*
X617600Y1427500D02*
Y1438100D01*
X626976Y1418003D02*
Y1420800D01*
X599200Y1470600D02*
Y1560500D01*
X721500Y1414500D02*
Y1439500D01*
X574103Y1461900D02*
X575256D01*
X662103D02*
X663256D01*
X641929Y1454229D02*
Y1456000D01*
X754603Y1461900D02*
X755756D01*
X733100Y1448600D02*
X748800D01*
X704600D02*
X733100D01*
X660068Y1533800D02*
X680000D01*
X659000Y1533732D02*
Y1534000D01*
X515200Y1357200D02*
X515500D01*
X552618Y1361200D02*
X555460D01*
X552618Y1356800D02*
Y1361200D01*
X540700Y1337400D02*
Y1342000D01*
X651618Y1361700D02*
X654460D01*
X750618Y1361200D02*
X753460D01*
X750618Y1358000D02*
Y1361200D01*
X518500Y1417600D02*
Y1423597D01*
Y1413421D02*
Y1417600D01*
X650000Y1493200D02*
Y1504900D01*
X606500Y1487200D02*
Y1490499D01*
Y1484197D02*
Y1487200D01*
X542500Y1310500D02*
Y1329000D01*
X626700Y1329500D02*
X641400D01*
X718400Y1331900D02*
X740400D01*
X716900Y1325500D02*
X721000Y1321400D01*
X707400Y1335000D02*
X716900Y1325500D01*
X487700Y1568600D02*
Y1572500D01*
X640000Y1557000D02*
Y1565260D01*
X755500Y1489500D02*
Y1504600D01*
X597000Y1352000D02*
X609000Y1340000D01*
X761800Y1329000D02*
X771200D01*
X758000D02*
X761800D01*
X696400Y1336200D02*
X709600Y1349400D01*
X518500Y1484197D02*
Y1484800D01*
X606500Y1417600D02*
Y1423597D01*
X699000Y1484197D02*
Y1486300D01*
X725500Y1422700D02*
Y1432100D01*
Y1392000D02*
Y1422700D01*
X698603Y1427200D02*
Y1433500D01*
Y1423994D02*
Y1427200D01*
X653957Y1548357D02*
Y1555500D01*
X649600Y1544000D02*
X653957Y1548357D01*
X643500Y1544000D02*
X649600D01*
X459700Y1615511D02*
Y1619500D01*
X455450Y1611261D02*
X459700Y1615511D01*
X455450Y1607261D02*
Y1611261D01*
Y1607261D02*
X456450Y1606261D01*
Y1602739D02*
Y1606261D01*
X452200Y1598489D02*
X456450Y1602739D01*
X452200Y1594500D02*
Y1598489D01*
X792500Y1481193D02*
X797600D01*
X785300Y849900D02*
X791200Y855800D01*
Y1186900D01*
X819600Y1215300D01*
Y1593800D01*
X817207Y1596193D02*
X819600Y1593800D01*
X792500Y1596193D02*
X817207D01*
X755756Y1438823D02*
Y1438900D01*
X758400D02*
X771900Y1452400D01*
Y1661000D01*
X575100Y1449600D02*
X575256Y1449444D01*
Y1438823D02*
Y1449444D01*
X720100Y1328700D02*
X721200Y1327600D01*
X726400D01*
X731000Y1319823D02*
Y1323000D01*
X655956Y1449000D02*
X663256Y1441700D01*
Y1438823D02*
Y1441700D01*
X625000Y1276800D02*
Y1307100D01*
X598200Y1250000D02*
X625000Y1276800D01*
X589669Y1250000D02*
X598200D01*
X716000Y1345800D02*
X720800Y1350600D01*
X733600Y1468700D02*
X735300D01*
X740756Y1463244D01*
Y1460177D02*
Y1463244D01*
X518000Y1352400D02*
X520000Y1354400D01*
X511300Y1401300D02*
X520000Y1392600D01*
X511300Y1401300D02*
Y1467300D01*
X650000Y1466344D02*
Y1467300D01*
X648256Y1464600D02*
X650000Y1466344D01*
X648256Y1460177D02*
Y1464600D01*
X518000Y1337800D02*
Y1341354D01*
Y1337800D02*
X520300Y1335500D01*
X525500D01*
X789600Y1457000D02*
X792500D01*
X789500Y1514500D02*
X792500D01*
X784600Y1509600D02*
X789500Y1514500D01*
X784600Y1483200D02*
Y1509600D01*
X782435Y1481035D02*
X784600Y1483200D01*
X779500Y1481035D02*
X782435D01*
X452200Y1405000D02*
Y1424500D01*
X447500Y1400300D02*
X452200Y1405000D01*
X447500Y1343000D02*
Y1400300D01*
X437500Y1333000D02*
X447500Y1343000D01*
X425600Y1363000D02*
X437500D01*
X754200Y1310500D02*
X758000D01*
X749300Y1305600D02*
X754200Y1310500D01*
X749300Y1301200D02*
Y1305600D01*
X745600Y1297500D02*
X749300Y1301200D01*
X740400Y1297500D02*
X745600D01*
X747516Y1476500D02*
Y1494984D01*
X745600Y1496900D02*
X747516Y1494984D01*
X709700Y1532500D02*
X745600Y1496900D01*
X690000Y1532500D02*
X709700D01*
X634800Y1416400D02*
Y1417100D01*
Y1416400D02*
X636700Y1414500D01*
X639976D01*
X738300Y1444300D02*
X740756Y1441844D01*
Y1438823D02*
Y1441844D01*
X655016Y1476500D02*
Y1480000D01*
X655916Y1480900D01*
X665200D01*
X666100Y1480000D01*
Y1424800D02*
Y1480000D01*
X665900Y1424600D02*
X666100Y1424800D01*
X656000Y1424600D02*
X665900D01*
X655016Y1425584D02*
X656000Y1424600D01*
X655016Y1425584D02*
Y1429000D01*
X567016Y1476500D02*
Y1480516D01*
X577600Y1481500D01*
X580100Y1479000D01*
Y1427100D02*
Y1479000D01*
X577400Y1424400D02*
X580100Y1427100D01*
X568000Y1424400D02*
X577400D01*
X567016Y1429000D02*
X568000Y1424400D01*
X493023Y1301277D02*
X494037Y1300263D01*
X484200Y1309086D02*
Y1390000D01*
X474700Y1399500D02*
X484200Y1390000D01*
X525587Y1392687D02*
Y1410400D01*
X522000Y1389100D02*
X525587Y1392687D01*
X522000Y1354443D02*
Y1389100D01*
Y1354443D02*
X523000Y1353443D01*
X551976Y1397200D02*
Y1414500D01*
X543426Y1388650D02*
X551976Y1397200D01*
X536450Y1388650D02*
X543426D01*
X533126Y1391974D02*
X536450Y1388650D01*
X533126Y1391974D02*
Y1420874D01*
X531300Y1422700D02*
X533126Y1420874D01*
X528000Y1422700D02*
X531300D01*
X524400Y1426300D02*
X528000Y1422700D01*
X524400Y1426300D02*
Y1436800D01*
X523200Y1438000D02*
X524400Y1436800D01*
X513353Y1438000D02*
X523200D01*
X513353Y1410347D02*
Y1438000D01*
Y1410347D02*
X514700Y1409000D01*
X524187D01*
X525587Y1410400D01*
Y1413421D01*
Y1510400D02*
X529087Y1513900D01*
X553800D01*
X567016Y1500684D01*
X680200Y1317000D02*
Y1363200D01*
Y1317000D02*
X696700Y1300500D01*
X713035D01*
X659000Y1298000D02*
X675200D01*
X679100Y1301900D01*
X659000Y1337600D02*
Y1342500D01*
X654200Y1325000D02*
Y1334300D01*
Y1325000D02*
X675200D01*
X679100Y1328900D01*
Y1362100D01*
X474700Y1599500D02*
X485000Y1609800D01*
Y1614400D01*
X487600Y1617000D01*
X491800D01*
X494000Y1619200D01*
Y1658000D01*
X489500Y1662500D02*
X494000Y1658000D01*
X506374Y1672500D02*
X510200Y1668674D01*
Y1623326D02*
Y1668674D01*
X506374Y1619500D02*
X510200Y1623326D01*
X625076Y1422700D02*
X626976Y1420800D01*
X616000Y1422700D02*
X625076D01*
X614400Y1424300D02*
Y1435100D01*
X600000Y1438600D02*
X610900D01*
X599200Y1439400D02*
X600000Y1438600D01*
X556400Y1603300D02*
X599200Y1560500D01*
X531200Y1603300D02*
X556400D01*
X695100Y1459000D02*
X697600D01*
X691700Y1462400D02*
X695100Y1459000D01*
X691700Y1462400D02*
Y1502700D01*
X697000Y1508000D01*
X719476D01*
X697600Y1459000D02*
X725173D01*
X693800Y1455200D02*
X697600Y1459000D01*
X693800Y1442300D02*
Y1455200D01*
Y1442300D02*
X697600Y1438500D01*
X702700D01*
X709600Y1431600D01*
Y1427500D02*
Y1431600D01*
Y1427500D02*
X714571D01*
Y1476000D02*
X722500D01*
X532100Y1065600D02*
X572000Y1105500D01*
Y1216800D01*
X550629Y1446500D02*
X553929Y1442400D01*
X518103Y1446500D02*
X550629D01*
X641929Y1443200D02*
X643200Y1444600D01*
X654156D01*
X658256Y1440500D01*
Y1438823D02*
Y1440500D01*
X734429Y1456000D02*
Y1459000D01*
Y1456000D02*
X735549Y1454880D01*
X753600D01*
X755756Y1457036D01*
Y1460177D01*
X750756Y1438823D02*
Y1446644D01*
X748800Y1448600D02*
X750756Y1446644D01*
X702500Y1446500D02*
X704600Y1448600D01*
X698603Y1446500D02*
X702500D01*
X627000Y1341677D02*
Y1344800D01*
X614500Y1357300D02*
X627000Y1344800D01*
X614500Y1357300D02*
Y1360693D01*
X658256Y1456800D02*
Y1460177D01*
X657056Y1455600D02*
X658256Y1456800D01*
X646200Y1455600D02*
X657056D01*
X645000Y1456800D02*
X646200Y1455600D01*
X645000Y1456800D02*
Y1466252D01*
X640000Y1471252D02*
X645000Y1466252D01*
X633071Y1471252D02*
X640000D01*
X633071D02*
Y1491471D01*
X636800Y1495200D01*
X648000D01*
X650000Y1493200D01*
Y1489500D02*
Y1493200D01*
X606500Y1487200D02*
X607600Y1486100D01*
X641000Y1513900D02*
X650000Y1504900D01*
X622000Y1316600D02*
Y1320323D01*
X621200Y1315800D02*
X622000Y1316600D01*
X621200Y1297600D02*
Y1315800D01*
X619600Y1296000D02*
X621200Y1297600D01*
X591200Y1296000D02*
X619600D01*
X588000Y1299200D02*
X591200Y1296000D01*
X588000Y1299200D02*
Y1322500D01*
X467200Y1564500D02*
X477200D01*
X482900Y1570200D01*
Y1595900D01*
X489500Y1602500D01*
X445800Y1548100D02*
X452200Y1554500D01*
X445800Y1538647D02*
Y1548100D01*
X443453Y1536300D02*
X445800Y1538647D01*
X443453Y1510453D02*
Y1536300D01*
X437000Y1504000D02*
X443453Y1510453D01*
Y1555753D02*
X452200Y1564500D01*
X443453Y1539547D02*
Y1555753D01*
X441453Y1537547D02*
X443453Y1539547D01*
X441453Y1528453D02*
Y1537547D01*
X437000Y1524000D02*
X441453Y1528453D01*
X551300Y1342000D02*
X560000D01*
X512700Y1335000D02*
X517425Y1330275D01*
X605000Y1322500D02*
X608800D01*
X609800Y1323500D02*
Y1339200D01*
X597000Y1352000D02*
Y1364800D01*
X599800Y1367600D01*
X617093D01*
X624000Y1360693D01*
X627500D01*
X619669Y1250000D02*
X739900D01*
X762800Y1272900D01*
Y1328000D01*
X761800Y1329000D02*
X762800Y1328000D01*
X650000Y1414500D02*
Y1429944D01*
X650256Y1430200D01*
Y1432200D01*
X653256Y1435200D01*
Y1438823D01*
X745756Y1435256D02*
Y1438823D01*
X743500Y1433000D02*
X745756Y1435256D01*
X725500Y1422700D02*
X739200D01*
X742500Y1419400D01*
Y1414500D02*
Y1419400D01*
X698603Y1423994D02*
X699000Y1423597D01*
Y1413421D02*
Y1423597D01*
X698603Y1427200D02*
X703103Y1422700D01*
X710400D01*
X713600Y1419500D01*
Y1391300D02*
Y1419500D01*
Y1391300D02*
X716800Y1388100D01*
X721600D01*
X725500Y1392000D01*
Y1432100D02*
X726400Y1433000D01*
X743500D01*
X698503Y1483700D02*
X699000Y1484197D01*
X698503Y1477500D02*
Y1483700D01*
X606103Y1423994D02*
Y1433500D01*
Y1423994D02*
X606500Y1423597D01*
X518003Y1483700D02*
X518500Y1484197D01*
X518003Y1477500D02*
Y1483700D01*
X506000Y1335000D02*
X512700D01*
X452200Y1480511D02*
Y1484500D01*
Y1480511D02*
X456450Y1476261D01*
Y1472261D02*
Y1476261D01*
X452939Y1468750D02*
X456450Y1472261D01*
X448550Y1468750D02*
X452939D01*
X443500Y1463700D02*
X448550Y1468750D01*
X443500Y1399000D02*
Y1463700D01*
X437500Y1393000D02*
X443500Y1399000D01*
X687500Y1348000D02*
Y1360193D01*
X687000Y1347500D02*
X687500Y1348000D01*
X687000Y1335000D02*
Y1347500D01*
X588500Y1348500D02*
Y1360693D01*
X588000Y1348000D02*
X588500Y1348500D01*
X588000Y1335500D02*
Y1348000D01*
X672618Y1356800D02*
Y1361740D01*
X663018Y1347200D02*
X672618Y1356800D01*
X643000Y1347200D02*
X663018D01*
X641400Y1345600D02*
X643000Y1347200D01*
X641400Y1342500D02*
Y1345600D01*
X489500Y1348000D02*
Y1360193D01*
X489000Y1347500D02*
X489500Y1348000D01*
X489000Y1335000D02*
Y1347500D01*
X640000Y1452300D02*
X641929Y1454229D01*
X609700Y1452300D02*
X640000D01*
X606003Y1455997D02*
X609700Y1452300D01*
X606003Y1455997D02*
Y1464500D01*
X663000Y1489500D02*
X676300D01*
X681000Y1484800D01*
X534071Y1476000D02*
X539000D01*
X542900Y1479900D01*
X504300Y1307563D02*
X511600Y1300263D01*
X637400Y1384650D02*
X655016Y1402266D01*
X617126Y1384650D02*
X637400D01*
X613587Y1388189D02*
X617126Y1384650D01*
X639976Y1483176D02*
Y1489500D01*
X639000Y1482200D02*
X639976Y1483176D01*
X639000Y1476000D02*
Y1482200D01*
X655016Y1408000D02*
X658216Y1404800D01*
X702887D01*
X706087Y1408000D01*
X781400Y1688900D02*
X786500Y1694000D01*
X792500D01*
X726400Y1384200D02*
X732476Y1390276D01*
X710400Y1384200D02*
X726400D01*
X706087Y1388513D02*
X710400Y1384200D01*
X430100Y1289500D02*
X485500Y1234100D01*
X600600D01*
X713100Y1121600D01*
Y871900D02*
Y1121600D01*
Y871900D02*
X759700Y825300D01*
X791380D01*
X845480Y771200D01*
Y638000D02*
Y771200D01*
X575000Y1367000D02*
Y1414500D01*
Y1367000D02*
X577300Y1364700D01*
Y1331000D02*
Y1364700D01*
X691208Y653300D02*
X758122Y586386D01*
X575000Y1489500D02*
X585600D01*
X589600Y1485500D01*
Y1431000D02*
Y1485500D01*
X726400Y1327600D02*
X731000Y1323000D01*
X632000Y1314100D02*
Y1320323D01*
X467200Y1400511D02*
Y1424500D01*
Y1400511D02*
X471450Y1396261D01*
Y1392739D02*
Y1396261D01*
X469000Y1390289D02*
X471450Y1392739D01*
X469000Y1389189D02*
Y1390289D01*
Y1389189D02*
X472939Y1385250D01*
X479000D01*
X479200Y1385050D01*
Y1296400D02*
Y1385050D01*
Y1296400D02*
X487750Y1287850D01*
X525150D01*
X533000Y1280000D01*
X481700Y1273500D02*
X547800D01*
X428400Y1326800D02*
X481700Y1273500D01*
X428400Y1326800D02*
Y1349400D01*
X432000Y1353000D01*
X437500D01*
X455700Y1202200D02*
Y1207800D01*
X444500Y1191000D02*
X455700Y1202200D01*
X444500Y651000D02*
Y1191000D01*
Y651000D02*
X457500Y638000D01*
X533000Y1310600D02*
Y1320000D01*
Y1310600D02*
X539600Y1304000D01*
X563200D01*
X564800Y1302400D01*
Y1274100D02*
Y1302400D01*
X547100Y1256400D02*
X564800Y1274100D01*
X487900Y1256400D02*
X547100D01*
X482000Y1250500D02*
X487900Y1256400D01*
X879748Y735657D02*
Y743252D01*
X817200Y805800D02*
X879748Y743252D01*
X617000Y1341677D02*
Y1344600D01*
X712800Y1347400D02*
X716000Y1344200D01*
X630965Y1300763D02*
Y1303700D01*
X634800D02*
Y1324000D01*
X633600Y1325200D02*
X634800Y1324000D01*
X628800Y1325200D02*
X633600D01*
X627000Y1323400D02*
X628800Y1325200D01*
X627000Y1320323D02*
Y1323400D01*
X432500Y1383000D02*
X437500D01*
X431500Y1384000D02*
X432500Y1383000D01*
X431500Y1384000D02*
Y1409200D01*
X441500Y1419200D01*
Y1464834D01*
X441940Y1465274D01*
Y1467890D01*
X448550Y1474500D01*
X452200D01*
X437000Y1474000D02*
X445453Y1482453D01*
Y1532953D01*
X447000Y1534500D01*
X452200D01*
X448000Y1529500D02*
X459700D01*
X447453Y1528953D02*
X448000Y1529500D01*
X447453Y1477053D02*
Y1528953D01*
X439900Y1469500D02*
X447453Y1477053D01*
X439900Y1466900D02*
Y1469500D01*
X437000Y1464000D02*
X439900Y1466900D01*
X605000Y1316800D02*
Y1322500D01*
X663000Y1408300D02*
Y1414500D01*
X536700Y1336275D02*
Y1346700D01*
X530700Y1330275D02*
X536700Y1336275D01*
X517425Y1330275D02*
X530700D01*
X515500Y1357200D02*
Y1360193D01*
X515200Y1335900D02*
Y1357200D01*
Y1335900D02*
X518825Y1332275D01*
X527395D01*
X528720Y1333600D01*
Y1338347D01*
X528000Y1339067D02*
X528720Y1338347D01*
X528000Y1339067D02*
Y1341354D01*
X540700Y1342000D02*
X542400D01*
X531575Y1328275D02*
X540700Y1337400D01*
X491200Y1328275D02*
X531575D01*
X489000Y1330475D02*
X491200Y1328275D01*
X489000Y1330475D02*
Y1335000D01*
X539130Y1329000D02*
X542400D01*
X534930Y1324800D02*
X539130Y1329000D01*
X524600Y1324800D02*
X534930D01*
X523000Y1323200D02*
X524600Y1324800D01*
X613587Y1490499D02*
Y1514187D01*
X622400Y1523000D01*
X680500D01*
X690000Y1532500D01*
X621000Y1459000D02*
X632673D01*
X611000Y1469000D02*
X621000Y1459000D01*
X601200Y1469000D02*
X611000D01*
X601200Y1442400D02*
Y1469000D01*
Y1442400D02*
X602101Y1441499D01*
X614201D01*
X617600Y1438100D01*
Y1427500D02*
X622071D01*
X528485Y1728515D02*
X528485Y1609600D01*
X532485Y1605600D01*
X653957Y1555500D02*
Y1563043D01*
X779500Y1538535D02*
X784600D01*
X788000Y1541935D01*
Y1571200D01*
X788800Y1572000D01*
X792500D01*
X817400Y1258543D02*
Y1304093D01*
X812800Y1308693D02*
X817400Y1304093D01*
X792500Y1308693D02*
X812800D01*
X647232Y1595068D02*
Y1604500D01*
Y1595068D02*
X661500Y1580800D01*
X673300D01*
X690000Y1597500D01*
X722600Y1674630D02*
X729260D01*
X708500Y1660530D02*
X722600Y1674630D01*
X708500Y1610000D02*
Y1660530D01*
X674600Y1576100D02*
X708500Y1610000D01*
X639200Y1575300D02*
X640000Y1576100D01*
X639200Y1569800D02*
Y1575300D01*
X648000Y1569000D02*
X653957Y1563043D01*
X437500Y1343000D02*
X442500D01*
X443500Y1344000D01*
Y1394125D01*
X445500Y1396125D01*
Y1427800D01*
X452200Y1434500D01*
X758000Y1281900D02*
Y1297500D01*
X748200Y1272100D02*
X758000Y1281900D01*
X728000Y1272100D02*
X748200D01*
X716000Y1284100D02*
X728000Y1272100D01*
X771618Y1361240D02*
Y1365500D01*
X761418Y1375700D02*
X771618Y1365500D01*
X707307Y1375700D02*
X761418D01*
X691800Y1360193D02*
X707307Y1375700D01*
X687500Y1360193D02*
X691800D01*
X826700Y1161600D02*
Y1212800D01*
Y1161600D02*
X852643Y1135657D01*
X879748D01*
X775100Y1307635D02*
X776000Y1308535D01*
X779500D01*
X606103Y1446500D02*
X638629D01*
X641929Y1443200D01*
Y1439500D02*
Y1443200D01*
X766940Y1713560D02*
X786500Y1694000D01*
X750400Y1713560D02*
X766940D01*
X747760Y1710920D02*
X750400Y1713560D01*
X747760Y1705784D02*
Y1710920D01*
X659000Y1329500D02*
X672000D01*
X675700Y1333200D01*
Y1369900D01*
X672000Y1373600D02*
X675700Y1369900D01*
X587900Y1373600D02*
X672000D01*
X583250Y1368950D02*
X587900Y1373600D01*
X583250Y1330500D02*
Y1368950D01*
Y1330500D02*
X592000D01*
X593400Y1331900D01*
Y1335000D01*
X598400Y1340000D01*
X609000D01*
X609800Y1339200D01*
X608800Y1322500D02*
X609800Y1323500D01*
X605000Y1331000D02*
Y1335500D01*
X596500Y1322500D02*
X605000Y1331000D01*
X588000Y1322500D02*
X596500D01*
X613587Y1409600D02*
Y1413421D01*
X611573Y1407587D02*
X613587Y1409600D01*
X591213Y1407587D02*
X611573D01*
X571716Y1419300D02*
X579500D01*
X567016Y1424000D02*
Y1429000D01*
X560000Y1329000D02*
X573100D01*
X574300Y1327800D01*
X579450D01*
X581250Y1329600D01*
Y1417550D01*
X579500Y1419300D02*
X581250Y1417550D01*
X567016Y1424000D02*
X571716Y1419300D01*
X588500Y1360693D02*
Y1368000D01*
X592000Y1371500D01*
X670918D01*
X672618Y1369800D01*
Y1361740D02*
Y1369800D01*
X700000Y1322000D02*
X704000D01*
X695500Y1317500D02*
X700000Y1322000D01*
X683100Y1317500D02*
X695500D01*
X682200Y1318400D02*
X683100Y1317500D01*
X682200Y1318400D02*
Y1328000D01*
X684700Y1330500D01*
X694400D01*
X696400Y1332500D01*
Y1336200D01*
X726500Y1356500D02*
Y1360193D01*
X754600Y1329000D02*
X758000D01*
X749300Y1334300D02*
X754600Y1329000D01*
X712000Y1334300D02*
X749300D01*
X709600Y1336700D02*
X712000Y1334300D01*
X709600Y1336700D02*
Y1349400D01*
X715000Y1354800D01*
X724800D01*
X726500Y1356500D01*
X754700Y1342000D02*
X758000D01*
X749300Y1336600D02*
X754700Y1342000D01*
X722000Y1336600D02*
X749300D01*
X721000Y1337600D02*
X722000Y1336600D01*
X721000Y1337600D02*
Y1341177D01*
X704000Y1331700D02*
Y1335000D01*
X700800Y1328500D02*
X704000Y1331700D01*
X689100Y1328500D02*
X700800D01*
X687000Y1326400D02*
X689100Y1328500D01*
X687000Y1322000D02*
Y1326400D01*
X474700Y1639500D02*
X479000Y1643800D01*
Y1732000D01*
X489500Y1742500D01*
X474700Y1629500D02*
X479047Y1633847D01*
Y1640953D01*
X481047Y1642953D01*
Y1714047D01*
X489500Y1722500D01*
X474700Y1619500D02*
X481047Y1625847D01*
Y1638953D01*
X483047Y1640953D01*
Y1696047D01*
X489500Y1702500D01*
X474700Y1609500D02*
X481000Y1615800D01*
Y1621000D01*
X483047Y1623047D01*
Y1636953D01*
X485047Y1638953D01*
Y1678047D01*
X489500Y1682500D01*
Y1608915D02*
Y1612500D01*
X480900Y1600315D02*
X489500Y1608915D01*
X480900Y1575700D02*
Y1600315D01*
X474700Y1569500D02*
X480900Y1575700D01*
X467200Y1594500D02*
Y1598489D01*
X462950Y1602739D02*
X467200Y1598489D01*
X462950Y1602739D02*
Y1606261D01*
X463950Y1607261D01*
Y1611261D01*
X462950Y1612261D02*
X463950Y1611261D01*
X462950Y1612261D02*
Y1616261D01*
X463950Y1617261D01*
Y1621261D01*
X462300Y1622911D02*
X463950Y1621261D01*
X462300Y1622911D02*
Y1626089D01*
X463950Y1627739D01*
Y1631261D01*
X462300Y1632911D02*
X463950Y1631261D01*
X462300Y1632911D02*
Y1636089D01*
X467200Y1640989D01*
Y1644500D01*
Y1544500D02*
Y1548489D01*
X462950Y1552739D02*
X467200Y1548489D01*
X462950Y1552739D02*
Y1556739D01*
X463950Y1557739D01*
Y1561739D01*
X462950Y1562739D02*
X463950Y1561739D01*
X462950Y1562739D02*
Y1566739D01*
X463950Y1567739D01*
Y1571739D01*
X462950Y1572739D02*
X463950Y1571739D01*
X462950Y1572739D02*
Y1576739D01*
X463950Y1577739D01*
Y1581739D01*
X462950Y1582739D02*
X463950Y1581739D01*
X462950Y1582739D02*
Y1586261D01*
X467200Y1590511D01*
Y1594500D01*
X487800Y1640800D02*
X489500Y1642500D01*
X487800Y1637953D02*
Y1640800D01*
X485047Y1635200D02*
X487800Y1637953D01*
X485047Y1619000D02*
Y1635200D01*
X483000Y1616953D02*
X485047Y1619000D01*
X483000Y1611100D02*
Y1616953D01*
X475650Y1603750D02*
X483000Y1611100D01*
X472939Y1603750D02*
X475650D01*
X469200Y1600011D02*
X472939Y1603750D01*
X469200Y1598511D02*
Y1600011D01*
Y1598511D02*
X471450Y1596261D01*
Y1592739D02*
Y1596261D01*
X469200Y1590489D02*
X471450Y1592739D01*
X469200Y1586500D02*
Y1590489D01*
X467200Y1584500D02*
X469200Y1586500D01*
X726000Y1341177D02*
Y1344722D01*
X727571Y1346293D01*
X729693D01*
X741362Y1357962D01*
Y1361240D01*
X747358Y1354740D02*
X750618Y1358000D01*
X741447Y1354740D02*
X747358D01*
X731000Y1344293D02*
X741447Y1354740D01*
X731000Y1341177D02*
Y1344293D01*
X721000Y1341177D02*
Y1343300D01*
X727200Y1349500D01*
X614400Y1424300D02*
X616000Y1422700D01*
X610900Y1438600D02*
X614400Y1435100D01*
X599200Y1439400D02*
Y1470600D01*
X601600Y1473000D01*
X614200D01*
X617200Y1476000D01*
X622071D01*
X755500Y1407000D02*
Y1414500D01*
Y1407000D02*
X774700Y1387800D01*
Y1332500D02*
Y1387800D01*
X771200Y1329000D02*
X774700Y1332500D01*
X573618Y1340800D02*
Y1361240D01*
X570118Y1337300D02*
X573618Y1340800D01*
X543800Y1337300D02*
X570118D01*
X542400Y1338700D02*
X543800Y1337300D01*
X542400Y1338700D02*
Y1342000D01*
X706087Y1490499D02*
Y1494513D01*
X704000Y1496600D02*
X706087Y1494513D01*
X697600Y1496600D02*
X704000D01*
X693700Y1492700D02*
X697600Y1496600D01*
X693700Y1473500D02*
Y1492700D01*
Y1473500D02*
X696000Y1471200D01*
X724847D01*
X726073Y1472427D01*
Y1475673D01*
X726400Y1476000D01*
X731500D01*
X546600Y1346700D02*
X551300Y1342000D01*
X536700Y1346700D02*
X546600D01*
X529800Y1348900D02*
Y1354900D01*
X528500Y1356200D02*
X529800Y1354900D01*
X528500Y1356200D02*
Y1360193D01*
X528000Y1341354D02*
Y1344366D01*
X526600Y1345766D02*
X528000Y1344366D01*
X526600Y1345766D02*
Y1352800D01*
X524000Y1355400D02*
X526600Y1352800D01*
X524000Y1355400D02*
Y1364200D01*
X526800Y1367000D01*
X543362D01*
Y1361240D02*
Y1367000D01*
X533000Y1341354D02*
Y1348800D01*
X538900Y1354700D01*
X550518D01*
X552618Y1356800D01*
X606500Y1413421D02*
Y1417600D01*
X607500Y1418600D01*
X618100D01*
X620800Y1415900D01*
Y1391500D02*
Y1415900D01*
Y1391500D02*
X624000Y1388300D01*
X632200D01*
X650000Y1406100D01*
Y1414500D01*
X639976D02*
Y1423920D01*
X639000Y1427500D02*
X641456D01*
X648256Y1434300D01*
X742500Y1489500D02*
Y1493200D01*
X740800Y1494900D02*
X742500Y1493200D01*
X728000Y1494900D02*
X740800D01*
X726400Y1493300D02*
X728000Y1494900D01*
X726400Y1483174D02*
Y1493300D01*
X725976Y1482750D02*
X726400Y1483174D01*
X702550Y1482750D02*
X725976D01*
X699000Y1486300D02*
X702550Y1482750D01*
X699000Y1486300D02*
Y1490499D01*
X706087Y1489900D02*
Y1490499D01*
X710676Y1489900D02*
X715826Y1484750D01*
X723126D01*
X723976Y1485600D01*
Y1494476D01*
X726400Y1496900D01*
X745600D01*
X632673Y1459000D02*
Y1467649D01*
X631071Y1469252D02*
X632673Y1467649D01*
X631071Y1469252D02*
Y1489500D01*
X626976D02*
X631071D01*
X663256Y1456000D02*
Y1460177D01*
X660056Y1452800D02*
X663256Y1456000D01*
X645129Y1452800D02*
X660056D01*
X641929Y1456000D02*
X645129Y1452800D01*
X641929Y1456000D02*
Y1459000D01*
X771618Y1356718D02*
Y1361240D01*
X762100Y1347200D02*
X771618Y1356718D01*
X742000Y1347200D02*
X762100D01*
X740400Y1345600D02*
X742000Y1347200D01*
X740400Y1342000D02*
Y1345600D01*
X627000Y1338100D02*
Y1341677D01*
Y1338100D02*
X628000Y1337100D01*
X634800D01*
Y1349238D01*
X642362Y1356800D01*
Y1361740D01*
X632000Y1341677D02*
Y1367500D01*
X632800Y1368300D01*
X649718D01*
X651618Y1366400D01*
Y1361740D02*
Y1366400D01*
X553929Y1456000D02*
Y1459000D01*
Y1456000D02*
X556282Y1453648D01*
X572904D01*
X575256Y1456000D01*
Y1460177D01*
X547873Y1449600D02*
X552400D01*
X544673Y1452800D02*
X547873Y1449600D01*
X544673Y1452800D02*
Y1459000D01*
X518500Y1417600D02*
X521100Y1420200D01*
X528526D01*
X531126Y1417600D01*
Y1388325D02*
Y1417600D01*
Y1388325D02*
X532801Y1386650D01*
X556650D01*
X562000Y1392000D01*
Y1414500D01*
X518400Y1459000D02*
X544673D01*
X513353Y1453953D02*
X518400Y1459000D01*
X513353Y1442000D02*
Y1453953D01*
Y1442000D02*
X528900D01*
X530900Y1440000D01*
Y1427500D02*
X534071D01*
X518003Y1464500D02*
X536300D01*
X538000Y1466200D01*
X550400D01*
X553929Y1462671D01*
Y1459000D02*
Y1462671D01*
X518000Y1353400D02*
X520000Y1355400D01*
X511353Y1405647D02*
X520000Y1397000D01*
X511353Y1467405D02*
X513200Y1469252D01*
X557505D01*
X560256Y1466500D01*
Y1460177D02*
Y1466500D01*
X538976Y1414500D02*
X542400D01*
X544673Y1416773D01*
Y1439500D01*
X518103Y1423994D02*
Y1433500D01*
Y1423994D02*
X518500Y1423597D01*
X474700Y1459500D02*
X481800Y1466600D01*
Y1472000D01*
X485000Y1475200D01*
X495200D01*
X523200Y1496800D02*
X525587Y1494413D01*
X516800Y1496800D02*
X523200D01*
X513200Y1493200D02*
X516800Y1496800D01*
X513200Y1473600D02*
Y1493200D01*
Y1473600D02*
X515548Y1471252D01*
X540800D01*
X542600Y1473052D01*
Y1473600D01*
X545000Y1476000D01*
X551000D01*
X523000Y1341354D02*
Y1347300D01*
X719476Y1414500D02*
X721500D01*
Y1439500D02*
X725173D01*
X632673Y1423700D02*
Y1439500D01*
X626976Y1418003D02*
X632673Y1423700D01*
X626976Y1414500D02*
Y1418003D01*
X551000Y1414500D02*
X551976D01*
X562000D02*
Y1433244D01*
X565256Y1436500D01*
Y1438823D01*
X551000Y1427500D02*
X556056D01*
Y1432200D01*
X560256Y1436400D01*
Y1438823D01*
X553929Y1439500D02*
Y1442400D01*
X554958Y1443429D01*
X569227D01*
X570256Y1442400D01*
Y1438823D02*
Y1442400D01*
X721000Y1319823D02*
Y1321400D01*
X704000Y1335000D02*
X707400D01*
X698503Y1464500D02*
X717457D01*
X718457Y1465500D01*
X732800D01*
X734429Y1463871D01*
Y1459000D02*
Y1463871D01*
X733100Y1448600D02*
X734429Y1447271D01*
Y1439500D02*
Y1447271D01*
X661043Y1555500D02*
Y1563400D01*
X651703Y1572740D02*
X661043Y1563400D01*
X643500Y1572740D02*
X651703D01*
X542400Y1329000D02*
X542500D01*
X542400Y1310500D02*
X542500D01*
X515000Y1313800D02*
X518000Y1316800D01*
Y1320000D01*
X713035Y1300500D02*
X716000D01*
X614035Y1300763D02*
X617000D01*
X570256Y1460177D02*
Y1463844D01*
X562000Y1472100D02*
X570256Y1463844D01*
X562000Y1472100D02*
Y1489500D01*
X565256Y1460177D02*
Y1465800D01*
X559000Y1472056D02*
X565256Y1465800D01*
X559000Y1472056D02*
Y1473800D01*
X556800Y1476000D02*
X559000Y1473800D01*
X551000Y1476000D02*
X556800D01*
X752673Y1691200D02*
Y1694095D01*
Y1691200D02*
X754973Y1688900D01*
X761600D02*
X764100Y1686400D01*
Y1677400D02*
Y1686400D01*
X763200Y1676500D02*
X764100Y1677400D01*
X751189Y1676500D02*
X763200D01*
X745500Y1682189D02*
X751189Y1676500D01*
X742760Y1682189D02*
X745500D01*
X745756Y1460177D02*
Y1466000D01*
X739500Y1472256D02*
X745756Y1466000D01*
X739500Y1472256D02*
Y1472500D01*
X736000Y1476000D02*
X739500Y1472500D01*
X731500Y1476000D02*
X736000D01*
X549300Y1297500D02*
X560000D01*
X542400D02*
X545850Y1300950D01*
X528000Y1300263D02*
X531965D01*
X740400Y1329000D02*
Y1331900D01*
X716900Y1330400D02*
X718400Y1331900D01*
X716900Y1325500D02*
Y1330400D01*
X641400Y1298000D02*
Y1302100D01*
X650300Y1311000D01*
X659000D01*
X655700Y1334300D02*
X659000Y1337600D01*
X617000Y1331500D02*
X619800Y1334300D01*
X732476Y1410824D02*
Y1414500D01*
Y1410824D02*
X733600Y1409700D01*
X747200D01*
X748300Y1410800D01*
Y1424000D01*
X731500Y1427500D02*
X744800D01*
X640000Y1565260D02*
X643500D01*
X640000Y1557000D02*
X643500D01*
X443453Y1565753D02*
X452200Y1574500D01*
X443453Y1559547D02*
Y1565753D01*
X441453Y1557547D02*
X443453Y1559547D01*
X441453Y1541753D02*
Y1557547D01*
X437000Y1537300D02*
X441453Y1541753D01*
X437000Y1534000D02*
Y1537300D01*
X622000Y1335100D02*
Y1341677D01*
X789300Y1342000D02*
X792500D01*
X788100Y1340800D02*
X789300Y1342000D01*
X788100Y1312042D02*
Y1340800D01*
X784594Y1308535D02*
X788100Y1312042D01*
X779500Y1308535D02*
X784594D01*
X758673Y583000D02*
Y585835D01*
X758122Y586386D02*
X758673Y585835D01*
X437000Y1584000D02*
X445800Y1592800D01*
Y1598100D01*
X452200Y1604500D01*
X474700Y1559500D02*
X477515Y1562315D01*
X478262D01*
X484900Y1568953D01*
Y1587900D01*
X489500Y1592500D01*
X487700Y1572500D02*
X489500D01*
X479400Y1560300D02*
X487700Y1568600D01*
X479400Y1554200D02*
Y1560300D01*
X474700Y1549500D02*
X479400Y1554200D01*
X474700Y1539500D02*
X482100Y1546900D01*
Y1555100D01*
X489500Y1562500D01*
X474700Y1499500D02*
Y1507700D01*
X489500Y1522500D01*
Y1494300D02*
Y1502500D01*
X474700Y1479500D02*
X489500Y1494300D01*
X474700Y1489500D02*
X482100Y1496900D01*
Y1505100D01*
X489500Y1512500D01*
X750618Y1361200D02*
Y1361240D01*
X753460Y1361200D02*
X753500Y1361240D01*
X762362D01*
X651618Y1361700D02*
Y1361740D01*
X654460Y1361700D02*
X654500Y1361740D01*
X663362D01*
X437000Y1554000D02*
Y1557147D01*
X441453Y1561600D01*
Y1573753D01*
X452200Y1584500D01*
X622000Y1320323D02*
Y1324800D01*
X626700Y1329500D01*
X779500Y1596035D02*
Y1626800D01*
X782200Y1629500D01*
X792500D01*
X779500Y1366035D02*
X782700D01*
Y1395200D02*
X787000Y1399500D01*
X792500D01*
X452200Y1544500D02*
Y1548489D01*
X456450Y1552739D01*
Y1556739D01*
X455450Y1557739D02*
X456450Y1556739D01*
X455450Y1557739D02*
Y1561261D01*
X459700Y1565511D01*
Y1569500D01*
Y1573489D01*
X455450Y1577739D02*
X459700Y1573489D01*
X455450Y1577739D02*
Y1581261D01*
X456450Y1582261D01*
Y1586261D01*
X452200Y1590511D02*
X456450Y1586261D01*
X452200Y1590511D02*
Y1594500D01*
X750756Y1460177D02*
Y1463844D01*
X742500Y1472100D02*
X750756Y1463844D01*
X742500Y1472100D02*
Y1489500D01*
X653768Y1601400D02*
Y1604500D01*
X676100Y1601400D02*
X680000Y1597500D01*
X729260Y1674630D02*
X732800D01*
X734700Y1676530D01*
Y1683200D01*
X737500Y1686000D01*
X747900D01*
X752805Y1681095D02*
X759260D01*
X752760Y1703160D02*
Y1705784D01*
X748200Y1698600D02*
X752760Y1703160D01*
X748200Y1685700D02*
Y1698600D01*
X682232Y1540268D02*
X690000Y1532500D01*
X726000Y1300500D02*
X729965D01*
X523000Y1320000D02*
Y1323200D01*
X521400Y1324800D02*
X523000Y1323200D01*
X514800Y1324800D02*
X521400D01*
X512000Y1322000D02*
X514800Y1324800D01*
X506000Y1322000D02*
X512000D01*
X653256Y1460100D02*
Y1460177D01*
X747516Y1427500D02*
Y1429000D01*
X755756Y1460177D02*
Y1461900D01*
X754603D02*
Y1476500D01*
X575256Y1460177D02*
Y1461900D01*
X574103D02*
Y1476500D01*
X663256Y1460177D02*
Y1461900D01*
X662103D02*
Y1476500D01*
X660000Y1540268D02*
X661043D01*
X659000Y1533732D02*
X660000D01*
X650346Y1534000D02*
X659000D01*
X680000Y1532500D02*
Y1533800D01*
X660000Y1533732D02*
X660068Y1533800D01*
X630965Y1300763D02*
X632000D01*
X741362Y1361240D02*
Y1372800D01*
X740662Y1373500D02*
X741362Y1372800D01*
X716800Y1373500D02*
X740662D01*
X713500Y1370200D02*
X716800Y1373500D01*
X713500Y1360193D02*
Y1370200D01*
X655016Y1476000D02*
Y1476500D01*
X654543Y1605276D02*
Y1630500D01*
X653768Y1604500D02*
X654543Y1605276D01*
X562000Y1489500D02*
Y1492900D01*
X560000Y1494900D02*
X562000Y1492900D01*
X548000Y1494900D02*
X560000D01*
X544300Y1491200D02*
X548000Y1494900D01*
X544300Y1486400D02*
Y1491200D01*
X540800Y1482900D02*
X544300Y1486400D01*
X520400Y1482900D02*
X540800D01*
X518500Y1484800D02*
X520400Y1482900D01*
X518500Y1484800D02*
Y1490499D01*
X742520Y1682189D02*
X742760D01*
X500600Y1605274D02*
X506374Y1599500D01*
X500600Y1605274D02*
Y1646726D01*
X506374Y1652500D01*
X459700Y1635511D02*
Y1639500D01*
X455450Y1631261D02*
X459700Y1635511D01*
X455450Y1627739D02*
Y1631261D01*
Y1627739D02*
X459700Y1623489D01*
Y1619500D02*
Y1623489D01*
X502600Y1638726D02*
X506374Y1642500D01*
X502600Y1613274D02*
Y1638726D01*
Y1613274D02*
X506374Y1609500D01*
X474700Y1399500D02*
Y1429500D01*
X792500Y1596193D02*
Y1622413D01*
Y1538693D02*
Y1564913D01*
Y1481193D02*
Y1489246D01*
X787446Y1494300D02*
X792500Y1489246D01*
X787446Y1494300D02*
Y1505600D01*
X789259Y1507413D01*
X792500D01*
Y1366193D02*
Y1380546D01*
X787446Y1385600D02*
X792500Y1380546D01*
X787446Y1385600D02*
Y1390400D01*
X789459Y1392413D01*
X792500D01*
Y1323700D02*
Y1334913D01*
Y1323700D02*
X793600Y1322600D01*
Y1315400D02*
Y1322600D01*
X792500Y1314300D02*
X793600Y1315400D01*
X792500Y1308693D02*
Y1314300D01*
Y1424193D02*
Y1432046D01*
X789359Y1449913D02*
X792500D01*
X538976Y1394500D02*
Y1414500D01*
X719476Y1402924D02*
Y1414500D01*
Y1402924D02*
X719500Y1402900D01*
Y1394524D02*
Y1402900D01*
X719476Y1394500D02*
X719500Y1394524D01*
X626976Y1402924D02*
Y1414500D01*
Y1402924D02*
X627000Y1402900D01*
Y1394524D02*
Y1402900D01*
X626976Y1394500D02*
X627000Y1394524D01*
X740400Y1310500D02*
X740400D01*
X740400D02*
Y1329000D01*
X740400D01*
X641400Y1311000D02*
X641400D01*
X641400D02*
Y1329500D01*
X641400D01*
X552618Y1361200D02*
Y1361240D01*
X555460Y1361200D02*
X555500Y1361240D01*
X564362D01*
X410500Y1707500D02*
Y1717500D01*
X459700Y1449500D02*
Y1459500D01*
X474700Y1449500D02*
Y1459500D01*
X459700Y1439500D02*
Y1449500D01*
X474700Y1439500D02*
Y1449500D01*
X459700Y1429500D02*
Y1439500D01*
X474700Y1429500D02*
Y1439500D01*
X643500Y1539054D02*
Y1544000D01*
Y1539054D02*
X643654Y1538900D01*
Y1534000D02*
Y1538900D01*
X792500Y1342000D02*
X813500D01*
X792500Y1399500D02*
X813500D01*
X792500Y1457000D02*
X813500D01*
X792500Y1514500D02*
X813500D01*
X792500Y1572000D02*
X813500D01*
X792500Y1629500D02*
X813500D01*
X538563Y1297500D02*
X542400D01*
X535800Y1300263D02*
X538563Y1297500D01*
X637563Y1298000D02*
X641400D01*
X634800Y1300763D02*
X637563Y1298000D01*
X736600Y1297500D02*
X740400D01*
X733600Y1300500D02*
X736600Y1297500D01*
X732476Y1483176D02*
Y1489500D01*
X731500Y1482200D02*
X732476Y1483176D01*
X731500Y1476000D02*
Y1482200D01*
X792500Y1694000D02*
X813000D01*
X729260Y1668095D02*
X742520D01*
X551976Y1483176D02*
Y1489500D01*
X551000Y1482200D02*
X551976Y1483176D01*
X551000Y1476000D02*
Y1482200D01*
X560000Y1310500D02*
Y1329000D01*
X538976Y1489500D02*
Y1508000D01*
X626976Y1489500D02*
Y1508000D01*
X719476Y1489500D02*
Y1508000D01*
X570256Y1435746D02*
Y1438823D01*
Y1435746D02*
X574103Y1431900D01*
Y1429000D02*
Y1431900D01*
X658256Y1435746D02*
Y1438823D01*
Y1435746D02*
X662103Y1431900D01*
Y1429000D02*
Y1431900D01*
X750756Y1435746D02*
Y1438823D01*
Y1435746D02*
X754603Y1431900D01*
Y1429000D02*
Y1431900D01*
X792500Y1654000D02*
X813000D01*
X779500D02*
X792500D01*
X647500Y1609668D02*
Y1614654D01*
X647232Y1609400D02*
X647500Y1609668D01*
X647232Y1604500D02*
Y1609400D01*
X792500Y1302000D02*
X813500D01*
X779500D02*
X792500D01*
Y1359500D02*
X813500D01*
X779500D02*
X792500D01*
X803200Y1417000D02*
X813500D01*
X802700Y1417500D02*
X803200Y1417000D01*
X792500Y1417500D02*
X802700D01*
X779500D02*
X792500D01*
Y1474500D02*
X813500D01*
X779500D02*
X792500D01*
Y1532000D02*
X813500D01*
X779500D02*
X792500D01*
Y1589500D02*
X813500D01*
X779500D02*
X792500D01*
X757760Y1700900D02*
Y1705784D01*
Y1700900D02*
X759760Y1698900D01*
Y1694095D02*
Y1698900D01*
X890500Y409941D02*
Y437500D01*
X829337Y409941D02*
Y437500D01*
X502500Y1360193D02*
X515500D01*
X601500Y1360693D02*
X614500D01*
X700500Y1360193D02*
X713500D01*
X606003Y1483700D02*
X606500Y1484197D01*
X606003Y1477500D02*
Y1483700D01*
X489000Y1322000D02*
X506000D01*
X750000Y1668095D02*
X759260D01*
X792500Y1660693D02*
Y1673000D01*
Y1686913D01*
X778689Y490189D02*
X779000Y490500D01*
X831445Y1741445D02*
X836000Y1746000D01*
X829000Y1740035D02*
X830409Y1741445D01*
X836000Y1746000D02*
X863500D01*
X830409Y1741445D02*
X831445D01*
X863500Y1746000D02*
X868500Y1741000D01*
X873000Y1736500D01*
Y1733500D02*
Y1736500D01*
X829000Y1733500D02*
X848000D01*
D16*
X741362Y1361240D02*
D03*
X725173Y1459000D02*
D03*
X632673D02*
D03*
Y1439500D02*
D03*
X725173D02*
D03*
X762362Y1361240D02*
D03*
X544673Y1459000D02*
D03*
X543362Y1361240D02*
D03*
X642362Y1361740D02*
D03*
X564362Y1361240D02*
D03*
X663362Y1361740D02*
D03*
X544673Y1439500D02*
D03*
D17*
X750618Y1361240D02*
D03*
X734429Y1459000D02*
D03*
X641929D02*
D03*
Y1439500D02*
D03*
X734429D02*
D03*
X771618Y1361240D02*
D03*
X553929Y1459000D02*
D03*
X552618Y1361240D02*
D03*
X651618Y1361740D02*
D03*
X573618Y1361240D02*
D03*
X672618Y1361740D02*
D03*
X553929Y1439500D02*
D03*
D18*
X699000Y1413421D02*
D03*
X706087D02*
D03*
X699000Y1490499D02*
D03*
X706087D02*
D03*
X606500D02*
D03*
X613587D02*
D03*
X747516Y1476500D02*
D03*
X754603D02*
D03*
X574103D02*
D03*
X567016D02*
D03*
X518500Y1413421D02*
D03*
X525587D02*
D03*
X655016Y1476500D02*
D03*
X662103D02*
D03*
X606500Y1413421D02*
D03*
X613587D02*
D03*
X518500Y1490499D02*
D03*
X525587D02*
D03*
X747516Y1429000D02*
D03*
X754603D02*
D03*
X574103D02*
D03*
X567016D02*
D03*
X655016D02*
D03*
X662103D02*
D03*
X653957Y1555500D02*
D03*
X661043D02*
D03*
X647457Y1630500D02*
D03*
X654543D02*
D03*
X759760Y1694095D02*
D03*
X752673D02*
D03*
D19*
X606103Y1433500D02*
D03*
Y1446500D02*
D03*
X489000Y1335000D02*
D03*
Y1322000D02*
D03*
X758000Y1329000D02*
D03*
Y1342000D02*
D03*
X740400D02*
D03*
Y1329000D02*
D03*
X518103Y1433500D02*
D03*
Y1446500D02*
D03*
X606003Y1477500D02*
D03*
Y1464500D02*
D03*
X542400Y1342000D02*
D03*
Y1329000D02*
D03*
X560000Y1342000D02*
D03*
Y1329000D02*
D03*
X506000Y1322000D02*
D03*
Y1335000D02*
D03*
X542400Y1310500D02*
D03*
Y1297500D02*
D03*
X560000D02*
D03*
Y1310500D02*
D03*
X588000Y1322500D02*
D03*
Y1335500D02*
D03*
X641400Y1329500D02*
D03*
Y1342500D02*
D03*
X605000Y1335500D02*
D03*
Y1322500D02*
D03*
X704000Y1335000D02*
D03*
Y1322000D02*
D03*
X687000Y1335000D02*
D03*
Y1322000D02*
D03*
X740400Y1310500D02*
D03*
Y1297500D02*
D03*
X758000D02*
D03*
Y1310500D02*
D03*
X641400Y1298000D02*
D03*
Y1311000D02*
D03*
X659000Y1342500D02*
D03*
Y1329500D02*
D03*
Y1311000D02*
D03*
Y1298000D02*
D03*
X698603Y1433500D02*
D03*
Y1446500D02*
D03*
X698503Y1477500D02*
D03*
Y1464500D02*
D03*
X518003Y1477500D02*
D03*
Y1464500D02*
D03*
X759260Y1668095D02*
D03*
Y1681095D02*
D03*
X643500Y1544000D02*
D03*
Y1557000D02*
D03*
D20*
X755500Y1489500D02*
D03*
X742500D02*
D03*
X562000D02*
D03*
X575000D02*
D03*
X562000Y1414500D02*
D03*
X575000D02*
D03*
X639976D02*
D03*
X626976D02*
D03*
X755500D02*
D03*
X742500D02*
D03*
X732476D02*
D03*
X719476D02*
D03*
X551976Y1489500D02*
D03*
X538976D02*
D03*
X663000Y1414500D02*
D03*
X650000D02*
D03*
X551976D02*
D03*
X538976D02*
D03*
X639976Y1489500D02*
D03*
X626976D02*
D03*
X528500Y1360193D02*
D03*
X515500D02*
D03*
X489500D02*
D03*
X502500D02*
D03*
X614500Y1360693D02*
D03*
X627500D02*
D03*
X588500D02*
D03*
X601500D02*
D03*
X687500Y1360193D02*
D03*
X700500D02*
D03*
X726500D02*
D03*
X713500D02*
D03*
X732476Y1489500D02*
D03*
X719476D02*
D03*
X663000D02*
D03*
X650000D02*
D03*
D21*
X792500Y1481193D02*
D03*
Y1474500D02*
D03*
Y1538693D02*
D03*
Y1532000D02*
D03*
Y1366193D02*
D03*
Y1359500D02*
D03*
Y1424193D02*
D03*
Y1417500D02*
D03*
Y1308693D02*
D03*
Y1302000D02*
D03*
Y1589500D02*
D03*
Y1596193D02*
D03*
Y1660693D02*
D03*
Y1654000D02*
D03*
X647500Y1621346D02*
D03*
Y1614654D02*
D03*
D22*
X639000Y1427500D02*
D03*
X622071D02*
D03*
X731500D02*
D03*
X714571D02*
D03*
X622071Y1476000D02*
D03*
X639000D02*
D03*
X551000D02*
D03*
X534071D02*
D03*
X551000Y1427500D02*
D03*
X534071D02*
D03*
X731500Y1476000D02*
D03*
X714571D02*
D03*
X531965Y1300263D02*
D03*
X515035D02*
D03*
X713035Y1300500D02*
D03*
X729965D02*
D03*
X630965Y1300763D02*
D03*
X614035D02*
D03*
D23*
X467750Y491689D02*
D03*
Y415311D02*
D03*
X421000Y491689D02*
D03*
Y415311D02*
D03*
X514500Y491689D02*
D03*
Y415311D02*
D03*
D24*
X779500Y1302000D02*
D03*
Y1308535D02*
D03*
Y1589500D02*
D03*
Y1596035D02*
D03*
Y1532000D02*
D03*
Y1538535D02*
D03*
X829000Y1740035D02*
D03*
Y1733500D02*
D03*
X779500Y1359500D02*
D03*
Y1366035D02*
D03*
X660000Y1533732D02*
D03*
Y1540268D02*
D03*
X779500Y1417500D02*
D03*
Y1424035D02*
D03*
Y1474500D02*
D03*
Y1481035D02*
D03*
Y1654000D02*
D03*
Y1660535D02*
D03*
X729260Y1668095D02*
D03*
Y1674630D02*
D03*
D25*
X792500Y1399500D02*
D03*
Y1392413D02*
D03*
Y1572000D02*
D03*
Y1564913D02*
D03*
Y1457000D02*
D03*
Y1449913D02*
D03*
Y1342000D02*
D03*
Y1334913D02*
D03*
Y1694000D02*
D03*
Y1686913D02*
D03*
Y1507413D02*
D03*
Y1514500D02*
D03*
Y1622413D02*
D03*
Y1629500D02*
D03*
D26*
X643500Y1565260D02*
D03*
Y1572740D02*
D03*
D27*
X663256Y1460177D02*
D03*
X658256D02*
D03*
X653256D02*
D03*
X648256D02*
D03*
Y1438823D02*
D03*
X653256D02*
D03*
X658256D02*
D03*
X663256D02*
D03*
X755756D02*
D03*
X750756D02*
D03*
X745756D02*
D03*
X740756D02*
D03*
Y1460177D02*
D03*
X745756D02*
D03*
X750756D02*
D03*
X755756D02*
D03*
X575256D02*
D03*
X570256D02*
D03*
X565256D02*
D03*
X560256D02*
D03*
Y1438823D02*
D03*
X565256D02*
D03*
X570256D02*
D03*
X575256D02*
D03*
X533000Y1320000D02*
D03*
X528000D02*
D03*
X523000D02*
D03*
X518000D02*
D03*
Y1341354D02*
D03*
X523000D02*
D03*
X528000D02*
D03*
X533000D02*
D03*
X632000Y1341677D02*
D03*
X627000D02*
D03*
X622000D02*
D03*
X617000D02*
D03*
Y1320323D02*
D03*
X622000D02*
D03*
X627000D02*
D03*
X632000D02*
D03*
X731000Y1341177D02*
D03*
X726000D02*
D03*
X721000D02*
D03*
X716000D02*
D03*
Y1319823D02*
D03*
X721000D02*
D03*
X726000D02*
D03*
X731000D02*
D03*
D28*
X650346Y1534000D02*
D03*
X643654D02*
D03*
D29*
X653768Y1604500D02*
D03*
X647232D02*
D03*
D30*
X737760Y1705784D02*
D03*
X742760D02*
D03*
X747760D02*
D03*
X752760D02*
D03*
X757760D02*
D03*
D31*
X747760Y1729406D02*
D03*
D32*
X742760Y1682189D02*
D03*
Y1694000D02*
D03*
D33*
X742520Y1668095D02*
D03*
X750000D02*
D03*
D79*
X498000Y1077589D02*
X536411Y1116000D01*
X498000Y725000D02*
Y1077589D01*
Y725000D02*
X569669Y653331D01*
X536411Y1116000D02*
X560000D01*
X458500Y826500D02*
X469400Y837400D01*
Y870415D01*
X469000Y870815D02*
X469400Y870415D01*
X469000Y870815D02*
Y1073000D01*
X512000Y1116000D01*
X619669Y1146169D02*
Y1170000D01*
X559669Y1146331D02*
Y1170000D01*
X512000Y1146000D02*
Y1170500D01*
X452000Y1146000D02*
Y1170500D01*
X619669Y965169D02*
Y990000D01*
X559669Y965169D02*
Y990000D01*
X452000Y965000D02*
Y990000D01*
X512000Y965000D02*
Y990000D01*
D80*
X691208Y653331D02*
X746284D01*
X569669D02*
X691208D01*
X515331D02*
X569669D01*
X697510Y540510D02*
X740000Y583000D01*
X697510Y490189D02*
Y540510D01*
X740000Y583000D02*
X758673D01*
Y490189D02*
X778689D01*
X629346Y577581D02*
Y583000D01*
X636347Y490189D02*
Y570580D01*
X629346Y577581D02*
X636347Y570580D01*
X514500Y490189D02*
X575184D01*
X473000Y590000D02*
X488000Y605000D01*
X607346D02*
X629346Y583000D01*
X488000Y605000D02*
X607346D01*
X473000Y495439D02*
Y590000D01*
X442169Y580169D02*
X515331Y653331D01*
X442169Y512169D02*
Y580169D01*
X421000Y491665D02*
X427909Y498575D01*
X428575D01*
X421000Y490189D02*
Y491665D01*
X428575Y498575D02*
X442169Y512169D01*
X758000Y587610D02*
X758122Y587488D01*
X758000Y587610D02*
Y641615D01*
X758122Y586386D02*
Y587488D01*
X746284Y653331D02*
X758000Y641615D01*
X500020Y579063D02*
X514500Y564583D01*
Y490189D02*
Y564583D01*
X500020Y579063D02*
Y583000D01*
X467750Y490189D02*
X473000Y495439D01*
D81*
X417000Y1423000D02*
D03*
Y1443000D02*
D03*
Y1463000D02*
D03*
Y1483000D02*
D03*
Y1503000D02*
D03*
Y1523000D02*
D03*
X415500Y1297500D02*
D03*
Y1312500D02*
D03*
X893000Y1022193D02*
D03*
Y1002193D02*
D03*
Y735657D02*
D03*
Y915657D02*
D03*
Y715657D02*
D03*
Y802193D02*
D03*
Y935657D02*
D03*
Y822193D02*
D03*
Y1135657D02*
D03*
Y1222193D02*
D03*
Y1202193D02*
D03*
Y1115657D02*
D03*
X417036Y1608000D02*
D03*
X626976Y1394500D02*
D03*
X417036Y1672500D02*
D03*
X880999Y490189D02*
D03*
X417036Y1651000D02*
D03*
Y1629500D02*
D03*
X614035Y1280000D02*
D03*
X713035Y1278000D02*
D03*
X515035Y1280000D02*
D03*
X626976Y1508000D02*
D03*
X538976Y1508000D02*
D03*
Y1394500D02*
D03*
X719476Y1508000D02*
D03*
Y1394500D02*
D03*
X632000Y1280000D02*
D03*
X533000D02*
D03*
X819836Y490189D02*
D03*
X758673D02*
D03*
X575184D02*
D03*
X697510D02*
D03*
X636347D02*
D03*
X730965Y1278000D02*
D03*
X407500Y1179500D02*
D03*
Y1202500D02*
D03*
Y1225500D02*
D03*
Y1246500D02*
D03*
D82*
X409449Y527559D02*
D03*
X889764D02*
D03*
X409449Y1275591D02*
D03*
X889764D02*
D03*
D83*
X410500Y1697500D02*
D03*
X420650Y1697450D02*
D03*
Y1727450D02*
D03*
Y1717450D02*
D03*
X410500Y1707500D02*
D03*
X420650Y1707450D02*
D03*
Y1757450D02*
D03*
X420800Y1747400D02*
D03*
X410500Y1727500D02*
D03*
X410700Y1737600D02*
D03*
Y1747500D02*
D03*
Y1757500D02*
D03*
X410500Y1717500D02*
D03*
X420650Y1737450D02*
D03*
D84*
X619669Y1170000D02*
D03*
Y1250000D02*
D03*
X589669D02*
D03*
X559669D02*
D03*
Y1170000D02*
D03*
X619669Y990000D02*
D03*
Y1070000D02*
D03*
X589669D02*
D03*
X559669D02*
D03*
Y990000D02*
D03*
X512000D02*
D03*
Y1070000D02*
D03*
X482000D02*
D03*
X452000D02*
D03*
Y990000D02*
D03*
X512000Y1170500D02*
D03*
Y1250500D02*
D03*
X482000D02*
D03*
X452000D02*
D03*
Y1170500D02*
D03*
D85*
X437000Y1424000D02*
D03*
Y1434000D02*
D03*
Y1444000D02*
D03*
Y1454000D02*
D03*
Y1464000D02*
D03*
Y1474000D02*
D03*
Y1484000D02*
D03*
Y1494000D02*
D03*
Y1504000D02*
D03*
Y1514000D02*
D03*
Y1524000D02*
D03*
Y1534000D02*
D03*
Y1544000D02*
D03*
Y1554000D02*
D03*
Y1564000D02*
D03*
Y1574000D02*
D03*
Y1584000D02*
D03*
Y1594000D02*
D03*
Y1604000D02*
D03*
Y1614000D02*
D03*
Y1624000D02*
D03*
X489500Y1732500D02*
D03*
Y1722500D02*
D03*
Y1712500D02*
D03*
Y1702500D02*
D03*
Y1692500D02*
D03*
Y1682500D02*
D03*
Y1672500D02*
D03*
Y1662500D02*
D03*
Y1652500D02*
D03*
Y1642500D02*
D03*
Y1632500D02*
D03*
Y1622500D02*
D03*
Y1612500D02*
D03*
Y1602500D02*
D03*
Y1592500D02*
D03*
Y1582500D02*
D03*
Y1572500D02*
D03*
Y1562500D02*
D03*
Y1552500D02*
D03*
Y1542500D02*
D03*
Y1532500D02*
D03*
Y1522500D02*
D03*
Y1512500D02*
D03*
Y1502500D02*
D03*
D86*
X437000Y1634000D02*
D03*
X489500Y1742500D02*
D03*
D87*
X458500Y741400D02*
D03*
Y702000D02*
D03*
Y865900D02*
D03*
Y826500D02*
D03*
X581500D02*
D03*
Y865900D02*
D03*
Y702000D02*
D03*
Y741400D02*
D03*
D88*
X681500Y1741500D02*
D03*
X617500D02*
D03*
D89*
X681500Y1751500D02*
D03*
X617500D02*
D03*
D90*
X848000Y1733500D02*
D03*
X873000D02*
D03*
D91*
X858000Y1753500D02*
D03*
D92*
X559500Y935000D02*
D03*
Y965000D02*
D03*
X452000Y935000D02*
D03*
Y965000D02*
D03*
X512000Y935000D02*
D03*
Y965000D02*
D03*
X619500Y935000D02*
D03*
Y965000D02*
D03*
X512000Y1146000D02*
D03*
Y1116000D02*
D03*
X619500Y1146000D02*
D03*
Y1116000D02*
D03*
X560000Y1146000D02*
D03*
Y1116000D02*
D03*
X452000Y1146000D02*
D03*
Y1116000D02*
D03*
D93*
X883000Y1694000D02*
D03*
X883500Y1629500D02*
D03*
Y1399500D02*
D03*
Y1514500D02*
D03*
Y1572000D02*
D03*
Y1342000D02*
D03*
X750000Y1637500D02*
D03*
X883500Y1457000D02*
D03*
X750000Y1572500D02*
D03*
D94*
X823000Y1694000D02*
D03*
X813000D02*
D03*
Y1654000D02*
D03*
X823000D02*
D03*
X883000D02*
D03*
X823500Y1629500D02*
D03*
X813500D02*
D03*
Y1589500D02*
D03*
X823500D02*
D03*
X883500D02*
D03*
X823500Y1399500D02*
D03*
X813500D02*
D03*
Y1359500D02*
D03*
X823500D02*
D03*
X883500D02*
D03*
X823500Y1514500D02*
D03*
X813500D02*
D03*
Y1474500D02*
D03*
X823500D02*
D03*
X883500D02*
D03*
X823500Y1572000D02*
D03*
X813500D02*
D03*
Y1532000D02*
D03*
X823500D02*
D03*
X883500D02*
D03*
X823500Y1342000D02*
D03*
X813500D02*
D03*
Y1302000D02*
D03*
X823500D02*
D03*
X883500D02*
D03*
X690000Y1637500D02*
D03*
X680000D02*
D03*
Y1597500D02*
D03*
X690000D02*
D03*
X750000D02*
D03*
X823500Y1457000D02*
D03*
X813500D02*
D03*
Y1417000D02*
D03*
X823500D02*
D03*
X883500D02*
D03*
X750000Y1532500D02*
D03*
X690000D02*
D03*
X680000D02*
D03*
Y1572500D02*
D03*
X690000D02*
D03*
D95*
X687326Y437500D02*
D03*
X707011D02*
D03*
X687326Y409941D02*
D03*
X707011D02*
D03*
X829337D02*
D03*
X809652D02*
D03*
X829337Y437500D02*
D03*
X809652D02*
D03*
X565000D02*
D03*
X584685D02*
D03*
X565000Y409941D02*
D03*
X584685D02*
D03*
X890500D02*
D03*
X870815D02*
D03*
X890500Y437500D02*
D03*
X870815D02*
D03*
X645848Y409941D02*
D03*
X626163D02*
D03*
X645848Y437500D02*
D03*
X626163D02*
D03*
X748489D02*
D03*
X768174D02*
D03*
X748489Y409941D02*
D03*
X768174D02*
D03*
D96*
X490000Y1410000D02*
D03*
Y1430000D02*
D03*
Y1450000D02*
D03*
Y1460000D02*
D03*
Y1470000D02*
D03*
Y1440000D02*
D03*
Y1420000D02*
D03*
X437500Y1343000D02*
D03*
Y1363000D02*
D03*
Y1393000D02*
D03*
Y1383000D02*
D03*
Y1373000D02*
D03*
Y1353000D02*
D03*
Y1333000D02*
D03*
D97*
X490000Y1480000D02*
D03*
X437500Y1403000D02*
D03*
D98*
X412000Y583000D02*
D03*
X502000D02*
D03*
X668673D02*
D03*
X758673D02*
D03*
X539346D02*
D03*
X629346D02*
D03*
X888000D02*
D03*
X798000D02*
D03*
D99*
X459480Y528000D02*
D03*
Y638000D02*
D03*
Y618000D02*
D03*
X716154Y528000D02*
D03*
Y638000D02*
D03*
Y618000D02*
D03*
X586827Y528000D02*
D03*
Y638000D02*
D03*
Y618000D02*
D03*
X845480D02*
D03*
Y638000D02*
D03*
Y528000D02*
D03*
D100*
X463500Y1362000D02*
D03*
Y1672000D02*
D03*
D101*
X452200Y1374500D02*
D03*
X459700Y1379500D02*
D03*
X452200Y1384500D02*
D03*
X459700Y1389500D02*
D03*
X467200Y1384500D02*
D03*
X452200Y1394500D02*
D03*
X459700Y1399500D02*
D03*
X467200Y1394500D02*
D03*
X474700Y1379500D02*
D03*
Y1389500D02*
D03*
Y1399500D02*
D03*
X452200Y1434500D02*
D03*
X467200D02*
D03*
X452200Y1424500D02*
D03*
X467200D02*
D03*
Y1444500D02*
D03*
X452200D02*
D03*
Y1454500D02*
D03*
X467200D02*
D03*
X452200Y1464500D02*
D03*
X459700Y1469500D02*
D03*
X467200Y1464500D02*
D03*
X474700Y1469500D02*
D03*
Y1479500D02*
D03*
X467200Y1474500D02*
D03*
X459700Y1479500D02*
D03*
X452200Y1474500D02*
D03*
Y1484500D02*
D03*
X474700Y1489500D02*
D03*
X467200Y1484500D02*
D03*
X459700Y1489500D02*
D03*
X452200Y1494500D02*
D03*
X459700Y1499500D02*
D03*
X467200Y1494500D02*
D03*
X474700Y1499500D02*
D03*
Y1529500D02*
D03*
X467200Y1524500D02*
D03*
X459700Y1529500D02*
D03*
X452200Y1524500D02*
D03*
X467200Y1534500D02*
D03*
X452200D02*
D03*
X459700Y1539500D02*
D03*
X474700D02*
D03*
Y1549500D02*
D03*
X459700D02*
D03*
X452200Y1544500D02*
D03*
X474700Y1559500D02*
D03*
X467200Y1554500D02*
D03*
X459700Y1559500D02*
D03*
X452200Y1554500D02*
D03*
X467200Y1564500D02*
D03*
X452200D02*
D03*
X459700Y1569500D02*
D03*
X474700D02*
D03*
Y1579500D02*
D03*
X467200Y1574500D02*
D03*
X459700Y1579500D02*
D03*
X452200Y1574500D02*
D03*
X474700Y1589500D02*
D03*
X467200Y1584500D02*
D03*
X459700Y1589500D02*
D03*
X452200Y1584500D02*
D03*
Y1594500D02*
D03*
X459700Y1599500D02*
D03*
X474700D02*
D03*
Y1609500D02*
D03*
X467200Y1604500D02*
D03*
X459700Y1609500D02*
D03*
X452200Y1604500D02*
D03*
X474700Y1619500D02*
D03*
X467200Y1614500D02*
D03*
X459700Y1619500D02*
D03*
X452200Y1614500D02*
D03*
X474700Y1629500D02*
D03*
X467200Y1624500D02*
D03*
X459700Y1629500D02*
D03*
X452200Y1624500D02*
D03*
X474700Y1639500D02*
D03*
X467200Y1634500D02*
D03*
X459700Y1639500D02*
D03*
X452200Y1634500D02*
D03*
X474700Y1649500D02*
D03*
X459700D02*
D03*
X452200Y1644500D02*
D03*
X474700Y1659500D02*
D03*
X467200Y1654500D02*
D03*
X459700Y1659500D02*
D03*
X452200Y1654500D02*
D03*
X474700Y1459500D02*
D03*
Y1429500D02*
D03*
Y1449500D02*
D03*
X459700Y1459500D02*
D03*
Y1429500D02*
D03*
Y1449500D02*
D03*
Y1439500D02*
D03*
X467200Y1544500D02*
D03*
Y1644500D02*
D03*
Y1594500D02*
D03*
X474700Y1439500D02*
D03*
D102*
X467200Y1374500D02*
D03*
D103*
X818500Y760500D02*
D03*
X653146D02*
D03*
Y1167500D02*
D03*
X818500D02*
D03*
X653146Y964000D02*
D03*
X818500D02*
D03*
D104*
X879748Y1115657D02*
D03*
Y1095657D02*
D03*
Y1135657D02*
D03*
Y1125657D02*
D03*
Y1202193D02*
D03*
Y1182193D02*
D03*
Y1222193D02*
D03*
Y1212193D02*
D03*
Y915657D02*
D03*
Y895657D02*
D03*
Y935657D02*
D03*
Y925657D02*
D03*
Y1002193D02*
D03*
Y982193D02*
D03*
Y1022193D02*
D03*
Y1012193D02*
D03*
Y812193D02*
D03*
Y822193D02*
D03*
Y782193D02*
D03*
Y802193D02*
D03*
Y725657D02*
D03*
Y735657D02*
D03*
Y695657D02*
D03*
Y715657D02*
D03*
D105*
X860000Y1249350D02*
D03*
Y1068500D02*
D03*
Y1049350D02*
D03*
Y868500D02*
D03*
Y668500D02*
D03*
Y849350D02*
D03*
D106*
X767717Y1748031D02*
D03*
X531496D02*
D03*
D107*
X506374Y1619500D02*
D03*
Y1672500D02*
D03*
D108*
Y1609500D02*
D03*
Y1599500D02*
D03*
Y1589500D02*
D03*
X537626D02*
D03*
Y1599500D02*
D03*
Y1609500D02*
D03*
Y1619500D02*
D03*
X506374Y1662500D02*
D03*
Y1652500D02*
D03*
Y1642500D02*
D03*
X537626D02*
D03*
Y1652500D02*
D03*
Y1662500D02*
D03*
Y1672500D02*
D03*
D109*
X786000Y1665500D02*
D03*
Y1660500D02*
D03*
Y1424000D02*
D03*
X689500Y1432000D02*
D03*
X786000Y1479500D02*
D03*
X784000Y1231500D02*
D03*
X792000D02*
D03*
X513400Y1689300D02*
D03*
X797600Y1481193D02*
D03*
X785300Y832500D02*
D03*
Y849900D02*
D03*
X575100Y1449600D02*
D03*
X655956Y1449000D02*
D03*
X720800Y1350600D02*
D03*
X733600Y1468700D02*
D03*
X511300Y1467300D02*
D03*
X650000D02*
D03*
X525500Y1335500D02*
D03*
X782600Y1021000D02*
D03*
X783200Y816400D02*
D03*
X807800Y1295600D02*
D03*
X826000Y1107100D02*
D03*
X784600Y1538535D02*
D03*
X624400Y1313400D02*
D03*
X634800Y1417100D02*
D03*
X738300Y1444300D02*
D03*
X727200Y1349500D02*
D03*
X722500Y1476000D02*
D03*
X683700Y1511200D02*
D03*
X586800Y683000D02*
D03*
X572000Y1216800D02*
D03*
X577300Y1331000D02*
D03*
X744700Y863700D02*
D03*
X755500Y1504600D02*
D03*
X536700Y1346700D02*
D03*
X744700Y1351000D02*
D03*
X542900Y1479900D02*
D03*
X523000Y1347300D02*
D03*
X504300Y1307563D02*
D03*
X720100Y1328700D02*
D03*
X628100Y1310200D02*
D03*
X547800Y1273500D02*
D03*
X589600Y1431000D02*
D03*
X455700Y1207800D02*
D03*
X817200Y805800D02*
D03*
X610400Y1344600D02*
D03*
X712800Y1347400D02*
D03*
X605000Y1316800D02*
D03*
X663000Y1408300D02*
D03*
X628800Y1349200D02*
D03*
X826700Y1212800D02*
D03*
X529800Y1348900D02*
D03*
X552400Y1449600D02*
D03*
X803500Y1036100D02*
D03*
X782600Y1041000D02*
D03*
X803500Y1239600D02*
D03*
X782600Y1244500D02*
D03*
X788000Y1212900D02*
D03*
X492300Y1302000D02*
D03*
X788300Y805900D02*
D03*
Y822100D02*
D03*
X787957Y1014900D02*
D03*
X782600Y1011000D02*
D03*
X836344Y1253756D02*
D03*
X817155Y805756D02*
D03*
X811311Y811600D02*
D03*
D110*
X701000Y1036500D02*
D03*
X701500Y832125D02*
D03*
X795000Y655000D02*
D03*
X792500Y1673000D02*
D03*
M02*
