G04*
G04 #@! TF.GenerationSoftware,Altium Limited,Altium Designer,24.4.1 (13)*
G04*
G04 Layer_Color=16711935*
%FSLAX25Y25*%
%MOIN*%
G70*
G04*
G04 #@! TF.SameCoordinates,4EE5E999-D737-4110-A4F5-E65D847AD794*
G04*
G04*
G04 #@! TF.FilePolarity,Negative*
G04*
G01*
G75*
%ADD34R,0.10827X0.10394*%
%ADD35R,0.03394X0.05394*%
%ADD36R,0.04921X0.06102*%
%ADD37R,0.06894X0.06394*%
%ADD38R,0.06394X0.06894*%
%ADD40R,0.09252X0.06890*%
%ADD42R,0.06181X0.04213*%
%ADD45R,0.02953X0.06398*%
%ADD52C,0.09094*%
%ADD53C,0.13386*%
%ADD54O,0.08994X0.06394*%
%ADD55C,0.07480*%
%ADD56C,0.06299*%
%ADD57R,0.06299X0.06299*%
%ADD58C,0.13194*%
%ADD59R,0.07185X0.07185*%
%ADD60C,0.07185*%
%ADD61R,0.10394X0.16394*%
%ADD62R,0.16394X0.10394*%
%ADD63C,0.12205*%
%ADD64R,0.05118X0.05118*%
%ADD65C,0.05118*%
%ADD66C,0.11694*%
%ADD67O,0.09394X0.06894*%
%ADD68R,0.09394X0.06894*%
%ADD69O,0.19291X0.27165*%
%ADD70C,0.09055*%
%ADD71C,0.12394*%
%ADD72O,0.09394X0.08694*%
%ADD73C,0.16142*%
%ADD74C,0.25197*%
%ADD75R,0.04854X0.04854*%
%ADD76C,0.04854*%
%ADD77C,0.03794*%
%ADD78C,0.05394*%
%ADD118R,0.06890X0.09252*%
%ADD119R,0.04134X0.06102*%
%ADD120R,0.05394X0.03394*%
%ADD121R,0.10394X0.10827*%
%ADD122R,0.08071X0.02953*%
%ADD123R,0.14370X0.06496*%
D34*
X744254Y1361500D02*
D03*
X765116D02*
D03*
X567116D02*
D03*
X666116Y1362000D02*
D03*
X645254D02*
D03*
X546116Y1361240D02*
D03*
D35*
X734998Y1361500D02*
D03*
X755860D02*
D03*
X557860D02*
D03*
X656860Y1362000D02*
D03*
X635998D02*
D03*
X536860Y1361240D02*
D03*
D36*
X701000Y1252500D02*
D03*
X708087D02*
D03*
X795000Y1263500D02*
D03*
X787913D02*
D03*
X795043Y1224000D02*
D03*
X787957D02*
D03*
X795543Y817000D02*
D03*
X788457D02*
D03*
X701500Y845500D02*
D03*
X708587D02*
D03*
X795500Y856500D02*
D03*
X788413D02*
D03*
X795000Y1060000D02*
D03*
X787913D02*
D03*
X701000Y1049000D02*
D03*
X708087D02*
D03*
X795043Y1020500D02*
D03*
X787957D02*
D03*
D37*
X758100Y1297500D02*
D03*
Y1310500D02*
D03*
Y1329000D02*
D03*
Y1342000D02*
D03*
X740600Y1297500D02*
D03*
Y1310500D02*
D03*
X704100Y1322000D02*
D03*
Y1335000D02*
D03*
X687100Y1322000D02*
D03*
Y1335000D02*
D03*
X658900Y1342500D02*
D03*
Y1329500D02*
D03*
X641600D02*
D03*
Y1342500D02*
D03*
Y1298000D02*
D03*
Y1311000D02*
D03*
X659100Y1298000D02*
D03*
Y1311000D02*
D03*
X740600Y1329000D02*
D03*
Y1342000D02*
D03*
X588100Y1322500D02*
D03*
Y1335500D02*
D03*
X605100Y1322500D02*
D03*
Y1335500D02*
D03*
X542600Y1297500D02*
D03*
Y1310500D02*
D03*
X560100Y1297500D02*
D03*
Y1310500D02*
D03*
X506100Y1322000D02*
D03*
Y1335000D02*
D03*
X560100Y1329000D02*
D03*
Y1342000D02*
D03*
X542600Y1329000D02*
D03*
Y1342000D02*
D03*
X489100Y1322000D02*
D03*
Y1335000D02*
D03*
X786500Y638000D02*
D03*
Y651000D02*
D03*
X527000Y1237500D02*
D03*
Y1224500D02*
D03*
X724500Y1252500D02*
D03*
Y1239500D02*
D03*
X725000Y845500D02*
D03*
Y832500D02*
D03*
X724500Y1049000D02*
D03*
Y1036000D02*
D03*
D38*
X627500Y1360500D02*
D03*
X614500D02*
D03*
X601500D02*
D03*
X588500D02*
D03*
X726500Y1360000D02*
D03*
X713500D02*
D03*
X700500D02*
D03*
X687500D02*
D03*
X502500D02*
D03*
X489500D02*
D03*
X528500D02*
D03*
X515500D02*
D03*
X714000Y1225500D02*
D03*
X701000D02*
D03*
X714000Y1214500D02*
D03*
X701000D02*
D03*
X714500Y807500D02*
D03*
X701500D02*
D03*
X714500Y818500D02*
D03*
X701500D02*
D03*
X714000Y1011000D02*
D03*
X701000D02*
D03*
X714000Y1022000D02*
D03*
X701000D02*
D03*
D40*
X729965Y1300263D02*
D03*
X713035D02*
D03*
X630965Y1300763D02*
D03*
X614035D02*
D03*
X531965Y1300263D02*
D03*
X515035D02*
D03*
D42*
X724500Y1231035D02*
D03*
Y1224500D02*
D03*
X725000Y824035D02*
D03*
Y817500D02*
D03*
X724500Y1027535D02*
D03*
Y1021000D02*
D03*
D45*
X617000Y1341677D02*
D03*
X622000D02*
D03*
X627000D02*
D03*
X632000D02*
D03*
Y1320323D02*
D03*
X627000D02*
D03*
X622000D02*
D03*
X617000D02*
D03*
X716000Y1341354D02*
D03*
X721000D02*
D03*
X726000D02*
D03*
X731000D02*
D03*
Y1320000D02*
D03*
X726000D02*
D03*
X721000D02*
D03*
X716000D02*
D03*
X518000Y1341177D02*
D03*
X523000D02*
D03*
X528000D02*
D03*
X533000D02*
D03*
Y1319823D02*
D03*
X528000D02*
D03*
X523000D02*
D03*
X518000D02*
D03*
D52*
X417000Y1423000D02*
D03*
Y1443000D02*
D03*
Y1463000D02*
D03*
Y1483000D02*
D03*
Y1503000D02*
D03*
Y1523000D02*
D03*
X415500Y1297500D02*
D03*
Y1312500D02*
D03*
X893000Y1022193D02*
D03*
Y1002193D02*
D03*
Y735657D02*
D03*
Y915657D02*
D03*
Y715657D02*
D03*
Y802193D02*
D03*
Y935657D02*
D03*
Y822193D02*
D03*
Y1135657D02*
D03*
Y1222193D02*
D03*
Y1202193D02*
D03*
Y1115657D02*
D03*
X417036Y1608000D02*
D03*
X626976Y1394500D02*
D03*
X417036Y1672500D02*
D03*
X880999Y490189D02*
D03*
X417036Y1651000D02*
D03*
Y1629500D02*
D03*
X614035Y1280000D02*
D03*
X713035Y1278000D02*
D03*
X515035Y1280000D02*
D03*
X626976Y1508000D02*
D03*
X538976Y1508000D02*
D03*
Y1394500D02*
D03*
X719476Y1508000D02*
D03*
Y1394500D02*
D03*
X632000Y1280000D02*
D03*
X533000D02*
D03*
X819836Y490189D02*
D03*
X758673D02*
D03*
X575184D02*
D03*
X697510D02*
D03*
X636347D02*
D03*
X730965Y1278000D02*
D03*
X407500Y1179500D02*
D03*
Y1202500D02*
D03*
Y1225500D02*
D03*
Y1246500D02*
D03*
D53*
X409449Y527559D02*
D03*
X889764D02*
D03*
X409449Y1275591D02*
D03*
X889764D02*
D03*
D54*
X410500Y1697500D02*
D03*
X420650Y1697450D02*
D03*
Y1727450D02*
D03*
Y1717450D02*
D03*
X410500Y1707500D02*
D03*
X420650Y1707450D02*
D03*
Y1757450D02*
D03*
X420800Y1747400D02*
D03*
X410500Y1727500D02*
D03*
X410700Y1737600D02*
D03*
Y1747500D02*
D03*
Y1757500D02*
D03*
X410500Y1717500D02*
D03*
X420650Y1737450D02*
D03*
D55*
X619669Y1170000D02*
D03*
Y1250000D02*
D03*
X589669D02*
D03*
X559669D02*
D03*
Y1170000D02*
D03*
X619669Y990000D02*
D03*
Y1070000D02*
D03*
X589669D02*
D03*
X559669D02*
D03*
Y990000D02*
D03*
X512000D02*
D03*
Y1070000D02*
D03*
X482000D02*
D03*
X452000D02*
D03*
Y990000D02*
D03*
X512000Y1170500D02*
D03*
Y1250500D02*
D03*
X482000D02*
D03*
X452000D02*
D03*
Y1170500D02*
D03*
D56*
X437000Y1424000D02*
D03*
Y1434000D02*
D03*
Y1444000D02*
D03*
Y1454000D02*
D03*
Y1464000D02*
D03*
Y1474000D02*
D03*
Y1484000D02*
D03*
Y1494000D02*
D03*
Y1504000D02*
D03*
Y1514000D02*
D03*
Y1524000D02*
D03*
Y1534000D02*
D03*
Y1544000D02*
D03*
Y1554000D02*
D03*
Y1564000D02*
D03*
Y1574000D02*
D03*
Y1584000D02*
D03*
Y1594000D02*
D03*
Y1604000D02*
D03*
Y1614000D02*
D03*
Y1624000D02*
D03*
X489500Y1732500D02*
D03*
Y1722500D02*
D03*
Y1712500D02*
D03*
Y1702500D02*
D03*
Y1692500D02*
D03*
Y1682500D02*
D03*
Y1672500D02*
D03*
Y1662500D02*
D03*
Y1652500D02*
D03*
Y1642500D02*
D03*
Y1632500D02*
D03*
Y1622500D02*
D03*
Y1612500D02*
D03*
Y1602500D02*
D03*
Y1592500D02*
D03*
Y1582500D02*
D03*
Y1572500D02*
D03*
Y1562500D02*
D03*
Y1552500D02*
D03*
Y1542500D02*
D03*
Y1532500D02*
D03*
Y1522500D02*
D03*
Y1512500D02*
D03*
Y1502500D02*
D03*
D57*
X437000Y1634000D02*
D03*
X489500Y1742500D02*
D03*
D58*
X458500Y741400D02*
D03*
Y702000D02*
D03*
Y865900D02*
D03*
Y826500D02*
D03*
X581500D02*
D03*
Y865900D02*
D03*
Y702000D02*
D03*
Y741400D02*
D03*
D59*
X681500Y1741500D02*
D03*
X617500D02*
D03*
D60*
X681500Y1751500D02*
D03*
X617500D02*
D03*
D61*
X848000Y1733500D02*
D03*
X873000D02*
D03*
D62*
X858000Y1753500D02*
D03*
D63*
X559500Y935000D02*
D03*
Y965000D02*
D03*
X452000Y935000D02*
D03*
Y965000D02*
D03*
X512000Y935000D02*
D03*
Y965000D02*
D03*
X619500Y935000D02*
D03*
Y965000D02*
D03*
X512000Y1146000D02*
D03*
Y1116000D02*
D03*
X619500Y1146000D02*
D03*
Y1116000D02*
D03*
X560000Y1146000D02*
D03*
Y1116000D02*
D03*
X452000Y1146000D02*
D03*
Y1116000D02*
D03*
D64*
X883000Y1694000D02*
D03*
X883500Y1629500D02*
D03*
Y1399500D02*
D03*
Y1514500D02*
D03*
Y1572000D02*
D03*
Y1342000D02*
D03*
X750000Y1637500D02*
D03*
X883500Y1457000D02*
D03*
X750000Y1572500D02*
D03*
D65*
X823000Y1694000D02*
D03*
X813000D02*
D03*
Y1654000D02*
D03*
X823000D02*
D03*
X883000D02*
D03*
X823500Y1629500D02*
D03*
X813500D02*
D03*
Y1589500D02*
D03*
X823500D02*
D03*
X883500D02*
D03*
X823500Y1399500D02*
D03*
X813500D02*
D03*
Y1359500D02*
D03*
X823500D02*
D03*
X883500D02*
D03*
X823500Y1514500D02*
D03*
X813500D02*
D03*
Y1474500D02*
D03*
X823500D02*
D03*
X883500D02*
D03*
X823500Y1572000D02*
D03*
X813500D02*
D03*
Y1532000D02*
D03*
X823500D02*
D03*
X883500D02*
D03*
X823500Y1342000D02*
D03*
X813500D02*
D03*
Y1302000D02*
D03*
X823500D02*
D03*
X883500D02*
D03*
X690000Y1637500D02*
D03*
X680000D02*
D03*
Y1597500D02*
D03*
X690000D02*
D03*
X750000D02*
D03*
X823500Y1457000D02*
D03*
X813500D02*
D03*
Y1417000D02*
D03*
X823500D02*
D03*
X883500D02*
D03*
X750000Y1532500D02*
D03*
X690000D02*
D03*
X680000D02*
D03*
Y1572500D02*
D03*
X690000D02*
D03*
D66*
X687326Y437500D02*
D03*
X707011D02*
D03*
X687326Y409941D02*
D03*
X707011D02*
D03*
X829337D02*
D03*
X809652D02*
D03*
X829337Y437500D02*
D03*
X809652D02*
D03*
X565000D02*
D03*
X584685D02*
D03*
X565000Y409941D02*
D03*
X584685D02*
D03*
X890500D02*
D03*
X870815D02*
D03*
X890500Y437500D02*
D03*
X870815D02*
D03*
X645848Y409941D02*
D03*
X626163D02*
D03*
X645848Y437500D02*
D03*
X626163D02*
D03*
X748489D02*
D03*
X768174D02*
D03*
X748489Y409941D02*
D03*
X768174D02*
D03*
D67*
X490000Y1410000D02*
D03*
Y1430000D02*
D03*
Y1450000D02*
D03*
Y1460000D02*
D03*
Y1470000D02*
D03*
Y1440000D02*
D03*
Y1420000D02*
D03*
X437500Y1343000D02*
D03*
Y1363000D02*
D03*
Y1393000D02*
D03*
Y1383000D02*
D03*
Y1373000D02*
D03*
Y1353000D02*
D03*
Y1333000D02*
D03*
D68*
X490000Y1480000D02*
D03*
X437500Y1403000D02*
D03*
D69*
X412000Y583000D02*
D03*
X502000D02*
D03*
X668673D02*
D03*
X758673D02*
D03*
X539346D02*
D03*
X629346D02*
D03*
X888000D02*
D03*
X798000D02*
D03*
D70*
X459480Y528000D02*
D03*
Y638000D02*
D03*
Y618000D02*
D03*
X716154Y528000D02*
D03*
Y638000D02*
D03*
Y618000D02*
D03*
X586827Y528000D02*
D03*
Y638000D02*
D03*
Y618000D02*
D03*
X845480D02*
D03*
Y638000D02*
D03*
Y528000D02*
D03*
D71*
X818500Y760500D02*
D03*
X653146D02*
D03*
Y1167500D02*
D03*
X818500D02*
D03*
X653146Y964000D02*
D03*
X818500D02*
D03*
D72*
X879748Y1115657D02*
D03*
Y1095657D02*
D03*
Y1135657D02*
D03*
Y1125657D02*
D03*
Y1202193D02*
D03*
Y1182193D02*
D03*
Y1222193D02*
D03*
Y1212193D02*
D03*
Y915657D02*
D03*
Y895657D02*
D03*
Y935657D02*
D03*
Y925657D02*
D03*
Y1002193D02*
D03*
Y982193D02*
D03*
Y1022193D02*
D03*
Y1012193D02*
D03*
Y812193D02*
D03*
Y822193D02*
D03*
Y782193D02*
D03*
Y802193D02*
D03*
Y725657D02*
D03*
Y735657D02*
D03*
Y695657D02*
D03*
Y715657D02*
D03*
D73*
X860000Y1249350D02*
D03*
Y1068500D02*
D03*
Y1049350D02*
D03*
Y868500D02*
D03*
Y668500D02*
D03*
Y849350D02*
D03*
D74*
X767717Y1748031D02*
D03*
X531496D02*
D03*
D75*
X506374Y1619500D02*
D03*
Y1672500D02*
D03*
D76*
Y1609500D02*
D03*
Y1599500D02*
D03*
Y1589500D02*
D03*
X537626D02*
D03*
Y1599500D02*
D03*
Y1609500D02*
D03*
Y1619500D02*
D03*
X506374Y1662500D02*
D03*
Y1652500D02*
D03*
Y1642500D02*
D03*
X537626D02*
D03*
Y1652500D02*
D03*
Y1662500D02*
D03*
Y1672500D02*
D03*
D77*
X786000Y1665500D02*
D03*
Y1660500D02*
D03*
Y1424000D02*
D03*
X689500Y1432000D02*
D03*
X786000Y1479500D02*
D03*
X784000Y1231500D02*
D03*
X792000D02*
D03*
X513400Y1689300D02*
D03*
X797600Y1481193D02*
D03*
X785300Y832500D02*
D03*
Y849900D02*
D03*
X575100Y1449600D02*
D03*
X655956Y1449000D02*
D03*
X720800Y1350600D02*
D03*
X733600Y1468700D02*
D03*
X511300Y1467300D02*
D03*
X650000D02*
D03*
X525500Y1335500D02*
D03*
X782600Y1021000D02*
D03*
X783200Y816400D02*
D03*
X807800Y1295600D02*
D03*
X826000Y1107100D02*
D03*
X784600Y1538535D02*
D03*
X624400Y1313400D02*
D03*
X634800Y1417100D02*
D03*
X738300Y1444300D02*
D03*
X727200Y1349500D02*
D03*
X722500Y1476000D02*
D03*
X683700Y1511200D02*
D03*
X586800Y683000D02*
D03*
X572000Y1216800D02*
D03*
X577300Y1331000D02*
D03*
X744700Y863700D02*
D03*
X755500Y1504600D02*
D03*
X536700Y1346700D02*
D03*
X744700Y1351000D02*
D03*
X542900Y1479900D02*
D03*
X523000Y1347300D02*
D03*
X504300Y1307563D02*
D03*
X720100Y1328700D02*
D03*
X628100Y1310200D02*
D03*
X547800Y1273500D02*
D03*
X589600Y1431000D02*
D03*
X455700Y1207800D02*
D03*
X817200Y805800D02*
D03*
X610400Y1344600D02*
D03*
X712800Y1347400D02*
D03*
X605000Y1316800D02*
D03*
X663000Y1408300D02*
D03*
X628800Y1349200D02*
D03*
X826700Y1212800D02*
D03*
X529800Y1348900D02*
D03*
X552400Y1449600D02*
D03*
X803500Y1036100D02*
D03*
X782600Y1041000D02*
D03*
X803500Y1239600D02*
D03*
X782600Y1244500D02*
D03*
X788000Y1212900D02*
D03*
X492300Y1302000D02*
D03*
X788300Y805900D02*
D03*
Y822100D02*
D03*
X787957Y1014900D02*
D03*
X782600Y1011000D02*
D03*
X836344Y1253756D02*
D03*
X817155Y805756D02*
D03*
X811311Y811600D02*
D03*
D78*
X701000Y1036500D02*
D03*
X701500Y832125D02*
D03*
X795000Y655000D02*
D03*
X792500Y1673000D02*
D03*
D118*
X804000Y654929D02*
D03*
Y638000D02*
D03*
X512000Y1220571D02*
D03*
Y1237500D02*
D03*
D119*
X803563Y1254000D02*
D03*
X811437D02*
D03*
X803500Y1244500D02*
D03*
X811374D02*
D03*
X802937Y1213500D02*
D03*
X810811D02*
D03*
X803000Y1203500D02*
D03*
X810874D02*
D03*
Y1224000D02*
D03*
X803000D02*
D03*
X811437Y1263500D02*
D03*
X803563D02*
D03*
X811374Y817000D02*
D03*
X803500D02*
D03*
X803437Y806500D02*
D03*
X811311D02*
D03*
X811937Y856500D02*
D03*
X804063D02*
D03*
X803500Y1041000D02*
D03*
X811374D02*
D03*
X803500Y796500D02*
D03*
X811374D02*
D03*
X804063Y847000D02*
D03*
X811937D02*
D03*
X804000Y837500D02*
D03*
X811874D02*
D03*
X803000Y1000000D02*
D03*
X810874D02*
D03*
X803563Y1050500D02*
D03*
X811437D02*
D03*
Y1060000D02*
D03*
X803563D02*
D03*
X802937Y1010000D02*
D03*
X810811D02*
D03*
X810874Y1020500D02*
D03*
X803000D02*
D03*
D120*
X823000Y1253756D02*
D03*
X822000Y1212756D02*
D03*
X823500Y846756D02*
D03*
X823000Y1050256D02*
D03*
X822500Y805756D02*
D03*
X822000Y1009256D02*
D03*
D121*
X823000Y1244500D02*
D03*
X822000Y1203500D02*
D03*
X823500Y837500D02*
D03*
X823000Y1041000D02*
D03*
X822500Y796500D02*
D03*
X822000Y1000000D02*
D03*
D122*
X776602Y1011000D02*
D03*
Y1016000D02*
D03*
Y1021000D02*
D03*
Y1026000D02*
D03*
Y1031000D02*
D03*
Y1036000D02*
D03*
Y1041000D02*
D03*
Y1046000D02*
D03*
X739398D02*
D03*
Y1041000D02*
D03*
Y1036000D02*
D03*
Y1031000D02*
D03*
Y1026000D02*
D03*
Y1021000D02*
D03*
Y1016000D02*
D03*
Y1011000D02*
D03*
X777102Y807500D02*
D03*
Y812500D02*
D03*
Y817500D02*
D03*
Y822500D02*
D03*
Y827500D02*
D03*
Y832500D02*
D03*
Y837500D02*
D03*
Y842500D02*
D03*
X739898D02*
D03*
Y837500D02*
D03*
Y832500D02*
D03*
Y827500D02*
D03*
Y822500D02*
D03*
Y817500D02*
D03*
Y812500D02*
D03*
Y807500D02*
D03*
X776602Y1214500D02*
D03*
Y1219500D02*
D03*
Y1224500D02*
D03*
Y1229500D02*
D03*
Y1234500D02*
D03*
Y1239500D02*
D03*
Y1244500D02*
D03*
Y1249500D02*
D03*
X739398D02*
D03*
Y1244500D02*
D03*
Y1239500D02*
D03*
Y1234500D02*
D03*
Y1229500D02*
D03*
Y1224500D02*
D03*
Y1219500D02*
D03*
Y1214500D02*
D03*
D123*
X653146Y1151000D02*
D03*
Y1128165D02*
D03*
Y741400D02*
D03*
Y718565D02*
D03*
Y943000D02*
D03*
Y920165D02*
D03*
M02*
