M48
;Layer_Color=9474304
;FILE_FORMAT=2:4
INCH,LZ
;TYPE=PLATED
T01F00S00C0.0160
T02F00S00C0.0276
T03F00S00C0.0280
T04F00S00C0.0289
T05F00S00C0.0350
T06F00S00C0.0354
T07F00S00C0.0360
T08F00S00C0.0420
T09F00S00C0.0453
T10F00S00C0.0472
T12F00S00C0.0600
T13F00S00C0.0630
T14F00S00C0.0800
T15F00S00C0.0830
T16F00S00C0.0880
T17F00S00C0.1100
T18F00S00C0.1102
T19F00S00C0.1260
T20F00S00C0.1496
%
T01
X05868Y0683
X07883Y08059
X07832Y08164
X07883Y08221
X07853Y08325
Y08499
X081131Y08116
X081715Y080576
X08172Y08058
X07447Y08637
X07826Y1011
X078796Y10149
X07826Y1021
Y1041
X08035Y10361
X0826Y11071
X08267Y12128
X0788Y12129
X0784Y12315
X0792
X08035Y12396
X07826Y12445
X0572Y12168
X04557Y12078
X04923Y1302
X05043Y130756
X05255Y13355
X0523Y13473
X05298Y13489
X05367Y13467
X05773Y1331
X0605Y13168
X06244Y13134
X06104Y13446
X05478Y12735
X06281Y13102
X06288Y13492
X07128Y13474
X07208Y13506
X07272Y13495
X07447Y1351
X07201Y13287
X08078Y12956
X083634Y125376
X0786Y1424
Y14795
X07976Y148119
X07846Y153854
X07555Y15046
X07336Y14687
X07225Y1476
X07383Y14443
X06895Y1432
X0663Y14083
X06348Y14171
X065596Y1449
X065Y14673
X06837Y15112
X05751Y14496
X05524
X05429Y14799
X05113Y14673
X05896Y1431
X05134Y16893
X0786Y16655
Y16605
T02
X08135Y1302
X08235
Y1342
X08135
Y13595
X08235
Y13995
X08135
X08835
Y13595
Y1342
Y1302
Y1417
Y1457
Y14745
Y15145
Y1532
X08235
X08135
Y15145
X08235
Y14745
X08135
Y1457
X08235
Y1417
X08135
X075Y15325
X069
X068
Y15725
X069
Y15975
X068
Y16375
X069
X075
Y15975
Y15725
X08135Y1572
X08235
Y15895
X08135
Y16295
X08235
X0823Y1654
X0813
Y1694
X0823
X0883
Y1654
X08835Y16295
Y15895
Y1572
T03
X0795Y0655
X07015Y083212
X0701Y10365
X07925Y1673
T04
X050637Y16725
Y16625
Y16525
Y16425
Y16195
Y16095
Y15995
Y15895
X053763
Y15995
Y16095
Y16195
Y16425
Y16525
Y16625
Y16725
T05
X04522Y13745
Y13845
Y13945
X04597Y13895
Y13795
X04672Y13845
Y13945
X04597Y13995
X04672Y13745
X04747Y13795
Y13895
Y13995
Y14295
Y14395
Y14495
Y14595
Y14695
Y14795
Y14895
Y14995
Y15295
Y15395
Y15495
Y15595
X04672Y15545
Y15445
Y15345
Y15245
X04597Y15295
Y15395
Y15495
Y15595
X04522Y15545
Y15445
Y15345
Y15245
Y14945
Y14845
Y14745
Y14645
Y14545
Y14445
Y14345
Y14245
X04597Y14295
Y14395
Y14495
Y14595
Y14695
Y14795
Y14895
Y14995
X04672Y14945
Y14845
Y14745
Y14645
Y14545
Y14445
Y14345
Y14245
Y15645
Y15745
Y15845
Y15945
Y16045
Y16145
Y16245
Y16345
Y16445
Y16545
X04597Y16495
Y16395
Y16295
Y16195
Y16095
Y15995
Y15895
Y15795
Y15695
X04522Y15645
Y15745
Y15845
Y15945
Y16045
Y16145
Y16245
Y16345
Y16445
Y16545
X04597Y16595
X04747
Y16495
Y16395
Y16295
Y16195
Y16095
Y15995
Y15895
Y15795
Y15695
T06
X04895Y15525
Y15425
Y15325
Y15225
Y15125
Y15025
X0437Y1504
Y1494
Y1484
Y1474
Y1464
Y1454
Y1444
Y1434
Y1424
Y1514
Y1524
Y1534
Y1544
Y1554
Y1564
Y1574
Y1584
Y1594
Y1604
Y1614
Y1624
Y1634
X04895Y16325
Y16425
Y16525
Y16625
Y16725
Y16825
Y16925
Y17025
Y17125
Y16225
Y16125
Y16025
Y15925
Y15825
Y15725
Y15625
Y17225
Y17325
Y17425
T07
X04105Y17175
Y17075
Y16975
X042065Y169745
Y170745
Y171745
Y172745
Y173745
X04208Y17474
X042065Y175745
X04107Y17575
Y17475
Y17376
X04105Y17275
T08
X04375Y1333
Y1343
Y1353
Y1363
Y1373
Y1383
Y1393
Y1403
X049Y141
Y142
Y143
Y144
Y145
Y146
Y147
Y148
T09
X06815Y17515
Y17415
X06175
Y17515
T10
X084548Y0528
Y0618
X071615
Y0528
X058683
Y0618
X045948
Y0528
Y0638
X058683
X071615
X084548
X06195Y0935
X05595
X0512
X0452
Y0965
Y099
Y107
X0482
X0512
X055967
X058967
X061967
Y099
X06195Y0965
X05595
X055967Y099
X0512
Y0965
X0512Y1116
Y1146
X0512Y11705
X055967Y117
X056Y1146
Y1116
X06195
Y1146
X061967Y117
X0452Y11705
X0452Y1146
Y1116
X0452Y12505
X0482
X0512
X055967Y125
X058967
X061967
T12
X087975Y069566
Y071566
Y072566
Y073566
Y078219
Y080219
Y081219
Y082219
Y089566
Y091566
Y092566
Y093566
Y098219
Y100219
Y101219
Y102219
Y109566
Y111566
Y112566
Y113566
Y118219
Y120219
Y121219
Y122219
T13
X081984Y049019
X0881
X075867
X069751
X063635
X057518
X0893Y071566
Y073566
Y080219
Y082219
Y091566
Y093566
Y100219
Y102219
Y111566
Y113566
Y120219
Y122219
X04075Y12255
Y12465
Y12025
Y11795
X04155Y12975
Y13125
X051504Y128
X0533
X061404
X053898Y13945
X062698
X071948
X071304Y1278
X073096
X0632Y128
X062698Y1508
X071948
X053898Y1508
X0417Y1503
Y1483
Y1463
Y1443
Y1423
Y1523
X041704Y1608
Y16295
Y1651
Y16725
T14
X065315Y07605
X08185
X065315Y0964
X08185
Y11675
X065315
T15
X0565Y040994
X058468
Y04375
X0565
X062616
X064585
Y040994
X062616
X068733
X070701
Y04375
X068733
X074849
X076817
Y040994
X074849
X080965
X082934
Y04375
X080965
X087081
X08905
Y040994
X087081
T16
X04585Y0702
Y07414
X05815
Y0702
Y08265
Y08659
X04585
Y08265
T17
X04635Y1362
Y1672
T18
X086Y06685
Y084935
Y08685
Y104935
Y10685
Y124935
T19
X088976Y052756
X040945
X040945Y127559
X088976
X076772Y174803
X05315
T20
X0798Y0583
X0888
X075867
X066867
X062935
X053935
X0502
X0412
M30
