G04*
G04 #@! TF.GenerationSoftware,Altium Limited,Altium Designer,24.4.1 (13)*
G04*
G04 Layer_Physical_Order=3*
G04 Layer_Color=16440176*
%FSLAX25Y25*%
%MOIN*%
G70*
G04*
G04 #@! TF.SameCoordinates,4EE5E999-D737-4110-A4F5-E65D847AD794*
G04*
G04*
G04 #@! TF.FilePolarity,Positive*
G04*
G01*
G75*
%ADD10C,0.01000*%
%ADD80C,0.10000*%
%ADD81C,0.08700*%
%ADD82C,0.12992*%
%ADD83O,0.08600X0.06000*%
%ADD84C,0.07087*%
%ADD85C,0.05906*%
%ADD86R,0.05906X0.05906*%
%ADD87C,0.12800*%
%ADD88R,0.06791X0.06791*%
%ADD89C,0.06791*%
%ADD90R,0.10000X0.16000*%
%ADD91R,0.16000X0.10000*%
%ADD92C,0.11811*%
%ADD93R,0.04724X0.04724*%
%ADD94C,0.04724*%
%ADD95C,0.11300*%
%ADD96O,0.09000X0.06500*%
%ADD97R,0.09000X0.06500*%
%ADD98O,0.18898X0.26772*%
%ADD99C,0.08661*%
%ADD100C,0.12700*%
%ADD101C,0.05500*%
%ADD102R,0.05500X0.05500*%
%ADD103C,0.12000*%
%ADD104O,0.09000X0.08300*%
%ADD105C,0.15748*%
%ADD106C,0.24803*%
%ADD107R,0.04461X0.04461*%
%ADD108C,0.04461*%
%ADD109C,0.03400*%
%ADD110C,0.05000*%
%ADD111C,0.04000*%
G36*
X587500Y876000D02*
X593000Y870500D01*
Y737000D01*
X586000Y730000D01*
X456500D01*
X447000Y739500D01*
Y872000D01*
X452500Y877500D01*
X586000D01*
X587500Y876000D01*
D02*
G37*
G36*
X881000Y778000D02*
X872500Y769500D01*
X872500Y725000D01*
X872811Y724689D01*
X872844Y724354D01*
X873225Y723100D01*
X873842Y721945D01*
X874673Y720932D01*
X875686Y720101D01*
X876841Y719484D01*
X878094Y719104D01*
X878429Y719071D01*
X880000Y717500D01*
X880000Y711500D01*
X859000D01*
X814500Y756000D01*
Y765000D01*
X835500Y786000D01*
X881000D01*
Y778000D01*
D02*
G37*
G36*
Y978500D02*
X872500Y970000D01*
X872500Y925000D01*
X872811Y924689D01*
X872844Y924354D01*
X873225Y923100D01*
X873842Y921945D01*
X874673Y920932D01*
X875686Y920101D01*
X876841Y919484D01*
X878094Y919104D01*
X878429Y919071D01*
X880000Y917500D01*
Y911500D01*
X862500D01*
X814500Y959500D01*
Y968500D01*
X832000Y986000D01*
X881000D01*
Y978500D01*
D02*
G37*
G36*
Y1179500D02*
X872500Y1171000D01*
X872500Y1126000D01*
X872727Y1125773D01*
X872716Y1125657D01*
X872844Y1124354D01*
X873225Y1123100D01*
X873842Y1121945D01*
X874673Y1120932D01*
X875686Y1120101D01*
X876841Y1119484D01*
X878094Y1119104D01*
X879398Y1118975D01*
X879525D01*
X880000Y1118500D01*
Y1111500D01*
X866000D01*
X814500Y1163000D01*
Y1172000D01*
X828500Y1186000D01*
X881000D01*
Y1179500D01*
D02*
G37*
G36*
X858500Y1692000D02*
X897976Y1652524D01*
Y1296476D01*
X897500Y1296000D01*
X880000D01*
X874500Y1301500D01*
Y1519500D01*
X853975D01*
X846975Y1526500D01*
Y1722000D01*
X753000D01*
Y1642362D01*
X745138D01*
Y1632638D01*
X753000D01*
Y1577362D01*
X745138D01*
Y1567638D01*
X753000D01*
Y1530500D01*
X750500Y1528000D01*
X741000D01*
X738000Y1531000D01*
Y1717500D01*
X718500Y1737000D01*
X612500D01*
X612000Y1737500D01*
Y1745500D01*
X748500D01*
X762000Y1732000D01*
X842500D01*
Y1745500D01*
X858500D01*
Y1692000D01*
D02*
G37*
%LPC*%
G36*
X582377Y835400D02*
X580623D01*
X578904Y835058D01*
X577284Y834387D01*
X575827Y833413D01*
X574587Y832173D01*
X573613Y830716D01*
X572942Y829096D01*
X572600Y827377D01*
Y825623D01*
X572942Y823904D01*
X573613Y822284D01*
X574587Y820827D01*
X575827Y819587D01*
X577284Y818613D01*
X578904Y817942D01*
X580623Y817600D01*
X582377D01*
X584096Y817942D01*
X585716Y818613D01*
X587173Y819587D01*
X588413Y820827D01*
X589387Y822284D01*
X590058Y823904D01*
X590400Y825623D01*
Y827377D01*
X590058Y829096D01*
X589387Y830716D01*
X588413Y832173D01*
X587173Y833413D01*
X585716Y834387D01*
X584096Y835058D01*
X582377Y835400D01*
D02*
G37*
G36*
X459377D02*
X457623D01*
X455904Y835058D01*
X454284Y834387D01*
X452827Y833413D01*
X451587Y832173D01*
X450613Y830716D01*
X449942Y829096D01*
X449600Y827377D01*
Y825623D01*
X449942Y823904D01*
X450613Y822284D01*
X451587Y820827D01*
X452827Y819587D01*
X454284Y818613D01*
X455904Y817942D01*
X457623Y817600D01*
X459377D01*
X461096Y817942D01*
X462716Y818613D01*
X464173Y819587D01*
X465413Y820827D01*
X466387Y822284D01*
X467058Y823904D01*
X467400Y825623D01*
Y827377D01*
X467058Y829096D01*
X466387Y830716D01*
X465413Y832173D01*
X464173Y833413D01*
X462716Y834387D01*
X461096Y835058D01*
X459377Y835400D01*
D02*
G37*
G36*
X888362Y1634362D02*
X878638D01*
Y1624638D01*
X888362D01*
Y1634362D01*
D02*
G37*
G36*
Y1576862D02*
X878638D01*
Y1567138D01*
X888362D01*
Y1576862D01*
D02*
G37*
G36*
Y1519362D02*
X878638D01*
Y1509638D01*
X888362D01*
Y1519362D01*
D02*
G37*
G36*
Y1461862D02*
X878638D01*
Y1452138D01*
X888362D01*
Y1461862D01*
D02*
G37*
G36*
Y1404362D02*
X878638D01*
Y1394638D01*
X888362D01*
Y1404362D01*
D02*
G37*
G36*
Y1346862D02*
X878638D01*
Y1337138D01*
X888362D01*
Y1346862D01*
D02*
G37*
%LPD*%
D10*
X762500Y1643200D02*
X773420Y1654120D01*
X774620D01*
X786000Y1665500D01*
Y1660500D02*
X807300D01*
X813000Y1666200D01*
X743600Y1516500D02*
X755500Y1504600D01*
X650000Y1467300D02*
X672842Y1444458D01*
X694900Y1376500D02*
Y1422075D01*
X672842Y1444133D02*
Y1444458D01*
Y1444133D02*
X694900Y1422075D01*
X605000Y1316800D02*
Y1459000D01*
X596800Y1450800D02*
X605000Y1459000D01*
X662300Y1516300D01*
X788000Y1228428D02*
X790274Y1230701D01*
X790552D01*
X791351Y1231500D01*
X792000D01*
X788000Y1212900D02*
Y1228428D01*
X417036Y1547464D02*
Y1608000D01*
Y1547464D02*
X425000Y1539500D01*
X451250Y1650250D02*
X452000Y1649500D01*
X404700Y1695636D02*
X450086Y1650250D01*
X452000Y1649500D02*
X459700D01*
X401701Y1699799D02*
Y1725201D01*
X404700Y1695636D02*
Y1696800D01*
X450086Y1650250D02*
X451250D01*
X401701Y1699799D02*
X404700Y1696800D01*
X417000Y1423000D02*
Y1432000D01*
X416815Y1442815D02*
Y1444851D01*
X424859Y1478614D02*
X425445Y1479200D01*
X440050D01*
X424859Y1452895D02*
Y1478614D01*
X417000Y1432000D02*
X427273Y1442273D01*
X416815Y1444851D02*
X424859Y1452895D01*
X427273Y1442273D02*
Y1464273D01*
X437000Y1474000D01*
X415500Y1312500D02*
X482500Y1312500D01*
X420650Y1693350D02*
Y1697450D01*
Y1693350D02*
X449850Y1664150D01*
X461060D01*
X465710Y1659500D02*
X474700D01*
X461060Y1664150D02*
X465710Y1659500D01*
X474700Y1649500D02*
X478950Y1653750D01*
Y1667652D01*
X480950Y1649740D02*
Y1736814D01*
X475710Y1644500D02*
X480950Y1649740D01*
X482950Y1639350D02*
Y1725950D01*
X478100Y1634500D02*
X482950Y1639350D01*
X480950Y1736814D02*
X481536Y1737400D01*
X491300D01*
X482950Y1725950D02*
X489500Y1732500D01*
X444652Y1701950D02*
X478950Y1667652D01*
X411800Y1707500D02*
X417350Y1701950D01*
X410500Y1707500D02*
X411800D01*
X417350Y1701950D02*
X444652D01*
X469440Y1640250D02*
X473690Y1644500D01*
X475710D01*
X466940Y1640250D02*
X469440D01*
X462950Y1636260D02*
X466940Y1640250D01*
X485000Y1628800D02*
Y1648000D01*
X489500Y1652500D01*
X462950Y1632739D02*
Y1636260D01*
Y1632739D02*
X467200Y1628489D01*
X404000Y1727500D02*
X410500D01*
X401701Y1725201D02*
X404000Y1727500D01*
X762500Y1526400D02*
Y1533000D01*
X752000Y1522500D02*
X758600D01*
X611000D02*
X752000D01*
X715557Y1240957D02*
X762257D01*
X568712D02*
X715557D01*
X655500Y1516300D02*
X662300D01*
X605000Y1459000D02*
Y1465800D01*
X662300Y1516300D02*
X662500Y1516500D01*
X785300Y832500D02*
Y849900D01*
X758600Y1522500D02*
X762500Y1526400D01*
X611000Y1485500D02*
Y1522500D01*
X575100Y1449600D02*
X611000Y1485500D01*
X694900Y1376500D02*
X720800Y1350600D01*
X559669Y1250000D02*
X568712Y1240957D01*
X715557D02*
X764800Y1290200D01*
Y1306600D01*
X720800Y1350600D02*
X764800Y1306600D01*
X762257Y1240957D02*
X769000Y1247700D01*
Y1433300D01*
X733600Y1468700D02*
X769000Y1433300D01*
X614035Y1303035D02*
X624400Y1313400D01*
X614035Y1280000D02*
Y1303035D01*
X813000Y1666200D02*
Y1694000D01*
X727200Y1349500D02*
Y1433200D01*
X738300Y1444300D01*
X440050Y1479200D02*
X449600Y1488750D01*
X453961D01*
X457461Y1485250D01*
X461461D01*
X464000Y1487789D01*
Y1491689D01*
X462950Y1492739D02*
X464000Y1491689D01*
X462950Y1492739D02*
Y1496261D01*
X471450Y1504761D01*
Y1526261D01*
X467200Y1530511D02*
X471450Y1526261D01*
X467200Y1530511D02*
Y1534500D01*
X718900Y1476000D02*
X722500D01*
X683700Y1511200D02*
X718900Y1476000D01*
X586827Y638000D02*
Y682973D01*
X586800Y683000D02*
X586827Y682973D01*
X425000Y1539500D02*
X440000D01*
X443800Y1543300D01*
Y1562800D01*
X449750Y1568750D01*
X453961D01*
X458961Y1563750D01*
X461939D01*
X463950Y1561739D01*
Y1557261D02*
Y1561739D01*
X462950Y1556261D02*
X463950Y1557261D01*
X462950Y1552261D02*
Y1556261D01*
Y1552261D02*
X464961Y1550250D01*
X468961D01*
X472511Y1553800D01*
X481000D01*
X486900Y1547900D01*
X496026D01*
X537626Y1589500D01*
X662500Y1516500D02*
X743600D01*
X596800Y1244557D02*
Y1450800D01*
X595200Y1242957D02*
X596800Y1244557D01*
X574343Y1242957D02*
X595200D01*
X562257Y1255043D02*
X574343Y1242957D01*
X556943Y1255043D02*
X562257D01*
X541100Y1239200D02*
X556943Y1255043D01*
X470433Y1239200D02*
X541100D01*
X454089Y1255543D02*
X470433Y1239200D01*
X449600Y1255543D02*
X454089D01*
X446957Y1252900D02*
X449600Y1255543D01*
X446957Y1248000D02*
Y1252900D01*
Y1248000D02*
X578057Y1116900D01*
X606100D01*
X624800Y1098200D01*
Y1067200D02*
Y1098200D01*
X622500Y1064900D02*
X624800Y1067200D01*
X575800Y1064900D02*
X622500D01*
X565600Y1075100D02*
X575800Y1064900D01*
X517100Y1075100D02*
X565600D01*
X512000Y1070000D02*
X517100Y1075100D01*
X444957Y1244712D02*
X619669Y1070000D01*
X444957Y1244712D02*
Y1254500D01*
X448000Y1257543D01*
X458857D01*
X473600Y1242800D01*
X535000D01*
X549243Y1257043D01*
X572513D01*
X584600Y1244957D01*
X592000D01*
X594800Y1247757D01*
Y1288600D01*
X536700Y1346700D02*
X594800Y1288600D01*
X437000Y1424000D02*
X441900Y1428900D01*
Y1462800D01*
X447900Y1468800D01*
X452511D01*
X459700Y1475989D01*
Y1479500D01*
X516400Y1340700D02*
X523000Y1347300D01*
X516400Y1319663D02*
Y1340700D01*
X504300Y1307563D02*
X516400Y1319663D01*
X490000Y1440000D02*
X495600D01*
X496000Y1439600D01*
Y1326000D02*
Y1439600D01*
X482500Y1312500D02*
X496000Y1326000D01*
X437500Y1363000D02*
X443500D01*
X445900Y1365400D01*
Y1448200D01*
X452200Y1454500D01*
X646600Y1328700D02*
X720100D01*
X628100Y1310200D02*
X646600Y1328700D01*
X437000Y1544000D02*
X441800Y1548800D01*
Y1574400D01*
X446900Y1579500D01*
X459700D01*
X437000Y1514000D02*
X443900Y1520900D01*
Y1536672D01*
X445800Y1538572D01*
Y1557300D01*
X448000Y1559500D01*
X459700D01*
X605000Y1465800D02*
X655500Y1516300D01*
X443900Y1456200D02*
X452200Y1464500D01*
X443900Y1373400D02*
Y1456200D01*
X443500Y1373000D02*
X443900Y1373400D01*
X437500Y1373000D02*
X443500D01*
X467200Y1624500D02*
Y1628489D01*
X491300Y1737400D02*
X494000Y1734700D01*
Y1717000D02*
Y1734700D01*
X489500Y1712500D02*
X494000Y1717000D01*
X467200Y1634500D02*
X478100D01*
X447900Y1440200D02*
X452200Y1444500D01*
X447900Y1356800D02*
Y1440200D01*
X444100Y1353000D02*
X447900Y1356800D01*
X437500Y1353000D02*
X444100D01*
X459700Y1535989D02*
Y1539500D01*
X453961Y1530250D02*
X459700Y1535989D01*
X451200Y1530250D02*
X453961D01*
X447900Y1526950D02*
X451200Y1530250D01*
X447900Y1494900D02*
Y1526950D01*
X437000Y1484000D02*
X447900Y1494900D01*
X437000Y1494000D02*
X445900Y1502900D01*
Y1534950D01*
X451200Y1540250D01*
X453961D01*
X459700Y1545989D01*
Y1549500D01*
X474700Y1579500D02*
X485000D01*
X486500Y1578000D01*
X492800D01*
X495953Y1581153D01*
Y1630500D01*
X493953Y1632500D02*
X495953Y1630500D01*
X489500Y1632500D02*
X493953D01*
X485000Y1628800D02*
X486847Y1626953D01*
X492800D01*
X493953Y1625800D01*
Y1600000D02*
Y1625800D01*
X491953Y1598000D02*
X493953Y1600000D01*
X483200Y1598000D02*
X491953D01*
X474700Y1589500D02*
X483200Y1598000D01*
X488200Y1623800D02*
X489500Y1622500D01*
X472989Y1623800D02*
X488200D01*
X469000Y1619811D02*
X472989Y1623800D01*
X469000Y1618711D02*
Y1619811D01*
Y1618711D02*
X471450Y1616261D01*
Y1612739D02*
Y1616261D01*
X469000Y1610289D02*
X471450Y1612739D01*
X469000Y1608711D02*
Y1610289D01*
Y1608711D02*
X471450Y1606261D01*
Y1602739D02*
Y1606261D01*
X470400Y1601689D02*
X471450Y1602739D01*
X470400Y1597311D02*
Y1601689D01*
Y1597311D02*
X471450Y1596261D01*
Y1592739D02*
Y1596261D01*
X467461Y1588750D02*
X471450Y1592739D01*
X465439Y1588750D02*
X467461D01*
X462950Y1586261D02*
X465439Y1588750D01*
X462950Y1582739D02*
Y1586261D01*
Y1582739D02*
X465400Y1580289D01*
Y1576300D02*
Y1580289D01*
Y1576300D02*
X467200Y1574500D01*
X719476Y1472976D02*
X722500Y1476000D01*
X719476Y1394500D02*
Y1472976D01*
X488250Y1583750D02*
X489500Y1582500D01*
X472461Y1583750D02*
X488250D01*
X469000Y1580289D02*
X472461Y1583750D01*
X469000Y1578711D02*
Y1580289D01*
Y1578711D02*
X471450Y1576261D01*
Y1572739D02*
Y1576261D01*
X470400Y1571689D02*
X471450Y1572739D01*
X470400Y1567311D02*
Y1571689D01*
Y1567311D02*
X471450Y1566261D01*
Y1562739D02*
Y1566261D01*
X467200Y1558489D02*
X471450Y1562739D01*
X467200Y1554500D02*
Y1558489D01*
X538976Y1508000D02*
X552400Y1494576D01*
Y1449600D02*
Y1494576D01*
X788300Y805900D02*
Y822100D01*
X786500Y1014900D02*
X787957D01*
X782600Y1011000D02*
X786500Y1014900D01*
D80*
X611257Y895657D02*
X811257Y1095657D01*
X611257Y895657D02*
X879748D01*
Y695657D02*
X888000Y687405D01*
Y583000D02*
Y687405D01*
X627243Y695657D02*
X879748D01*
X581500Y741400D02*
X627243Y695657D01*
X581500Y865900D02*
X611257Y895657D01*
X811257Y1095657D02*
X879748D01*
D81*
X417000Y1423000D02*
D03*
Y1443000D02*
D03*
Y1463000D02*
D03*
Y1483000D02*
D03*
Y1503000D02*
D03*
Y1523000D02*
D03*
X415500Y1297500D02*
D03*
Y1312500D02*
D03*
X893000Y1022193D02*
D03*
Y1002193D02*
D03*
Y735657D02*
D03*
Y915657D02*
D03*
Y715657D02*
D03*
Y802193D02*
D03*
Y935657D02*
D03*
Y822193D02*
D03*
Y1135657D02*
D03*
Y1222193D02*
D03*
Y1202193D02*
D03*
Y1115657D02*
D03*
X417036Y1608000D02*
D03*
X626976Y1394500D02*
D03*
X417036Y1672500D02*
D03*
X880999Y490189D02*
D03*
X417036Y1651000D02*
D03*
Y1629500D02*
D03*
X614035Y1280000D02*
D03*
X713035Y1278000D02*
D03*
X515035Y1280000D02*
D03*
X626976Y1508000D02*
D03*
X538976Y1508000D02*
D03*
Y1394500D02*
D03*
X719476Y1508000D02*
D03*
Y1394500D02*
D03*
X632000Y1280000D02*
D03*
X533000D02*
D03*
X819836Y490189D02*
D03*
X758673D02*
D03*
X575184D02*
D03*
X697510D02*
D03*
X636347D02*
D03*
X730965Y1278000D02*
D03*
X407500Y1179500D02*
D03*
Y1202500D02*
D03*
Y1225500D02*
D03*
Y1246500D02*
D03*
D82*
X409449Y527559D02*
D03*
X889764D02*
D03*
X409449Y1275591D02*
D03*
X889764D02*
D03*
D83*
X410500Y1697500D02*
D03*
X420650Y1697450D02*
D03*
Y1727450D02*
D03*
Y1717450D02*
D03*
X410500Y1707500D02*
D03*
X420650Y1707450D02*
D03*
Y1757450D02*
D03*
X420800Y1747400D02*
D03*
X410500Y1727500D02*
D03*
X410700Y1737600D02*
D03*
Y1747500D02*
D03*
Y1757500D02*
D03*
X410500Y1717500D02*
D03*
X420650Y1737450D02*
D03*
D84*
X619669Y1170000D02*
D03*
Y1250000D02*
D03*
X589669D02*
D03*
X559669D02*
D03*
Y1170000D02*
D03*
X619669Y990000D02*
D03*
Y1070000D02*
D03*
X589669D02*
D03*
X559669D02*
D03*
Y990000D02*
D03*
X512000D02*
D03*
Y1070000D02*
D03*
X482000D02*
D03*
X452000D02*
D03*
Y990000D02*
D03*
X512000Y1170500D02*
D03*
Y1250500D02*
D03*
X482000D02*
D03*
X452000D02*
D03*
Y1170500D02*
D03*
D85*
X437000Y1424000D02*
D03*
Y1434000D02*
D03*
Y1444000D02*
D03*
Y1454000D02*
D03*
Y1464000D02*
D03*
Y1474000D02*
D03*
Y1484000D02*
D03*
Y1494000D02*
D03*
Y1504000D02*
D03*
Y1514000D02*
D03*
Y1524000D02*
D03*
Y1534000D02*
D03*
Y1544000D02*
D03*
Y1554000D02*
D03*
Y1564000D02*
D03*
Y1574000D02*
D03*
Y1584000D02*
D03*
Y1594000D02*
D03*
Y1604000D02*
D03*
Y1614000D02*
D03*
Y1624000D02*
D03*
X489500Y1732500D02*
D03*
Y1722500D02*
D03*
Y1712500D02*
D03*
Y1702500D02*
D03*
Y1692500D02*
D03*
Y1682500D02*
D03*
Y1672500D02*
D03*
Y1662500D02*
D03*
Y1652500D02*
D03*
Y1642500D02*
D03*
Y1632500D02*
D03*
Y1622500D02*
D03*
Y1612500D02*
D03*
Y1602500D02*
D03*
Y1592500D02*
D03*
Y1582500D02*
D03*
Y1572500D02*
D03*
Y1562500D02*
D03*
Y1552500D02*
D03*
Y1542500D02*
D03*
Y1532500D02*
D03*
Y1522500D02*
D03*
Y1512500D02*
D03*
Y1502500D02*
D03*
D86*
X437000Y1634000D02*
D03*
X489500Y1742500D02*
D03*
D87*
X458500Y741400D02*
D03*
Y702000D02*
D03*
Y865900D02*
D03*
Y826500D02*
D03*
X581500D02*
D03*
Y865900D02*
D03*
Y702000D02*
D03*
Y741400D02*
D03*
D88*
X681500Y1741500D02*
D03*
X617500D02*
D03*
D89*
X681500Y1751500D02*
D03*
X617500D02*
D03*
D90*
X848000Y1733500D02*
D03*
X873000D02*
D03*
D91*
X858000Y1753500D02*
D03*
D92*
X559500Y935000D02*
D03*
Y965000D02*
D03*
X452000Y935000D02*
D03*
Y965000D02*
D03*
X512000Y935000D02*
D03*
Y965000D02*
D03*
X619500Y935000D02*
D03*
Y965000D02*
D03*
X512000Y1146000D02*
D03*
Y1116000D02*
D03*
X619500Y1146000D02*
D03*
Y1116000D02*
D03*
X560000Y1146000D02*
D03*
Y1116000D02*
D03*
X452000Y1146000D02*
D03*
Y1116000D02*
D03*
D93*
X883000Y1694000D02*
D03*
X883500Y1629500D02*
D03*
Y1399500D02*
D03*
Y1514500D02*
D03*
Y1572000D02*
D03*
Y1342000D02*
D03*
X750000Y1637500D02*
D03*
X883500Y1457000D02*
D03*
X750000Y1572500D02*
D03*
D94*
X823000Y1694000D02*
D03*
X813000D02*
D03*
Y1654000D02*
D03*
X823000D02*
D03*
X883000D02*
D03*
X823500Y1629500D02*
D03*
X813500D02*
D03*
Y1589500D02*
D03*
X823500D02*
D03*
X883500D02*
D03*
X823500Y1399500D02*
D03*
X813500D02*
D03*
Y1359500D02*
D03*
X823500D02*
D03*
X883500D02*
D03*
X823500Y1514500D02*
D03*
X813500D02*
D03*
Y1474500D02*
D03*
X823500D02*
D03*
X883500D02*
D03*
X823500Y1572000D02*
D03*
X813500D02*
D03*
Y1532000D02*
D03*
X823500D02*
D03*
X883500D02*
D03*
X823500Y1342000D02*
D03*
X813500D02*
D03*
Y1302000D02*
D03*
X823500D02*
D03*
X883500D02*
D03*
X690000Y1637500D02*
D03*
X680000D02*
D03*
Y1597500D02*
D03*
X690000D02*
D03*
X750000D02*
D03*
X823500Y1457000D02*
D03*
X813500D02*
D03*
Y1417000D02*
D03*
X823500D02*
D03*
X883500D02*
D03*
X750000Y1532500D02*
D03*
X690000D02*
D03*
X680000D02*
D03*
Y1572500D02*
D03*
X690000D02*
D03*
D95*
X687326Y437500D02*
D03*
X707011D02*
D03*
X687326Y409941D02*
D03*
X707011D02*
D03*
X829337D02*
D03*
X809652D02*
D03*
X829337Y437500D02*
D03*
X809652D02*
D03*
X565000D02*
D03*
X584685D02*
D03*
X565000Y409941D02*
D03*
X584685D02*
D03*
X890500D02*
D03*
X870815D02*
D03*
X890500Y437500D02*
D03*
X870815D02*
D03*
X645848Y409941D02*
D03*
X626163D02*
D03*
X645848Y437500D02*
D03*
X626163D02*
D03*
X748489D02*
D03*
X768174D02*
D03*
X748489Y409941D02*
D03*
X768174D02*
D03*
D96*
X490000Y1410000D02*
D03*
Y1430000D02*
D03*
Y1450000D02*
D03*
Y1460000D02*
D03*
Y1470000D02*
D03*
Y1440000D02*
D03*
Y1420000D02*
D03*
X437500Y1343000D02*
D03*
Y1363000D02*
D03*
Y1393000D02*
D03*
Y1383000D02*
D03*
Y1373000D02*
D03*
Y1353000D02*
D03*
Y1333000D02*
D03*
D97*
X490000Y1480000D02*
D03*
X437500Y1403000D02*
D03*
D98*
X412000Y583000D02*
D03*
X502000D02*
D03*
X668673D02*
D03*
X758673D02*
D03*
X539346D02*
D03*
X629346D02*
D03*
X888000D02*
D03*
X798000D02*
D03*
D99*
X459480Y528000D02*
D03*
Y638000D02*
D03*
Y618000D02*
D03*
X716154Y528000D02*
D03*
Y638000D02*
D03*
Y618000D02*
D03*
X586827Y528000D02*
D03*
Y638000D02*
D03*
Y618000D02*
D03*
X845480D02*
D03*
Y638000D02*
D03*
Y528000D02*
D03*
D100*
X463500Y1362000D02*
D03*
Y1672000D02*
D03*
D101*
X452200Y1374500D02*
D03*
X459700Y1379500D02*
D03*
X452200Y1384500D02*
D03*
X459700Y1389500D02*
D03*
X467200Y1384500D02*
D03*
X452200Y1394500D02*
D03*
X459700Y1399500D02*
D03*
X467200Y1394500D02*
D03*
X474700Y1379500D02*
D03*
Y1389500D02*
D03*
Y1399500D02*
D03*
X452200Y1434500D02*
D03*
X467200D02*
D03*
X452200Y1424500D02*
D03*
X467200D02*
D03*
Y1444500D02*
D03*
X452200D02*
D03*
Y1454500D02*
D03*
X467200D02*
D03*
X452200Y1464500D02*
D03*
X459700Y1469500D02*
D03*
X467200Y1464500D02*
D03*
X474700Y1469500D02*
D03*
Y1479500D02*
D03*
X467200Y1474500D02*
D03*
X459700Y1479500D02*
D03*
X452200Y1474500D02*
D03*
Y1484500D02*
D03*
X474700Y1489500D02*
D03*
X467200Y1484500D02*
D03*
X459700Y1489500D02*
D03*
X452200Y1494500D02*
D03*
X459700Y1499500D02*
D03*
X467200Y1494500D02*
D03*
X474700Y1499500D02*
D03*
Y1529500D02*
D03*
X467200Y1524500D02*
D03*
X459700Y1529500D02*
D03*
X452200Y1524500D02*
D03*
X467200Y1534500D02*
D03*
X452200D02*
D03*
X459700Y1539500D02*
D03*
X474700D02*
D03*
Y1549500D02*
D03*
X459700D02*
D03*
X452200Y1544500D02*
D03*
X474700Y1559500D02*
D03*
X467200Y1554500D02*
D03*
X459700Y1559500D02*
D03*
X452200Y1554500D02*
D03*
X467200Y1564500D02*
D03*
X452200D02*
D03*
X459700Y1569500D02*
D03*
X474700D02*
D03*
Y1579500D02*
D03*
X467200Y1574500D02*
D03*
X459700Y1579500D02*
D03*
X452200Y1574500D02*
D03*
X474700Y1589500D02*
D03*
X467200Y1584500D02*
D03*
X459700Y1589500D02*
D03*
X452200Y1584500D02*
D03*
Y1594500D02*
D03*
X459700Y1599500D02*
D03*
X474700D02*
D03*
Y1609500D02*
D03*
X467200Y1604500D02*
D03*
X459700Y1609500D02*
D03*
X452200Y1604500D02*
D03*
X474700Y1619500D02*
D03*
X467200Y1614500D02*
D03*
X459700Y1619500D02*
D03*
X452200Y1614500D02*
D03*
X474700Y1629500D02*
D03*
X467200Y1624500D02*
D03*
X459700Y1629500D02*
D03*
X452200Y1624500D02*
D03*
X474700Y1639500D02*
D03*
X467200Y1634500D02*
D03*
X459700Y1639500D02*
D03*
X452200Y1634500D02*
D03*
X474700Y1649500D02*
D03*
X459700D02*
D03*
X452200Y1644500D02*
D03*
X474700Y1659500D02*
D03*
X467200Y1654500D02*
D03*
X459700Y1659500D02*
D03*
X452200Y1654500D02*
D03*
X474700Y1459500D02*
D03*
Y1429500D02*
D03*
Y1449500D02*
D03*
X459700Y1459500D02*
D03*
Y1429500D02*
D03*
Y1449500D02*
D03*
Y1439500D02*
D03*
X467200Y1544500D02*
D03*
Y1644500D02*
D03*
Y1594500D02*
D03*
X474700Y1439500D02*
D03*
D102*
X467200Y1374500D02*
D03*
D103*
X818500Y760500D02*
D03*
X653146D02*
D03*
Y1167500D02*
D03*
X818500D02*
D03*
X653146Y964000D02*
D03*
X818500D02*
D03*
D104*
X879748Y1115657D02*
D03*
Y1095657D02*
D03*
Y1135657D02*
D03*
Y1125657D02*
D03*
Y1202193D02*
D03*
Y1182193D02*
D03*
Y1222193D02*
D03*
Y1212193D02*
D03*
Y915657D02*
D03*
Y895657D02*
D03*
Y935657D02*
D03*
Y925657D02*
D03*
Y1002193D02*
D03*
Y982193D02*
D03*
Y1022193D02*
D03*
Y1012193D02*
D03*
Y812193D02*
D03*
Y822193D02*
D03*
Y782193D02*
D03*
Y802193D02*
D03*
Y725657D02*
D03*
Y735657D02*
D03*
Y695657D02*
D03*
Y715657D02*
D03*
D105*
X860000Y1249350D02*
D03*
Y1068500D02*
D03*
Y1049350D02*
D03*
Y868500D02*
D03*
Y668500D02*
D03*
Y849350D02*
D03*
D106*
X767717Y1748031D02*
D03*
X531496D02*
D03*
D107*
X506374Y1619500D02*
D03*
Y1672500D02*
D03*
D108*
Y1609500D02*
D03*
Y1599500D02*
D03*
Y1589500D02*
D03*
X537626D02*
D03*
Y1599500D02*
D03*
Y1609500D02*
D03*
Y1619500D02*
D03*
X506374Y1662500D02*
D03*
Y1652500D02*
D03*
Y1642500D02*
D03*
X537626D02*
D03*
Y1652500D02*
D03*
Y1662500D02*
D03*
Y1672500D02*
D03*
D109*
X786000Y1665500D02*
D03*
Y1660500D02*
D03*
Y1424000D02*
D03*
X689500Y1432000D02*
D03*
X786000Y1479500D02*
D03*
X784000Y1231500D02*
D03*
X792000D02*
D03*
X513400Y1689300D02*
D03*
X797600Y1481193D02*
D03*
X785300Y832500D02*
D03*
Y849900D02*
D03*
X575100Y1449600D02*
D03*
X655956Y1449000D02*
D03*
X720800Y1350600D02*
D03*
X733600Y1468700D02*
D03*
X511300Y1467300D02*
D03*
X650000D02*
D03*
X525500Y1335500D02*
D03*
X782600Y1021000D02*
D03*
X783200Y816400D02*
D03*
X807800Y1295600D02*
D03*
X826000Y1107100D02*
D03*
X784600Y1538535D02*
D03*
X624400Y1313400D02*
D03*
X634800Y1417100D02*
D03*
X738300Y1444300D02*
D03*
X727200Y1349500D02*
D03*
X722500Y1476000D02*
D03*
X683700Y1511200D02*
D03*
X586800Y683000D02*
D03*
X572000Y1216800D02*
D03*
X577300Y1331000D02*
D03*
X744700Y863700D02*
D03*
X755500Y1504600D02*
D03*
X536700Y1346700D02*
D03*
X744700Y1351000D02*
D03*
X542900Y1479900D02*
D03*
X523000Y1347300D02*
D03*
X504300Y1307563D02*
D03*
X720100Y1328700D02*
D03*
X628100Y1310200D02*
D03*
X547800Y1273500D02*
D03*
X589600Y1431000D02*
D03*
X455700Y1207800D02*
D03*
X817200Y805800D02*
D03*
X610400Y1344600D02*
D03*
X712800Y1347400D02*
D03*
X605000Y1316800D02*
D03*
X663000Y1408300D02*
D03*
X628800Y1349200D02*
D03*
X826700Y1212800D02*
D03*
X529800Y1348900D02*
D03*
X552400Y1449600D02*
D03*
X803500Y1036100D02*
D03*
X782600Y1041000D02*
D03*
X803500Y1239600D02*
D03*
X782600Y1244500D02*
D03*
X788000Y1212900D02*
D03*
X492300Y1302000D02*
D03*
X788300Y805900D02*
D03*
Y822100D02*
D03*
X787957Y1014900D02*
D03*
X782600Y1011000D02*
D03*
X836344Y1253756D02*
D03*
X817155Y805756D02*
D03*
X811311Y811600D02*
D03*
D110*
X701000Y1036500D02*
D03*
X701500Y832125D02*
D03*
X795000Y655000D02*
D03*
X792500Y1673000D02*
D03*
D111*
X762500Y1643200D02*
Y1657000D01*
Y1533000D02*
Y1643200D01*
X511500Y1522500D02*
X752000D01*
X769000Y1243500D02*
Y1634000D01*
X559669Y1250000D02*
X578000Y1231669D01*
X438500Y1080000D02*
X472000D01*
X437500D02*
X438500D01*
X578000Y1231500D02*
X757000D01*
X433000Y1074500D02*
X438500Y1080000D01*
X433000Y542000D02*
X447000Y528000D01*
X433000Y542000D02*
Y1074500D01*
X438000Y629500D02*
X449500Y618000D01*
X438000Y1064000D02*
X444000Y1070000D01*
X438000Y629500D02*
Y1064000D01*
X444000Y1070000D02*
X452000D01*
X762500Y1657000D02*
X778500Y1673000D01*
X792500D01*
X752000Y1522500D02*
X762500Y1533000D01*
X769000Y1634000D02*
X778500Y1643500D01*
X812500D01*
X502500Y1513500D02*
X511500Y1522500D01*
X439500Y1264500D02*
X502500Y1327500D01*
Y1513500D01*
X437500Y1262500D02*
X439500Y1264500D01*
X437500Y1080000D02*
Y1262500D01*
X447000Y528000D02*
X457500D01*
X586827D01*
X716154D01*
X845480D01*
X716154Y618000D02*
X845480D01*
X586827D02*
X716154D01*
X457500D02*
X586827D01*
X449500D02*
X457500D01*
X466500Y1055500D02*
X574169D01*
X758000D01*
X559669Y1070000D02*
X574169Y1055500D01*
X452000Y1070000D02*
X466500Y1055500D01*
X769000Y1066500D02*
Y1243500D01*
X758000Y1055500D02*
X769000Y1066500D01*
X757000Y1231500D02*
X769000Y1243500D01*
X471000Y1231500D02*
X578000D01*
Y1231669D01*
X452000Y1250500D02*
X471000Y1231500D01*
X812500Y1643500D02*
X823000Y1654000D01*
X581000Y1080000D02*
X589669Y1071331D01*
Y1070000D02*
Y1071331D01*
X472000Y1080000D02*
X581000D01*
X472000D02*
X482000Y1070000D01*
X439500Y1264500D02*
X468000D01*
X575169D01*
X589669Y1250000D01*
X468000Y1264500D02*
X482000Y1250500D01*
M02*
