G04*
G04 #@! TF.GenerationSoftware,Altium Limited,Altium Designer,24.4.1 (13)*
G04*
G04 Layer_Physical_Order=1*
G04 Layer_Color=255*
%FSLAX25Y25*%
%MOIN*%
G70*
G04*
G04 #@! TF.SameCoordinates,D6D0C77B-36A0-4D54-9E24-613302BCF265*
G04*
G04*
G04 #@! TF.FilePolarity,Positive*
G04*
G01*
G75*
%ADD10C,0.01000*%
%ADD16R,0.08858X0.06496*%
%ADD17R,0.06500X0.06000*%
%ADD18R,0.06000X0.06500*%
%ADD19R,0.04528X0.05709*%
%ADD20R,0.03000X0.05000*%
%ADD21R,0.10433X0.10000*%
%ADD22R,0.05709X0.04724*%
%ADD23R,0.23819X0.26772*%
%ADD24R,0.05787X0.03819*%
%ADD25R,0.05709X0.04528*%
%ADD26R,0.05512X0.03543*%
%ADD27R,0.02559X0.06004*%
%ADD28R,0.04724X0.05709*%
%ADD29R,0.03819X0.05787*%
%ADD30R,0.02559X0.07874*%
%ADD31R,0.12598X0.07874*%
%ADD32R,0.07087X0.04528*%
%ADD33R,0.03543X0.05512*%
%ADD78C,0.10000*%
%ADD79C,0.07000*%
%ADD80C,0.07087*%
%ADD81O,0.18898X0.26772*%
%ADD82C,0.08661*%
%ADD83C,0.12000*%
%ADD84O,0.09000X0.08300*%
%ADD85C,0.15748*%
%ADD86C,0.11811*%
%ADD87R,0.16000X0.10000*%
%ADD88R,0.10000X0.16000*%
%ADD89C,0.06791*%
%ADD90R,0.06791X0.06791*%
%ADD91R,0.04724X0.04724*%
%ADD92C,0.04724*%
%ADD93R,0.05248X0.05248*%
%ADD94C,0.05248*%
%ADD95C,0.11300*%
%ADD96C,0.08700*%
%ADD97C,0.14961*%
%ADD98O,0.08600X0.06000*%
%ADD99C,0.05906*%
%ADD100R,0.05906X0.05906*%
%ADD101C,0.12800*%
%ADD102O,0.09000X0.06500*%
%ADD103R,0.09000X0.06500*%
%ADD104C,0.12700*%
%ADD105C,0.05500*%
%ADD106R,0.05500X0.05500*%
%ADD107C,0.03400*%
%ADD108C,0.05000*%
G36*
X643500Y1114000D02*
Y935500D01*
X786000Y793000D01*
Y422000D01*
X773941Y409941D01*
X748489D01*
Y438000D01*
X771000D01*
Y791000D01*
X640000Y922000D01*
X518500D01*
X511500Y929000D01*
Y941000D01*
X552829D01*
X553058Y940446D01*
X552971Y940358D01*
X552051Y938982D01*
X551417Y937452D01*
X551094Y935828D01*
Y934172D01*
X551417Y932548D01*
X552051Y931019D01*
X552971Y929642D01*
X554142Y928471D01*
X555518Y927551D01*
X557048Y926917D01*
X558672Y926595D01*
X560328D01*
X561952Y926917D01*
X563482Y927551D01*
X564858Y928471D01*
X566029Y929642D01*
X566949Y931019D01*
X567583Y932548D01*
X567906Y934172D01*
Y935828D01*
X567583Y937452D01*
X566949Y938982D01*
X566029Y940358D01*
X565941Y940446D01*
X566171Y941000D01*
X628000D01*
X633000Y946000D01*
Y1108500D01*
X631000Y1110500D01*
X619000Y1110500D01*
Y1122000D01*
X635500D01*
X643500Y1114000D01*
D02*
G37*
G36*
X708000Y436511D02*
Y410000D01*
X687385D01*
X687326Y410024D01*
Y437500D01*
X662326Y462500D01*
X468000D01*
X426000Y420500D01*
X409000D01*
Y427500D01*
X455500Y474000D01*
X670511D01*
X708000Y436511D01*
D02*
G37*
G36*
X890500Y409941D02*
X870815D01*
Y437500D01*
X890500D01*
Y409941D01*
D02*
G37*
G36*
X829337D02*
X809652D01*
Y437500D01*
X829337D01*
Y409941D01*
D02*
G37*
G36*
X645848Y437500D02*
Y409941D01*
X626000D01*
Y437000D01*
X617000Y446000D01*
X586507D01*
X585976Y446355D01*
X585000Y446549D01*
X519000D01*
D01*
X519000D01*
X518806Y446510D01*
X518024Y446355D01*
X517750Y446172D01*
X517493Y446000D01*
X498500D01*
X474000Y421500D01*
X456000D01*
Y427500D01*
X488000Y459500D01*
X623848D01*
X645848Y437500D01*
D02*
G37*
G36*
X585000Y410256D02*
X584685Y409941D01*
X565000D01*
Y424500D01*
X502500D01*
X502500Y427500D01*
X519000Y444000D01*
X585000D01*
Y410256D01*
D02*
G37*
D10*
X625000Y1307100D02*
X627450Y1309550D01*
X589669Y1250000D02*
X598200D01*
X779500Y1392000D02*
X787000Y1399500D01*
X779500Y1366035D02*
Y1392000D01*
X792500Y1366193D02*
Y1392413D01*
X879748Y735657D02*
Y742752D01*
X817500Y805000D02*
X879748Y742752D01*
X713100Y893400D02*
Y1121600D01*
Y893400D02*
X778800Y827700D01*
X789275D01*
X511300Y1373700D02*
Y1467300D01*
Y1373700D02*
X520000Y1365000D01*
Y1355400D02*
Y1365000D01*
X408500Y1294500D02*
X447000Y1256000D01*
X455500D01*
X477400Y1234100D01*
X408500Y1294500D02*
Y1305500D01*
X477400Y1234100D02*
X600600D01*
X513400Y1689300D02*
Y1713100D01*
X504000Y1722500D02*
X513400Y1713100D01*
X489500Y1722500D02*
X504000D01*
X861843Y1135657D02*
X879748D01*
X823500Y1174000D02*
Y1218500D01*
Y1174000D02*
X861843Y1135657D01*
X647232Y1595068D02*
X651800Y1590500D01*
X683000D02*
X690000Y1597500D01*
X651800Y1590500D02*
X683000D01*
X527500Y1578000D02*
Y1729500D01*
X536100Y1569400D02*
X639200D01*
X527500Y1578000D02*
X536100Y1569400D01*
X525500Y1547500D02*
Y1728000D01*
X579500Y1489500D02*
X589600Y1479400D01*
X525500Y1547500D02*
X599200Y1473800D01*
Y1473000D02*
Y1473800D01*
X589600Y1431000D02*
Y1479400D01*
X575000Y1489500D02*
X579500D01*
X599200Y1439400D02*
Y1473000D01*
X567016Y1476500D02*
Y1500684D01*
X529087Y1513900D02*
X553800D01*
X567016Y1500684D01*
X758500Y1529000D02*
X762500Y1525000D01*
Y1447289D02*
Y1525000D01*
X698603Y1446500D02*
X704000D01*
X709200Y1451700D02*
X734429D01*
X704000Y1446500D02*
X709200Y1451700D01*
X734429Y1439500D02*
Y1451700D01*
X745700D01*
X742500Y1446851D02*
Y1447500D01*
X740756Y1438823D02*
Y1445107D01*
X742500Y1446851D01*
X745700Y1451700D02*
X750756Y1446644D01*
X613587Y1388189D02*
Y1407587D01*
X581250D02*
X613587D01*
Y1413421D01*
X663000Y1406500D02*
Y1414500D01*
X553929Y1454071D02*
Y1459000D01*
Y1454071D02*
X561000Y1447000D01*
X570500D01*
X553929Y1459000D02*
Y1462671D01*
X575256Y1451756D02*
Y1461900D01*
X570500Y1447000D02*
X575256Y1451756D01*
X577823Y1438823D02*
X584000Y1445000D01*
X575256Y1438823D02*
X577823D01*
X550414Y1471252D02*
X551000Y1471838D01*
Y1476000D01*
X515548Y1471252D02*
X550414D01*
X534571Y1476500D02*
X543000D01*
X534071Y1476000D02*
X534571Y1476500D01*
X528000Y1332880D02*
Y1351400D01*
X524000Y1355400D02*
X528000Y1351400D01*
X525622Y1330502D02*
X528000Y1332880D01*
X532300Y1347975D02*
Y1352400D01*
X528500Y1356200D02*
X532300Y1352400D01*
X537500Y1347803D02*
X539197Y1349500D01*
X528927Y1328502D02*
X537500Y1337075D01*
X535500Y1351300D02*
X538900Y1354700D01*
X539197Y1349500D02*
X543800D01*
X533000Y1343077D02*
X535500Y1345577D01*
X537500Y1337075D02*
Y1347803D01*
X535500Y1345577D02*
Y1351300D01*
X543800Y1349500D02*
X551300Y1342000D01*
X518000Y1341354D02*
Y1353400D01*
X519697Y1355097D02*
Y1355097D01*
X514500Y1359193D02*
X515500Y1360193D01*
X518000Y1353400D02*
X519697Y1355097D01*
Y1355097D02*
X520000Y1355400D01*
X514500Y1336600D02*
Y1359193D01*
Y1336600D02*
X520598Y1330502D01*
X533000Y1341354D02*
Y1343077D01*
X522998Y1341356D02*
Y1347931D01*
X522000Y1354572D02*
X522997Y1353575D01*
X522965Y1347965D02*
X522997Y1347997D01*
X522965Y1347965D02*
X522998Y1347931D01*
Y1341356D02*
X523000Y1341354D01*
X522997Y1347997D02*
Y1353575D01*
X522000Y1354572D02*
Y1409000D01*
X788000Y1233500D02*
X817400Y1262900D01*
Y1304093D01*
X775686Y1231500D02*
X784000D01*
X481700Y1273500D02*
X553500D01*
X428400Y1326800D02*
X481700Y1273500D01*
X791700Y856300D02*
Y1187400D01*
X785300Y849900D02*
X791700Y856300D01*
Y1187400D02*
X819600Y1215300D01*
X739970Y1462679D02*
X739977D01*
X734649Y1468000D02*
X739970Y1462679D01*
X740756Y1460177D02*
Y1461900D01*
X739977Y1462679D02*
X740756Y1461900D01*
X734000Y1468000D02*
X734649D01*
X734429Y1459000D02*
Y1463045D01*
X731975Y1465500D02*
X734429Y1463045D01*
X699503Y1465500D02*
X731975D01*
X518000Y1315500D02*
Y1320000D01*
X515000Y1312500D02*
X518000Y1315500D01*
X515000Y1309000D02*
Y1312500D01*
X512000Y1322000D02*
X514502Y1324502D01*
X511390Y1326502D02*
X529802D01*
X511388Y1326500D02*
X511390Y1326502D01*
X492975Y1326500D02*
X511388D01*
X514502Y1324502D02*
X523000D01*
X534632D01*
X523000Y1320000D02*
Y1324500D01*
X523002Y1324502D01*
X520598Y1330502D02*
X525622D01*
X519198Y1328502D02*
X528927D01*
X512700Y1335000D02*
X519198Y1328502D01*
X534632Y1324502D02*
X539130Y1329000D01*
X529802Y1326502D02*
X540700Y1337400D01*
X489000Y1330475D02*
X492975Y1326500D01*
X489000Y1330475D02*
Y1335000D01*
Y1359693D01*
X614000Y1300799D02*
Y1309000D01*
Y1300799D02*
X614035Y1300763D01*
X763000Y1329000D02*
X771200D01*
X739900Y1250000D02*
X763000Y1273100D01*
Y1329000D01*
X758000D02*
X763000D01*
X697600Y1438500D02*
X706500D01*
X710642Y1430248D02*
Y1434358D01*
X706500Y1438500D02*
X710642Y1434358D01*
X713390Y1427500D02*
X714571D01*
X710642Y1430248D02*
X713390Y1427500D01*
X764100Y1677400D02*
Y1688900D01*
X754973D02*
X764100D01*
X781400D01*
X731500Y1427500D02*
X746016D01*
X747516Y1429000D01*
X748300Y1410800D02*
Y1428216D01*
X747516Y1429000D02*
X748300Y1428216D01*
X732476Y1409700D02*
X747200D01*
X732476Y1390276D02*
Y1409700D01*
Y1414500D01*
X617000Y1300763D02*
Y1320323D01*
X614035Y1300763D02*
X617000D01*
X622000Y1320323D02*
Y1324800D01*
Y1320323D02*
X622780Y1319543D01*
Y1317455D02*
Y1319543D01*
X619070Y1296000D02*
X623000Y1299930D01*
X622780Y1317455D02*
X623000Y1317235D01*
Y1299930D02*
Y1317235D01*
X621500Y1295601D02*
X625000Y1299101D01*
Y1307100D01*
X627450Y1309550D02*
Y1309741D01*
X626305Y1310200D02*
X626800D01*
X632780Y1312254D02*
Y1319543D01*
X630725Y1310200D02*
X632780Y1312254D01*
X632000Y1320323D02*
X632780Y1319543D01*
X633600Y1325200D02*
X635200Y1323600D01*
X627450Y1309741D02*
X627909Y1310200D01*
X626800D02*
X627450Y1309550D01*
X635200Y1311846D02*
Y1323600D01*
X634894Y1311540D02*
X635200Y1311846D01*
X632000Y1300763D02*
X632146D01*
X627909Y1310200D02*
X630725D01*
X632146Y1300763D02*
X634894Y1303511D01*
Y1311540D01*
X621500Y1273300D02*
Y1295601D01*
X598200Y1250000D02*
X621500Y1273300D01*
X591200Y1296000D02*
X619070D01*
X514700Y1409000D02*
X522000D01*
X525587D01*
X581250Y1407587D02*
Y1417550D01*
Y1329600D02*
Y1407587D01*
X677499Y1365809D02*
X677618Y1365690D01*
X677499Y1365809D02*
Y1384650D01*
Y1327299D02*
Y1357671D01*
X675499Y1364981D02*
X675618Y1364861D01*
X675499Y1358500D02*
X675618Y1358619D01*
X675499Y1364981D02*
Y1370101D01*
Y1332999D02*
Y1358500D01*
X677499Y1327299D02*
X679100Y1328900D01*
X675618Y1358619D02*
Y1364861D01*
X675200Y1325000D02*
X677499Y1327299D01*
X672000Y1373600D02*
X675499Y1370101D01*
X677499Y1357671D02*
X677618Y1357790D01*
Y1365690D01*
X677499Y1384650D02*
X706087D01*
X672000Y1329500D02*
X675499Y1332999D01*
X617126Y1384650D02*
X677499D01*
X706087D02*
Y1413421D01*
Y1384650D02*
X726850D01*
X732476Y1390276D01*
X679100Y1318100D02*
Y1328900D01*
X696700Y1300500D02*
X713035D01*
X654200Y1334300D02*
X655700D01*
X617000Y1330100D02*
X621200Y1334300D01*
X758000Y1281900D02*
Y1297500D01*
X622000Y1335100D02*
Y1341677D01*
X621200Y1334300D02*
X622000Y1335100D01*
X574300Y1327800D02*
X579450D01*
X573100Y1329000D02*
X574300Y1327800D01*
X679100Y1318100D02*
X696700Y1300500D01*
X655700Y1334300D02*
X659000Y1337600D01*
Y1342500D01*
X579450Y1327800D02*
X581250Y1329600D01*
X659000Y1298000D02*
X675200D01*
X747200Y1409700D02*
X748300Y1410800D01*
X716000Y1284100D02*
Y1300500D01*
X617000Y1320323D02*
Y1330100D01*
X728000Y1272100D02*
X748200D01*
X758000Y1281900D01*
X654200Y1325000D02*
X675200D01*
Y1298000D02*
X679100Y1301900D01*
X621200Y1334300D02*
X654200D01*
X579500Y1419300D02*
X581250Y1417550D01*
X716000Y1284100D02*
X728000Y1272100D01*
X567016Y1424000D02*
X571716Y1419300D01*
X560000Y1329000D02*
X573100D01*
X679100Y1301900D02*
Y1318100D01*
X654200Y1325000D02*
Y1334300D01*
X571716Y1419300D02*
X579500D01*
X567016Y1424000D02*
Y1429000D01*
X613587Y1388189D02*
X617126Y1384650D01*
X713035Y1300500D02*
X716000D01*
Y1319823D01*
X698603Y1413818D02*
Y1422700D01*
Y1426803D01*
Y1427200D01*
X710400Y1422700D02*
X713600Y1419500D01*
X698603Y1422700D02*
X710400D01*
X698603Y1413818D02*
X699000Y1413421D01*
X698603Y1427200D02*
Y1433500D01*
X742500Y1473000D02*
X750756Y1464744D01*
X742500Y1473000D02*
Y1489500D01*
X750756Y1460177D02*
Y1464744D01*
X599200Y1473000D02*
X614200D01*
X650000Y1495200D02*
Y1504900D01*
X636800Y1495200D02*
X650000D01*
X650000Y1495200D01*
Y1489500D02*
Y1495200D01*
X639000Y1488524D02*
X639976Y1489500D01*
X639000Y1476000D02*
Y1488524D01*
X629000Y1462673D02*
Y1487226D01*
X626976Y1489250D02*
X629000Y1487226D01*
Y1462673D02*
X632673Y1459000D01*
X633071Y1471086D02*
Y1491471D01*
X633657Y1470500D02*
X640752D01*
X645000Y1466252D01*
X633071Y1471086D02*
X633657Y1470500D01*
X653256Y1460177D02*
Y1474740D01*
X655016Y1476500D01*
X662103D02*
X663256Y1475346D01*
Y1456000D02*
Y1475346D01*
X655016Y1476500D02*
Y1482000D01*
X664100D01*
X655016D02*
Y1511484D01*
X664100Y1482000D02*
X666100Y1480000D01*
Y1425186D02*
Y1480000D01*
X650000Y1516500D02*
X655016Y1511484D01*
X615900Y1516500D02*
X650000D01*
X613587Y1514187D02*
X615900Y1516500D01*
X640000Y1452300D02*
X640500D01*
X641929Y1452300D02*
Y1459000D01*
X641929Y1452300D02*
X641929Y1452300D01*
X640500Y1452300D02*
X641929D01*
X659556D01*
X663256Y1456000D01*
X682232Y1540268D02*
X690000Y1532500D01*
X511564Y1300310D02*
X511609Y1300681D01*
X511699Y1301422D01*
X514100Y1302450D02*
X514628Y1302676D01*
X551000Y1414500D02*
Y1427500D01*
X639976Y1424752D02*
X641149Y1425925D01*
X638771Y1426598D02*
X641425Y1425925D01*
X565378Y1458740D02*
X566036Y1459398D01*
X635215Y1427500D02*
X638771Y1426598D01*
X639000Y1476000D02*
X655016D01*
X706087Y1489900D02*
X710676D01*
X661043Y1540268D02*
Y1555500D01*
X653768Y1601400D02*
X676100D01*
X710676Y1489900D02*
X715826Y1484750D01*
X742520Y1668095D02*
Y1682189D01*
X643500Y1557000D02*
Y1565260D01*
X691700Y1459000D02*
X725173D01*
X691700Y1444400D02*
Y1459000D01*
Y1502700D01*
Y1444400D02*
X697600Y1438500D01*
X698503Y1464500D02*
X699503Y1465500D01*
X699000Y1482750D02*
X724250D01*
X726400Y1484900D02*
Y1493300D01*
X724250Y1482750D02*
X726400Y1484900D01*
X731500Y1476000D02*
X732476Y1476976D01*
Y1489500D01*
X755756Y1457036D02*
Y1475346D01*
X754603Y1476500D02*
X755756Y1475346D01*
X699000Y1477997D02*
Y1482750D01*
Y1490499D01*
X698503Y1477500D02*
X699000Y1477997D01*
X731500Y1476000D02*
X738500D01*
X739500Y1472256D02*
Y1475000D01*
X738500Y1476000D02*
X739500Y1475000D01*
Y1472256D02*
X745756Y1466000D01*
X565378Y1451122D02*
Y1458740D01*
X565256Y1460177D02*
X566036Y1459398D01*
X525587Y1409000D02*
Y1413421D01*
X551976Y1397200D02*
Y1414500D01*
X543426Y1388650D02*
X551976Y1397200D01*
X536450Y1388650D02*
X543426D01*
X533126Y1391974D02*
X536450Y1388650D01*
X533126Y1391974D02*
Y1420874D01*
X531300Y1422700D02*
X533126Y1420874D01*
X528000Y1422700D02*
X531300D01*
X524400Y1426300D02*
X528000Y1422700D01*
X524400Y1426300D02*
Y1436800D01*
X523200Y1438000D02*
X524400Y1436800D01*
X513353Y1438000D02*
X523200D01*
X513353Y1410347D02*
Y1438000D01*
Y1410347D02*
X514700Y1409000D01*
X551000Y1414500D02*
X551976D01*
X551000Y1427500D02*
X556056D01*
Y1432200D01*
X560256Y1436400D01*
Y1438823D01*
X518500Y1420200D02*
X518500Y1420200D01*
X518500Y1420200D02*
Y1433103D01*
X518500Y1420200D02*
X528526D01*
X518500Y1413421D02*
Y1420200D01*
X518103Y1433500D02*
X518500Y1433103D01*
X489000Y1359693D02*
X489500Y1360193D01*
X444500Y651000D02*
Y1196600D01*
X455700Y1207800D01*
X665514Y1424600D02*
X666100Y1425186D01*
X655016Y1424600D02*
Y1429000D01*
Y1424600D02*
X665514D01*
X661043Y1540268D02*
X682232D01*
X747516Y1476500D02*
Y1494984D01*
X745600Y1496900D02*
X747516Y1494984D01*
X613587Y1490499D02*
Y1514187D01*
X706087Y1490499D02*
Y1494513D01*
X704000Y1496600D02*
X706087Y1494513D01*
X697600Y1496600D02*
X704000D01*
X693700Y1492700D02*
X697600Y1496600D01*
X693700Y1473500D02*
Y1492700D01*
Y1473500D02*
X696000Y1471200D01*
X724847D01*
X726073Y1472427D01*
Y1475673D01*
X726400Y1476000D01*
X731500D01*
X706087Y1489900D02*
Y1490499D01*
X715826Y1484750D02*
X723126D01*
X723976Y1485600D01*
Y1494476D01*
X726400Y1496900D01*
X745600D01*
X661043Y1555500D02*
Y1563400D01*
X651703Y1572740D02*
X661043Y1563400D01*
X643500Y1572740D02*
X651703D01*
X745756Y1460177D02*
Y1466000D01*
X660000Y1540268D02*
X661043D01*
X655016Y1476000D02*
Y1476500D01*
X511665Y1299794D02*
X512825Y1299956D01*
X511504Y1300263D02*
X511564Y1300310D01*
X515035Y1300263D02*
Y1302455D01*
X647000Y1430500D02*
X648256Y1431756D01*
X644343Y1427843D02*
X647000Y1430500D01*
X639976Y1420976D02*
Y1424752D01*
Y1415976D02*
Y1420976D01*
X640000Y1421000D01*
X639976Y1420976D02*
X639976Y1420976D01*
X511699Y1301422D02*
X514100Y1302450D01*
X515035Y1302710D02*
Y1303199D01*
X515000Y1303613D02*
Y1309000D01*
X762106Y1361496D02*
X762362Y1361240D01*
X750874Y1361496D02*
X762106D01*
X750618Y1361240D02*
X750874Y1361496D01*
X648256Y1431756D02*
Y1438823D01*
X639000Y1427500D02*
X639343Y1427843D01*
X644343D01*
X635215Y1427500D02*
X639000D01*
X650000Y1414500D02*
X651000Y1415500D01*
Y1432944D01*
X653256Y1435200D01*
X785500Y1545000D02*
Y1565591D01*
X791910Y1572000D01*
X782300Y1544800D02*
X785300D01*
X779500Y1542000D02*
X782300Y1544800D01*
X785300D02*
X785500Y1545000D01*
X779500Y1538535D02*
Y1542000D01*
X791910Y1572000D02*
X792500D01*
X627239Y1324239D02*
X628200Y1325200D01*
X633600D01*
X627000Y1320323D02*
X627239Y1320562D01*
Y1324239D01*
X716000Y1341177D02*
Y1345800D01*
X714859Y1346941D02*
X716000Y1345800D01*
X712800Y1347400D02*
X713259Y1346941D01*
X714859D01*
X687000Y1335000D02*
X687500Y1335500D01*
Y1360193D01*
X572000Y1105500D02*
Y1197000D01*
X548000Y1221000D02*
X572000Y1197000D01*
X786000Y1512000D02*
X788232Y1514231D01*
X792232D01*
X786000Y1481000D02*
Y1512000D01*
X792232Y1514231D02*
X792500Y1514500D01*
Y1424193D02*
Y1449913D01*
X779535Y1481000D02*
X786000D01*
X779500Y1481035D02*
X779535Y1481000D01*
X792500Y1481193D02*
Y1507413D01*
Y1673000D02*
Y1686913D01*
Y1660693D02*
Y1673000D01*
X755756Y1440545D02*
X762500Y1447289D01*
X755756Y1438823D02*
Y1440545D01*
X734429Y1456000D02*
Y1459000D01*
X606500Y1418500D02*
X606600Y1418600D01*
X606500Y1413421D02*
Y1418500D01*
X606600Y1418600D02*
X618100D01*
X606500Y1418500D02*
Y1433103D01*
X606103Y1433500D02*
X606500Y1433103D01*
X639976Y1414500D02*
Y1420976D01*
X626976Y1418003D02*
X632673Y1423700D01*
Y1439500D01*
X641149Y1425925D02*
X641425D01*
X640029Y1446500D02*
X641929Y1444600D01*
X606103Y1446500D02*
X640029D01*
X641929Y1444600D02*
X641929Y1444600D01*
Y1444600D02*
X655900D01*
X641929Y1439500D02*
Y1444600D01*
X657765Y1439314D02*
Y1442735D01*
X655900Y1444600D02*
X657765Y1442735D01*
Y1439314D02*
X658256Y1438823D01*
X660500Y1449000D02*
X663256Y1446244D01*
X655956Y1449000D02*
X660500D01*
X663256Y1438823D02*
Y1446244D01*
X501500Y1637626D02*
X506374Y1642500D01*
X499500Y1606374D02*
X506374Y1599500D01*
X499500Y1645626D02*
X506374Y1652500D01*
X501500Y1614374D02*
Y1637626D01*
Y1614374D02*
X506374Y1609500D01*
X499500Y1606374D02*
Y1645626D01*
X506374Y1672500D02*
X511000Y1667874D01*
Y1624126D02*
Y1667874D01*
X506374Y1619500D02*
X511000Y1624126D01*
X529500Y1654374D02*
X537626Y1662500D01*
X493346Y1763654D02*
X527500Y1729500D01*
X529500Y1617626D02*
X537626Y1609500D01*
X521000Y1732500D02*
X525500Y1728000D01*
X529500Y1617626D02*
Y1654374D01*
X639200Y1569400D02*
X639600D01*
X617400Y1486686D02*
Y1513400D01*
X606500Y1477997D02*
Y1486100D01*
X616814Y1486100D02*
X617400Y1486686D01*
X606500Y1486100D02*
X606500Y1486100D01*
X606500Y1486100D02*
Y1490499D01*
X606500Y1486100D02*
X616814D01*
X606003Y1477500D02*
X606500Y1477997D01*
X588000Y1335500D02*
Y1360193D01*
X588500Y1360693D01*
X610500Y1344500D02*
X613323Y1341677D01*
X617000D01*
X727571Y1346293D02*
X729693D01*
X741362Y1357962D02*
Y1361240D01*
X731000Y1341177D02*
Y1344293D01*
X741447Y1354740D01*
X747358D01*
X729693Y1346293D02*
X741362Y1357962D01*
X721000Y1341177D02*
Y1343300D01*
X727200Y1349500D01*
X721000Y1337600D02*
Y1341177D01*
X605000Y1316000D02*
Y1322500D01*
X792500Y1481193D02*
X792807Y1481500D01*
X799000D01*
X789275Y827700D02*
X845480Y771494D01*
Y638000D02*
Y771494D01*
X779500Y1660535D02*
X779535Y1660500D01*
X786000D01*
Y1424000D02*
Y1453400D01*
X779500Y1424035D02*
X785965D01*
X786000Y1453400D02*
X789600Y1457000D01*
X785965Y1424035D02*
X786000Y1424000D01*
X681000Y1440500D02*
X689500Y1432000D01*
X681000Y1440500D02*
Y1484800D01*
X775100Y1232086D02*
X775686Y1231500D01*
X775100Y1232086D02*
Y1307635D01*
X415500Y1297239D02*
X423000Y1304739D01*
Y1360400D01*
X425600Y1363000D01*
X425500Y1465500D02*
X437000Y1454000D01*
X417000Y1503000D02*
X425500Y1494500D01*
Y1465500D02*
Y1494500D01*
X408500Y1305500D02*
X415500Y1312500D01*
X617400Y1513400D02*
X617900Y1513900D01*
X641000D01*
X401701Y1746599D02*
X410700Y1737600D01*
X639600Y1569400D02*
X647557D01*
X402286Y1763654D02*
X493346D01*
X401701Y1763068D02*
X402286Y1763654D01*
X401701Y1746599D02*
Y1763068D01*
X420650Y1757450D02*
X436900D01*
X437951Y1756399D01*
X408051Y1747500D02*
X410700D01*
X407093Y1748459D02*
X408051Y1747500D01*
X410751Y1752300D02*
X411401Y1752950D01*
X407093Y1748459D02*
X410110D01*
X437951Y1657549D02*
X441000Y1654500D01*
X439951Y1641600D02*
X449300D01*
X410751Y1749100D02*
Y1752300D01*
X437951Y1657549D02*
Y1756399D01*
X434601Y1752950D02*
X435951Y1751600D01*
X410110Y1748459D02*
X410751Y1749100D01*
X449300Y1641600D02*
X452200Y1644500D01*
X411401Y1752950D02*
X434601D01*
X435951Y1645600D02*
Y1751600D01*
Y1645600D02*
X439951Y1641600D01*
X640000Y1576100D02*
X674600D01*
X647557Y1569400D02*
X647957Y1569000D01*
X647457Y1630500D02*
Y1648957D01*
X737760Y1705700D02*
Y1705784D01*
X630500Y1609500D02*
X642346Y1621346D01*
X737760Y1705700D02*
X742760D01*
X647457Y1625943D02*
Y1630500D01*
X704284Y1705784D02*
X737760D01*
X742760Y1694000D02*
Y1705700D01*
X647457Y1648957D02*
X704284Y1705784D01*
X537626Y1609500D02*
X630500D01*
X647457Y1625943D02*
X647500Y1621346D01*
X742760Y1705700D02*
Y1705784D01*
X642346Y1621346D02*
X647500D01*
X489500Y1732500D02*
X521000D01*
X441000Y1654500D02*
X452200D01*
X532100Y969306D02*
Y1065600D01*
X504594Y765206D02*
X586800Y683000D01*
X504594Y765206D02*
Y941800D01*
X532100Y969306D01*
X472611Y428111D02*
X496500Y452000D01*
X467750Y413811D02*
X472611Y418672D01*
X496500Y452000D02*
X611663D01*
X472611Y418672D02*
Y428111D01*
X611663Y452000D02*
X626163Y437500D01*
X563723Y434277D02*
X565000Y433000D01*
X561494Y434277D02*
X563723D01*
X560217Y433000D02*
X561494Y434277D01*
X533689Y433000D02*
X560217D01*
X565000Y409941D02*
Y433000D01*
X514500Y413811D02*
X533689Y433000D01*
X461000Y469000D02*
X664500D01*
X421000Y413811D02*
Y429000D01*
X461000Y469000D01*
X664500D02*
X687326Y446174D01*
Y437500D02*
Y446174D01*
Y409941D02*
Y437500D01*
X748200Y1685700D02*
X752805Y1681095D01*
X747900Y1686000D02*
X748200Y1685700D01*
X647957Y1569000D02*
X648000D01*
X639200Y1569800D02*
X639600Y1569400D01*
X533000Y1300263D02*
X535800D01*
X531965D02*
X533000D01*
X528000D02*
Y1320000D01*
X545850Y1300950D02*
X549300Y1297500D01*
X533000Y1280000D02*
Y1300263D01*
X632000Y1280000D02*
Y1300763D01*
X634800D01*
X730965Y1300500D02*
X733600D01*
X729965D02*
X730965D01*
X726000D02*
Y1319823D01*
X730965Y1278000D02*
Y1300500D01*
X525587Y1494413D02*
Y1510400D01*
Y1490499D02*
Y1494413D01*
X495200Y1475200D02*
X513200Y1493200D01*
X530900Y1427500D02*
Y1440000D01*
X617600Y1427500D02*
Y1438100D01*
X626976Y1418003D02*
Y1420800D01*
X721500Y1414500D02*
Y1439500D01*
X574103Y1461900D02*
X575256D01*
X660068Y1533800D02*
X680000D01*
X659000Y1533732D02*
Y1534000D01*
X552618Y1361200D02*
X555460D01*
X552618Y1356800D02*
Y1361200D01*
X540700Y1337400D02*
Y1342000D01*
X651618Y1361700D02*
X654460D01*
X750618Y1358000D02*
Y1361200D01*
X542500Y1310500D02*
Y1329000D01*
X626700Y1329500D02*
X641400D01*
X718400Y1331900D02*
X740400D01*
X716900Y1325500D02*
X721000Y1321400D01*
X707400Y1335000D02*
X716900Y1325500D01*
X487700Y1568600D02*
Y1572500D01*
X755500Y1489500D02*
Y1504600D01*
X597000Y1352000D02*
X609000Y1340000D01*
X696400Y1336200D02*
X709600Y1349400D01*
X518500Y1484197D02*
Y1484800D01*
X725500Y1422700D02*
Y1432100D01*
Y1392000D02*
Y1422700D01*
X653957Y1548357D02*
Y1555500D01*
X649600Y1544000D02*
X653957Y1548357D01*
X643500Y1544000D02*
X649600D01*
X459700Y1615511D02*
Y1619500D01*
X455450Y1611261D02*
X459700Y1615511D01*
X455450Y1607261D02*
Y1611261D01*
Y1607261D02*
X456450Y1606261D01*
Y1602739D02*
Y1606261D01*
X452200Y1598489D02*
X456450Y1602739D01*
X452200Y1594500D02*
Y1598489D01*
X819600Y1215300D02*
Y1593800D01*
X817207Y1596193D02*
X819600Y1593800D01*
X792500Y1596193D02*
X817207D01*
X720100Y1328700D02*
X721200Y1327600D01*
X726400D01*
X731000Y1319823D02*
Y1323000D01*
X650000Y1466344D02*
Y1467300D01*
X648256Y1464600D02*
X650000Y1466344D01*
X648256Y1460177D02*
Y1464600D01*
X789600Y1457000D02*
X792500D01*
X452200Y1405000D02*
Y1424500D01*
X447500Y1400300D02*
X452200Y1405000D01*
X447500Y1343000D02*
Y1400300D01*
X437500Y1333000D02*
X447500Y1343000D01*
X425600Y1363000D02*
X437500D01*
X754200Y1310500D02*
X758000D01*
X749300Y1305600D02*
X754200Y1310500D01*
X749300Y1301200D02*
Y1305600D01*
X745600Y1297500D02*
X749300Y1301200D01*
X740400Y1297500D02*
X745600D01*
X525587Y1510400D02*
X529087Y1513900D01*
X474700Y1599500D02*
X485000Y1609800D01*
Y1614400D01*
X487600Y1617000D01*
X491800D01*
X494000Y1619200D01*
Y1658000D01*
X489500Y1662500D02*
X494000Y1658000D01*
X625076Y1422700D02*
X626976Y1420800D01*
X616000Y1422700D02*
X625076D01*
X614400Y1424300D02*
Y1435100D01*
X600000Y1438600D02*
X610900D01*
X599200Y1439400D02*
X600000Y1438600D01*
X691700Y1502700D02*
X697000Y1508000D01*
X719476D01*
X714571Y1476000D02*
X722500D01*
X532100Y1065600D02*
X572000Y1105500D01*
X550629Y1446500D02*
X553929Y1442400D01*
X518103Y1446500D02*
X550629D01*
X734429Y1456000D02*
X735549Y1454880D01*
X753600D01*
X755756Y1457036D01*
X750756Y1438823D02*
Y1446644D01*
X627000Y1341677D02*
Y1344800D01*
X614500Y1357300D02*
X627000Y1344800D01*
X614500Y1357300D02*
Y1360693D01*
X658256Y1456800D02*
Y1460177D01*
X657056Y1455600D02*
X658256Y1456800D01*
X646200Y1455600D02*
X657056D01*
X645000Y1456800D02*
X646200Y1455600D01*
X645000Y1456800D02*
Y1466252D01*
X633071Y1491471D02*
X636800Y1495200D01*
X641000Y1513900D02*
X650000Y1504900D01*
X588000Y1299200D02*
X591200Y1296000D01*
X588000Y1299200D02*
Y1322500D01*
X467200Y1564500D02*
X477200D01*
X482900Y1570200D01*
Y1595900D01*
X489500Y1602500D01*
X445800Y1548100D02*
X452200Y1554500D01*
X445800Y1538647D02*
Y1548100D01*
X443453Y1536300D02*
X445800Y1538647D01*
X443453Y1510453D02*
Y1536300D01*
X437000Y1504000D02*
X443453Y1510453D01*
Y1555753D02*
X452200Y1564500D01*
X443453Y1539547D02*
Y1555753D01*
X441453Y1537547D02*
X443453Y1539547D01*
X441453Y1528453D02*
Y1537547D01*
X437000Y1524000D02*
X441453Y1528453D01*
X551300Y1342000D02*
X560000D01*
X605000Y1322500D02*
X608800D01*
X609800Y1323500D02*
Y1339200D01*
X597000Y1352000D02*
Y1364800D01*
X599800Y1367600D01*
X617093D01*
X624000Y1360693D01*
X627500D01*
X619669Y1250000D02*
X739900D01*
X653256Y1435200D02*
Y1438823D01*
X745756Y1435256D02*
Y1438823D01*
X743500Y1433000D02*
X745756Y1435256D01*
X725500Y1422700D02*
X739200D01*
X742500Y1419400D01*
Y1414500D02*
Y1419400D01*
X713600Y1391300D02*
Y1419500D01*
Y1391300D02*
X716800Y1388100D01*
X721600D01*
X725500Y1392000D01*
Y1432100D02*
X726400Y1433000D01*
X743500D01*
X518003Y1483700D02*
X518500Y1484197D01*
X518003Y1477500D02*
Y1483700D01*
X506000Y1335000D02*
X512700D01*
X452200Y1480511D02*
Y1484500D01*
Y1480511D02*
X456450Y1476261D01*
Y1472261D02*
Y1476261D01*
X452939Y1468750D02*
X456450Y1472261D01*
X448550Y1468750D02*
X452939D01*
X443500Y1463700D02*
X448550Y1468750D01*
X443500Y1399000D02*
Y1463700D01*
X437500Y1393000D02*
X443500Y1399000D01*
X672618Y1356800D02*
Y1361740D01*
X663018Y1347200D02*
X672618Y1356800D01*
X643000Y1347200D02*
X663018D01*
X641400Y1345600D02*
X643000Y1347200D01*
X641400Y1342500D02*
Y1345600D01*
X609700Y1452300D02*
X640000D01*
X606003Y1455997D02*
X609700Y1452300D01*
X606003Y1455997D02*
Y1464500D01*
X663000Y1489500D02*
X676300D01*
X681000Y1484800D01*
X781400Y1688900D02*
X786500Y1694000D01*
X792500D01*
X600600Y1234100D02*
X713100Y1121600D01*
X575000Y1367000D02*
Y1414500D01*
Y1367000D02*
X577300Y1364700D01*
Y1331000D02*
Y1364700D01*
X726400Y1327600D02*
X731000Y1323000D01*
X467200Y1400511D02*
Y1424500D01*
Y1400511D02*
X471450Y1396261D01*
Y1392739D02*
Y1396261D01*
X469000Y1390289D02*
X471450Y1392739D01*
X469000Y1389189D02*
Y1390289D01*
Y1389189D02*
X472939Y1385250D01*
X479000D01*
X479200Y1385050D01*
Y1296400D02*
Y1385050D01*
Y1296400D02*
X487750Y1287850D01*
X525150D01*
X533000Y1280000D01*
X428400Y1326800D02*
Y1349400D01*
X432000Y1353000D01*
X437500D01*
X444500Y651000D02*
X457500Y638000D01*
X533000Y1310600D02*
Y1320000D01*
Y1310600D02*
X539600Y1304000D01*
X563200D01*
X564800Y1302400D01*
Y1274100D02*
Y1302400D01*
X547100Y1256400D02*
X564800Y1274100D01*
X487900Y1256400D02*
X547100D01*
X482000Y1250500D02*
X487900Y1256400D01*
X432500Y1383000D02*
X437500D01*
X431500Y1384000D02*
X432500Y1383000D01*
X431500Y1384000D02*
Y1409200D01*
X441500Y1419200D01*
Y1464834D01*
X441940Y1465274D01*
Y1467890D01*
X448550Y1474500D01*
X452200D01*
X437000Y1474000D02*
X445453Y1482453D01*
Y1532953D01*
X447000Y1534500D01*
X452200D01*
X448000Y1529500D02*
X459700D01*
X447453Y1528953D02*
X448000Y1529500D01*
X447453Y1477053D02*
Y1528953D01*
X439900Y1469500D02*
X447453Y1477053D01*
X439900Y1466900D02*
Y1469500D01*
X437000Y1464000D02*
X439900Y1466900D01*
X540700Y1342000D02*
X542400D01*
X539130Y1329000D02*
X542400D01*
X621000Y1459000D02*
X632673D01*
X611000Y1469000D02*
X621000Y1459000D01*
X601200Y1469000D02*
X611000D01*
X601200Y1442400D02*
Y1469000D01*
Y1442400D02*
X602101Y1441499D01*
X614201D01*
X617600Y1438100D01*
Y1427500D02*
X622071D01*
X653957Y1555500D02*
Y1563043D01*
X812800Y1308693D02*
X817400Y1304093D01*
X792500Y1308693D02*
X812800D01*
X647232Y1595068D02*
Y1604500D01*
X722600Y1674630D02*
X729260D01*
X708500Y1660530D02*
X722600Y1674630D01*
X708500Y1610000D02*
Y1660530D01*
X674600Y1576100D02*
X708500Y1610000D01*
X639200Y1575300D02*
X640000Y1576100D01*
X639200Y1569800D02*
Y1575300D01*
X648000Y1569000D02*
X653957Y1563043D01*
X437500Y1343000D02*
X442500D01*
X443500Y1344000D01*
Y1394125D01*
X445500Y1396125D01*
Y1427800D01*
X452200Y1434500D01*
X771618Y1361240D02*
Y1365500D01*
X761418Y1375700D02*
X771618Y1365500D01*
X707307Y1375700D02*
X761418D01*
X691800Y1360193D02*
X707307Y1375700D01*
X687500Y1360193D02*
X691800D01*
X775100Y1307635D02*
X776000Y1308535D01*
X779500D01*
X766940Y1713560D02*
X786500Y1694000D01*
X750400Y1713560D02*
X766940D01*
X747760Y1710920D02*
X750400Y1713560D01*
X747760Y1705784D02*
Y1710920D01*
X659000Y1329500D02*
X672000D01*
X587900Y1373600D02*
X672000D01*
X583250Y1368950D02*
X587900Y1373600D01*
X583250Y1330500D02*
Y1368950D01*
Y1330500D02*
X592000D01*
X593400Y1331900D01*
Y1335000D01*
X598400Y1340000D01*
X609000D01*
X609800Y1339200D01*
X608800Y1322500D02*
X609800Y1323500D01*
X605000Y1331000D02*
Y1335500D01*
X596500Y1322500D02*
X605000Y1331000D01*
X588000Y1322500D02*
X596500D01*
X588500Y1360693D02*
Y1368000D01*
X592000Y1371500D01*
X670918D01*
X672618Y1369800D01*
Y1361740D02*
Y1369800D01*
X700000Y1322000D02*
X704000D01*
X695500Y1317500D02*
X700000Y1322000D01*
X683100Y1317500D02*
X695500D01*
X682200Y1318400D02*
X683100Y1317500D01*
X682200Y1318400D02*
Y1328000D01*
X684700Y1330500D01*
X694400D01*
X696400Y1332500D01*
Y1336200D01*
X726500Y1356500D02*
Y1360193D01*
X754600Y1329000D02*
X758000D01*
X749300Y1334300D02*
X754600Y1329000D01*
X712000Y1334300D02*
X749300D01*
X709600Y1336700D02*
X712000Y1334300D01*
X709600Y1336700D02*
Y1349400D01*
X715000Y1354800D01*
X724800D01*
X726500Y1356500D01*
X754700Y1342000D02*
X758000D01*
X749300Y1336600D02*
X754700Y1342000D01*
X722000Y1336600D02*
X749300D01*
X721000Y1337600D02*
X722000Y1336600D01*
X704000Y1331700D02*
Y1335000D01*
X700800Y1328500D02*
X704000Y1331700D01*
X689100Y1328500D02*
X700800D01*
X687000Y1326400D02*
X689100Y1328500D01*
X687000Y1322000D02*
Y1326400D01*
X474700Y1639500D02*
X479000Y1643800D01*
Y1732000D01*
X489500Y1742500D01*
X474700Y1629500D02*
X479047Y1633847D01*
Y1640953D01*
X481047Y1642953D01*
Y1714047D01*
X489500Y1722500D01*
X474700Y1619500D02*
X481047Y1625847D01*
Y1638953D01*
X483047Y1640953D01*
Y1696047D01*
X489500Y1702500D01*
X474700Y1609500D02*
X481000Y1615800D01*
Y1621000D01*
X483047Y1623047D01*
Y1636953D01*
X485047Y1638953D01*
Y1678047D01*
X489500Y1682500D01*
Y1608915D02*
Y1612500D01*
X480900Y1600315D02*
X489500Y1608915D01*
X480900Y1575700D02*
Y1600315D01*
X474700Y1569500D02*
X480900Y1575700D01*
X467200Y1594500D02*
Y1598489D01*
X462950Y1602739D02*
X467200Y1598489D01*
X462950Y1602739D02*
Y1606261D01*
X463950Y1607261D01*
Y1611261D01*
X462950Y1612261D02*
X463950Y1611261D01*
X462950Y1612261D02*
Y1616261D01*
X463950Y1617261D01*
Y1621261D01*
X462300Y1622911D02*
X463950Y1621261D01*
X462300Y1622911D02*
Y1626089D01*
X463950Y1627739D01*
Y1631261D01*
X462300Y1632911D02*
X463950Y1631261D01*
X462300Y1632911D02*
Y1636089D01*
X467200Y1640989D01*
Y1644500D01*
Y1544500D02*
Y1548489D01*
X462950Y1552739D02*
X467200Y1548489D01*
X462950Y1552739D02*
Y1556739D01*
X463950Y1557739D01*
Y1561739D01*
X462950Y1562739D02*
X463950Y1561739D01*
X462950Y1562739D02*
Y1566739D01*
X463950Y1567739D01*
Y1571739D01*
X462950Y1572739D02*
X463950Y1571739D01*
X462950Y1572739D02*
Y1576739D01*
X463950Y1577739D01*
Y1581739D01*
X462950Y1582739D02*
X463950Y1581739D01*
X462950Y1582739D02*
Y1586261D01*
X467200Y1590511D01*
Y1594500D01*
X487800Y1640800D02*
X489500Y1642500D01*
X487800Y1637953D02*
Y1640800D01*
X485047Y1635200D02*
X487800Y1637953D01*
X485047Y1619000D02*
Y1635200D01*
X483000Y1616953D02*
X485047Y1619000D01*
X483000Y1611100D02*
Y1616953D01*
X475650Y1603750D02*
X483000Y1611100D01*
X472939Y1603750D02*
X475650D01*
X469200Y1600011D02*
X472939Y1603750D01*
X469200Y1598511D02*
Y1600011D01*
Y1598511D02*
X471450Y1596261D01*
Y1592739D02*
Y1596261D01*
X469200Y1590489D02*
X471450Y1592739D01*
X469200Y1586500D02*
Y1590489D01*
X467200Y1584500D02*
X469200Y1586500D01*
X726000Y1341177D02*
Y1344722D01*
X727571Y1346293D01*
X747358Y1354740D02*
X750618Y1358000D01*
X614400Y1424300D02*
X616000Y1422700D01*
X610900Y1438600D02*
X614400Y1435100D01*
X614200Y1473000D02*
X617200Y1476000D01*
X622071D01*
X755500Y1407000D02*
Y1414500D01*
Y1407000D02*
X774700Y1387800D01*
Y1332500D02*
Y1387800D01*
X771200Y1329000D02*
X774700Y1332500D01*
X573618Y1340800D02*
Y1361240D01*
X570118Y1337300D02*
X573618Y1340800D01*
X543800Y1337300D02*
X570118D01*
X542400Y1338700D02*
X543800Y1337300D01*
X542400Y1338700D02*
Y1342000D01*
X528500Y1356200D02*
Y1360193D01*
X524000Y1355400D02*
Y1364200D01*
X526800Y1367000D01*
X543362D01*
Y1361240D02*
Y1367000D01*
X538900Y1354700D02*
X550518D01*
X552618Y1356800D01*
X618100Y1418600D02*
X620800Y1415900D01*
Y1391500D02*
Y1415900D01*
Y1391500D02*
X624000Y1388300D01*
X632200D01*
X650000Y1406100D01*
Y1414500D01*
X742500Y1489500D02*
Y1493200D01*
X740800Y1494900D02*
X742500Y1493200D01*
X728000Y1494900D02*
X740800D01*
X726400Y1493300D02*
X728000Y1494900D01*
X771618Y1356718D02*
Y1361240D01*
X762100Y1347200D02*
X771618Y1356718D01*
X742000Y1347200D02*
X762100D01*
X740400Y1345600D02*
X742000Y1347200D01*
X740400Y1342000D02*
Y1345600D01*
X627000Y1338100D02*
Y1341677D01*
Y1338100D02*
X628000Y1337100D01*
X634800D01*
Y1349238D01*
X642362Y1356800D01*
Y1361740D01*
X632000Y1341677D02*
Y1367500D01*
X632800Y1368300D01*
X649718D01*
X651618Y1366400D01*
Y1361740D02*
Y1366400D01*
X547873Y1449600D02*
X552400D01*
X544673Y1452800D02*
X547873Y1449600D01*
X544673Y1452800D02*
Y1459000D01*
X528526Y1420200D02*
X531126Y1417600D01*
Y1388325D02*
Y1417600D01*
Y1388325D02*
X532801Y1386650D01*
X556650D01*
X562000Y1392000D01*
Y1414500D01*
X518400Y1459000D02*
X544673D01*
X513353Y1453953D02*
X518400Y1459000D01*
X513353Y1442000D02*
Y1453953D01*
Y1442000D02*
X528900D01*
X530900Y1440000D01*
Y1427500D02*
X534071D01*
X518003Y1464500D02*
X536300D01*
X538000Y1466200D01*
X550400D01*
X553929Y1462671D01*
X511353Y1467405D02*
X513200Y1469252D01*
X557505D01*
X560256Y1466500D01*
Y1460177D02*
Y1466500D01*
X538976Y1414500D02*
X542400D01*
X544673Y1416773D01*
Y1439500D01*
X474700Y1459500D02*
X481800Y1466600D01*
Y1472000D01*
X485000Y1475200D01*
X495200D01*
X523200Y1496800D02*
X525587Y1494413D01*
X516800Y1496800D02*
X523200D01*
X513200Y1493200D02*
X516800Y1496800D01*
X513200Y1473600D02*
Y1493200D01*
Y1473600D02*
X515548Y1471252D01*
X719476Y1414500D02*
X721500D01*
Y1439500D02*
X725173D01*
X626976Y1414500D02*
Y1418003D01*
X562000Y1414500D02*
Y1433244D01*
X565256Y1436500D01*
Y1438823D01*
X553929Y1439500D02*
Y1442400D01*
X554958Y1443429D01*
X569227D01*
X570256Y1442400D01*
Y1438823D02*
Y1442400D01*
X721000Y1319823D02*
Y1321400D01*
X704000Y1335000D02*
X707400D01*
X542400Y1329000D02*
X542500D01*
X570256Y1460177D02*
Y1463844D01*
X562000Y1472100D02*
X570256Y1463844D01*
X562000Y1472100D02*
Y1489500D01*
X565256Y1460177D02*
Y1465800D01*
X559000Y1472056D02*
X565256Y1465800D01*
X559000Y1472056D02*
Y1473800D01*
X556800Y1476000D02*
X559000Y1473800D01*
X551000Y1476000D02*
X556800D01*
X752673Y1691200D02*
Y1694095D01*
Y1691200D02*
X754973Y1688900D01*
X763200Y1676500D02*
X764100Y1677400D01*
X751189Y1676500D02*
X763200D01*
X745500Y1682189D02*
X751189Y1676500D01*
X742760Y1682189D02*
X745500D01*
X549300Y1297500D02*
X560000D01*
X542400D02*
X545850Y1300950D01*
X528000Y1300263D02*
X531965D01*
X740400Y1329000D02*
Y1331900D01*
X716900Y1330400D02*
X718400Y1331900D01*
X716900Y1325500D02*
Y1330400D01*
X641400Y1298000D02*
Y1302100D01*
X650300Y1311000D01*
X659000D01*
X443453Y1565753D02*
X452200Y1574500D01*
X443453Y1559547D02*
Y1565753D01*
X441453Y1557547D02*
X443453Y1559547D01*
X441453Y1541753D02*
Y1557547D01*
X437000Y1537300D02*
X441453Y1541753D01*
X437000Y1534000D02*
Y1537300D01*
X789300Y1342000D02*
X792500D01*
X788100Y1340800D02*
X789300Y1342000D01*
X788100Y1312042D02*
Y1340800D01*
X784594Y1308535D02*
X788100Y1312042D01*
X779500Y1308535D02*
X784594D01*
X758673Y583000D02*
Y585835D01*
X758122Y586386D02*
X758673Y585835D01*
X437000Y1584000D02*
X445800Y1592800D01*
Y1598100D01*
X452200Y1604500D01*
X474700Y1559500D02*
X477515Y1562315D01*
X478262D01*
X484900Y1568953D01*
Y1587900D01*
X489500Y1592500D01*
X487700Y1572500D02*
X489500D01*
X479400Y1560300D02*
X487700Y1568600D01*
X479400Y1554200D02*
Y1560300D01*
X474700Y1549500D02*
X479400Y1554200D01*
X474700Y1539500D02*
X482100Y1546900D01*
Y1555100D01*
X489500Y1562500D01*
X474700Y1499500D02*
Y1507700D01*
X489500Y1522500D01*
Y1494300D02*
Y1502500D01*
X474700Y1479500D02*
X489500Y1494300D01*
X474700Y1489500D02*
X482100Y1496900D01*
Y1505100D01*
X489500Y1512500D01*
X750618Y1361200D02*
Y1361240D01*
X651618Y1361700D02*
Y1361740D01*
X654460Y1361700D02*
X654500Y1361740D01*
X663362D01*
X437000Y1554000D02*
Y1557147D01*
X441453Y1561600D01*
Y1573753D01*
X452200Y1584500D01*
X622000Y1324800D02*
X626700Y1329500D01*
X779500Y1596035D02*
Y1626800D01*
X782200Y1629500D01*
X792500D01*
X787000Y1399500D02*
X792500D01*
X452200Y1544500D02*
Y1548489D01*
X456450Y1552739D01*
Y1556739D01*
X455450Y1557739D02*
X456450Y1556739D01*
X455450Y1557739D02*
Y1561261D01*
X459700Y1565511D01*
Y1569500D01*
Y1573489D01*
X455450Y1577739D02*
X459700Y1573489D01*
X455450Y1577739D02*
Y1581261D01*
X456450Y1582261D01*
Y1586261D01*
X452200Y1590511D02*
X456450Y1586261D01*
X452200Y1590511D02*
Y1594500D01*
X653768Y1601400D02*
Y1604500D01*
X676100Y1601400D02*
X680000Y1597500D01*
X729260Y1674630D02*
X732800D01*
X734700Y1676530D01*
Y1683200D01*
X737500Y1686000D01*
X747900D01*
X752805Y1681095D02*
X759260D01*
X752760Y1703160D02*
Y1705784D01*
X748200Y1698600D02*
X752760Y1703160D01*
X748200Y1685700D02*
Y1698600D01*
X726000Y1300500D02*
X729965D01*
X506000Y1322000D02*
X512000D01*
X574103Y1461900D02*
Y1476500D01*
X659000Y1533732D02*
X660000D01*
X650346Y1534000D02*
X659000D01*
X680000Y1532500D02*
Y1533800D01*
X660000Y1533732D02*
X660068Y1533800D01*
X741362Y1361240D02*
Y1372800D01*
X740662Y1373500D02*
X741362Y1372800D01*
X716800Y1373500D02*
X740662D01*
X713500Y1370200D02*
X716800Y1373500D01*
X713500Y1360193D02*
Y1370200D01*
X654543Y1605276D02*
Y1630500D01*
X653768Y1604500D02*
X654543Y1605276D01*
X562000Y1489500D02*
Y1492900D01*
X560000Y1494900D02*
X562000Y1492900D01*
X548000Y1494900D02*
X560000D01*
X544300Y1491200D02*
X548000Y1494900D01*
X544300Y1486400D02*
Y1491200D01*
X540800Y1482900D02*
X544300Y1486400D01*
X520400Y1482900D02*
X540800D01*
X518500Y1484800D02*
X520400Y1482900D01*
X518500Y1484800D02*
Y1490499D01*
X742520Y1682189D02*
X742760D01*
X459700Y1635511D02*
Y1639500D01*
X455450Y1631261D02*
X459700Y1635511D01*
X455450Y1627739D02*
Y1631261D01*
Y1627739D02*
X459700Y1623489D01*
Y1619500D02*
Y1623489D01*
X474700Y1399500D02*
Y1429500D01*
X792500Y1596193D02*
Y1622413D01*
Y1538693D02*
Y1564913D01*
Y1323700D02*
Y1334913D01*
Y1323700D02*
X793600Y1322600D01*
Y1315400D02*
Y1322600D01*
X792500Y1314300D02*
X793600Y1315400D01*
X792500Y1308693D02*
Y1314300D01*
X538976Y1394500D02*
Y1414500D01*
X719476Y1402924D02*
Y1414500D01*
Y1402924D02*
X719500Y1402900D01*
Y1394524D02*
Y1402900D01*
X719476Y1394500D02*
X719500Y1394524D01*
X626976Y1402924D02*
Y1414500D01*
Y1402924D02*
X627000Y1402900D01*
Y1394524D02*
Y1402900D01*
X626976Y1394500D02*
X627000Y1394524D01*
X740400Y1310500D02*
X740400D01*
X740400D02*
Y1329000D01*
X740400D01*
X641400Y1311000D02*
X641400D01*
X641400D02*
Y1329500D01*
X641400D01*
X552618Y1361200D02*
Y1361240D01*
X555460Y1361200D02*
X555500Y1361240D01*
X564362D01*
X410500Y1707500D02*
Y1717500D01*
X459700Y1449500D02*
Y1459500D01*
X474700Y1449500D02*
Y1459500D01*
X459700Y1439500D02*
Y1449500D01*
X474700Y1439500D02*
Y1449500D01*
X459700Y1429500D02*
Y1439500D01*
X474700Y1429500D02*
Y1439500D01*
X643500Y1539054D02*
Y1544000D01*
Y1539054D02*
X643654Y1538900D01*
Y1534000D02*
Y1538900D01*
X792500Y1342000D02*
X813500D01*
X792500Y1399500D02*
X813500D01*
X792500Y1457000D02*
X813500D01*
X792500Y1514500D02*
X813500D01*
X792500Y1572000D02*
X813500D01*
X792500Y1629500D02*
X813500D01*
X538563Y1297500D02*
X542400D01*
X535800Y1300263D02*
X538563Y1297500D01*
X637563Y1298000D02*
X641400D01*
X634800Y1300763D02*
X637563Y1298000D01*
X736600Y1297500D02*
X740400D01*
X733600Y1300500D02*
X736600Y1297500D01*
X792500Y1694000D02*
X813000D01*
X729260Y1668095D02*
X742520D01*
X551976Y1483176D02*
Y1489500D01*
X551000Y1482200D02*
X551976Y1483176D01*
X551000Y1476000D02*
Y1482200D01*
X560000Y1310500D02*
Y1329000D01*
X538976Y1489500D02*
Y1508000D01*
X626976Y1489500D02*
Y1508000D01*
X719476Y1489500D02*
Y1508000D01*
X570256Y1435746D02*
Y1438823D01*
Y1435746D02*
X574103Y1431900D01*
Y1429000D02*
Y1431900D01*
X658256Y1435746D02*
Y1438823D01*
Y1435746D02*
X662103Y1431900D01*
Y1429000D02*
Y1431900D01*
X750756Y1435746D02*
Y1438823D01*
Y1435746D02*
X754603Y1431900D01*
Y1429000D02*
Y1431900D01*
X792500Y1654000D02*
X813000D01*
X779500D02*
X792500D01*
X647500Y1609668D02*
Y1614654D01*
X647232Y1609400D02*
X647500Y1609668D01*
X647232Y1604500D02*
Y1609400D01*
X792500Y1302000D02*
X813500D01*
X779500D02*
X792500D01*
Y1359500D02*
X813500D01*
X779500D02*
X792500D01*
X803200Y1417000D02*
X813500D01*
X802700Y1417500D02*
X803200Y1417000D01*
X792500Y1417500D02*
X802700D01*
X779500D02*
X792500D01*
Y1474500D02*
X813500D01*
X779500D02*
X792500D01*
Y1532000D02*
X813500D01*
X779500D02*
X792500D01*
Y1589500D02*
X813500D01*
X779500D02*
X792500D01*
X757760Y1700900D02*
Y1705784D01*
Y1700900D02*
X759760Y1698900D01*
Y1694095D02*
Y1698900D01*
X502500Y1360193D02*
X515500D01*
X601500Y1360693D02*
X614500D01*
X700500Y1360193D02*
X713500D01*
X489000Y1322000D02*
X506000D01*
X750000Y1668095D02*
X759260D01*
X778689Y490189D02*
X779000Y490500D01*
X831445Y1741445D02*
X836000Y1746000D01*
X829000Y1740035D02*
X830409Y1741445D01*
X836000Y1746000D02*
X863500D01*
X830409Y1741445D02*
X831445D01*
X863500Y1746000D02*
X868500Y1741000D01*
X873000Y1736500D01*
Y1733500D02*
Y1736500D01*
X829000Y1733500D02*
X848000D01*
D16*
X534071Y1427500D02*
D03*
X551000D02*
D03*
X534071Y1476000D02*
D03*
X551000D02*
D03*
X622071Y1427500D02*
D03*
X639000D02*
D03*
X515035Y1300263D02*
D03*
X531965D02*
D03*
X622071Y1476000D02*
D03*
X639000D02*
D03*
X614035Y1300763D02*
D03*
X630965D02*
D03*
X714571Y1427500D02*
D03*
X731500D02*
D03*
X713035Y1300500D02*
D03*
X729965D02*
D03*
X714571Y1476000D02*
D03*
X731500D02*
D03*
D17*
X518003Y1464500D02*
D03*
Y1477500D02*
D03*
X518103Y1433500D02*
D03*
Y1446500D02*
D03*
X606003Y1464500D02*
D03*
Y1477500D02*
D03*
X489000Y1335000D02*
D03*
Y1322000D02*
D03*
X542400Y1297500D02*
D03*
Y1310500D02*
D03*
X606103Y1433500D02*
D03*
Y1446500D02*
D03*
X542400Y1342000D02*
D03*
Y1329000D02*
D03*
X560000Y1342000D02*
D03*
Y1329000D02*
D03*
Y1297500D02*
D03*
Y1310500D02*
D03*
X506000Y1322000D02*
D03*
Y1335000D02*
D03*
X588000Y1322500D02*
D03*
Y1335500D02*
D03*
X641400Y1311000D02*
D03*
Y1298000D02*
D03*
X698503Y1464500D02*
D03*
Y1477500D02*
D03*
X641400Y1329500D02*
D03*
Y1342500D02*
D03*
X659000D02*
D03*
Y1329500D02*
D03*
Y1298000D02*
D03*
Y1311000D02*
D03*
X605000Y1322500D02*
D03*
Y1335500D02*
D03*
X687000Y1335000D02*
D03*
Y1322000D02*
D03*
X740400Y1297500D02*
D03*
Y1310500D02*
D03*
X698603Y1433500D02*
D03*
Y1446500D02*
D03*
X740400Y1342000D02*
D03*
Y1329000D02*
D03*
X758000D02*
D03*
Y1342000D02*
D03*
Y1310500D02*
D03*
Y1297500D02*
D03*
X704000Y1335000D02*
D03*
Y1322000D02*
D03*
X643500Y1557000D02*
D03*
Y1544000D02*
D03*
X759260Y1681095D02*
D03*
Y1668095D02*
D03*
D18*
X575000Y1489500D02*
D03*
X562000D02*
D03*
X538976D02*
D03*
X551976D02*
D03*
X562000Y1414500D02*
D03*
X575000D02*
D03*
X551976D02*
D03*
X538976D02*
D03*
X663000Y1489500D02*
D03*
X650000D02*
D03*
X626976D02*
D03*
X639976D02*
D03*
X489500Y1360193D02*
D03*
X502500D02*
D03*
X515500D02*
D03*
X528500D02*
D03*
X650000Y1414500D02*
D03*
X663000D02*
D03*
X639976D02*
D03*
X626976D02*
D03*
X601500Y1360693D02*
D03*
X588500D02*
D03*
X627500D02*
D03*
X614500D02*
D03*
X755500Y1489500D02*
D03*
X742500D02*
D03*
X719476D02*
D03*
X732476D02*
D03*
X687500Y1360193D02*
D03*
X700500D02*
D03*
X713500D02*
D03*
X726500D02*
D03*
X742500Y1414500D02*
D03*
X755500D02*
D03*
X732476D02*
D03*
X719476D02*
D03*
D19*
X699000Y1413421D02*
D03*
X706087D02*
D03*
X699000Y1490499D02*
D03*
X706087D02*
D03*
X606500D02*
D03*
X613587D02*
D03*
X747516Y1476500D02*
D03*
X754603D02*
D03*
X574103D02*
D03*
X567016D02*
D03*
X518500Y1413421D02*
D03*
X525587D02*
D03*
X655016Y1476500D02*
D03*
X662103D02*
D03*
X606500Y1413421D02*
D03*
X613587D02*
D03*
X518500Y1490499D02*
D03*
X525587D02*
D03*
X747516Y1429000D02*
D03*
X754603D02*
D03*
X574103D02*
D03*
X567016D02*
D03*
X655016D02*
D03*
X662103D02*
D03*
X653957Y1555500D02*
D03*
X661043D02*
D03*
X647457Y1630500D02*
D03*
X654543D02*
D03*
X759760Y1694095D02*
D03*
X752673D02*
D03*
D20*
X734429Y1459000D02*
D03*
X641929D02*
D03*
Y1439500D02*
D03*
X734429D02*
D03*
X750618Y1361240D02*
D03*
X771618D02*
D03*
X553929Y1459000D02*
D03*
X552618Y1361240D02*
D03*
X651618Y1361740D02*
D03*
X573618Y1361240D02*
D03*
X672618Y1361740D02*
D03*
X553929Y1439500D02*
D03*
D21*
X725173Y1459000D02*
D03*
X632673D02*
D03*
Y1439500D02*
D03*
X725173D02*
D03*
X741362Y1361240D02*
D03*
X762362D02*
D03*
X544673Y1459000D02*
D03*
X543362Y1361240D02*
D03*
X642362Y1361740D02*
D03*
X564362Y1361240D02*
D03*
X663362Y1361740D02*
D03*
X544673Y1439500D02*
D03*
D22*
X792500Y1481193D02*
D03*
Y1474500D02*
D03*
Y1538693D02*
D03*
Y1532000D02*
D03*
Y1366193D02*
D03*
Y1359500D02*
D03*
Y1424193D02*
D03*
Y1417500D02*
D03*
Y1308693D02*
D03*
Y1302000D02*
D03*
Y1589500D02*
D03*
Y1596193D02*
D03*
Y1660693D02*
D03*
Y1654000D02*
D03*
X647500Y1621346D02*
D03*
Y1614654D02*
D03*
D23*
X467750Y491689D02*
D03*
Y415311D02*
D03*
X421000Y491689D02*
D03*
Y415311D02*
D03*
X514500Y491689D02*
D03*
Y415311D02*
D03*
D24*
X779500Y1302000D02*
D03*
Y1308535D02*
D03*
Y1589500D02*
D03*
Y1596035D02*
D03*
Y1532000D02*
D03*
Y1538535D02*
D03*
X829000Y1740035D02*
D03*
Y1733500D02*
D03*
X779500Y1359500D02*
D03*
Y1366035D02*
D03*
X660000Y1533732D02*
D03*
Y1540268D02*
D03*
X779500Y1417500D02*
D03*
Y1424035D02*
D03*
Y1474500D02*
D03*
Y1481035D02*
D03*
Y1654000D02*
D03*
Y1660535D02*
D03*
X729260Y1668095D02*
D03*
Y1674630D02*
D03*
D25*
X792500Y1399500D02*
D03*
Y1392413D02*
D03*
Y1572000D02*
D03*
Y1564913D02*
D03*
Y1457000D02*
D03*
Y1449913D02*
D03*
Y1342000D02*
D03*
Y1334913D02*
D03*
Y1694000D02*
D03*
Y1686913D02*
D03*
Y1507413D02*
D03*
Y1514500D02*
D03*
Y1622413D02*
D03*
Y1629500D02*
D03*
D26*
X643500Y1565260D02*
D03*
Y1572740D02*
D03*
D27*
X663256Y1460177D02*
D03*
X658256D02*
D03*
X653256D02*
D03*
X648256D02*
D03*
Y1438823D02*
D03*
X653256D02*
D03*
X658256D02*
D03*
X663256D02*
D03*
X755756D02*
D03*
X750756D02*
D03*
X745756D02*
D03*
X740756D02*
D03*
Y1460177D02*
D03*
X745756D02*
D03*
X750756D02*
D03*
X755756D02*
D03*
X575256D02*
D03*
X570256D02*
D03*
X565256D02*
D03*
X560256D02*
D03*
Y1438823D02*
D03*
X565256D02*
D03*
X570256D02*
D03*
X575256D02*
D03*
X533000Y1320000D02*
D03*
X528000D02*
D03*
X523000D02*
D03*
X518000D02*
D03*
Y1341354D02*
D03*
X523000D02*
D03*
X528000D02*
D03*
X533000D02*
D03*
X632000Y1341677D02*
D03*
X627000D02*
D03*
X622000D02*
D03*
X617000D02*
D03*
Y1320323D02*
D03*
X622000D02*
D03*
X627000D02*
D03*
X632000D02*
D03*
X731000Y1341177D02*
D03*
X726000D02*
D03*
X721000D02*
D03*
X716000D02*
D03*
Y1319823D02*
D03*
X721000D02*
D03*
X726000D02*
D03*
X731000D02*
D03*
D28*
X650346Y1534000D02*
D03*
X643654D02*
D03*
D29*
X653768Y1604500D02*
D03*
X647232D02*
D03*
D30*
X737760Y1705784D02*
D03*
X742760D02*
D03*
X747760D02*
D03*
X752760D02*
D03*
X757760D02*
D03*
D31*
X747760Y1729406D02*
D03*
D32*
X742760Y1682189D02*
D03*
Y1694000D02*
D03*
D33*
X742520Y1668095D02*
D03*
X750000D02*
D03*
D78*
X515331Y653331D02*
X691208D01*
X746284D01*
X697510Y540510D02*
X740000Y583000D01*
X697510Y490189D02*
Y540510D01*
X740000Y583000D02*
X758673D01*
Y490189D02*
X778689D01*
X629346Y577581D02*
Y583000D01*
X636347Y490189D02*
Y570580D01*
X629346Y577581D02*
X636347Y570580D01*
X514500Y490189D02*
X575184D01*
X473000Y590000D02*
X488000Y605000D01*
X607346D02*
X629346Y583000D01*
X488000Y605000D02*
X607346D01*
X473000Y495439D02*
Y590000D01*
X442169Y580169D02*
X515331Y653331D01*
X442169Y512169D02*
Y580169D01*
X421000Y491665D02*
X427909Y498575D01*
X428575D01*
X421000Y490189D02*
Y491665D01*
X428575Y498575D02*
X442169Y512169D01*
X758000Y587610D02*
X758122Y587488D01*
X758000Y587610D02*
Y641615D01*
X758122Y586386D02*
Y587488D01*
X746284Y653331D02*
X758000Y641615D01*
X500020Y579063D02*
X514500Y564583D01*
Y490189D02*
Y564583D01*
X500020Y579063D02*
Y583000D01*
X467750Y490189D02*
X473000Y495439D01*
D79*
X498000Y672000D02*
X516669Y653331D01*
X498000Y672000D02*
Y1077589D01*
X536411Y1116000D01*
X560000D01*
X458500Y826500D02*
X469400Y837400D01*
Y870415D01*
X469000Y870815D02*
X469400Y870415D01*
X469000Y870815D02*
Y1073000D01*
X512000Y1116000D01*
X619669Y1146169D02*
Y1170000D01*
X559669Y1146331D02*
Y1170000D01*
X512000Y1146000D02*
Y1170500D01*
X452000Y1146000D02*
Y1170500D01*
X619669Y965169D02*
Y990000D01*
X559669Y965169D02*
Y990000D01*
X452000Y965000D02*
Y990000D01*
X512000Y965000D02*
Y990000D01*
D80*
X619669Y1170500D02*
D03*
Y1250500D02*
D03*
X589669D02*
D03*
X559669D02*
D03*
Y1170500D02*
D03*
X619669Y990000D02*
D03*
Y1070000D02*
D03*
X589669D02*
D03*
X559669D02*
D03*
Y990000D02*
D03*
X512000D02*
D03*
Y1070000D02*
D03*
X482000D02*
D03*
X452000D02*
D03*
Y990000D02*
D03*
X512000Y1170500D02*
D03*
Y1250500D02*
D03*
X482000D02*
D03*
X452000D02*
D03*
Y1170500D02*
D03*
D81*
X412000Y583000D02*
D03*
X502000D02*
D03*
X668673D02*
D03*
X758673D02*
D03*
X539346D02*
D03*
X629346D02*
D03*
X888000D02*
D03*
X798000D02*
D03*
D82*
X459480Y528000D02*
D03*
Y638000D02*
D03*
Y618000D02*
D03*
X716154Y528000D02*
D03*
Y638000D02*
D03*
Y618000D02*
D03*
X586827Y528000D02*
D03*
Y638000D02*
D03*
Y618000D02*
D03*
X845480D02*
D03*
Y638000D02*
D03*
Y528000D02*
D03*
D83*
X818500Y964000D02*
D03*
X653146D02*
D03*
X818500Y1167500D02*
D03*
X653146D02*
D03*
X818500Y760500D02*
D03*
X653146D02*
D03*
D84*
X879748Y1212193D02*
D03*
Y1222193D02*
D03*
Y1182193D02*
D03*
Y1202193D02*
D03*
Y1125657D02*
D03*
Y1135658D02*
D03*
Y1095658D02*
D03*
Y1115658D02*
D03*
Y915658D02*
D03*
Y895658D02*
D03*
Y935658D02*
D03*
Y925657D02*
D03*
Y1002193D02*
D03*
Y982193D02*
D03*
Y1022193D02*
D03*
Y1012193D02*
D03*
Y812193D02*
D03*
Y822193D02*
D03*
Y782193D02*
D03*
Y802193D02*
D03*
Y725658D02*
D03*
Y735658D02*
D03*
Y695657D02*
D03*
Y715658D02*
D03*
D85*
X860000Y1068500D02*
D03*
Y1249350D02*
D03*
Y1049350D02*
D03*
Y868500D02*
D03*
Y668500D02*
D03*
Y849350D02*
D03*
D86*
X560000Y1116000D02*
D03*
Y1146000D02*
D03*
X559500Y935000D02*
D03*
Y965000D02*
D03*
X452000Y935000D02*
D03*
Y965000D02*
D03*
X512000Y935000D02*
D03*
Y965000D02*
D03*
X619500Y935000D02*
D03*
Y965000D02*
D03*
X512000Y1146000D02*
D03*
Y1116000D02*
D03*
X619500Y1146000D02*
D03*
Y1116000D02*
D03*
X452000Y1146000D02*
D03*
Y1116000D02*
D03*
D87*
X858000Y1753500D02*
D03*
D88*
X873000Y1733500D02*
D03*
X848000D02*
D03*
D89*
X617500Y1751500D02*
D03*
X681500D02*
D03*
D90*
X617500Y1741500D02*
D03*
X681500D02*
D03*
D91*
X750000Y1572500D02*
D03*
X883000Y1694000D02*
D03*
X883500Y1629500D02*
D03*
Y1399500D02*
D03*
Y1514500D02*
D03*
Y1572000D02*
D03*
Y1342000D02*
D03*
X750000Y1637500D02*
D03*
X883500Y1457000D02*
D03*
D92*
X690000Y1572500D02*
D03*
X680000D02*
D03*
Y1532500D02*
D03*
X690000D02*
D03*
X750000D02*
D03*
X823000Y1694000D02*
D03*
X813000D02*
D03*
Y1654000D02*
D03*
X823000D02*
D03*
X883000D02*
D03*
X823500Y1629500D02*
D03*
X813500D02*
D03*
Y1589500D02*
D03*
X823500D02*
D03*
X883500D02*
D03*
X823500Y1399500D02*
D03*
X813500D02*
D03*
Y1359500D02*
D03*
X823500D02*
D03*
X883500D02*
D03*
X823500Y1514500D02*
D03*
X813500D02*
D03*
Y1474500D02*
D03*
X823500D02*
D03*
X883500D02*
D03*
X823500Y1572000D02*
D03*
X813500D02*
D03*
Y1532000D02*
D03*
X823500D02*
D03*
X883500D02*
D03*
X823500Y1342000D02*
D03*
X813500D02*
D03*
Y1302000D02*
D03*
X823500D02*
D03*
X883500D02*
D03*
X690000Y1637500D02*
D03*
X680000D02*
D03*
Y1597500D02*
D03*
X690000D02*
D03*
X750000D02*
D03*
X823500Y1457000D02*
D03*
X813500D02*
D03*
Y1417000D02*
D03*
X823500D02*
D03*
X883500D02*
D03*
D93*
X506374Y1619500D02*
D03*
Y1672500D02*
D03*
D94*
Y1609500D02*
D03*
Y1599500D02*
D03*
Y1589500D02*
D03*
X537626D02*
D03*
Y1599500D02*
D03*
Y1609500D02*
D03*
Y1619500D02*
D03*
Y1672500D02*
D03*
Y1662500D02*
D03*
Y1652500D02*
D03*
Y1642500D02*
D03*
X506374D02*
D03*
Y1652500D02*
D03*
Y1662500D02*
D03*
D95*
X809652Y437500D02*
D03*
X829337D02*
D03*
X809652Y409941D02*
D03*
X829337D02*
D03*
X687326Y437500D02*
D03*
X707011D02*
D03*
X687326Y409941D02*
D03*
X707011D02*
D03*
X565000Y437500D02*
D03*
X584685D02*
D03*
X565000Y409941D02*
D03*
X584685D02*
D03*
X890500D02*
D03*
X870815D02*
D03*
X890500Y437500D02*
D03*
X870815D02*
D03*
X645848Y409941D02*
D03*
X626163D02*
D03*
X645848Y437500D02*
D03*
X626163D02*
D03*
X748489D02*
D03*
X768174D02*
D03*
X748489Y409941D02*
D03*
X768174D02*
D03*
D96*
X417000Y1423000D02*
D03*
Y1443000D02*
D03*
Y1463000D02*
D03*
Y1483000D02*
D03*
Y1503000D02*
D03*
Y1523000D02*
D03*
X415500Y1297500D02*
D03*
Y1312500D02*
D03*
X893000Y1022193D02*
D03*
Y1002193D02*
D03*
Y735657D02*
D03*
Y915657D02*
D03*
Y715657D02*
D03*
Y802193D02*
D03*
Y935657D02*
D03*
Y822193D02*
D03*
Y1135657D02*
D03*
Y1222193D02*
D03*
Y1202193D02*
D03*
Y1115657D02*
D03*
X417036Y1608000D02*
D03*
X626976Y1394500D02*
D03*
X417036Y1672500D02*
D03*
X880999Y490189D02*
D03*
X417036Y1651000D02*
D03*
Y1629500D02*
D03*
X614035Y1280000D02*
D03*
X713035Y1278000D02*
D03*
X515035Y1280000D02*
D03*
X626976Y1508000D02*
D03*
X538976Y1508000D02*
D03*
Y1394500D02*
D03*
X719476Y1508000D02*
D03*
Y1394500D02*
D03*
X632000Y1280000D02*
D03*
X533000D02*
D03*
X819836Y490189D02*
D03*
X758673D02*
D03*
X575184D02*
D03*
X697510D02*
D03*
X636347D02*
D03*
X730965Y1278000D02*
D03*
X407500Y1179500D02*
D03*
Y1202500D02*
D03*
Y1225500D02*
D03*
Y1246500D02*
D03*
D97*
X409449Y527559D02*
D03*
X889764D02*
D03*
X409449Y1275591D02*
D03*
X767717Y1748031D02*
D03*
X531496D02*
D03*
X889764Y1275591D02*
D03*
D98*
X410500Y1697500D02*
D03*
X420650Y1697450D02*
D03*
Y1727450D02*
D03*
Y1717450D02*
D03*
X410500Y1707500D02*
D03*
X420650Y1707450D02*
D03*
Y1757450D02*
D03*
X420800Y1747400D02*
D03*
X410500Y1727500D02*
D03*
X410700Y1737600D02*
D03*
Y1747500D02*
D03*
Y1757500D02*
D03*
X410500Y1717500D02*
D03*
X420650Y1737450D02*
D03*
D99*
X437000Y1424000D02*
D03*
Y1434000D02*
D03*
Y1444000D02*
D03*
Y1454000D02*
D03*
Y1464000D02*
D03*
Y1474000D02*
D03*
Y1484000D02*
D03*
Y1494000D02*
D03*
Y1504000D02*
D03*
Y1514000D02*
D03*
Y1524000D02*
D03*
Y1534000D02*
D03*
Y1544000D02*
D03*
Y1554000D02*
D03*
Y1564000D02*
D03*
Y1574000D02*
D03*
Y1584000D02*
D03*
Y1594000D02*
D03*
Y1604000D02*
D03*
Y1614000D02*
D03*
Y1624000D02*
D03*
X489500Y1732500D02*
D03*
Y1722500D02*
D03*
Y1712500D02*
D03*
Y1702500D02*
D03*
Y1692500D02*
D03*
Y1682500D02*
D03*
Y1672500D02*
D03*
Y1662500D02*
D03*
Y1652500D02*
D03*
Y1642500D02*
D03*
Y1632500D02*
D03*
Y1622500D02*
D03*
Y1612500D02*
D03*
Y1602500D02*
D03*
Y1592500D02*
D03*
Y1582500D02*
D03*
Y1572500D02*
D03*
Y1562500D02*
D03*
Y1552500D02*
D03*
Y1542500D02*
D03*
Y1532500D02*
D03*
Y1522500D02*
D03*
Y1512500D02*
D03*
Y1502500D02*
D03*
D100*
X437000Y1634000D02*
D03*
X489500Y1742500D02*
D03*
D101*
X458500Y741400D02*
D03*
Y702000D02*
D03*
Y865900D02*
D03*
Y826500D02*
D03*
X581500D02*
D03*
Y865900D02*
D03*
Y702000D02*
D03*
Y741400D02*
D03*
D102*
X490000Y1410000D02*
D03*
Y1430000D02*
D03*
Y1450000D02*
D03*
Y1460000D02*
D03*
Y1470000D02*
D03*
Y1440000D02*
D03*
Y1420000D02*
D03*
X437500Y1343000D02*
D03*
Y1363000D02*
D03*
Y1393000D02*
D03*
Y1383000D02*
D03*
Y1373000D02*
D03*
Y1353000D02*
D03*
Y1333000D02*
D03*
D103*
X490000Y1480000D02*
D03*
X437500Y1403000D02*
D03*
D104*
X463500Y1362000D02*
D03*
Y1672000D02*
D03*
D105*
X452200Y1374500D02*
D03*
X459700Y1379500D02*
D03*
X452200Y1384500D02*
D03*
X459700Y1389500D02*
D03*
X467200Y1384500D02*
D03*
X452200Y1394500D02*
D03*
X459700Y1399500D02*
D03*
X467200Y1394500D02*
D03*
X474700Y1379500D02*
D03*
Y1389500D02*
D03*
Y1399500D02*
D03*
X452200Y1434500D02*
D03*
X467200D02*
D03*
X452200Y1424500D02*
D03*
X467200D02*
D03*
Y1444500D02*
D03*
X452200D02*
D03*
Y1454500D02*
D03*
X467200D02*
D03*
X452200Y1464500D02*
D03*
X459700Y1469500D02*
D03*
X467200Y1464500D02*
D03*
X474700Y1469500D02*
D03*
Y1479500D02*
D03*
X467200Y1474500D02*
D03*
X459700Y1479500D02*
D03*
X452200Y1474500D02*
D03*
Y1484500D02*
D03*
X474700Y1489500D02*
D03*
X467200Y1484500D02*
D03*
X459700Y1489500D02*
D03*
X452200Y1494500D02*
D03*
X459700Y1499500D02*
D03*
X467200Y1494500D02*
D03*
X474700Y1499500D02*
D03*
Y1529500D02*
D03*
X467200Y1524500D02*
D03*
X459700Y1529500D02*
D03*
X452200Y1524500D02*
D03*
X467200Y1534500D02*
D03*
X452200D02*
D03*
X459700Y1539500D02*
D03*
X474700D02*
D03*
Y1549500D02*
D03*
X459700D02*
D03*
X452200Y1544500D02*
D03*
X474700Y1559500D02*
D03*
X467200Y1554500D02*
D03*
X459700Y1559500D02*
D03*
X452200Y1554500D02*
D03*
X467200Y1564500D02*
D03*
X452200D02*
D03*
X459700Y1569500D02*
D03*
X474700D02*
D03*
Y1579500D02*
D03*
X467200Y1574500D02*
D03*
X459700Y1579500D02*
D03*
X452200Y1574500D02*
D03*
X474700Y1589500D02*
D03*
X467200Y1584500D02*
D03*
X459700Y1589500D02*
D03*
X452200Y1584500D02*
D03*
Y1594500D02*
D03*
X459700Y1599500D02*
D03*
X474700D02*
D03*
Y1609500D02*
D03*
X467200Y1604500D02*
D03*
X459700Y1609500D02*
D03*
X452200Y1604500D02*
D03*
X474700Y1619500D02*
D03*
X467200Y1614500D02*
D03*
X459700Y1619500D02*
D03*
X452200Y1614500D02*
D03*
X474700Y1629500D02*
D03*
X467200Y1624500D02*
D03*
X459700Y1629500D02*
D03*
X452200Y1624500D02*
D03*
X474700Y1639500D02*
D03*
X467200Y1634500D02*
D03*
X459700Y1639500D02*
D03*
X452200Y1634500D02*
D03*
X474700Y1649500D02*
D03*
X459700D02*
D03*
X452200Y1644500D02*
D03*
X474700Y1659500D02*
D03*
X467200Y1654500D02*
D03*
X459700Y1659500D02*
D03*
X452200Y1654500D02*
D03*
X474700Y1459500D02*
D03*
Y1429500D02*
D03*
Y1449500D02*
D03*
X459700Y1459500D02*
D03*
Y1429500D02*
D03*
Y1449500D02*
D03*
Y1439500D02*
D03*
X467200Y1544500D02*
D03*
Y1644500D02*
D03*
Y1594500D02*
D03*
X474700Y1439500D02*
D03*
D106*
X467200Y1374500D02*
D03*
D107*
X701200Y1036500D02*
D03*
X809000Y1290500D02*
D03*
X825000Y1107500D02*
D03*
X817500Y811000D02*
D03*
Y805000D02*
D03*
X758500Y1529000D02*
D03*
X742500Y1447500D02*
D03*
X663000Y1406500D02*
D03*
X584000Y1445000D02*
D03*
X543000Y1476500D02*
D03*
X532300Y1347975D02*
D03*
X539500Y1349500D02*
D03*
X518000Y1348149D02*
D03*
X522997Y1347997D02*
D03*
X788000Y1233500D02*
D03*
X784000Y1231500D02*
D03*
X783500Y1003000D02*
D03*
X553500Y1273500D02*
D03*
X788000Y1209000D02*
D03*
X789500Y801500D02*
D03*
X786000Y1039200D02*
D03*
X788500Y1014000D02*
D03*
X785000Y1245000D02*
D03*
X734000Y1468000D02*
D03*
X614000Y1309000D02*
D03*
X626305Y1310200D02*
D03*
X629579Y1314000D02*
D03*
X569500Y1308500D02*
D03*
X712000Y1489000D02*
D03*
X565378Y1451122D02*
D03*
X823500Y1218500D02*
D03*
X515000Y1309000D02*
D03*
X647000Y1430500D02*
D03*
X785500Y1545000D02*
D03*
X628500Y1350500D02*
D03*
X548000Y1221000D02*
D03*
X786000Y1481000D02*
D03*
X744700Y1202300D02*
D03*
X758100Y1319750D02*
D03*
X610500Y1344500D02*
D03*
X727200Y1349500D02*
D03*
X605000Y1316000D02*
D03*
X799000Y1481500D02*
D03*
X803500Y1238000D02*
D03*
X788225Y824224D02*
D03*
X786071Y810500D02*
D03*
X803500Y1033500D02*
D03*
X785500Y1027500D02*
D03*
X786000Y1660500D02*
D03*
Y1424000D02*
D03*
X689500Y1432000D02*
D03*
X513400Y1689300D02*
D03*
X701500Y832125D02*
D03*
X795000Y655000D02*
D03*
X785300Y832500D02*
D03*
Y849900D02*
D03*
X655956Y1449000D02*
D03*
X511300Y1467300D02*
D03*
X650000D02*
D03*
X722500Y1476000D02*
D03*
X586800Y683000D02*
D03*
X577300Y1331000D02*
D03*
X755500Y1504600D02*
D03*
X744700Y1351000D02*
D03*
X720100Y1328700D02*
D03*
X589600Y1431000D02*
D03*
X455700Y1207800D02*
D03*
X712800Y1347400D02*
D03*
X552400Y1449600D02*
D03*
X836344Y1253756D02*
D03*
X792500Y1673000D02*
D03*
D108*
X650500Y1516000D02*
D03*
M02*
