G04*
G04 #@! TF.GenerationSoftware,Altium Limited,Altium Designer,24.4.1 (13)*
G04*
G04 Layer_Color=2752767*
%FSLAX25Y25*%
%MOIN*%
G70*
G04*
G04 #@! TF.SameCoordinates,D6D0C77B-36A0-4D54-9E24-613302BCF265*
G04*
G04*
G04 #@! TF.FilePolarity,Positive*
G04*
G01*
G75*
%ADD13C,0.00400*%
%ADD15C,0.00500*%
%ADD122C,0.00667*%
D13*
X438200Y1424000D02*
G03*
X438200Y1424000I-1200J0D01*
G01*
Y1434000D02*
G03*
X438200Y1434000I-1200J0D01*
G01*
Y1444000D02*
G03*
X438200Y1444000I-1200J0D01*
G01*
Y1454000D02*
G03*
X438200Y1454000I-1200J0D01*
G01*
Y1464000D02*
G03*
X438200Y1464000I-1200J0D01*
G01*
Y1474000D02*
G03*
X438200Y1474000I-1200J0D01*
G01*
Y1484000D02*
G03*
X438200Y1484000I-1200J0D01*
G01*
Y1494000D02*
G03*
X438200Y1494000I-1200J0D01*
G01*
Y1504000D02*
G03*
X438200Y1504000I-1200J0D01*
G01*
Y1514000D02*
G03*
X438200Y1514000I-1200J0D01*
G01*
Y1524000D02*
G03*
X438200Y1524000I-1200J0D01*
G01*
Y1534000D02*
G03*
X438200Y1534000I-1200J0D01*
G01*
Y1544000D02*
G03*
X438200Y1544000I-1200J0D01*
G01*
Y1554000D02*
G03*
X438200Y1554000I-1200J0D01*
G01*
Y1564000D02*
G03*
X438200Y1564000I-1200J0D01*
G01*
Y1574000D02*
G03*
X438200Y1574000I-1200J0D01*
G01*
Y1584000D02*
G03*
X438200Y1584000I-1200J0D01*
G01*
Y1594000D02*
G03*
X438200Y1594000I-1200J0D01*
G01*
Y1604000D02*
G03*
X438200Y1604000I-1200J0D01*
G01*
Y1614000D02*
G03*
X438200Y1614000I-1200J0D01*
G01*
Y1624000D02*
G03*
X438200Y1624000I-1200J0D01*
G01*
Y1634000D02*
G03*
X438200Y1634000I-1200J0D01*
G01*
X490700Y1742500D02*
G03*
X490700Y1742500I-1200J0D01*
G01*
Y1732500D02*
G03*
X490700Y1732500I-1200J0D01*
G01*
Y1722500D02*
G03*
X490700Y1722500I-1200J0D01*
G01*
Y1712500D02*
G03*
X490700Y1712500I-1200J0D01*
G01*
Y1702500D02*
G03*
X490700Y1702500I-1200J0D01*
G01*
Y1692500D02*
G03*
X490700Y1692500I-1200J0D01*
G01*
Y1682500D02*
G03*
X490700Y1682500I-1200J0D01*
G01*
Y1672500D02*
G03*
X490700Y1672500I-1200J0D01*
G01*
Y1662500D02*
G03*
X490700Y1662500I-1200J0D01*
G01*
Y1652500D02*
G03*
X490700Y1652500I-1200J0D01*
G01*
Y1642500D02*
G03*
X490700Y1642500I-1200J0D01*
G01*
Y1632500D02*
G03*
X490700Y1632500I-1200J0D01*
G01*
Y1622500D02*
G03*
X490700Y1622500I-1200J0D01*
G01*
Y1612500D02*
G03*
X490700Y1612500I-1200J0D01*
G01*
Y1602500D02*
G03*
X490700Y1602500I-1200J0D01*
G01*
Y1592500D02*
G03*
X490700Y1592500I-1200J0D01*
G01*
Y1582500D02*
G03*
X490700Y1582500I-1200J0D01*
G01*
Y1572500D02*
G03*
X490700Y1572500I-1200J0D01*
G01*
Y1562500D02*
G03*
X490700Y1562500I-1200J0D01*
G01*
Y1552500D02*
G03*
X490700Y1552500I-1200J0D01*
G01*
Y1542500D02*
G03*
X490700Y1542500I-1200J0D01*
G01*
Y1532500D02*
G03*
X490700Y1532500I-1200J0D01*
G01*
Y1522500D02*
G03*
X490700Y1522500I-1200J0D01*
G01*
Y1512500D02*
G03*
X490700Y1512500I-1200J0D01*
G01*
Y1502500D02*
G03*
X490700Y1502500I-1200J0D01*
G01*
D15*
X412000Y581000D02*
X413000Y582000D01*
X414000D01*
X413000Y583000D01*
X414000Y584000D01*
X413000D01*
X412000Y585000D01*
X411000Y584000D01*
X410000D01*
X411000Y583000D01*
X410000Y582000D01*
X411000D01*
X412000Y581000D01*
X502000D02*
X503000Y582000D01*
X504000D01*
X503000Y583000D01*
X504000Y584000D01*
X503000D01*
X502000Y585000D01*
X501000Y584000D01*
X500000D01*
X501000Y583000D01*
X500000Y582000D01*
X501000D01*
X502000Y581000D01*
X817500Y963000D02*
Y962000D01*
X819500D01*
Y963000D01*
X820500D01*
Y965000D01*
X819500D01*
Y966000D01*
X817500D01*
Y965000D01*
X816500D01*
Y963000D01*
X817500D01*
X652146D02*
Y962000D01*
X654146D01*
Y963000D01*
X655146D01*
Y965000D01*
X654146D01*
Y966000D01*
X652146D01*
Y965000D01*
X651146D01*
Y963000D01*
X652146D01*
X877748Y1210193D02*
X878748Y1212193D01*
X877748Y1214193D01*
X879748Y1213193D01*
X881748Y1214193D01*
X880748Y1212193D01*
X881748Y1210193D01*
X879748Y1211193D01*
X877748Y1210193D01*
Y1220193D02*
X878748Y1222193D01*
X877748Y1224193D01*
X879748Y1223193D01*
X881748Y1224193D01*
X880748Y1222193D01*
X881748Y1220193D01*
X879748Y1221193D01*
X877748Y1220193D01*
Y1180193D02*
X878748Y1182193D01*
X877748Y1184193D01*
X879748Y1183193D01*
X881748Y1184193D01*
X880748Y1182193D01*
X881748Y1180193D01*
X879748Y1181193D01*
X877748Y1180193D01*
Y1200193D02*
X878748Y1202193D01*
X877748Y1204193D01*
X879748Y1203193D01*
X881748Y1204193D01*
X880748Y1202193D01*
X881748Y1200193D01*
X879748Y1201193D01*
X877748Y1200193D01*
X860000Y1068500D02*
Y1071832D01*
X861666Y1073498D01*
X863332Y1071832D01*
Y1068500D01*
Y1070999D01*
X860000D01*
Y1249350D02*
Y1252683D01*
X861666Y1254349D01*
X863332Y1252683D01*
Y1249350D01*
Y1251850D01*
X860000D01*
X877748Y1123658D02*
X878748Y1125657D01*
X877748Y1127658D01*
X879748Y1126657D01*
X881748Y1127658D01*
X880748Y1125657D01*
X881748Y1123658D01*
X879748Y1124658D01*
X877748Y1123658D01*
Y1133657D02*
X878748Y1135658D01*
X877748Y1137658D01*
X879748Y1136658D01*
X881748Y1137658D01*
X880748Y1135658D01*
X881748Y1133657D01*
X879748Y1134657D01*
X877748Y1133657D01*
Y1093657D02*
X878748Y1095658D01*
X877748Y1097657D01*
X879748Y1096657D01*
X881748Y1097657D01*
X880748Y1095658D01*
X881748Y1093657D01*
X879748Y1094658D01*
X877748Y1093657D01*
Y1113657D02*
X878748Y1115658D01*
X877748Y1117657D01*
X879748Y1116658D01*
X881748Y1117657D01*
X880748Y1115658D01*
X881748Y1113657D01*
X879748Y1114657D01*
X877748Y1113657D01*
Y913657D02*
X878748Y915658D01*
X877748Y917657D01*
X879748Y916658D01*
X881748Y917657D01*
X880748Y915658D01*
X881748Y913657D01*
X879748Y914657D01*
X877748Y913657D01*
Y893657D02*
X878748Y895658D01*
X877748Y897657D01*
X879748Y896657D01*
X881748Y897657D01*
X880748Y895658D01*
X881748Y893657D01*
X879748Y894658D01*
X877748Y893657D01*
Y933657D02*
X878748Y935658D01*
X877748Y937658D01*
X879748Y936658D01*
X881748Y937658D01*
X880748Y935658D01*
X881748Y933657D01*
X879748Y934657D01*
X877748Y933657D01*
Y923658D02*
X878748Y925657D01*
X877748Y927658D01*
X879748Y926657D01*
X881748Y927658D01*
X880748Y925657D01*
X881748Y923658D01*
X879748Y924658D01*
X877748Y923658D01*
X860000Y1049350D02*
Y1052683D01*
X861666Y1054349D01*
X863332Y1052683D01*
Y1049350D01*
Y1051850D01*
X860000D01*
Y868500D02*
Y871832D01*
X861666Y873498D01*
X863332Y871832D01*
Y868500D01*
Y870999D01*
X860000D01*
X877748Y1000193D02*
X878748Y1002193D01*
X877748Y1004193D01*
X879748Y1003193D01*
X881748Y1004193D01*
X880748Y1002193D01*
X881748Y1000193D01*
X879748Y1001193D01*
X877748Y1000193D01*
Y980193D02*
X878748Y982193D01*
X877748Y984193D01*
X879748Y983193D01*
X881748Y984193D01*
X880748Y982193D01*
X881748Y980193D01*
X879748Y981193D01*
X877748Y980193D01*
Y1020193D02*
X878748Y1022193D01*
X877748Y1024193D01*
X879748Y1023193D01*
X881748Y1024193D01*
X880748Y1022193D01*
X881748Y1020193D01*
X879748Y1021193D01*
X877748Y1020193D01*
Y1010193D02*
X878748Y1012193D01*
X877748Y1014193D01*
X879748Y1013193D01*
X881748Y1014193D01*
X880748Y1012193D01*
X881748Y1010193D01*
X879748Y1011193D01*
X877748Y1010193D01*
Y810193D02*
X878748Y812193D01*
X877748Y814193D01*
X879748Y813193D01*
X881748Y814193D01*
X880748Y812193D01*
X881748Y810193D01*
X879748Y811193D01*
X877748Y810193D01*
Y820193D02*
X878748Y822193D01*
X877748Y824193D01*
X879748Y823193D01*
X881748Y824193D01*
X880748Y822193D01*
X881748Y820193D01*
X879748Y821193D01*
X877748Y820193D01*
Y780193D02*
X878748Y782193D01*
X877748Y784193D01*
X879748Y783193D01*
X881748Y784193D01*
X880748Y782193D01*
X881748Y780193D01*
X879748Y781193D01*
X877748Y780193D01*
Y800193D02*
X878748Y802193D01*
X877748Y804193D01*
X879748Y803193D01*
X881748Y804193D01*
X880748Y802193D01*
X881748Y800193D01*
X879748Y801193D01*
X877748Y800193D01*
X860000Y668500D02*
Y671832D01*
X861666Y673498D01*
X863332Y671832D01*
Y668500D01*
Y670999D01*
X860000D01*
Y849350D02*
Y852683D01*
X861666Y854349D01*
X863332Y852683D01*
Y849350D01*
Y851850D01*
X860000D01*
X877748Y723658D02*
X878748Y725658D01*
X877748Y727658D01*
X879748Y726657D01*
X881748Y727658D01*
X880748Y725658D01*
X881748Y723658D01*
X879748Y724657D01*
X877748Y723658D01*
Y733658D02*
X878748Y735658D01*
X877748Y737657D01*
X879748Y736657D01*
X881748Y737657D01*
X880748Y735658D01*
X881748Y733658D01*
X879748Y734657D01*
X877748Y733658D01*
Y693657D02*
X878748Y695657D01*
X877748Y697657D01*
X879748Y696658D01*
X881748Y697657D01*
X880748Y695657D01*
X881748Y693657D01*
X879748Y694658D01*
X877748Y693657D01*
Y713658D02*
X878748Y715658D01*
X877748Y717658D01*
X879748Y716657D01*
X881748Y717658D01*
X880748Y715658D01*
X881748Y713658D01*
X879748Y714657D01*
X877748Y713658D01*
X857000Y1752500D02*
Y1751500D01*
X859000D01*
Y1752500D01*
X860000D01*
Y1754500D01*
X859000D01*
Y1755500D01*
X857000D01*
Y1754500D01*
X856000D01*
Y1752500D01*
X857000D01*
X857400Y1752900D02*
Y1752300D01*
X858600D01*
Y1752900D01*
X859200D01*
Y1754100D01*
X858600D01*
Y1754700D01*
X857400D01*
Y1754100D01*
X856800D01*
Y1752900D01*
X857400D01*
X872000Y1732500D02*
Y1731500D01*
X874000D01*
Y1732500D01*
X875000D01*
Y1734500D01*
X874000D01*
Y1735500D01*
X872000D01*
Y1734500D01*
X871000D01*
Y1732500D01*
X872000D01*
X872400Y1732900D02*
Y1732300D01*
X873600D01*
Y1732900D01*
X874200D01*
Y1734100D01*
X873600D01*
Y1734700D01*
X872400D01*
Y1734100D01*
X871800D01*
Y1732900D01*
X872400D01*
X847000Y1732500D02*
Y1731500D01*
X849000D01*
Y1732500D01*
X850000D01*
Y1734500D01*
X849000D01*
Y1735500D01*
X847000D01*
Y1734500D01*
X846000D01*
Y1732500D01*
X847000D01*
X847400Y1732900D02*
Y1732300D01*
X848600D01*
Y1732900D01*
X849200D01*
Y1734100D01*
X848600D01*
Y1734700D01*
X847400D01*
Y1734100D01*
X846800D01*
Y1732900D01*
X847400D01*
X615500Y1749500D02*
X616500D01*
X617500Y1750500D01*
X618500Y1749500D01*
X619500D01*
Y1750500D01*
X618500Y1751500D01*
X619500Y1752500D01*
Y1753500D01*
X618500D01*
X617500Y1752500D01*
X616500Y1753500D01*
X615500D01*
Y1752500D01*
X616500Y1751500D01*
X615500Y1750500D01*
Y1749500D01*
X616300Y1750300D02*
X616900D01*
X617500Y1750900D01*
X618100Y1750300D01*
X618700D01*
Y1750900D01*
X618100Y1751500D01*
X618700Y1752100D01*
Y1752700D01*
X618100D01*
X617500Y1752100D01*
X616900Y1752700D01*
X616300D01*
Y1752100D01*
X616900Y1751500D01*
X616300Y1750900D01*
Y1750300D01*
X615500Y1739500D02*
X616500D01*
X617500Y1740500D01*
X618500Y1739500D01*
X619500D01*
Y1740500D01*
X618500Y1741500D01*
X619500Y1742500D01*
Y1743500D01*
X618500D01*
X617500Y1742500D01*
X616500Y1743500D01*
X615500D01*
Y1742500D01*
X616500Y1741500D01*
X615500Y1740500D01*
Y1739500D01*
X616300Y1740300D02*
X616900D01*
X617500Y1740900D01*
X618100Y1740300D01*
X618700D01*
Y1740900D01*
X618100Y1741500D01*
X618700Y1742100D01*
Y1742700D01*
X618100D01*
X617500Y1742100D01*
X616900Y1742700D01*
X616300D01*
Y1742100D01*
X616900Y1741500D01*
X616300Y1740900D01*
Y1740300D01*
X679500Y1739500D02*
X680500D01*
X681500Y1740500D01*
X682500Y1739500D01*
X683500D01*
Y1740500D01*
X682500Y1741500D01*
X683500Y1742500D01*
Y1743500D01*
X682500D01*
X681500Y1742500D01*
X680500Y1743500D01*
X679500D01*
Y1742500D01*
X680500Y1741500D01*
X679500Y1740500D01*
Y1739500D01*
X680300Y1740300D02*
X680900D01*
X681500Y1740900D01*
X682100Y1740300D01*
X682700D01*
Y1740900D01*
X682100Y1741500D01*
X682700Y1742100D01*
Y1742700D01*
X682100D01*
X681500Y1742100D01*
X680900Y1742700D01*
X680300D01*
Y1742100D01*
X680900Y1741500D01*
X680300Y1740900D01*
Y1740300D01*
X679500Y1749500D02*
X680500D01*
X681500Y1750500D01*
X682500Y1749500D01*
X683500D01*
Y1750500D01*
X682500Y1751500D01*
X683500Y1752500D01*
Y1753500D01*
X682500D01*
X681500Y1752500D01*
X680500Y1753500D01*
X679500D01*
Y1752500D01*
X680500Y1751500D01*
X679500Y1750500D01*
Y1749500D01*
X680300Y1750300D02*
X680900D01*
X681500Y1750900D01*
X682100Y1750300D01*
X682700D01*
Y1750900D01*
X682100Y1751500D01*
X682700Y1752100D01*
Y1752700D01*
X682100D01*
X681500Y1752100D01*
X680900Y1752700D01*
X680300D01*
Y1752100D01*
X680900Y1751500D01*
X680300Y1750900D01*
Y1750300D01*
X748000Y1570500D02*
Y1574500D01*
X752000D01*
Y1570500D01*
X748000D01*
X688000D02*
Y1574500D01*
X692000D01*
Y1570500D01*
X688000D01*
X678000D02*
Y1574500D01*
X682000D01*
Y1570500D01*
X678000D01*
Y1530500D02*
Y1534500D01*
X682000D01*
Y1530500D01*
X678000D01*
X688000D02*
Y1534500D01*
X692000D01*
Y1530500D01*
X688000D01*
X748000D02*
Y1534500D01*
X752000D01*
Y1530500D01*
X748000D01*
X817500Y1166500D02*
Y1165500D01*
X819500D01*
Y1166500D01*
X820500D01*
Y1168500D01*
X819500D01*
Y1169500D01*
X817500D01*
Y1168500D01*
X816500D01*
Y1166500D01*
X817500D01*
X652146D02*
Y1165500D01*
X654146D01*
Y1166500D01*
X655146D01*
Y1168500D01*
X654146D01*
Y1169500D01*
X652146D01*
Y1168500D01*
X651146D01*
Y1166500D01*
X652146D01*
X506374Y1624498D02*
Y1619500D01*
X508873D01*
X509706Y1620333D01*
Y1621166D01*
X508873Y1621999D01*
X506374D01*
X508873D01*
X509706Y1622832D01*
Y1623665D01*
X508873Y1624498D01*
X506374D01*
Y1614498D02*
Y1609500D01*
X508873D01*
X509706Y1610333D01*
Y1611166D01*
X508873Y1611999D01*
X506374D01*
X508873D01*
X509706Y1612832D01*
Y1613665D01*
X508873Y1614498D01*
X506374D01*
Y1604498D02*
Y1599500D01*
X508873D01*
X509706Y1600333D01*
Y1601166D01*
X508873Y1601999D01*
X506374D01*
X508873D01*
X509706Y1602832D01*
Y1603665D01*
X508873Y1604498D01*
X506374D01*
Y1594498D02*
Y1589500D01*
X508873D01*
X509706Y1590333D01*
Y1591166D01*
X508873Y1591999D01*
X506374D01*
X508873D01*
X509706Y1592832D01*
Y1593665D01*
X508873Y1594498D01*
X506374D01*
X537626D02*
Y1589500D01*
X540125D01*
X540958Y1590333D01*
Y1591166D01*
X540125Y1591999D01*
X537626D01*
X540125D01*
X540958Y1592832D01*
Y1593665D01*
X540125Y1594498D01*
X537626D01*
Y1604498D02*
Y1599500D01*
X540125D01*
X540958Y1600333D01*
Y1601166D01*
X540125Y1601999D01*
X537626D01*
X540125D01*
X540958Y1602832D01*
Y1603665D01*
X540125Y1604498D01*
X537626D01*
Y1614498D02*
Y1609500D01*
X540125D01*
X540958Y1610333D01*
Y1611166D01*
X540125Y1611999D01*
X537626D01*
X540125D01*
X540958Y1612832D01*
Y1613665D01*
X540125Y1614498D01*
X537626D01*
Y1624498D02*
Y1619500D01*
X540125D01*
X540958Y1620333D01*
Y1621166D01*
X540125Y1621999D01*
X537626D01*
X540125D01*
X540958Y1622832D01*
Y1623665D01*
X540125Y1624498D01*
X537626D01*
Y1677498D02*
Y1672500D01*
X540125D01*
X540958Y1673333D01*
Y1674166D01*
X540125Y1674999D01*
X537626D01*
X540125D01*
X540958Y1675832D01*
Y1676665D01*
X540125Y1677498D01*
X537626D01*
Y1667498D02*
Y1662500D01*
X540125D01*
X540958Y1663333D01*
Y1664166D01*
X540125Y1664999D01*
X537626D01*
X540125D01*
X540958Y1665832D01*
Y1666665D01*
X540125Y1667498D01*
X537626D01*
Y1657498D02*
Y1652500D01*
X540125D01*
X540958Y1653333D01*
Y1654166D01*
X540125Y1654999D01*
X537626D01*
X540125D01*
X540958Y1655832D01*
Y1656665D01*
X540125Y1657498D01*
X537626D01*
Y1647498D02*
Y1642500D01*
X540125D01*
X540958Y1643333D01*
Y1644166D01*
X540125Y1644999D01*
X537626D01*
X540125D01*
X540958Y1645832D01*
Y1646665D01*
X540125Y1647498D01*
X537626D01*
X506374D02*
Y1642500D01*
X508873D01*
X509706Y1643333D01*
Y1644166D01*
X508873Y1644999D01*
X506374D01*
X508873D01*
X509706Y1645832D01*
Y1646665D01*
X508873Y1647498D01*
X506374D01*
Y1657498D02*
Y1652500D01*
X508873D01*
X509706Y1653333D01*
Y1654166D01*
X508873Y1654999D01*
X506374D01*
X508873D01*
X509706Y1655832D01*
Y1656665D01*
X508873Y1657498D01*
X506374D01*
Y1667498D02*
Y1662500D01*
X508873D01*
X509706Y1663333D01*
Y1664166D01*
X508873Y1664999D01*
X506374D01*
X508873D01*
X509706Y1665832D01*
Y1666665D01*
X508873Y1667498D01*
X506374D01*
Y1677498D02*
Y1672500D01*
X508873D01*
X509706Y1673333D01*
Y1674166D01*
X508873Y1674999D01*
X506374D01*
X508873D01*
X509706Y1675832D01*
Y1676665D01*
X508873Y1677498D01*
X506374D01*
X807652Y435500D02*
X808652Y437500D01*
X807652Y439500D01*
X809652Y438500D01*
X811652Y439500D01*
X810652Y437500D01*
X811652Y435500D01*
X809652Y436500D01*
X807652Y435500D01*
X808452Y436300D02*
X809052Y437500D01*
X808452Y438700D01*
X809652Y438100D01*
X810852Y438700D01*
X810252Y437500D01*
X810852Y436300D01*
X809652Y436900D01*
X808452Y436300D01*
X827337Y435500D02*
X828337Y437500D01*
X827337Y439500D01*
X829337Y438500D01*
X831337Y439500D01*
X830337Y437500D01*
X831337Y435500D01*
X829337Y436500D01*
X827337Y435500D01*
X828137Y436300D02*
X828737Y437500D01*
X828137Y438700D01*
X829337Y438100D01*
X830537Y438700D01*
X829937Y437500D01*
X830537Y436300D01*
X829337Y436900D01*
X828137Y436300D01*
X807652Y407941D02*
X808652Y409941D01*
X807652Y411941D01*
X809652Y410941D01*
X811652Y411941D01*
X810652Y409941D01*
X811652Y407941D01*
X809652Y408941D01*
X807652Y407941D01*
X808452Y408741D02*
X809052Y409941D01*
X808452Y411141D01*
X809652Y410541D01*
X810852Y411141D01*
X810252Y409941D01*
X810852Y408741D01*
X809652Y409341D01*
X808452Y408741D01*
X827337Y407941D02*
X828337Y409941D01*
X827337Y411941D01*
X829337Y410941D01*
X831337Y411941D01*
X830337Y409941D01*
X831337Y407941D01*
X829337Y408941D01*
X827337Y407941D01*
X828137Y408741D02*
X828737Y409941D01*
X828137Y411141D01*
X829337Y410541D01*
X830537Y411141D01*
X829937Y409941D01*
X830537Y408741D01*
X829337Y409341D01*
X828137Y408741D01*
X417000Y1421000D02*
X415000Y1425000D01*
X419000D01*
X417000Y1421000D01*
Y1441000D02*
X415000Y1445000D01*
X419000D01*
X417000Y1441000D01*
Y1461000D02*
X415000Y1465000D01*
X419000D01*
X417000Y1461000D01*
Y1481000D02*
X415000Y1485000D01*
X419000D01*
X417000Y1481000D01*
Y1501000D02*
X415000Y1505000D01*
X419000D01*
X417000Y1501000D01*
Y1521000D02*
X415000Y1525000D01*
X419000D01*
X417000Y1521000D01*
X415500Y1295500D02*
X413500Y1299500D01*
X417500D01*
X415500Y1295500D01*
Y1310500D02*
X413500Y1314500D01*
X417500D01*
X415500Y1310500D01*
X893000Y1020193D02*
X891000Y1024193D01*
X895000D01*
X893000Y1020193D01*
Y1000193D02*
X891000Y1004193D01*
X895000D01*
X893000Y1000193D01*
Y733657D02*
X891000Y737657D01*
X895000D01*
X893000Y733657D01*
Y913657D02*
X891000Y917657D01*
X895000D01*
X893000Y913657D01*
Y713657D02*
X891000Y717657D01*
X895000D01*
X893000Y713657D01*
Y800193D02*
X891000Y804193D01*
X895000D01*
X893000Y800193D01*
Y933657D02*
X891000Y937657D01*
X895000D01*
X893000Y933657D01*
Y820193D02*
X891000Y824193D01*
X895000D01*
X893000Y820193D01*
Y1133657D02*
X891000Y1137657D01*
X895000D01*
X893000Y1133657D01*
Y1220193D02*
X891000Y1224193D01*
X895000D01*
X893000Y1220193D01*
Y1200193D02*
X891000Y1204193D01*
X895000D01*
X893000Y1200193D01*
Y1113657D02*
X891000Y1117657D01*
X895000D01*
X893000Y1113657D01*
X412781Y531724D02*
X411948Y532557D01*
X410282D01*
X409449Y531724D01*
Y528392D01*
X410282Y527559D01*
X411948D01*
X412781Y528392D01*
X893096Y531724D02*
X892263Y532557D01*
X890597D01*
X889764Y531724D01*
Y528392D01*
X890597Y527559D01*
X892263D01*
X893096Y528392D01*
X410500Y1695500D02*
X411500Y1696500D01*
X412500D01*
X411500Y1697500D01*
X412500Y1698500D01*
X411500D01*
X410500Y1699500D01*
X409500Y1698500D01*
X408500D01*
X409500Y1697500D01*
X408500Y1696500D01*
X409500D01*
X410500Y1695500D01*
Y1696300D02*
X411100Y1696900D01*
X411700D01*
X411100Y1697500D01*
X411700Y1698100D01*
X411100D01*
X410500Y1698700D01*
X409900Y1698100D01*
X409300D01*
X409900Y1697500D01*
X409300Y1696900D01*
X409900D01*
X410500Y1696300D01*
X420650Y1695450D02*
X421650Y1696450D01*
X422650D01*
X421650Y1697450D01*
X422650Y1698450D01*
X421650D01*
X420650Y1699450D01*
X419650Y1698450D01*
X418650D01*
X419650Y1697450D01*
X418650Y1696450D01*
X419650D01*
X420650Y1695450D01*
Y1696250D02*
X421250Y1696850D01*
X421850D01*
X421250Y1697450D01*
X421850Y1698050D01*
X421250D01*
X420650Y1698650D01*
X420050Y1698050D01*
X419450D01*
X420050Y1697450D01*
X419450Y1696850D01*
X420050D01*
X420650Y1696250D01*
Y1725450D02*
X421650Y1726450D01*
X422650D01*
X421650Y1727450D01*
X422650Y1728450D01*
X421650D01*
X420650Y1729450D01*
X419650Y1728450D01*
X418650D01*
X419650Y1727450D01*
X418650Y1726450D01*
X419650D01*
X420650Y1725450D01*
Y1726250D02*
X421250Y1726850D01*
X421850D01*
X421250Y1727450D01*
X421850Y1728050D01*
X421250D01*
X420650Y1728650D01*
X420050Y1728050D01*
X419450D01*
X420050Y1727450D01*
X419450Y1726850D01*
X420050D01*
X420650Y1726250D01*
Y1715450D02*
X421650Y1716450D01*
X422650D01*
X421650Y1717450D01*
X422650Y1718450D01*
X421650D01*
X420650Y1719450D01*
X419650Y1718450D01*
X418650D01*
X419650Y1717450D01*
X418650Y1716450D01*
X419650D01*
X420650Y1715450D01*
Y1716250D02*
X421250Y1716850D01*
X421850D01*
X421250Y1717450D01*
X421850Y1718050D01*
X421250D01*
X420650Y1718650D01*
X420050Y1718050D01*
X419450D01*
X420050Y1717450D01*
X419450Y1716850D01*
X420050D01*
X420650Y1716250D01*
X410500Y1705500D02*
X411500Y1706500D01*
X412500D01*
X411500Y1707500D01*
X412500Y1708500D01*
X411500D01*
X410500Y1709500D01*
X409500Y1708500D01*
X408500D01*
X409500Y1707500D01*
X408500Y1706500D01*
X409500D01*
X410500Y1705500D01*
Y1706300D02*
X411100Y1706900D01*
X411700D01*
X411100Y1707500D01*
X411700Y1708100D01*
X411100D01*
X410500Y1708700D01*
X409900Y1708100D01*
X409300D01*
X409900Y1707500D01*
X409300Y1706900D01*
X409900D01*
X410500Y1706300D01*
X420650Y1705450D02*
X421650Y1706450D01*
X422650D01*
X421650Y1707450D01*
X422650Y1708450D01*
X421650D01*
X420650Y1709450D01*
X419650Y1708450D01*
X418650D01*
X419650Y1707450D01*
X418650Y1706450D01*
X419650D01*
X420650Y1705450D01*
Y1706250D02*
X421250Y1706850D01*
X421850D01*
X421250Y1707450D01*
X421850Y1708050D01*
X421250D01*
X420650Y1708650D01*
X420050Y1708050D01*
X419450D01*
X420050Y1707450D01*
X419450Y1706850D01*
X420050D01*
X420650Y1706250D01*
Y1755450D02*
X421650Y1756450D01*
X422650D01*
X421650Y1757450D01*
X422650Y1758450D01*
X421650D01*
X420650Y1759450D01*
X419650Y1758450D01*
X418650D01*
X419650Y1757450D01*
X418650Y1756450D01*
X419650D01*
X420650Y1755450D01*
Y1756250D02*
X421250Y1756850D01*
X421850D01*
X421250Y1757450D01*
X421850Y1758050D01*
X421250D01*
X420650Y1758650D01*
X420050Y1758050D01*
X419450D01*
X420050Y1757450D01*
X419450Y1756850D01*
X420050D01*
X420650Y1756250D01*
X420800Y1745400D02*
X421800Y1746400D01*
X422800D01*
X421800Y1747400D01*
X422800Y1748400D01*
X421800D01*
X420800Y1749400D01*
X419800Y1748400D01*
X418800D01*
X419800Y1747400D01*
X418800Y1746400D01*
X419800D01*
X420800Y1745400D01*
Y1746200D02*
X421400Y1746800D01*
X422000D01*
X421400Y1747400D01*
X422000Y1748000D01*
X421400D01*
X420800Y1748600D01*
X420200Y1748000D01*
X419600D01*
X420200Y1747400D01*
X419600Y1746800D01*
X420200D01*
X420800Y1746200D01*
X410500Y1725500D02*
X411500Y1726500D01*
X412500D01*
X411500Y1727500D01*
X412500Y1728500D01*
X411500D01*
X410500Y1729500D01*
X409500Y1728500D01*
X408500D01*
X409500Y1727500D01*
X408500Y1726500D01*
X409500D01*
X410500Y1725500D01*
Y1726300D02*
X411100Y1726900D01*
X411700D01*
X411100Y1727500D01*
X411700Y1728100D01*
X411100D01*
X410500Y1728700D01*
X409900Y1728100D01*
X409300D01*
X409900Y1727500D01*
X409300Y1726900D01*
X409900D01*
X410500Y1726300D01*
X410700Y1735600D02*
X411700Y1736600D01*
X412700D01*
X411700Y1737600D01*
X412700Y1738600D01*
X411700D01*
X410700Y1739600D01*
X409700Y1738600D01*
X408700D01*
X409700Y1737600D01*
X408700Y1736600D01*
X409700D01*
X410700Y1735600D01*
Y1736400D02*
X411300Y1737000D01*
X411900D01*
X411300Y1737600D01*
X411900Y1738200D01*
X411300D01*
X410700Y1738800D01*
X410100Y1738200D01*
X409500D01*
X410100Y1737600D01*
X409500Y1737000D01*
X410100D01*
X410700Y1736400D01*
Y1745500D02*
X411700Y1746500D01*
X412700D01*
X411700Y1747500D01*
X412700Y1748500D01*
X411700D01*
X410700Y1749500D01*
X409700Y1748500D01*
X408700D01*
X409700Y1747500D01*
X408700Y1746500D01*
X409700D01*
X410700Y1745500D01*
Y1746300D02*
X411300Y1746900D01*
X411900D01*
X411300Y1747500D01*
X411900Y1748100D01*
X411300D01*
X410700Y1748700D01*
X410100Y1748100D01*
X409500D01*
X410100Y1747500D01*
X409500Y1746900D01*
X410100D01*
X410700Y1746300D01*
Y1755500D02*
X411700Y1756500D01*
X412700D01*
X411700Y1757500D01*
X412700Y1758500D01*
X411700D01*
X410700Y1759500D01*
X409700Y1758500D01*
X408700D01*
X409700Y1757500D01*
X408700Y1756500D01*
X409700D01*
X410700Y1755500D01*
Y1756300D02*
X411300Y1756900D01*
X411900D01*
X411300Y1757500D01*
X411900Y1758100D01*
X411300D01*
X410700Y1758700D01*
X410100Y1758100D01*
X409500D01*
X410100Y1757500D01*
X409500Y1756900D01*
X410100D01*
X410700Y1756300D01*
X410500Y1715500D02*
X411500Y1716500D01*
X412500D01*
X411500Y1717500D01*
X412500Y1718500D01*
X411500D01*
X410500Y1719500D01*
X409500Y1718500D01*
X408500D01*
X409500Y1717500D01*
X408500Y1716500D01*
X409500D01*
X410500Y1715500D01*
Y1716300D02*
X411100Y1716900D01*
X411700D01*
X411100Y1717500D01*
X411700Y1718100D01*
X411100D01*
X410500Y1718700D01*
X409900Y1718100D01*
X409300D01*
X409900Y1717500D01*
X409300Y1716900D01*
X409900D01*
X410500Y1716300D01*
X420650Y1735450D02*
X421650Y1736450D01*
X422650D01*
X421650Y1737450D01*
X422650Y1738450D01*
X421650D01*
X420650Y1739450D01*
X419650Y1738450D01*
X418650D01*
X419650Y1737450D01*
X418650Y1736450D01*
X419650D01*
X420650Y1735450D01*
Y1736250D02*
X421250Y1736850D01*
X421850D01*
X421250Y1737450D01*
X421850Y1738050D01*
X421250D01*
X420650Y1738650D01*
X420050Y1738050D01*
X419450D01*
X420050Y1737450D01*
X419450Y1736850D01*
X420050D01*
X420650Y1736250D01*
X456500Y739400D02*
X457500D01*
X458500Y740400D01*
X459500Y739400D01*
X460500D01*
Y740400D01*
X459500Y741400D01*
X460500Y742400D01*
Y743400D01*
X459500D01*
X458500Y742400D01*
X457500Y743400D01*
X456500D01*
Y742400D01*
X457500Y741400D01*
X456500Y740400D01*
Y739400D01*
Y700000D02*
X457500D01*
X458500Y701000D01*
X459500Y700000D01*
X460500D01*
Y701000D01*
X459500Y702000D01*
X460500Y703000D01*
Y704000D01*
X459500D01*
X458500Y703000D01*
X457500Y704000D01*
X456500D01*
Y703000D01*
X457500Y702000D01*
X456500Y701000D01*
Y700000D01*
X417036Y1606000D02*
X415036Y1610000D01*
X419036D01*
X417036Y1606000D01*
X626976Y1392500D02*
X624976Y1396500D01*
X628976D01*
X626976Y1392500D01*
X417036Y1670500D02*
X415036Y1674500D01*
X419036D01*
X417036Y1670500D01*
X881000Y1692000D02*
Y1696000D01*
X885000D01*
Y1692000D01*
X881000D01*
X821000D02*
Y1696000D01*
X825000D01*
Y1692000D01*
X821000D01*
X811000D02*
Y1696000D01*
X815000D01*
Y1692000D01*
X811000D01*
Y1652000D02*
Y1656000D01*
X815000D01*
Y1652000D01*
X811000D01*
X821000D02*
Y1656000D01*
X825000D01*
Y1652000D01*
X821000D01*
X881000D02*
Y1656000D01*
X885000D01*
Y1652000D01*
X881000D01*
X881500Y1627500D02*
Y1631500D01*
X885500D01*
Y1627500D01*
X881500D01*
X821500D02*
Y1631500D01*
X825500D01*
Y1627500D01*
X821500D01*
X811500D02*
Y1631500D01*
X815500D01*
Y1627500D01*
X811500D01*
Y1587500D02*
Y1591500D01*
X815500D01*
Y1587500D01*
X811500D01*
X821500D02*
Y1591500D01*
X825500D01*
Y1587500D01*
X821500D01*
X881500D02*
Y1591500D01*
X885500D01*
Y1587500D01*
X881500D01*
Y1397500D02*
Y1401500D01*
X885500D01*
Y1397500D01*
X881500D01*
X821500D02*
Y1401500D01*
X825500D01*
Y1397500D01*
X821500D01*
X811500D02*
Y1401500D01*
X815500D01*
Y1397500D01*
X811500D01*
Y1357500D02*
Y1361500D01*
X815500D01*
Y1357500D01*
X811500D01*
X821500D02*
Y1361500D01*
X825500D01*
Y1357500D01*
X821500D01*
X881500D02*
Y1361500D01*
X885500D01*
Y1357500D01*
X881500D01*
X685326Y435500D02*
X686326Y437500D01*
X685326Y439500D01*
X687326Y438500D01*
X689326Y439500D01*
X688326Y437500D01*
X689326Y435500D01*
X687326Y436500D01*
X685326Y435500D01*
X686126Y436300D02*
X686726Y437500D01*
X686126Y438700D01*
X687326Y438100D01*
X688526Y438700D01*
X687926Y437500D01*
X688526Y436300D01*
X687326Y436900D01*
X686126Y436300D01*
X705011Y435500D02*
X706011Y437500D01*
X705011Y439500D01*
X707011Y438500D01*
X709011Y439500D01*
X708011Y437500D01*
X709011Y435500D01*
X707011Y436500D01*
X705011Y435500D01*
X705811Y436300D02*
X706411Y437500D01*
X705811Y438700D01*
X707011Y438100D01*
X708211Y438700D01*
X707611Y437500D01*
X708211Y436300D01*
X707011Y436900D01*
X705811Y436300D01*
X685326Y407941D02*
X686326Y409941D01*
X685326Y411941D01*
X687326Y410941D01*
X689326Y411941D01*
X688326Y409941D01*
X689326Y407941D01*
X687326Y408941D01*
X685326Y407941D01*
X686126Y408741D02*
X686726Y409941D01*
X686126Y411141D01*
X687326Y410541D01*
X688526Y411141D01*
X687926Y409941D01*
X688526Y408741D01*
X687326Y409341D01*
X686126Y408741D01*
X705011Y407941D02*
X706011Y409941D01*
X705011Y411941D01*
X707011Y410941D01*
X709011Y411941D01*
X708011Y409941D01*
X709011Y407941D01*
X707011Y408941D01*
X705011Y407941D01*
X705811Y408741D02*
X706411Y409941D01*
X705811Y411141D01*
X707011Y410541D01*
X708211Y411141D01*
X707611Y409941D01*
X708211Y408741D01*
X707011Y409341D01*
X705811Y408741D01*
X880999Y488189D02*
X878999Y492189D01*
X882999D01*
X880999Y488189D01*
X490000Y1408000D02*
X488000Y1412000D01*
X492000D01*
X490000Y1408000D01*
Y1408800D02*
X488800Y1411200D01*
X491200D01*
X490000Y1408800D01*
Y1428000D02*
X488000Y1432000D01*
X492000D01*
X490000Y1428000D01*
Y1428800D02*
X488800Y1431200D01*
X491200D01*
X490000Y1428800D01*
Y1448000D02*
X488000Y1452000D01*
X492000D01*
X490000Y1448000D01*
Y1448800D02*
X488800Y1451200D01*
X491200D01*
X490000Y1448800D01*
Y1458000D02*
X488000Y1462000D01*
X492000D01*
X490000Y1458000D01*
Y1458800D02*
X488800Y1461200D01*
X491200D01*
X490000Y1458800D01*
Y1468000D02*
X488000Y1472000D01*
X492000D01*
X490000Y1468000D01*
Y1468800D02*
X488800Y1471200D01*
X491200D01*
X490000Y1468800D01*
Y1478000D02*
X488000Y1482000D01*
X492000D01*
X490000Y1478000D01*
Y1478800D02*
X488800Y1481200D01*
X491200D01*
X490000Y1478800D01*
Y1438000D02*
X488000Y1442000D01*
X492000D01*
X490000Y1438000D01*
Y1438800D02*
X488800Y1441200D01*
X491200D01*
X490000Y1438800D01*
Y1418000D02*
X488000Y1422000D01*
X492000D01*
X490000Y1418000D01*
Y1418800D02*
X488800Y1421200D01*
X491200D01*
X490000Y1418800D01*
X417036Y1649000D02*
X415036Y1653000D01*
X419036D01*
X417036Y1649000D01*
X456500Y863900D02*
X457500D01*
X458500Y864900D01*
X459500Y863900D01*
X460500D01*
Y864900D01*
X459500Y865900D01*
X460500Y866900D01*
Y867900D01*
X459500D01*
X458500Y866900D01*
X457500Y867900D01*
X456500D01*
Y866900D01*
X457500Y865900D01*
X456500Y864900D01*
Y863900D01*
Y824500D02*
X457500D01*
X458500Y825500D01*
X459500Y824500D01*
X460500D01*
Y825500D01*
X459500Y826500D01*
X460500Y827500D01*
Y828500D01*
X459500D01*
X458500Y827500D01*
X457500Y828500D01*
X456500D01*
Y827500D01*
X457500Y826500D01*
X456500Y825500D01*
Y824500D01*
X881500Y1512500D02*
Y1516500D01*
X885500D01*
Y1512500D01*
X881500D01*
X821500D02*
Y1516500D01*
X825500D01*
Y1512500D01*
X821500D01*
X811500D02*
Y1516500D01*
X815500D01*
Y1512500D01*
X811500D01*
Y1472500D02*
Y1476500D01*
X815500D01*
Y1472500D01*
X811500D01*
X821500D02*
Y1476500D01*
X825500D01*
Y1472500D01*
X821500D01*
X881500D02*
Y1476500D01*
X885500D01*
Y1472500D01*
X881500D01*
Y1570000D02*
Y1574000D01*
X885500D01*
Y1570000D01*
X881500D01*
X821500D02*
Y1574000D01*
X825500D01*
Y1570000D01*
X821500D01*
X811500D02*
Y1574000D01*
X815500D01*
Y1570000D01*
X811500D01*
Y1530000D02*
Y1534000D01*
X815500D01*
Y1530000D01*
X811500D01*
X821500D02*
Y1534000D01*
X825500D01*
Y1530000D01*
X821500D01*
X881500D02*
Y1534000D01*
X885500D01*
Y1530000D01*
X881500D01*
X563000Y435500D02*
X564000Y437500D01*
X563000Y439500D01*
X565000Y438500D01*
X567000Y439500D01*
X566000Y437500D01*
X567000Y435500D01*
X565000Y436500D01*
X563000Y435500D01*
X563800Y436300D02*
X564400Y437500D01*
X563800Y438700D01*
X565000Y438100D01*
X566200Y438700D01*
X565600Y437500D01*
X566200Y436300D01*
X565000Y436900D01*
X563800Y436300D01*
X582685Y435500D02*
X583685Y437500D01*
X582685Y439500D01*
X584685Y438500D01*
X586685Y439500D01*
X585685Y437500D01*
X586685Y435500D01*
X584685Y436500D01*
X582685Y435500D01*
X583485Y436300D02*
X584085Y437500D01*
X583485Y438700D01*
X584685Y438100D01*
X585885Y438700D01*
X585285Y437500D01*
X585885Y436300D01*
X584685Y436900D01*
X583485Y436300D01*
X563000Y407941D02*
X564000Y409941D01*
X563000Y411941D01*
X565000Y410941D01*
X567000Y411941D01*
X566000Y409941D01*
X567000Y407941D01*
X565000Y408941D01*
X563000Y407941D01*
X563800Y408741D02*
X564400Y409941D01*
X563800Y411141D01*
X565000Y410541D01*
X566200Y411141D01*
X565600Y409941D01*
X566200Y408741D01*
X565000Y409341D01*
X563800Y408741D01*
X582685Y407941D02*
X583685Y409941D01*
X582685Y411941D01*
X584685Y410941D01*
X586685Y411941D01*
X585685Y409941D01*
X586685Y407941D01*
X584685Y408941D01*
X582685Y407941D01*
X583485Y408741D02*
X584085Y409941D01*
X583485Y411141D01*
X584685Y410541D01*
X585885Y411141D01*
X585285Y409941D01*
X585885Y408741D01*
X584685Y409341D01*
X583485Y408741D01*
X461500Y1360000D02*
Y1364000D01*
X465500D01*
Y1360000D01*
X461500D01*
X462300Y1360800D02*
Y1363200D01*
X464700D01*
Y1360800D01*
X462300D01*
X450200Y1374500D02*
X452200Y1376500D01*
X454200Y1374500D01*
X452200Y1372500D01*
X450200Y1374500D01*
X457700Y1379500D02*
X459700Y1381500D01*
X461700Y1379500D01*
X459700Y1377500D01*
X457700Y1379500D01*
X450200Y1384500D02*
X452200Y1386500D01*
X454200Y1384500D01*
X452200Y1382500D01*
X450200Y1384500D01*
X457700Y1389500D02*
X459700Y1391500D01*
X461700Y1389500D01*
X459700Y1387500D01*
X457700Y1389500D01*
X465200Y1384500D02*
X467200Y1386500D01*
X469200Y1384500D01*
X467200Y1382500D01*
X465200Y1384500D01*
X450200Y1394500D02*
X452200Y1396500D01*
X454200Y1394500D01*
X452200Y1392500D01*
X450200Y1394500D01*
X457700Y1399500D02*
X459700Y1401500D01*
X461700Y1399500D01*
X459700Y1397500D01*
X457700Y1399500D01*
X465200Y1394500D02*
X467200Y1396500D01*
X469200Y1394500D01*
X467200Y1392500D01*
X465200Y1394500D01*
X472700Y1379500D02*
X474700Y1381500D01*
X476700Y1379500D01*
X474700Y1377500D01*
X472700Y1379500D01*
Y1389500D02*
X474700Y1391500D01*
X476700Y1389500D01*
X474700Y1387500D01*
X472700Y1389500D01*
Y1399500D02*
X474700Y1401500D01*
X476700Y1399500D01*
X474700Y1397500D01*
X472700Y1399500D01*
X450200Y1434500D02*
X452200Y1436500D01*
X454200Y1434500D01*
X452200Y1432500D01*
X450200Y1434500D01*
X465200D02*
X467200Y1436500D01*
X469200Y1434500D01*
X467200Y1432500D01*
X465200Y1434500D01*
X450200Y1424500D02*
X452200Y1426500D01*
X454200Y1424500D01*
X452200Y1422500D01*
X450200Y1424500D01*
X465200D02*
X467200Y1426500D01*
X469200Y1424500D01*
X467200Y1422500D01*
X465200Y1424500D01*
Y1444500D02*
X467200Y1446500D01*
X469200Y1444500D01*
X467200Y1442500D01*
X465200Y1444500D01*
X450200D02*
X452200Y1446500D01*
X454200Y1444500D01*
X452200Y1442500D01*
X450200Y1444500D01*
Y1454500D02*
X452200Y1456500D01*
X454200Y1454500D01*
X452200Y1452500D01*
X450200Y1454500D01*
X465200D02*
X467200Y1456500D01*
X469200Y1454500D01*
X467200Y1452500D01*
X465200Y1454500D01*
X450200Y1464500D02*
X452200Y1466500D01*
X454200Y1464500D01*
X452200Y1462500D01*
X450200Y1464500D01*
X457700Y1469500D02*
X459700Y1471500D01*
X461700Y1469500D01*
X459700Y1467500D01*
X457700Y1469500D01*
X465200Y1464500D02*
X467200Y1466500D01*
X469200Y1464500D01*
X467200Y1462500D01*
X465200Y1464500D01*
X472700Y1469500D02*
X474700Y1471500D01*
X476700Y1469500D01*
X474700Y1467500D01*
X472700Y1469500D01*
Y1479500D02*
X474700Y1481500D01*
X476700Y1479500D01*
X474700Y1477500D01*
X472700Y1479500D01*
X465200Y1474500D02*
X467200Y1476500D01*
X469200Y1474500D01*
X467200Y1472500D01*
X465200Y1474500D01*
X457700Y1479500D02*
X459700Y1481500D01*
X461700Y1479500D01*
X459700Y1477500D01*
X457700Y1479500D01*
X450200Y1474500D02*
X452200Y1476500D01*
X454200Y1474500D01*
X452200Y1472500D01*
X450200Y1474500D01*
Y1484500D02*
X452200Y1486500D01*
X454200Y1484500D01*
X452200Y1482500D01*
X450200Y1484500D01*
X472700Y1489500D02*
X474700Y1491500D01*
X476700Y1489500D01*
X474700Y1487500D01*
X472700Y1489500D01*
X465200Y1484500D02*
X467200Y1486500D01*
X469200Y1484500D01*
X467200Y1482500D01*
X465200Y1484500D01*
X457700Y1489500D02*
X459700Y1491500D01*
X461700Y1489500D01*
X459700Y1487500D01*
X457700Y1489500D01*
X450200Y1494500D02*
X452200Y1496500D01*
X454200Y1494500D01*
X452200Y1492500D01*
X450200Y1494500D01*
X457700Y1499500D02*
X459700Y1501500D01*
X461700Y1499500D01*
X459700Y1497500D01*
X457700Y1499500D01*
X465200Y1494500D02*
X467200Y1496500D01*
X469200Y1494500D01*
X467200Y1492500D01*
X465200Y1494500D01*
X472700Y1499500D02*
X474700Y1501500D01*
X476700Y1499500D01*
X474700Y1497500D01*
X472700Y1499500D01*
Y1529500D02*
X474700Y1531500D01*
X476700Y1529500D01*
X474700Y1527500D01*
X472700Y1529500D01*
X465200Y1524500D02*
X467200Y1526500D01*
X469200Y1524500D01*
X467200Y1522500D01*
X465200Y1524500D01*
X457700Y1529500D02*
X459700Y1531500D01*
X461700Y1529500D01*
X459700Y1527500D01*
X457700Y1529500D01*
X450200Y1524500D02*
X452200Y1526500D01*
X454200Y1524500D01*
X452200Y1522500D01*
X450200Y1524500D01*
X465200Y1534500D02*
X467200Y1536500D01*
X469200Y1534500D01*
X467200Y1532500D01*
X465200Y1534500D01*
X450200D02*
X452200Y1536500D01*
X454200Y1534500D01*
X452200Y1532500D01*
X450200Y1534500D01*
X457700Y1539500D02*
X459700Y1541500D01*
X461700Y1539500D01*
X459700Y1537500D01*
X457700Y1539500D01*
X472700D02*
X474700Y1541500D01*
X476700Y1539500D01*
X474700Y1537500D01*
X472700Y1539500D01*
Y1549500D02*
X474700Y1551500D01*
X476700Y1549500D01*
X474700Y1547500D01*
X472700Y1549500D01*
X457700D02*
X459700Y1551500D01*
X461700Y1549500D01*
X459700Y1547500D01*
X457700Y1549500D01*
X450200Y1544500D02*
X452200Y1546500D01*
X454200Y1544500D01*
X452200Y1542500D01*
X450200Y1544500D01*
X472700Y1559500D02*
X474700Y1561500D01*
X476700Y1559500D01*
X474700Y1557500D01*
X472700Y1559500D01*
X465200Y1554500D02*
X467200Y1556500D01*
X469200Y1554500D01*
X467200Y1552500D01*
X465200Y1554500D01*
X457700Y1559500D02*
X459700Y1561500D01*
X461700Y1559500D01*
X459700Y1557500D01*
X457700Y1559500D01*
X450200Y1554500D02*
X452200Y1556500D01*
X454200Y1554500D01*
X452200Y1552500D01*
X450200Y1554500D01*
X465200Y1564500D02*
X467200Y1566500D01*
X469200Y1564500D01*
X467200Y1562500D01*
X465200Y1564500D01*
X450200D02*
X452200Y1566500D01*
X454200Y1564500D01*
X452200Y1562500D01*
X450200Y1564500D01*
X457700Y1569500D02*
X459700Y1571500D01*
X461700Y1569500D01*
X459700Y1567500D01*
X457700Y1569500D01*
X472700D02*
X474700Y1571500D01*
X476700Y1569500D01*
X474700Y1567500D01*
X472700Y1569500D01*
Y1579500D02*
X474700Y1581500D01*
X476700Y1579500D01*
X474700Y1577500D01*
X472700Y1579500D01*
X465200Y1574500D02*
X467200Y1576500D01*
X469200Y1574500D01*
X467200Y1572500D01*
X465200Y1574500D01*
X457700Y1579500D02*
X459700Y1581500D01*
X461700Y1579500D01*
X459700Y1577500D01*
X457700Y1579500D01*
X450200Y1574500D02*
X452200Y1576500D01*
X454200Y1574500D01*
X452200Y1572500D01*
X450200Y1574500D01*
X472700Y1589500D02*
X474700Y1591500D01*
X476700Y1589500D01*
X474700Y1587500D01*
X472700Y1589500D01*
X465200Y1584500D02*
X467200Y1586500D01*
X469200Y1584500D01*
X467200Y1582500D01*
X465200Y1584500D01*
X457700Y1589500D02*
X459700Y1591500D01*
X461700Y1589500D01*
X459700Y1587500D01*
X457700Y1589500D01*
X450200Y1584500D02*
X452200Y1586500D01*
X454200Y1584500D01*
X452200Y1582500D01*
X450200Y1584500D01*
Y1594500D02*
X452200Y1596500D01*
X454200Y1594500D01*
X452200Y1592500D01*
X450200Y1594500D01*
X457700Y1599500D02*
X459700Y1601500D01*
X461700Y1599500D01*
X459700Y1597500D01*
X457700Y1599500D01*
X472700D02*
X474700Y1601500D01*
X476700Y1599500D01*
X474700Y1597500D01*
X472700Y1599500D01*
Y1609500D02*
X474700Y1611500D01*
X476700Y1609500D01*
X474700Y1607500D01*
X472700Y1609500D01*
X465200Y1604500D02*
X467200Y1606500D01*
X469200Y1604500D01*
X467200Y1602500D01*
X465200Y1604500D01*
X457700Y1609500D02*
X459700Y1611500D01*
X461700Y1609500D01*
X459700Y1607500D01*
X457700Y1609500D01*
X450200Y1604500D02*
X452200Y1606500D01*
X454200Y1604500D01*
X452200Y1602500D01*
X450200Y1604500D01*
X472700Y1619500D02*
X474700Y1621500D01*
X476700Y1619500D01*
X474700Y1617500D01*
X472700Y1619500D01*
X465200Y1614500D02*
X467200Y1616500D01*
X469200Y1614500D01*
X467200Y1612500D01*
X465200Y1614500D01*
X457700Y1619500D02*
X459700Y1621500D01*
X461700Y1619500D01*
X459700Y1617500D01*
X457700Y1619500D01*
X461500Y1670000D02*
Y1674000D01*
X465500D01*
Y1670000D01*
X461500D01*
X462300Y1670800D02*
Y1673200D01*
X464700D01*
Y1670800D01*
X462300D01*
X450200Y1614500D02*
X452200Y1616500D01*
X454200Y1614500D01*
X452200Y1612500D01*
X450200Y1614500D01*
X472700Y1629500D02*
X474700Y1631500D01*
X476700Y1629500D01*
X474700Y1627500D01*
X472700Y1629500D01*
X465200Y1624500D02*
X467200Y1626500D01*
X469200Y1624500D01*
X467200Y1622500D01*
X465200Y1624500D01*
X457700Y1629500D02*
X459700Y1631500D01*
X461700Y1629500D01*
X459700Y1627500D01*
X457700Y1629500D01*
X450200Y1624500D02*
X452200Y1626500D01*
X454200Y1624500D01*
X452200Y1622500D01*
X450200Y1624500D01*
X472700Y1639500D02*
X474700Y1641500D01*
X476700Y1639500D01*
X474700Y1637500D01*
X472700Y1639500D01*
X465200Y1634500D02*
X467200Y1636500D01*
X469200Y1634500D01*
X467200Y1632500D01*
X465200Y1634500D01*
X457700Y1639500D02*
X459700Y1641500D01*
X461700Y1639500D01*
X459700Y1637500D01*
X457700Y1639500D01*
X450200Y1634500D02*
X452200Y1636500D01*
X454200Y1634500D01*
X452200Y1632500D01*
X450200Y1634500D01*
X472700Y1649500D02*
X474700Y1651500D01*
X476700Y1649500D01*
X474700Y1647500D01*
X472700Y1649500D01*
X457700D02*
X459700Y1651500D01*
X461700Y1649500D01*
X459700Y1647500D01*
X457700Y1649500D01*
X450200Y1644500D02*
X452200Y1646500D01*
X454200Y1644500D01*
X452200Y1642500D01*
X450200Y1644500D01*
X472700Y1659500D02*
X474700Y1661500D01*
X476700Y1659500D01*
X474700Y1657500D01*
X472700Y1659500D01*
X465200Y1654500D02*
X467200Y1656500D01*
X469200Y1654500D01*
X467200Y1652500D01*
X465200Y1654500D01*
X457700Y1659500D02*
X459700Y1661500D01*
X461700Y1659500D01*
X459700Y1657500D01*
X457700Y1659500D01*
X450200Y1654500D02*
X452200Y1656500D01*
X454200Y1654500D01*
X452200Y1652500D01*
X450200Y1654500D01*
X465200Y1374500D02*
X467200Y1376500D01*
X469200Y1374500D01*
X467200Y1372500D01*
X465200Y1374500D01*
X472700Y1459500D02*
X474700Y1461500D01*
X476700Y1459500D01*
X474700Y1457500D01*
X472700Y1459500D01*
Y1429500D02*
X474700Y1431500D01*
X476700Y1429500D01*
X474700Y1427500D01*
X472700Y1429500D01*
Y1449500D02*
X474700Y1451500D01*
X476700Y1449500D01*
X474700Y1447500D01*
X472700Y1449500D01*
X457700Y1459500D02*
X459700Y1461500D01*
X461700Y1459500D01*
X459700Y1457500D01*
X457700Y1459500D01*
Y1429500D02*
X459700Y1431500D01*
X461700Y1429500D01*
X459700Y1427500D01*
X457700Y1429500D01*
Y1449500D02*
X459700Y1451500D01*
X461700Y1449500D01*
X459700Y1447500D01*
X457700Y1449500D01*
Y1439500D02*
X459700Y1441500D01*
X461700Y1439500D01*
X459700Y1437500D01*
X457700Y1439500D01*
X465200Y1544500D02*
X467200Y1546500D01*
X469200Y1544500D01*
X467200Y1542500D01*
X465200Y1544500D01*
Y1644500D02*
X467200Y1646500D01*
X469200Y1644500D01*
X467200Y1642500D01*
X465200Y1644500D01*
Y1594500D02*
X467200Y1596500D01*
X469200Y1594500D01*
X467200Y1592500D01*
X465200Y1594500D01*
X472700Y1439500D02*
X474700Y1441500D01*
X476700Y1439500D01*
X474700Y1437500D01*
X472700Y1439500D01*
X888500Y407941D02*
X889500Y409941D01*
X888500Y411941D01*
X890500Y410941D01*
X892500Y411941D01*
X891500Y409941D01*
X892500Y407941D01*
X890500Y408941D01*
X888500Y407941D01*
X889300Y408741D02*
X889900Y409941D01*
X889300Y411141D01*
X890500Y410541D01*
X891700Y411141D01*
X891100Y409941D01*
X891700Y408741D01*
X890500Y409341D01*
X889300Y408741D01*
X868815Y407941D02*
X869815Y409941D01*
X868815Y411941D01*
X870815Y410941D01*
X872815Y411941D01*
X871815Y409941D01*
X872815Y407941D01*
X870815Y408941D01*
X868815Y407941D01*
X869615Y408741D02*
X870215Y409941D01*
X869615Y411141D01*
X870815Y410541D01*
X872015Y411141D01*
X871415Y409941D01*
X872015Y408741D01*
X870815Y409341D01*
X869615Y408741D01*
X888500Y435500D02*
X889500Y437500D01*
X888500Y439500D01*
X890500Y438500D01*
X892500Y439500D01*
X891500Y437500D01*
X892500Y435500D01*
X890500Y436500D01*
X888500Y435500D01*
X889300Y436300D02*
X889900Y437500D01*
X889300Y438700D01*
X890500Y438100D01*
X891700Y438700D01*
X891100Y437500D01*
X891700Y436300D01*
X890500Y436900D01*
X889300Y436300D01*
X868815Y435500D02*
X869815Y437500D01*
X868815Y439500D01*
X870815Y438500D01*
X872815Y439500D01*
X871815Y437500D01*
X872815Y435500D01*
X870815Y436500D01*
X868815Y435500D01*
X869615Y436300D02*
X870215Y437500D01*
X869615Y438700D01*
X870815Y438100D01*
X872015Y438700D01*
X871415Y437500D01*
X872015Y436300D01*
X870815Y436900D01*
X869615Y436300D01*
X417036Y1627500D02*
X415036Y1631500D01*
X419036D01*
X417036Y1627500D01*
X881500Y1340000D02*
Y1344000D01*
X885500D01*
Y1340000D01*
X881500D01*
X821500D02*
Y1344000D01*
X825500D01*
Y1340000D01*
X821500D01*
X811500D02*
Y1344000D01*
X815500D01*
Y1340000D01*
X811500D01*
Y1300000D02*
Y1304000D01*
X815500D01*
Y1300000D01*
X811500D01*
X821500D02*
Y1304000D01*
X825500D01*
Y1300000D01*
X821500D01*
X881500D02*
Y1304000D01*
X885500D01*
Y1300000D01*
X881500D01*
X748000Y1635500D02*
Y1639500D01*
X752000D01*
Y1635500D01*
X748000D01*
X688000D02*
Y1639500D01*
X692000D01*
Y1635500D01*
X688000D01*
X678000D02*
Y1639500D01*
X682000D01*
Y1635500D01*
X678000D01*
Y1595500D02*
Y1599500D01*
X682000D01*
Y1595500D01*
X678000D01*
X688000D02*
Y1599500D01*
X692000D01*
Y1595500D01*
X688000D01*
X748000D02*
Y1599500D01*
X752000D01*
Y1595500D01*
X748000D01*
X881500Y1455000D02*
Y1459000D01*
X885500D01*
Y1455000D01*
X881500D01*
X821500D02*
Y1459000D01*
X825500D01*
Y1455000D01*
X821500D01*
X811500D02*
Y1459000D01*
X815500D01*
Y1455000D01*
X811500D01*
Y1415000D02*
Y1419000D01*
X815500D01*
Y1415000D01*
X811500D01*
X821500D02*
Y1419000D01*
X825500D01*
Y1415000D01*
X821500D01*
X881500D02*
Y1419000D01*
X885500D01*
Y1415000D01*
X881500D01*
X643848Y407941D02*
X644848Y409941D01*
X643848Y411941D01*
X645848Y410941D01*
X647848Y411941D01*
X646848Y409941D01*
X647848Y407941D01*
X645848Y408941D01*
X643848Y407941D01*
X644648Y408741D02*
X645248Y409941D01*
X644648Y411141D01*
X645848Y410541D01*
X647048Y411141D01*
X646448Y409941D01*
X647048Y408741D01*
X645848Y409341D01*
X644648Y408741D01*
X624163Y407941D02*
X625163Y409941D01*
X624163Y411941D01*
X626163Y410941D01*
X628163Y411941D01*
X627163Y409941D01*
X628163Y407941D01*
X626163Y408941D01*
X624163Y407941D01*
X624963Y408741D02*
X625563Y409941D01*
X624963Y411141D01*
X626163Y410541D01*
X627363Y411141D01*
X626763Y409941D01*
X627363Y408741D01*
X626163Y409341D01*
X624963Y408741D01*
X643848Y435500D02*
X644848Y437500D01*
X643848Y439500D01*
X645848Y438500D01*
X647848Y439500D01*
X646848Y437500D01*
X647848Y435500D01*
X645848Y436500D01*
X643848Y435500D01*
X644648Y436300D02*
X645248Y437500D01*
X644648Y438700D01*
X645848Y438100D01*
X647048Y438700D01*
X646448Y437500D01*
X647048Y436300D01*
X645848Y436900D01*
X644648Y436300D01*
X624163Y435500D02*
X625163Y437500D01*
X624163Y439500D01*
X626163Y438500D01*
X628163Y439500D01*
X627163Y437500D01*
X628163Y435500D01*
X626163Y436500D01*
X624163Y435500D01*
X624963Y436300D02*
X625563Y437500D01*
X624963Y438700D01*
X626163Y438100D01*
X627363Y438700D01*
X626763Y437500D01*
X627363Y436300D01*
X626163Y436900D01*
X624963Y436300D01*
X746489Y435500D02*
X747489Y437500D01*
X746489Y439500D01*
X748489Y438500D01*
X750489Y439500D01*
X749489Y437500D01*
X750489Y435500D01*
X748489Y436500D01*
X746489Y435500D01*
X747289Y436300D02*
X747889Y437500D01*
X747289Y438700D01*
X748489Y438100D01*
X749689Y438700D01*
X749089Y437500D01*
X749689Y436300D01*
X748489Y436900D01*
X747289Y436300D01*
X766174Y435500D02*
X767174Y437500D01*
X766174Y439500D01*
X768174Y438500D01*
X770174Y439500D01*
X769174Y437500D01*
X770174Y435500D01*
X768174Y436500D01*
X766174Y435500D01*
X766974Y436300D02*
X767574Y437500D01*
X766974Y438700D01*
X768174Y438100D01*
X769374Y438700D01*
X768774Y437500D01*
X769374Y436300D01*
X768174Y436900D01*
X766974Y436300D01*
X746489Y407941D02*
X747489Y409941D01*
X746489Y411941D01*
X748489Y410941D01*
X750489Y411941D01*
X749489Y409941D01*
X750489Y407941D01*
X748489Y408941D01*
X746489Y407941D01*
X747289Y408741D02*
X747889Y409941D01*
X747289Y411141D01*
X748489Y410541D01*
X749689Y411141D01*
X749089Y409941D01*
X749689Y408741D01*
X748489Y409341D01*
X747289Y408741D01*
X766174Y407941D02*
X767174Y409941D01*
X766174Y411941D01*
X768174Y410941D01*
X770174Y411941D01*
X769174Y409941D01*
X770174Y407941D01*
X768174Y408941D01*
X766174Y407941D01*
X766974Y408741D02*
X767574Y409941D01*
X766974Y411141D01*
X768174Y410541D01*
X769374Y411141D01*
X768774Y409941D01*
X769374Y408741D01*
X768174Y409341D01*
X766974Y408741D01*
X412781Y1279756D02*
X411948Y1280589D01*
X410282D01*
X409449Y1279756D01*
Y1276424D01*
X410282Y1275591D01*
X411948D01*
X412781Y1276424D01*
X817500Y759500D02*
Y758500D01*
X819500D01*
Y759500D01*
X820500D01*
Y761500D01*
X819500D01*
Y762500D01*
X817500D01*
Y761500D01*
X816500D01*
Y759500D01*
X817500D01*
X652146D02*
Y758500D01*
X654146D01*
Y759500D01*
X655146D01*
Y761500D01*
X654146D01*
Y762500D01*
X652146D01*
Y761500D01*
X651146D01*
Y759500D01*
X652146D01*
X668673Y581000D02*
X669673Y582000D01*
X670673D01*
X669673Y583000D01*
X670673Y584000D01*
X669673D01*
X668673Y585000D01*
X667673Y584000D01*
X666673D01*
X667673Y583000D01*
X666673Y582000D01*
X667673D01*
X668673Y581000D01*
X758673D02*
X759673Y582000D01*
X760673D01*
X759673Y583000D01*
X760673Y584000D01*
X759673D01*
X758673Y585000D01*
X757673Y584000D01*
X756673D01*
X757673Y583000D01*
X756673Y582000D01*
X757673D01*
X758673Y581000D01*
X539346D02*
X540346Y582000D01*
X541346D01*
X540346Y583000D01*
X541346Y584000D01*
X540346D01*
X539346Y585000D01*
X538346Y584000D01*
X537346D01*
X538346Y583000D01*
X537346Y582000D01*
X538346D01*
X539346Y581000D01*
X629346D02*
X630346Y582000D01*
X631346D01*
X630346Y583000D01*
X631346Y584000D01*
X630346D01*
X629346Y585000D01*
X628346Y584000D01*
X627346D01*
X628346Y583000D01*
X627346Y582000D01*
X628346D01*
X629346Y581000D01*
X771049Y1752197D02*
X770216Y1753030D01*
X768550D01*
X767717Y1752197D01*
Y1748865D01*
X768550Y1748031D01*
X770216D01*
X771049Y1748865D01*
X534828Y1752197D02*
X533995Y1753030D01*
X532329D01*
X531496Y1752197D01*
Y1748865D01*
X532329Y1748031D01*
X533995D01*
X534828Y1748865D01*
X614035Y1278000D02*
X612035Y1282000D01*
X616035D01*
X614035Y1278000D01*
X713035Y1276000D02*
X711035Y1280000D01*
X715035D01*
X713035Y1276000D01*
X515035Y1278000D02*
X513035Y1282000D01*
X517035D01*
X515035Y1278000D01*
X626976Y1506000D02*
X624976Y1510000D01*
X628976D01*
X626976Y1506000D01*
X538976Y1506000D02*
X536976Y1510000D01*
X540976D01*
X538976Y1506000D01*
Y1392500D02*
X536976Y1396500D01*
X540976D01*
X538976Y1392500D01*
X719476Y1506000D02*
X717476Y1510000D01*
X721476D01*
X719476Y1506000D01*
Y1392500D02*
X717476Y1396500D01*
X721476D01*
X719476Y1392500D01*
X893096Y1279756D02*
X892263Y1280589D01*
X890597D01*
X889764Y1279756D01*
Y1276424D01*
X890597Y1275591D01*
X892263D01*
X893096Y1276424D01*
X888000Y581000D02*
X889000Y582000D01*
X890000D01*
X889000Y583000D01*
X890000Y584000D01*
X889000D01*
X888000Y585000D01*
X887000Y584000D01*
X886000D01*
X887000Y583000D01*
X886000Y582000D01*
X887000D01*
X888000Y581000D01*
X798000D02*
X799000Y582000D01*
X800000D01*
X799000Y583000D01*
X800000Y584000D01*
X799000D01*
X798000Y585000D01*
X797000Y584000D01*
X796000D01*
X797000Y583000D01*
X796000Y582000D01*
X797000D01*
X798000Y581000D01*
X437500Y1341000D02*
X435500Y1345000D01*
X439500D01*
X437500Y1341000D01*
Y1341800D02*
X436300Y1344200D01*
X438700D01*
X437500Y1341800D01*
Y1361000D02*
X435500Y1365000D01*
X439500D01*
X437500Y1361000D01*
Y1361800D02*
X436300Y1364200D01*
X438700D01*
X437500Y1361800D01*
Y1401000D02*
X435500Y1405000D01*
X439500D01*
X437500Y1401000D01*
Y1401800D02*
X436300Y1404200D01*
X438700D01*
X437500Y1401800D01*
Y1391000D02*
X435500Y1395000D01*
X439500D01*
X437500Y1391000D01*
Y1391800D02*
X436300Y1394200D01*
X438700D01*
X437500Y1391800D01*
Y1381000D02*
X435500Y1385000D01*
X439500D01*
X437500Y1381000D01*
Y1381800D02*
X436300Y1384200D01*
X438700D01*
X437500Y1381800D01*
Y1371000D02*
X435500Y1375000D01*
X439500D01*
X437500Y1371000D01*
Y1371800D02*
X436300Y1374200D01*
X438700D01*
X437500Y1371800D01*
Y1351000D02*
X435500Y1355000D01*
X439500D01*
X437500Y1351000D01*
Y1351800D02*
X436300Y1354200D01*
X438700D01*
X437500Y1351800D01*
Y1331000D02*
X435500Y1335000D01*
X439500D01*
X437500Y1331000D01*
Y1331800D02*
X436300Y1334200D01*
X438700D01*
X437500Y1331800D01*
X632000Y1278000D02*
X630000Y1282000D01*
X634000D01*
X632000Y1278000D01*
X533000D02*
X531000Y1282000D01*
X535000D01*
X533000Y1278000D01*
X579500Y824500D02*
X580500D01*
X581500Y825500D01*
X582500Y824500D01*
X583500D01*
Y825500D01*
X582500Y826500D01*
X583500Y827500D01*
Y828500D01*
X582500D01*
X581500Y827500D01*
X580500Y828500D01*
X579500D01*
Y827500D01*
X580500Y826500D01*
X579500Y825500D01*
Y824500D01*
Y863900D02*
X580500D01*
X581500Y864900D01*
X582500Y863900D01*
X583500D01*
Y864900D01*
X582500Y865900D01*
X583500Y866900D01*
Y867900D01*
X582500D01*
X581500Y866900D01*
X580500Y867900D01*
X579500D01*
Y866900D01*
X580500Y865900D01*
X579500Y864900D01*
Y863900D01*
Y700000D02*
X580500D01*
X581500Y701000D01*
X582500Y700000D01*
X583500D01*
Y701000D01*
X582500Y702000D01*
X583500Y703000D01*
Y704000D01*
X582500D01*
X581500Y703000D01*
X580500Y704000D01*
X579500D01*
Y703000D01*
X580500Y702000D01*
X579500Y701000D01*
Y700000D01*
Y739400D02*
X580500D01*
X581500Y740400D01*
X582500Y739400D01*
X583500D01*
Y740400D01*
X582500Y741400D01*
X583500Y742400D01*
Y743400D01*
X582500D01*
X581500Y742400D01*
X580500Y743400D01*
X579500D01*
Y742400D01*
X580500Y741400D01*
X579500Y740400D01*
Y739400D01*
X819836Y488189D02*
X817836Y492189D01*
X821836D01*
X819836Y488189D01*
X758673D02*
X756673Y492189D01*
X760673D01*
X758673Y488189D01*
X575184D02*
X573184Y492189D01*
X577184D01*
X575184Y488189D01*
X697510D02*
X695510Y492189D01*
X699510D01*
X697510Y488189D01*
X636347D02*
X634347Y492189D01*
X638347D01*
X636347Y488189D01*
X730965Y1276000D02*
X728965Y1280000D01*
X732965D01*
X730965Y1276000D01*
X407500Y1177500D02*
X405500Y1181500D01*
X409500D01*
X407500Y1177500D01*
Y1200500D02*
X405500Y1204500D01*
X409500D01*
X407500Y1200500D01*
Y1223500D02*
X405500Y1227500D01*
X409500D01*
X407500Y1223500D01*
Y1244500D02*
X405500Y1248500D01*
X409500D01*
X407500Y1244500D01*
X704532Y1041498D02*
X701200D01*
Y1036500D01*
X704532D01*
X701200Y1038999D02*
X702866D01*
X812332Y1295498D02*
X809000D01*
Y1290500D01*
X812332D01*
X809000Y1292999D02*
X810666D01*
X828332Y1112498D02*
X825000D01*
Y1107500D01*
X828332D01*
X825000Y1109999D02*
X826666D01*
X820832Y815998D02*
X817500D01*
Y811000D01*
X820832D01*
X817500Y813499D02*
X819166D01*
X820832Y809998D02*
X817500D01*
Y805000D01*
X820832D01*
X817500Y807499D02*
X819166D01*
X761832Y1533998D02*
X758500D01*
Y1529000D01*
X761832D01*
X758500Y1531499D02*
X760166D01*
X745832Y1452498D02*
X742500D01*
Y1447500D01*
X745832D01*
X742500Y1449999D02*
X744166D01*
X666332Y1411498D02*
X663000D01*
Y1406500D01*
X666332D01*
X663000Y1408999D02*
X664666D01*
X587332Y1449998D02*
X584000D01*
Y1445000D01*
X587332D01*
X584000Y1447499D02*
X585666D01*
X546332Y1481498D02*
X543000D01*
Y1476500D01*
X546332D01*
X543000Y1478999D02*
X544666D01*
X535632Y1352973D02*
X532300D01*
Y1347975D01*
X535632D01*
X532300Y1350474D02*
X533966D01*
X542832Y1354498D02*
X539500D01*
Y1349500D01*
X542832D01*
X539500Y1351999D02*
X541166D01*
X521332Y1353148D02*
X518000D01*
Y1348149D01*
X521332D01*
X518000Y1350649D02*
X519666D01*
X526329Y1352995D02*
X522997D01*
Y1347997D01*
X526329D01*
X522997Y1350496D02*
X524663D01*
X791332Y1238498D02*
X788000D01*
Y1233500D01*
X791332D01*
X788000Y1235999D02*
X789666D01*
X787332Y1236498D02*
X784000D01*
Y1231500D01*
X787332D01*
X784000Y1233999D02*
X785666D01*
X786832Y1007998D02*
X783500D01*
Y1003000D01*
X786832D01*
X783500Y1005499D02*
X785166D01*
X556832Y1278498D02*
X553500D01*
Y1273500D01*
X556832D01*
X553500Y1275999D02*
X555166D01*
X791332Y1213998D02*
X788000D01*
Y1209000D01*
X791332D01*
X788000Y1211499D02*
X789666D01*
X792832Y806498D02*
X789500D01*
Y801500D01*
X792832D01*
X789500Y803999D02*
X791166D01*
X789332Y1044198D02*
X786000D01*
Y1039200D01*
X789332D01*
X786000Y1041699D02*
X787666D01*
X791832Y1018998D02*
X788500D01*
Y1014000D01*
X791832D01*
X788500Y1016499D02*
X790166D01*
X788332Y1249998D02*
X785000D01*
Y1245000D01*
X788332D01*
X785000Y1247499D02*
X786666D01*
X737332Y1472998D02*
X734000D01*
Y1468000D01*
X737332D01*
X734000Y1470499D02*
X735666D01*
X617332Y1313998D02*
X614000D01*
Y1309000D01*
X617332D01*
X614000Y1311499D02*
X615666D01*
X629637Y1315198D02*
X626305D01*
Y1310200D01*
X629637D01*
X626305Y1312699D02*
X627971D01*
X632912Y1318998D02*
X629579D01*
Y1314000D01*
X632912D01*
X629579Y1316499D02*
X631246D01*
X572832Y1313498D02*
X569500D01*
Y1308500D01*
X572832D01*
X569500Y1310999D02*
X571166D01*
X650500Y1520998D02*
Y1516000D01*
X652999D01*
X653832Y1516833D01*
Y1520165D01*
X652999Y1520998D01*
X650500D01*
X715332Y1493998D02*
X712000D01*
Y1489000D01*
X715332D01*
X712000Y1491499D02*
X713666D01*
X568711Y1456120D02*
X565378D01*
Y1451122D01*
X568711D01*
X565378Y1453621D02*
X567044D01*
X826832Y1223498D02*
X823500D01*
Y1218500D01*
X826832D01*
X823500Y1220999D02*
X825166D01*
X518332Y1313998D02*
X515000D01*
Y1309000D01*
X518332D01*
X515000Y1311499D02*
X516666D01*
X650332Y1435498D02*
X647000D01*
Y1430500D01*
X650332D01*
X647000Y1432999D02*
X648666D01*
X788832Y1549998D02*
X785500D01*
Y1545000D01*
X788832D01*
X785500Y1547499D02*
X787166D01*
X631832Y1355498D02*
X628500D01*
Y1350500D01*
X631832D01*
X628500Y1352999D02*
X630166D01*
X551332Y1225998D02*
X548000D01*
Y1221000D01*
X551332D01*
X548000Y1223499D02*
X549666D01*
X789332Y1485998D02*
X786000D01*
Y1481000D01*
X789332D01*
X786000Y1483499D02*
X787666D01*
X748032Y1207298D02*
X744700D01*
Y1202300D01*
X748032D01*
X744700Y1204799D02*
X746366D01*
X761432Y1324748D02*
X758100D01*
Y1319750D01*
X761432D01*
X758100Y1322249D02*
X759766D01*
X613832Y1349498D02*
X610500D01*
Y1344500D01*
X613832D01*
X610500Y1346999D02*
X612166D01*
X730532Y1354498D02*
X727200D01*
Y1349500D01*
X730532D01*
X727200Y1351999D02*
X728866D01*
X608332Y1320998D02*
X605000D01*
Y1316000D01*
X608332D01*
X605000Y1318499D02*
X606666D01*
X802332Y1486498D02*
X799000D01*
Y1481500D01*
X802332D01*
X799000Y1483999D02*
X800666D01*
X806832Y1242998D02*
X803500D01*
Y1238000D01*
X806832D01*
X803500Y1240499D02*
X805166D01*
X791557Y829223D02*
X788225D01*
Y824224D01*
X791557D01*
X788225Y826724D02*
X789891D01*
X789403Y815498D02*
X786071D01*
Y810500D01*
X789403D01*
X786071Y812999D02*
X787737D01*
X806832Y1038498D02*
X803500D01*
Y1033500D01*
X806832D01*
X803500Y1035999D02*
X805166D01*
X788832Y1032498D02*
X785500D01*
Y1027500D01*
X788832D01*
X785500Y1029999D02*
X787166D01*
X789332Y1665498D02*
X786000D01*
Y1660500D01*
X789332D01*
X786000Y1662999D02*
X787666D01*
X789332Y1428998D02*
X786000D01*
Y1424000D01*
X789332D01*
X786000Y1426499D02*
X787666D01*
X692832Y1436998D02*
X689500D01*
Y1432000D01*
X692832D01*
X689500Y1434499D02*
X691166D01*
X516732Y1694298D02*
X513400D01*
Y1689300D01*
X516732D01*
X513400Y1691799D02*
X515066D01*
X704832Y837123D02*
X701500D01*
Y832125D01*
X704832D01*
X701500Y834624D02*
X703166D01*
X798332Y659998D02*
X795000D01*
Y655000D01*
X798332D01*
X795000Y657499D02*
X796666D01*
X788632Y837498D02*
X785300D01*
Y832500D01*
X788632D01*
X785300Y834999D02*
X786966D01*
X788632Y854898D02*
X785300D01*
Y849900D01*
X788632D01*
X785300Y852399D02*
X786966D01*
X659289Y1453998D02*
X655956D01*
Y1449000D01*
X659289D01*
X655956Y1451499D02*
X657622D01*
X514632Y1472298D02*
X511300D01*
Y1467300D01*
X514632D01*
X511300Y1469799D02*
X512966D01*
X653332Y1472298D02*
X650000D01*
Y1467300D01*
X653332D01*
X650000Y1469799D02*
X651666D01*
X725832Y1480998D02*
X722500D01*
Y1476000D01*
X725832D01*
X722500Y1478499D02*
X724166D01*
X590132Y687998D02*
X586800D01*
Y683000D01*
X590132D01*
X586800Y685499D02*
X588466D01*
X580632Y1335998D02*
X577300D01*
Y1331000D01*
X580632D01*
X577300Y1333499D02*
X578966D01*
X758832Y1509598D02*
X755500D01*
Y1504600D01*
X758832D01*
X755500Y1507099D02*
X757166D01*
X748032Y1355998D02*
X744700D01*
Y1351000D01*
X748032D01*
X744700Y1353499D02*
X746366D01*
X723432Y1333698D02*
X720100D01*
Y1328700D01*
X723432D01*
X720100Y1331199D02*
X721766D01*
X592932Y1435998D02*
X589600D01*
Y1431000D01*
X592932D01*
X589600Y1433499D02*
X591266D01*
X459032Y1212798D02*
X455700D01*
Y1207800D01*
X459032D01*
X455700Y1210299D02*
X457366D01*
X716132Y1352398D02*
X712800D01*
Y1347400D01*
X716132D01*
X712800Y1349899D02*
X714466D01*
X555732Y1454598D02*
X552400D01*
Y1449600D01*
X555732D01*
X552400Y1452099D02*
X554066D01*
X839676Y1258754D02*
X836344D01*
Y1253756D01*
X839676D01*
X836344Y1256255D02*
X838010D01*
X795832Y1677998D02*
X792500D01*
Y1673000D01*
X795832D01*
X792500Y1675499D02*
X794166D01*
D122*
X621669Y1170500D02*
G03*
X621669Y1170500I-2000J0D01*
G01*
Y1250500D02*
G03*
X621669Y1250500I-2000J0D01*
G01*
X591669D02*
G03*
X591669Y1250500I-2000J0D01*
G01*
X561669D02*
G03*
X561669Y1250500I-2000J0D01*
G01*
Y1170500D02*
G03*
X561669Y1170500I-2000J0D01*
G01*
X461480Y528000D02*
G03*
X461480Y528000I-2000J0D01*
G01*
Y638000D02*
G03*
X461480Y638000I-2000J0D01*
G01*
Y618000D02*
G03*
X461480Y618000I-2000J0D01*
G01*
X562000Y1116000D02*
G03*
X562000Y1116000I-2000J0D01*
G01*
Y1146000D02*
G03*
X562000Y1146000I-2000J0D01*
G01*
X439000Y1424000D02*
G03*
X439000Y1424000I-2000J0D01*
G01*
Y1434000D02*
G03*
X439000Y1434000I-2000J0D01*
G01*
Y1444000D02*
G03*
X439000Y1444000I-2000J0D01*
G01*
Y1454000D02*
G03*
X439000Y1454000I-2000J0D01*
G01*
Y1464000D02*
G03*
X439000Y1464000I-2000J0D01*
G01*
Y1474000D02*
G03*
X439000Y1474000I-2000J0D01*
G01*
Y1484000D02*
G03*
X439000Y1484000I-2000J0D01*
G01*
Y1494000D02*
G03*
X439000Y1494000I-2000J0D01*
G01*
Y1504000D02*
G03*
X439000Y1504000I-2000J0D01*
G01*
Y1514000D02*
G03*
X439000Y1514000I-2000J0D01*
G01*
Y1524000D02*
G03*
X439000Y1524000I-2000J0D01*
G01*
Y1534000D02*
G03*
X439000Y1534000I-2000J0D01*
G01*
Y1544000D02*
G03*
X439000Y1544000I-2000J0D01*
G01*
Y1554000D02*
G03*
X439000Y1554000I-2000J0D01*
G01*
Y1564000D02*
G03*
X439000Y1564000I-2000J0D01*
G01*
Y1574000D02*
G03*
X439000Y1574000I-2000J0D01*
G01*
Y1584000D02*
G03*
X439000Y1584000I-2000J0D01*
G01*
Y1594000D02*
G03*
X439000Y1594000I-2000J0D01*
G01*
Y1604000D02*
G03*
X439000Y1604000I-2000J0D01*
G01*
Y1614000D02*
G03*
X439000Y1614000I-2000J0D01*
G01*
Y1624000D02*
G03*
X439000Y1624000I-2000J0D01*
G01*
Y1634000D02*
G03*
X439000Y1634000I-2000J0D01*
G01*
X561500Y935000D02*
G03*
X561500Y935000I-2000J0D01*
G01*
Y965000D02*
G03*
X561500Y965000I-2000J0D01*
G01*
X454000Y935000D02*
G03*
X454000Y935000I-2000J0D01*
G01*
Y965000D02*
G03*
X454000Y965000I-2000J0D01*
G01*
X621669Y990000D02*
G03*
X621669Y990000I-2000J0D01*
G01*
Y1070000D02*
G03*
X621669Y1070000I-2000J0D01*
G01*
X591669D02*
G03*
X591669Y1070000I-2000J0D01*
G01*
X561669D02*
G03*
X561669Y1070000I-2000J0D01*
G01*
Y990000D02*
G03*
X561669Y990000I-2000J0D01*
G01*
X514000Y935000D02*
G03*
X514000Y935000I-2000J0D01*
G01*
Y965000D02*
G03*
X514000Y965000I-2000J0D01*
G01*
X491500Y1742500D02*
G03*
X491500Y1742500I-2000J0D01*
G01*
Y1732500D02*
G03*
X491500Y1732500I-2000J0D01*
G01*
Y1722500D02*
G03*
X491500Y1722500I-2000J0D01*
G01*
Y1712500D02*
G03*
X491500Y1712500I-2000J0D01*
G01*
Y1702500D02*
G03*
X491500Y1702500I-2000J0D01*
G01*
Y1692500D02*
G03*
X491500Y1692500I-2000J0D01*
G01*
Y1682500D02*
G03*
X491500Y1682500I-2000J0D01*
G01*
Y1672500D02*
G03*
X491500Y1672500I-2000J0D01*
G01*
Y1662500D02*
G03*
X491500Y1662500I-2000J0D01*
G01*
Y1652500D02*
G03*
X491500Y1652500I-2000J0D01*
G01*
Y1642500D02*
G03*
X491500Y1642500I-2000J0D01*
G01*
Y1632500D02*
G03*
X491500Y1632500I-2000J0D01*
G01*
Y1622500D02*
G03*
X491500Y1622500I-2000J0D01*
G01*
Y1612500D02*
G03*
X491500Y1612500I-2000J0D01*
G01*
Y1602500D02*
G03*
X491500Y1602500I-2000J0D01*
G01*
Y1592500D02*
G03*
X491500Y1592500I-2000J0D01*
G01*
Y1582500D02*
G03*
X491500Y1582500I-2000J0D01*
G01*
Y1572500D02*
G03*
X491500Y1572500I-2000J0D01*
G01*
Y1562500D02*
G03*
X491500Y1562500I-2000J0D01*
G01*
Y1552500D02*
G03*
X491500Y1552500I-2000J0D01*
G01*
Y1542500D02*
G03*
X491500Y1542500I-2000J0D01*
G01*
Y1532500D02*
G03*
X491500Y1532500I-2000J0D01*
G01*
Y1522500D02*
G03*
X491500Y1522500I-2000J0D01*
G01*
Y1512500D02*
G03*
X491500Y1512500I-2000J0D01*
G01*
Y1502500D02*
G03*
X491500Y1502500I-2000J0D01*
G01*
X514000Y990000D02*
G03*
X514000Y990000I-2000J0D01*
G01*
Y1070000D02*
G03*
X514000Y1070000I-2000J0D01*
G01*
X484000D02*
G03*
X484000Y1070000I-2000J0D01*
G01*
X454000D02*
G03*
X454000Y1070000I-2000J0D01*
G01*
Y990000D02*
G03*
X454000Y990000I-2000J0D01*
G01*
X514000Y1170500D02*
G03*
X514000Y1170500I-2000J0D01*
G01*
Y1250500D02*
G03*
X514000Y1250500I-2000J0D01*
G01*
X484000D02*
G03*
X484000Y1250500I-2000J0D01*
G01*
X454000D02*
G03*
X454000Y1250500I-2000J0D01*
G01*
Y1170500D02*
G03*
X454000Y1170500I-2000J0D01*
G01*
X621500Y935000D02*
G03*
X621500Y935000I-2000J0D01*
G01*
Y965000D02*
G03*
X621500Y965000I-2000J0D01*
G01*
X718154Y528000D02*
G03*
X718154Y528000I-2000J0D01*
G01*
Y638000D02*
G03*
X718154Y638000I-2000J0D01*
G01*
Y618000D02*
G03*
X718154Y618000I-2000J0D01*
G01*
X588827Y528000D02*
G03*
X588827Y528000I-2000J0D01*
G01*
Y638000D02*
G03*
X588827Y638000I-2000J0D01*
G01*
Y618000D02*
G03*
X588827Y618000I-2000J0D01*
G01*
X847480D02*
G03*
X847480Y618000I-2000J0D01*
G01*
Y638000D02*
G03*
X847480Y638000I-2000J0D01*
G01*
Y528000D02*
G03*
X847480Y528000I-2000J0D01*
G01*
X514000Y1146000D02*
G03*
X514000Y1146000I-2000J0D01*
G01*
Y1116000D02*
G03*
X514000Y1116000I-2000J0D01*
G01*
X621500Y1146000D02*
G03*
X621500Y1146000I-2000J0D01*
G01*
Y1116000D02*
G03*
X621500Y1116000I-2000J0D01*
G01*
X454000Y1146000D02*
G03*
X454000Y1146000I-2000J0D01*
G01*
Y1116000D02*
G03*
X454000Y1116000I-2000J0D01*
G01*
M02*
