G04*
G04 #@! TF.GenerationSoftware,Altium Limited,Altium Designer,24.4.1 (13)*
G04*
G04 Layer_Color=128*
%FSLAX25Y25*%
%MOIN*%
G70*
G04*
G04 #@! TF.SameCoordinates,D6D0C77B-36A0-4D54-9E24-613302BCF265*
G04*
G04*
G04 #@! TF.FilePolarity,Positive*
G04*
G01*
G75*
%ADD15C,0.00500*%
D15*
X617307Y1170500D02*
X622031D01*
X619669Y1168138D02*
Y1172862D01*
X617307Y1250500D02*
X622031D01*
X619669Y1248138D02*
Y1252862D01*
X587307Y1250500D02*
X592031D01*
X589669Y1248138D02*
Y1252862D01*
X557307Y1250500D02*
X562031D01*
X559669Y1248138D02*
Y1252862D01*
X557307Y1170500D02*
X562031D01*
X559669Y1168138D02*
Y1172862D01*
X404520Y583000D02*
X419480D01*
X412000Y575520D02*
Y590480D01*
X494520Y583000D02*
X509480D01*
X502000Y575520D02*
Y590480D01*
X457118Y528000D02*
X461843D01*
X459480Y525638D02*
Y530362D01*
X457118Y638000D02*
X461843D01*
X459480Y635638D02*
Y640362D01*
X457118Y618000D02*
X461843D01*
X459480Y615638D02*
Y620362D01*
X814500Y964000D02*
X822500D01*
X818500Y960000D02*
Y968000D01*
X649146Y964000D02*
X657146D01*
X653146Y960000D02*
Y968000D01*
X876748Y1212193D02*
X882748D01*
X879748Y1209193D02*
Y1215193D01*
X876748Y1222193D02*
X882748D01*
X879748Y1219193D02*
Y1225193D01*
X876748Y1182193D02*
X882748D01*
X879748Y1179193D02*
Y1185193D01*
X876748Y1202193D02*
X882748D01*
X879748Y1199193D02*
Y1205193D01*
X854488Y1068500D02*
X865512D01*
X860000Y1062988D02*
Y1074012D01*
X854488Y1249350D02*
X865512D01*
X860000Y1243839D02*
Y1254862D01*
X876748Y1125657D02*
X882748D01*
X879748Y1122657D02*
Y1128658D01*
X876748Y1135658D02*
X882748D01*
X879748Y1132658D02*
Y1138657D01*
X876748Y1095658D02*
X882748D01*
X879748Y1092657D02*
Y1098658D01*
X876748Y1115658D02*
X882748D01*
X879748Y1112658D02*
Y1118657D01*
X876748Y915658D02*
X882748D01*
X879748Y912658D02*
Y918657D01*
X876748Y895658D02*
X882748D01*
X879748Y892657D02*
Y898658D01*
X876748Y935658D02*
X882748D01*
X879748Y932658D02*
Y938657D01*
X876748Y925657D02*
X882748D01*
X879748Y922657D02*
Y928658D01*
X854488Y1049350D02*
X865512D01*
X860000Y1043839D02*
Y1054862D01*
X854488Y868500D02*
X865512D01*
X860000Y862988D02*
Y874012D01*
X876748Y1002193D02*
X882748D01*
X879748Y999193D02*
Y1005193D01*
X876748Y982193D02*
X882748D01*
X879748Y979193D02*
Y985193D01*
X876748Y1022193D02*
X882748D01*
X879748Y1019193D02*
Y1025193D01*
X876748Y1012193D02*
X882748D01*
X879748Y1009193D02*
Y1015193D01*
X876748Y812193D02*
X882748D01*
X879748Y809193D02*
Y815193D01*
X876748Y822193D02*
X882748D01*
X879748Y819193D02*
Y825193D01*
X876748Y782193D02*
X882748D01*
X879748Y779193D02*
Y785193D01*
X876748Y802193D02*
X882748D01*
X879748Y799193D02*
Y805193D01*
X854488Y668500D02*
X865512D01*
X860000Y662988D02*
Y674012D01*
X854488Y849350D02*
X865512D01*
X860000Y843839D02*
Y854862D01*
X876748Y725658D02*
X882748D01*
X879748Y722657D02*
Y728657D01*
X876748Y735658D02*
X882748D01*
X879748Y732657D02*
Y738658D01*
X876748Y695657D02*
X882748D01*
X879748Y692658D02*
Y698658D01*
X876748Y715658D02*
X882748D01*
X879748Y712657D02*
Y718657D01*
X557638Y1116000D02*
X562362D01*
X560000Y1113638D02*
Y1118362D01*
X557638Y1146000D02*
X562362D01*
X560000Y1143638D02*
Y1148362D01*
X855047Y1753500D02*
X860953D01*
X858000Y1750547D02*
Y1756453D01*
X870047Y1733500D02*
X875953D01*
X873000Y1730547D02*
Y1736453D01*
X845047Y1733500D02*
X850953D01*
X848000Y1730547D02*
Y1736453D01*
X615236Y1751500D02*
X619764D01*
X617500Y1749236D02*
Y1753764D01*
X615236Y1741500D02*
X619764D01*
X617500Y1739236D02*
Y1743764D01*
X679236Y1741500D02*
X683764D01*
X681500Y1739236D02*
Y1743764D01*
X679236Y1751500D02*
X683764D01*
X681500Y1749236D02*
Y1753764D01*
X748622Y1572500D02*
X751378D01*
X750000Y1571122D02*
Y1573878D01*
X688622Y1572500D02*
X691378D01*
X690000Y1571122D02*
Y1573878D01*
X678622Y1572500D02*
X681378D01*
X680000Y1571122D02*
Y1573878D01*
X678622Y1532500D02*
X681378D01*
X680000Y1531122D02*
Y1533878D01*
X688622Y1532500D02*
X691378D01*
X690000Y1531122D02*
Y1533878D01*
X748622Y1532500D02*
X751378D01*
X750000Y1531122D02*
Y1533878D01*
X814500Y1167500D02*
X822500D01*
X818500Y1163500D02*
Y1171500D01*
X649146Y1167500D02*
X657146D01*
X653146Y1163500D02*
Y1171500D01*
X504931Y1619500D02*
X507817D01*
X506374Y1618057D02*
Y1620943D01*
X504931Y1609500D02*
X507817D01*
X506374Y1608057D02*
Y1610943D01*
X504931Y1599500D02*
X507817D01*
X506374Y1598057D02*
Y1600943D01*
X504931Y1589500D02*
X507817D01*
X506374Y1588057D02*
Y1590943D01*
X536183Y1589500D02*
X539069D01*
X537626Y1588057D02*
Y1590943D01*
X536183Y1599500D02*
X539069D01*
X537626Y1598057D02*
Y1600943D01*
X536183Y1609500D02*
X539069D01*
X537626Y1608057D02*
Y1610943D01*
X536183Y1619500D02*
X539069D01*
X537626Y1618057D02*
Y1620943D01*
X536183Y1672500D02*
X539069D01*
X537626Y1671057D02*
Y1673943D01*
X536183Y1662500D02*
X539069D01*
X537626Y1661057D02*
Y1663943D01*
X536183Y1652500D02*
X539069D01*
X537626Y1651057D02*
Y1653943D01*
X536183Y1642500D02*
X539069D01*
X537626Y1641057D02*
Y1643943D01*
X504931Y1642500D02*
X507817D01*
X506374Y1641057D02*
Y1643943D01*
X504931Y1652500D02*
X507817D01*
X506374Y1651057D02*
Y1653943D01*
X504931Y1662500D02*
X507817D01*
X506374Y1661057D02*
Y1663943D01*
X504931Y1672500D02*
X507817D01*
X506374Y1671057D02*
Y1673943D01*
X805502Y437500D02*
X813802D01*
X809652Y433350D02*
Y441650D01*
X825187Y437500D02*
X833487D01*
X829337Y433350D02*
Y441650D01*
X805502Y409941D02*
X813802D01*
X809652Y405791D02*
Y414091D01*
X825187Y409941D02*
X833487D01*
X829337Y405791D02*
Y414091D01*
X413850Y1423000D02*
X420150D01*
X417000Y1419850D02*
Y1426150D01*
X413850Y1443000D02*
X420150D01*
X417000Y1439850D02*
Y1446150D01*
X413850Y1463000D02*
X420150D01*
X417000Y1459850D02*
Y1466150D01*
X413850Y1483000D02*
X420150D01*
X417000Y1479850D02*
Y1486150D01*
X413850Y1503000D02*
X420150D01*
X417000Y1499850D02*
Y1506150D01*
X413850Y1523000D02*
X420150D01*
X417000Y1519850D02*
Y1526150D01*
X412350Y1297500D02*
X418650D01*
X415500Y1294350D02*
Y1300650D01*
X412350Y1312500D02*
X418650D01*
X415500Y1309350D02*
Y1315650D01*
X889850Y1022193D02*
X896150D01*
X893000Y1019043D02*
Y1025343D01*
X889850Y1002193D02*
X896150D01*
X893000Y999043D02*
Y1005343D01*
X889850Y735657D02*
X896150D01*
X893000Y732507D02*
Y738807D01*
X889850Y915657D02*
X896150D01*
X893000Y912507D02*
Y918807D01*
X889850Y715657D02*
X896150D01*
X893000Y712507D02*
Y718807D01*
X889850Y802193D02*
X896150D01*
X893000Y799043D02*
Y805343D01*
X889850Y935657D02*
X896150D01*
X893000Y932507D02*
Y938807D01*
X889850Y822193D02*
X896150D01*
X893000Y819043D02*
Y825343D01*
X889850Y1135657D02*
X896150D01*
X893000Y1132507D02*
Y1138807D01*
X889850Y1222193D02*
X896150D01*
X893000Y1219043D02*
Y1225343D01*
X889850Y1202193D02*
X896150D01*
X893000Y1199043D02*
Y1205343D01*
X889850Y1115657D02*
X896150D01*
X893000Y1112507D02*
Y1118807D01*
X403150Y527559D02*
X415748D01*
X409449Y521260D02*
Y533858D01*
X883465Y527559D02*
X896063D01*
X889764Y521260D02*
Y533858D01*
X408700Y1697500D02*
X412300D01*
X410500Y1695700D02*
Y1699300D01*
X418850Y1697450D02*
X422450D01*
X420650Y1695650D02*
Y1699250D01*
X418850Y1727450D02*
X422450D01*
X420650Y1725650D02*
Y1729250D01*
X418850Y1717450D02*
X422450D01*
X420650Y1715650D02*
Y1719250D01*
X408700Y1707500D02*
X412300D01*
X410500Y1705700D02*
Y1709300D01*
X418850Y1707450D02*
X422450D01*
X420650Y1705650D02*
Y1709250D01*
X418850Y1757450D02*
X422450D01*
X420650Y1755650D02*
Y1759250D01*
X419000Y1747400D02*
X422600D01*
X420800Y1745600D02*
Y1749200D01*
X408700Y1727500D02*
X412300D01*
X410500Y1725700D02*
Y1729300D01*
X408900Y1737600D02*
X412500D01*
X410700Y1735800D02*
Y1739400D01*
X408900Y1747500D02*
X412500D01*
X410700Y1745700D02*
Y1749300D01*
X408900Y1757500D02*
X412500D01*
X410700Y1755700D02*
Y1759300D01*
X408700Y1717500D02*
X412300D01*
X410500Y1715700D02*
Y1719300D01*
X418850Y1737450D02*
X422450D01*
X420650Y1735650D02*
Y1739250D01*
X435228Y1424000D02*
X438772D01*
X437000Y1422228D02*
Y1425772D01*
X435228Y1434000D02*
X438772D01*
X437000Y1432228D02*
Y1435772D01*
X435228Y1444000D02*
X438772D01*
X437000Y1442228D02*
Y1445772D01*
X435228Y1454000D02*
X438772D01*
X437000Y1452228D02*
Y1455772D01*
X435228Y1464000D02*
X438772D01*
X437000Y1462228D02*
Y1465772D01*
X435228Y1474000D02*
X438772D01*
X437000Y1472228D02*
Y1475772D01*
X435228Y1484000D02*
X438772D01*
X437000Y1482228D02*
Y1485772D01*
X435228Y1494000D02*
X438772D01*
X437000Y1492228D02*
Y1495772D01*
X435228Y1504000D02*
X438772D01*
X437000Y1502228D02*
Y1505772D01*
X435228Y1514000D02*
X438772D01*
X437000Y1512228D02*
Y1515772D01*
X435228Y1524000D02*
X438772D01*
X437000Y1522228D02*
Y1525772D01*
X435228Y1534000D02*
X438772D01*
X437000Y1532228D02*
Y1535772D01*
X435228Y1544000D02*
X438772D01*
X437000Y1542228D02*
Y1545772D01*
X435228Y1554000D02*
X438772D01*
X437000Y1552228D02*
Y1555772D01*
X435228Y1564000D02*
X438772D01*
X437000Y1562228D02*
Y1565772D01*
X435228Y1574000D02*
X438772D01*
X437000Y1572228D02*
Y1575772D01*
X435228Y1584000D02*
X438772D01*
X437000Y1582228D02*
Y1585772D01*
X435228Y1594000D02*
X438772D01*
X437000Y1592228D02*
Y1595772D01*
X435228Y1604000D02*
X438772D01*
X437000Y1602228D02*
Y1605772D01*
X435228Y1614000D02*
X438772D01*
X437000Y1612228D02*
Y1615772D01*
X435228Y1624000D02*
X438772D01*
X437000Y1622228D02*
Y1625772D01*
X435228Y1634000D02*
X438772D01*
X437000Y1632228D02*
Y1635772D01*
X454100Y741400D02*
X462900D01*
X458500Y737000D02*
Y745800D01*
X454100Y702000D02*
X462900D01*
X458500Y697600D02*
Y706400D01*
X413886Y1608000D02*
X420187D01*
X417036Y1604850D02*
Y1611150D01*
X623826Y1394500D02*
X630126D01*
X626976Y1391350D02*
Y1397650D01*
X413886Y1672500D02*
X420187D01*
X417036Y1669350D02*
Y1675650D01*
X557138Y935000D02*
X561862D01*
X559500Y932638D02*
Y937362D01*
X557138Y965000D02*
X561862D01*
X559500Y962638D02*
Y967362D01*
X881622Y1694000D02*
X884378D01*
X883000Y1692622D02*
Y1695378D01*
X821622Y1694000D02*
X824378D01*
X823000Y1692622D02*
Y1695378D01*
X811622Y1694000D02*
X814378D01*
X813000Y1692622D02*
Y1695378D01*
X811622Y1654000D02*
X814378D01*
X813000Y1652622D02*
Y1655378D01*
X821622Y1654000D02*
X824378D01*
X823000Y1652622D02*
Y1655378D01*
X881622Y1654000D02*
X884378D01*
X883000Y1652622D02*
Y1655378D01*
X882122Y1629500D02*
X884878D01*
X883500Y1628122D02*
Y1630878D01*
X822122Y1629500D02*
X824878D01*
X823500Y1628122D02*
Y1630878D01*
X812122Y1629500D02*
X814878D01*
X813500Y1628122D02*
Y1630878D01*
X812122Y1589500D02*
X814878D01*
X813500Y1588122D02*
Y1590878D01*
X822122Y1589500D02*
X824878D01*
X823500Y1588122D02*
Y1590878D01*
X882122Y1589500D02*
X884878D01*
X883500Y1588122D02*
Y1590878D01*
X882122Y1399500D02*
X884878D01*
X883500Y1398122D02*
Y1400878D01*
X822122Y1399500D02*
X824878D01*
X823500Y1398122D02*
Y1400878D01*
X812122Y1399500D02*
X814878D01*
X813500Y1398122D02*
Y1400878D01*
X812122Y1359500D02*
X814878D01*
X813500Y1358122D02*
Y1360878D01*
X822122Y1359500D02*
X824878D01*
X823500Y1358122D02*
Y1360878D01*
X882122Y1359500D02*
X884878D01*
X883500Y1358122D02*
Y1360878D01*
X683176Y437500D02*
X691476D01*
X687326Y433350D02*
Y441650D01*
X702861Y437500D02*
X711161D01*
X707011Y433350D02*
Y441650D01*
X683176Y409941D02*
X691476D01*
X687326Y405791D02*
Y414091D01*
X702861Y409941D02*
X711161D01*
X707011Y405791D02*
Y414091D01*
X449638Y935000D02*
X454362D01*
X452000Y932638D02*
Y937362D01*
X449638Y965000D02*
X454362D01*
X452000Y962638D02*
Y967362D01*
X877849Y490189D02*
X884149D01*
X880999Y487039D02*
Y493339D01*
X487900Y1410000D02*
X492100D01*
X490000Y1407900D02*
Y1412100D01*
X487900Y1430000D02*
X492100D01*
X490000Y1427900D02*
Y1432100D01*
X487900Y1450000D02*
X492100D01*
X490000Y1447900D02*
Y1452100D01*
X487900Y1460000D02*
X492100D01*
X490000Y1457900D02*
Y1462100D01*
X487900Y1470000D02*
X492100D01*
X490000Y1467900D02*
Y1472100D01*
X487900Y1480000D02*
X492100D01*
X490000Y1477900D02*
Y1482100D01*
X487900Y1440000D02*
X492100D01*
X490000Y1437900D02*
Y1442100D01*
X487900Y1420000D02*
X492100D01*
X490000Y1417900D02*
Y1422100D01*
X413886Y1651000D02*
X420187D01*
X417036Y1647850D02*
Y1654150D01*
X454100Y865900D02*
X462900D01*
X458500Y861500D02*
Y870300D01*
X454100Y826500D02*
X462900D01*
X458500Y822100D02*
Y830900D01*
X882122Y1514500D02*
X884878D01*
X883500Y1513122D02*
Y1515878D01*
X822122Y1514500D02*
X824878D01*
X823500Y1513122D02*
Y1515878D01*
X812122Y1514500D02*
X814878D01*
X813500Y1513122D02*
Y1515878D01*
X812122Y1474500D02*
X814878D01*
X813500Y1473122D02*
Y1475878D01*
X822122Y1474500D02*
X824878D01*
X823500Y1473122D02*
Y1475878D01*
X882122Y1474500D02*
X884878D01*
X883500Y1473122D02*
Y1475878D01*
X617307Y990000D02*
X622031D01*
X619669Y987638D02*
Y992362D01*
X617307Y1070000D02*
X622031D01*
X619669Y1067638D02*
Y1072362D01*
X587307Y1070000D02*
X592031D01*
X589669Y1067638D02*
Y1072362D01*
X557307Y1070000D02*
X562031D01*
X559669Y1067638D02*
Y1072362D01*
X557307Y990000D02*
X562031D01*
X559669Y987638D02*
Y992362D01*
X509638Y935000D02*
X514362D01*
X512000Y932638D02*
Y937362D01*
X509638Y965000D02*
X514362D01*
X512000Y962638D02*
Y967362D01*
X882122Y1572000D02*
X884878D01*
X883500Y1570622D02*
Y1573378D01*
X822122Y1572000D02*
X824878D01*
X823500Y1570622D02*
Y1573378D01*
X812122Y1572000D02*
X814878D01*
X813500Y1570622D02*
Y1573378D01*
X812122Y1532000D02*
X814878D01*
X813500Y1530622D02*
Y1533378D01*
X822122Y1532000D02*
X824878D01*
X823500Y1530622D02*
Y1533378D01*
X882122Y1532000D02*
X884878D01*
X883500Y1530622D02*
Y1533378D01*
X560850Y437500D02*
X569150D01*
X565000Y433350D02*
Y441650D01*
X580535Y437500D02*
X588835D01*
X584685Y433350D02*
Y441650D01*
X560850Y409941D02*
X569150D01*
X565000Y405791D02*
Y414091D01*
X580535Y409941D02*
X588835D01*
X584685Y405791D02*
Y414091D01*
X487728Y1742500D02*
X491272D01*
X489500Y1740728D02*
Y1744272D01*
X487728Y1732500D02*
X491272D01*
X489500Y1730728D02*
Y1734272D01*
X487728Y1722500D02*
X491272D01*
X489500Y1720728D02*
Y1724272D01*
X487728Y1712500D02*
X491272D01*
X489500Y1710728D02*
Y1714272D01*
X487728Y1702500D02*
X491272D01*
X489500Y1700728D02*
Y1704272D01*
X487728Y1692500D02*
X491272D01*
X489500Y1690728D02*
Y1694272D01*
X487728Y1682500D02*
X491272D01*
X489500Y1680728D02*
Y1684272D01*
X487728Y1672500D02*
X491272D01*
X489500Y1670728D02*
Y1674272D01*
X487728Y1662500D02*
X491272D01*
X489500Y1660728D02*
Y1664272D01*
X487728Y1652500D02*
X491272D01*
X489500Y1650728D02*
Y1654272D01*
X487728Y1642500D02*
X491272D01*
X489500Y1640728D02*
Y1644272D01*
X487728Y1632500D02*
X491272D01*
X489500Y1630728D02*
Y1634272D01*
X487728Y1622500D02*
X491272D01*
X489500Y1620728D02*
Y1624272D01*
X487728Y1612500D02*
X491272D01*
X489500Y1610728D02*
Y1614272D01*
X487728Y1602500D02*
X491272D01*
X489500Y1600728D02*
Y1604272D01*
X487728Y1592500D02*
X491272D01*
X489500Y1590728D02*
Y1594272D01*
X487728Y1582500D02*
X491272D01*
X489500Y1580728D02*
Y1584272D01*
X487728Y1572500D02*
X491272D01*
X489500Y1570728D02*
Y1574272D01*
X487728Y1562500D02*
X491272D01*
X489500Y1560728D02*
Y1564272D01*
X487728Y1552500D02*
X491272D01*
X489500Y1550728D02*
Y1554272D01*
X487728Y1542500D02*
X491272D01*
X489500Y1540728D02*
Y1544272D01*
X487728Y1532500D02*
X491272D01*
X489500Y1530728D02*
Y1534272D01*
X487728Y1522500D02*
X491272D01*
X489500Y1520728D02*
Y1524272D01*
X487728Y1512500D02*
X491272D01*
X489500Y1510728D02*
Y1514272D01*
X487728Y1502500D02*
X491272D01*
X489500Y1500728D02*
Y1504272D01*
X458000Y1362000D02*
X469000D01*
X463500Y1356500D02*
Y1367500D01*
X450450Y1374500D02*
X453950D01*
X452200Y1372750D02*
Y1376250D01*
X457950Y1379500D02*
X461450D01*
X459700Y1377750D02*
Y1381250D01*
X450450Y1384500D02*
X453950D01*
X452200Y1382750D02*
Y1386250D01*
X457950Y1389500D02*
X461450D01*
X459700Y1387750D02*
Y1391250D01*
X465450Y1384500D02*
X468950D01*
X467200Y1382750D02*
Y1386250D01*
X450450Y1394500D02*
X453950D01*
X452200Y1392750D02*
Y1396250D01*
X457950Y1399500D02*
X461450D01*
X459700Y1397750D02*
Y1401250D01*
X465450Y1394500D02*
X468950D01*
X467200Y1392750D02*
Y1396250D01*
X472950Y1379500D02*
X476450D01*
X474700Y1377750D02*
Y1381250D01*
X472950Y1389500D02*
X476450D01*
X474700Y1387750D02*
Y1391250D01*
X472950Y1399500D02*
X476450D01*
X474700Y1397750D02*
Y1401250D01*
X450450Y1434500D02*
X453950D01*
X452200Y1432750D02*
Y1436250D01*
X465450Y1434500D02*
X468950D01*
X467200Y1432750D02*
Y1436250D01*
X450450Y1424500D02*
X453950D01*
X452200Y1422750D02*
Y1426250D01*
X465450Y1424500D02*
X468950D01*
X467200Y1422750D02*
Y1426250D01*
X465450Y1444500D02*
X468950D01*
X467200Y1442750D02*
Y1446250D01*
X450450Y1444500D02*
X453950D01*
X452200Y1442750D02*
Y1446250D01*
X450450Y1454500D02*
X453950D01*
X452200Y1452750D02*
Y1456250D01*
X465450Y1454500D02*
X468950D01*
X467200Y1452750D02*
Y1456250D01*
X450450Y1464500D02*
X453950D01*
X452200Y1462750D02*
Y1466250D01*
X457950Y1469500D02*
X461450D01*
X459700Y1467750D02*
Y1471250D01*
X465450Y1464500D02*
X468950D01*
X467200Y1462750D02*
Y1466250D01*
X472950Y1469500D02*
X476450D01*
X474700Y1467750D02*
Y1471250D01*
X472950Y1479500D02*
X476450D01*
X474700Y1477750D02*
Y1481250D01*
X465450Y1474500D02*
X468950D01*
X467200Y1472750D02*
Y1476250D01*
X457950Y1479500D02*
X461450D01*
X459700Y1477750D02*
Y1481250D01*
X450450Y1474500D02*
X453950D01*
X452200Y1472750D02*
Y1476250D01*
X450450Y1484500D02*
X453950D01*
X452200Y1482750D02*
Y1486250D01*
X472950Y1489500D02*
X476450D01*
X474700Y1487750D02*
Y1491250D01*
X465450Y1484500D02*
X468950D01*
X467200Y1482750D02*
Y1486250D01*
X457950Y1489500D02*
X461450D01*
X459700Y1487750D02*
Y1491250D01*
X450450Y1494500D02*
X453950D01*
X452200Y1492750D02*
Y1496250D01*
X457950Y1499500D02*
X461450D01*
X459700Y1497750D02*
Y1501250D01*
X465450Y1494500D02*
X468950D01*
X467200Y1492750D02*
Y1496250D01*
X472950Y1499500D02*
X476450D01*
X474700Y1497750D02*
Y1501250D01*
X472950Y1529500D02*
X476450D01*
X474700Y1527750D02*
Y1531250D01*
X465450Y1524500D02*
X468950D01*
X467200Y1522750D02*
Y1526250D01*
X457950Y1529500D02*
X461450D01*
X459700Y1527750D02*
Y1531250D01*
X450450Y1524500D02*
X453950D01*
X452200Y1522750D02*
Y1526250D01*
X465450Y1534500D02*
X468950D01*
X467200Y1532750D02*
Y1536250D01*
X450450Y1534500D02*
X453950D01*
X452200Y1532750D02*
Y1536250D01*
X457950Y1539500D02*
X461450D01*
X459700Y1537750D02*
Y1541250D01*
X472950Y1539500D02*
X476450D01*
X474700Y1537750D02*
Y1541250D01*
X472950Y1549500D02*
X476450D01*
X474700Y1547750D02*
Y1551250D01*
X457950Y1549500D02*
X461450D01*
X459700Y1547750D02*
Y1551250D01*
X450450Y1544500D02*
X453950D01*
X452200Y1542750D02*
Y1546250D01*
X472950Y1559500D02*
X476450D01*
X474700Y1557750D02*
Y1561250D01*
X465450Y1554500D02*
X468950D01*
X467200Y1552750D02*
Y1556250D01*
X457950Y1559500D02*
X461450D01*
X459700Y1557750D02*
Y1561250D01*
X450450Y1554500D02*
X453950D01*
X452200Y1552750D02*
Y1556250D01*
X465450Y1564500D02*
X468950D01*
X467200Y1562750D02*
Y1566250D01*
X450450Y1564500D02*
X453950D01*
X452200Y1562750D02*
Y1566250D01*
X457950Y1569500D02*
X461450D01*
X459700Y1567750D02*
Y1571250D01*
X472950Y1569500D02*
X476450D01*
X474700Y1567750D02*
Y1571250D01*
X472950Y1579500D02*
X476450D01*
X474700Y1577750D02*
Y1581250D01*
X465450Y1574500D02*
X468950D01*
X467200Y1572750D02*
Y1576250D01*
X457950Y1579500D02*
X461450D01*
X459700Y1577750D02*
Y1581250D01*
X450450Y1574500D02*
X453950D01*
X452200Y1572750D02*
Y1576250D01*
X472950Y1589500D02*
X476450D01*
X474700Y1587750D02*
Y1591250D01*
X465450Y1584500D02*
X468950D01*
X467200Y1582750D02*
Y1586250D01*
X457950Y1589500D02*
X461450D01*
X459700Y1587750D02*
Y1591250D01*
X450450Y1584500D02*
X453950D01*
X452200Y1582750D02*
Y1586250D01*
X450450Y1594500D02*
X453950D01*
X452200Y1592750D02*
Y1596250D01*
X457950Y1599500D02*
X461450D01*
X459700Y1597750D02*
Y1601250D01*
X472950Y1599500D02*
X476450D01*
X474700Y1597750D02*
Y1601250D01*
X472950Y1609500D02*
X476450D01*
X474700Y1607750D02*
Y1611250D01*
X465450Y1604500D02*
X468950D01*
X467200Y1602750D02*
Y1606250D01*
X457950Y1609500D02*
X461450D01*
X459700Y1607750D02*
Y1611250D01*
X450450Y1604500D02*
X453950D01*
X452200Y1602750D02*
Y1606250D01*
X472950Y1619500D02*
X476450D01*
X474700Y1617750D02*
Y1621250D01*
X465450Y1614500D02*
X468950D01*
X467200Y1612750D02*
Y1616250D01*
X457950Y1619500D02*
X461450D01*
X459700Y1617750D02*
Y1621250D01*
X458000Y1672000D02*
X469000D01*
X463500Y1666500D02*
Y1677500D01*
X450450Y1614500D02*
X453950D01*
X452200Y1612750D02*
Y1616250D01*
X472950Y1629500D02*
X476450D01*
X474700Y1627750D02*
Y1631250D01*
X465450Y1624500D02*
X468950D01*
X467200Y1622750D02*
Y1626250D01*
X457950Y1629500D02*
X461450D01*
X459700Y1627750D02*
Y1631250D01*
X450450Y1624500D02*
X453950D01*
X452200Y1622750D02*
Y1626250D01*
X472950Y1639500D02*
X476450D01*
X474700Y1637750D02*
Y1641250D01*
X465450Y1634500D02*
X468950D01*
X467200Y1632750D02*
Y1636250D01*
X457950Y1639500D02*
X461450D01*
X459700Y1637750D02*
Y1641250D01*
X450450Y1634500D02*
X453950D01*
X452200Y1632750D02*
Y1636250D01*
X472950Y1649500D02*
X476450D01*
X474700Y1647750D02*
Y1651250D01*
X457950Y1649500D02*
X461450D01*
X459700Y1647750D02*
Y1651250D01*
X450450Y1644500D02*
X453950D01*
X452200Y1642750D02*
Y1646250D01*
X472950Y1659500D02*
X476450D01*
X474700Y1657750D02*
Y1661250D01*
X465450Y1654500D02*
X468950D01*
X467200Y1652750D02*
Y1656250D01*
X457950Y1659500D02*
X461450D01*
X459700Y1657750D02*
Y1661250D01*
X450450Y1654500D02*
X453950D01*
X452200Y1652750D02*
Y1656250D01*
X465450Y1374500D02*
X468950D01*
X467200Y1372750D02*
Y1376250D01*
X472950Y1459500D02*
X476450D01*
X474700Y1457750D02*
Y1461250D01*
X472950Y1429500D02*
X476450D01*
X474700Y1427750D02*
Y1431250D01*
X472950Y1449500D02*
X476450D01*
X474700Y1447750D02*
Y1451250D01*
X457950Y1459500D02*
X461450D01*
X459700Y1457750D02*
Y1461250D01*
X457950Y1429500D02*
X461450D01*
X459700Y1427750D02*
Y1431250D01*
X457950Y1449500D02*
X461450D01*
X459700Y1447750D02*
Y1451250D01*
X457950Y1439500D02*
X461450D01*
X459700Y1437750D02*
Y1441250D01*
X465450Y1544500D02*
X468950D01*
X467200Y1542750D02*
Y1546250D01*
X465450Y1644500D02*
X468950D01*
X467200Y1642750D02*
Y1646250D01*
X465450Y1594500D02*
X468950D01*
X467200Y1592750D02*
Y1596250D01*
X472950Y1439500D02*
X476450D01*
X474700Y1437750D02*
Y1441250D01*
X886350Y409941D02*
X894650D01*
X890500Y405791D02*
Y414091D01*
X866665Y409941D02*
X874965D01*
X870815Y405791D02*
Y414091D01*
X886350Y437500D02*
X894650D01*
X890500Y433350D02*
Y441650D01*
X866665Y437500D02*
X874965D01*
X870815Y433350D02*
Y441650D01*
X413886Y1629500D02*
X420187D01*
X417036Y1626350D02*
Y1632650D01*
X509638Y990000D02*
X514362D01*
X512000Y987638D02*
Y992362D01*
X509638Y1070000D02*
X514362D01*
X512000Y1067638D02*
Y1072362D01*
X479638Y1070000D02*
X484362D01*
X482000Y1067638D02*
Y1072362D01*
X449638Y1070000D02*
X454362D01*
X452000Y1067638D02*
Y1072362D01*
X449638Y990000D02*
X454362D01*
X452000Y987638D02*
Y992362D01*
X882122Y1342000D02*
X884878D01*
X883500Y1340622D02*
Y1343378D01*
X822122Y1342000D02*
X824878D01*
X823500Y1340622D02*
Y1343378D01*
X812122Y1342000D02*
X814878D01*
X813500Y1340622D02*
Y1343378D01*
X812122Y1302000D02*
X814878D01*
X813500Y1300622D02*
Y1303378D01*
X822122Y1302000D02*
X824878D01*
X823500Y1300622D02*
Y1303378D01*
X882122Y1302000D02*
X884878D01*
X883500Y1300622D02*
Y1303378D01*
X748622Y1637500D02*
X751378D01*
X750000Y1636122D02*
Y1638878D01*
X688622Y1637500D02*
X691378D01*
X690000Y1636122D02*
Y1638878D01*
X678622Y1637500D02*
X681378D01*
X680000Y1636122D02*
Y1638878D01*
X678622Y1597500D02*
X681378D01*
X680000Y1596122D02*
Y1598878D01*
X688622Y1597500D02*
X691378D01*
X690000Y1596122D02*
Y1598878D01*
X748622Y1597500D02*
X751378D01*
X750000Y1596122D02*
Y1598878D01*
X509638Y1170500D02*
X514362D01*
X512000Y1168138D02*
Y1172862D01*
X509638Y1250500D02*
X514362D01*
X512000Y1248138D02*
Y1252862D01*
X479638Y1250500D02*
X484362D01*
X482000Y1248138D02*
Y1252862D01*
X449638Y1250500D02*
X454362D01*
X452000Y1248138D02*
Y1252862D01*
X449638Y1170500D02*
X454362D01*
X452000Y1168138D02*
Y1172862D01*
X617138Y935000D02*
X621862D01*
X619500Y932638D02*
Y937362D01*
X617138Y965000D02*
X621862D01*
X619500Y962638D02*
Y967362D01*
X882122Y1457000D02*
X884878D01*
X883500Y1455622D02*
Y1458378D01*
X822122Y1457000D02*
X824878D01*
X823500Y1455622D02*
Y1458378D01*
X812122Y1457000D02*
X814878D01*
X813500Y1455622D02*
Y1458378D01*
X812122Y1417000D02*
X814878D01*
X813500Y1415622D02*
Y1418378D01*
X822122Y1417000D02*
X824878D01*
X823500Y1415622D02*
Y1418378D01*
X882122Y1417000D02*
X884878D01*
X883500Y1415622D02*
Y1418378D01*
X641698Y409941D02*
X649998D01*
X645848Y405791D02*
Y414091D01*
X622013Y409941D02*
X630313D01*
X626163Y405791D02*
Y414091D01*
X641698Y437500D02*
X649998D01*
X645848Y433350D02*
Y441650D01*
X622013Y437500D02*
X630313D01*
X626163Y433350D02*
Y441650D01*
X744339Y437500D02*
X752639D01*
X748489Y433350D02*
Y441650D01*
X764024Y437500D02*
X772324D01*
X768174Y433350D02*
Y441650D01*
X744339Y409941D02*
X752639D01*
X748489Y405791D02*
Y414091D01*
X764024Y409941D02*
X772324D01*
X768174Y405791D02*
Y414091D01*
X403150Y1275591D02*
X415748D01*
X409449Y1269291D02*
Y1281890D01*
X814500Y760500D02*
X822500D01*
X818500Y756500D02*
Y764500D01*
X649146Y760500D02*
X657146D01*
X653146Y756500D02*
Y764500D01*
X661193Y583000D02*
X676154D01*
X668673Y575520D02*
Y590480D01*
X751193Y583000D02*
X766153D01*
X758673Y575520D02*
Y590480D01*
X713791Y528000D02*
X718516D01*
X716154Y525638D02*
Y530362D01*
X713791Y638000D02*
X718516D01*
X716154Y635638D02*
Y640362D01*
X713791Y618000D02*
X718516D01*
X716154Y615638D02*
Y620362D01*
X531866Y583000D02*
X546827D01*
X539346Y575520D02*
Y590480D01*
X621866Y583000D02*
X636827D01*
X629346Y575520D02*
Y590480D01*
X584465Y528000D02*
X589189D01*
X586827Y525638D02*
Y530362D01*
X584465Y638000D02*
X589189D01*
X586827Y635638D02*
Y640362D01*
X584465Y618000D02*
X589189D01*
X586827Y615638D02*
Y620362D01*
X761417Y1748031D02*
X774016D01*
X767717Y1741732D02*
Y1754331D01*
X525197Y1748031D02*
X537795D01*
X531496Y1741732D02*
Y1754331D01*
X610885Y1280000D02*
X617185D01*
X614035Y1276850D02*
Y1283150D01*
X709885Y1278000D02*
X716185D01*
X713035Y1274850D02*
Y1281150D01*
X511885Y1280000D02*
X518185D01*
X515035Y1276850D02*
Y1283150D01*
X623826Y1508000D02*
X630126D01*
X626976Y1504850D02*
Y1511150D01*
X535826Y1508000D02*
X542126D01*
X538976Y1504850D02*
Y1511150D01*
X535826Y1394500D02*
X542126D01*
X538976Y1391350D02*
Y1397650D01*
X716326Y1508000D02*
X722626D01*
X719476Y1504850D02*
Y1511150D01*
X716326Y1394500D02*
X722626D01*
X719476Y1391350D02*
Y1397650D01*
X883465Y1275591D02*
X896063D01*
X889764Y1269291D02*
Y1281890D01*
X843118Y618000D02*
X847843D01*
X845480Y615638D02*
Y620362D01*
X843118Y638000D02*
X847843D01*
X845480Y635638D02*
Y640362D01*
X843118Y528000D02*
X847843D01*
X845480Y525638D02*
Y530362D01*
X880520Y583000D02*
X895480D01*
X888000Y575520D02*
Y590480D01*
X790520Y583000D02*
X805480D01*
X798000Y575520D02*
Y590480D01*
X435400Y1343000D02*
X439600D01*
X437500Y1340900D02*
Y1345100D01*
X435400Y1363000D02*
X439600D01*
X437500Y1360900D02*
Y1365100D01*
X435400Y1403000D02*
X439600D01*
X437500Y1400900D02*
Y1405100D01*
X435400Y1393000D02*
X439600D01*
X437500Y1390900D02*
Y1395100D01*
X435400Y1383000D02*
X439600D01*
X437500Y1380900D02*
Y1385100D01*
X435400Y1373000D02*
X439600D01*
X437500Y1370900D02*
Y1375100D01*
X435400Y1353000D02*
X439600D01*
X437500Y1350900D02*
Y1355100D01*
X435400Y1333000D02*
X439600D01*
X437500Y1330900D02*
Y1335100D01*
X628850Y1280000D02*
X635150D01*
X632000Y1276850D02*
Y1283150D01*
X509638Y1146000D02*
X514362D01*
X512000Y1143638D02*
Y1148362D01*
X509638Y1116000D02*
X514362D01*
X512000Y1113638D02*
Y1118362D01*
X617138Y1146000D02*
X621862D01*
X619500Y1143638D02*
Y1148362D01*
X617138Y1116000D02*
X621862D01*
X619500Y1113638D02*
Y1118362D01*
X449638Y1146000D02*
X454362D01*
X452000Y1143638D02*
Y1148362D01*
X449638Y1116000D02*
X454362D01*
X452000Y1113638D02*
Y1118362D01*
X529850Y1280000D02*
X536150D01*
X533000Y1276850D02*
Y1283150D01*
X577100Y826500D02*
X585900D01*
X581500Y822100D02*
Y830900D01*
X577100Y865900D02*
X585900D01*
X581500Y861500D02*
Y870300D01*
X577100Y702000D02*
X585900D01*
X581500Y697600D02*
Y706400D01*
X577100Y741400D02*
X585900D01*
X581500Y737000D02*
Y745800D01*
X816686Y490189D02*
X822986D01*
X819836Y487039D02*
Y493339D01*
X755523Y490189D02*
X761823D01*
X758673Y487039D02*
Y493339D01*
X572034Y490189D02*
X578334D01*
X575184Y487039D02*
Y493339D01*
X694360Y490189D02*
X700660D01*
X697510Y487039D02*
Y493339D01*
X633197Y490189D02*
X639497D01*
X636347Y487039D02*
Y493339D01*
X727815Y1278000D02*
X734115D01*
X730965Y1274850D02*
Y1281150D01*
X404350Y1179500D02*
X410650D01*
X407500Y1176350D02*
Y1182650D01*
X404350Y1202500D02*
X410650D01*
X407500Y1199350D02*
Y1205650D01*
X404350Y1225500D02*
X410650D01*
X407500Y1222350D02*
Y1228650D01*
X404350Y1246500D02*
X410650D01*
X407500Y1243350D02*
Y1249650D01*
X700400Y1036500D02*
X702000D01*
X701200Y1035700D02*
Y1037300D01*
X808200Y1290500D02*
X809800D01*
X809000Y1289700D02*
Y1291300D01*
X824200Y1107500D02*
X825800D01*
X825000Y1106700D02*
Y1108300D01*
X816700Y811000D02*
X818300D01*
X817500Y810200D02*
Y811800D01*
X816700Y805000D02*
X818300D01*
X817500Y804200D02*
Y805800D01*
X757700Y1529000D02*
X759300D01*
X758500Y1528200D02*
Y1529800D01*
X741700Y1447500D02*
X743300D01*
X742500Y1446700D02*
Y1448300D01*
X662200Y1406500D02*
X663800D01*
X663000Y1405700D02*
Y1407300D01*
X583200Y1445000D02*
X584800D01*
X584000Y1444200D02*
Y1445800D01*
X542200Y1476500D02*
X543800D01*
X543000Y1475700D02*
Y1477300D01*
X531500Y1347975D02*
X533100D01*
X532300Y1347175D02*
Y1348775D01*
X538700Y1349500D02*
X540300D01*
X539500Y1348700D02*
Y1350300D01*
X517200Y1348149D02*
X518800D01*
X518000Y1347349D02*
Y1348949D01*
X522197Y1347997D02*
X523797D01*
X522997Y1347197D02*
Y1348797D01*
X787200Y1233500D02*
X788800D01*
X788000Y1232700D02*
Y1234300D01*
X783200Y1231500D02*
X784800D01*
X784000Y1230700D02*
Y1232300D01*
X782700Y1003000D02*
X784300D01*
X783500Y1002200D02*
Y1003800D01*
X552700Y1273500D02*
X554300D01*
X553500Y1272700D02*
Y1274300D01*
X787200Y1209000D02*
X788800D01*
X788000Y1208200D02*
Y1209800D01*
X788700Y801500D02*
X790300D01*
X789500Y800700D02*
Y802300D01*
X785200Y1039200D02*
X786800D01*
X786000Y1038400D02*
Y1040000D01*
X787700Y1014000D02*
X789300D01*
X788500Y1013200D02*
Y1014800D01*
X784200Y1245000D02*
X785800D01*
X785000Y1244200D02*
Y1245800D01*
X733200Y1468000D02*
X734800D01*
X734000Y1467200D02*
Y1468800D01*
X613200Y1309000D02*
X614800D01*
X614000Y1308200D02*
Y1309800D01*
X625505Y1310200D02*
X627105D01*
X626305Y1309400D02*
Y1311000D01*
X628780Y1314000D02*
X630379D01*
X629579Y1313200D02*
Y1314800D01*
X568700Y1308500D02*
X570300D01*
X569500Y1307700D02*
Y1309300D01*
X649100Y1516000D02*
X651900D01*
X650500Y1514600D02*
Y1517400D01*
X711200Y1489000D02*
X712800D01*
X712000Y1488200D02*
Y1489800D01*
X564578Y1451122D02*
X566178D01*
X565378Y1450322D02*
Y1451922D01*
X822700Y1218500D02*
X824300D01*
X823500Y1217700D02*
Y1219300D01*
X514200Y1309000D02*
X515800D01*
X515000Y1308200D02*
Y1309800D01*
X646200Y1430500D02*
X647800D01*
X647000Y1429700D02*
Y1431300D01*
X784700Y1545000D02*
X786300D01*
X785500Y1544200D02*
Y1545800D01*
X627700Y1350500D02*
X629300D01*
X628500Y1349700D02*
Y1351300D01*
X547200Y1221000D02*
X548800D01*
X548000Y1220200D02*
Y1221800D01*
X785200Y1481000D02*
X786800D01*
X786000Y1480200D02*
Y1481800D01*
X743900Y1202300D02*
X745500D01*
X744700Y1201500D02*
Y1203100D01*
X757300Y1319750D02*
X758900D01*
X758100Y1318950D02*
Y1320550D01*
X609700Y1344500D02*
X611300D01*
X610500Y1343700D02*
Y1345300D01*
X726400Y1349500D02*
X728000D01*
X727200Y1348700D02*
Y1350300D01*
X604200Y1316000D02*
X605800D01*
X605000Y1315200D02*
Y1316800D01*
X798200Y1481500D02*
X799800D01*
X799000Y1480700D02*
Y1482300D01*
X802700Y1238000D02*
X804300D01*
X803500Y1237200D02*
Y1238800D01*
X787425Y824224D02*
X789024D01*
X788225Y823425D02*
Y825025D01*
X785271Y810500D02*
X786871D01*
X786071Y809700D02*
Y811300D01*
X802700Y1033500D02*
X804300D01*
X803500Y1032700D02*
Y1034300D01*
X784700Y1027500D02*
X786300D01*
X785500Y1026700D02*
Y1028300D01*
X785200Y1660500D02*
X786800D01*
X786000Y1659700D02*
Y1661300D01*
X785200Y1424000D02*
X786800D01*
X786000Y1423200D02*
Y1424800D01*
X688700Y1432000D02*
X690300D01*
X689500Y1431200D02*
Y1432800D01*
X512600Y1689300D02*
X514200D01*
X513400Y1688500D02*
Y1690100D01*
X700700Y832125D02*
X702300D01*
X701500Y831325D02*
Y832925D01*
X794200Y655000D02*
X795800D01*
X795000Y654200D02*
Y655800D01*
X784500Y832500D02*
X786100D01*
X785300Y831700D02*
Y833300D01*
X784500Y849900D02*
X786100D01*
X785300Y849100D02*
Y850700D01*
X655156Y1449000D02*
X656756D01*
X655956Y1448200D02*
Y1449800D01*
X510500Y1467300D02*
X512100D01*
X511300Y1466500D02*
Y1468100D01*
X649200Y1467300D02*
X650800D01*
X650000Y1466500D02*
Y1468100D01*
X721700Y1476000D02*
X723300D01*
X722500Y1475200D02*
Y1476800D01*
X586000Y683000D02*
X587600D01*
X586800Y682200D02*
Y683800D01*
X576500Y1331000D02*
X578100D01*
X577300Y1330200D02*
Y1331800D01*
X754700Y1504600D02*
X756300D01*
X755500Y1503800D02*
Y1505400D01*
X743900Y1351000D02*
X745500D01*
X744700Y1350200D02*
Y1351800D01*
X719300Y1328700D02*
X720900D01*
X720100Y1327900D02*
Y1329500D01*
X588800Y1431000D02*
X590400D01*
X589600Y1430200D02*
Y1431800D01*
X454900Y1207800D02*
X456500D01*
X455700Y1207000D02*
Y1208600D01*
X712000Y1347400D02*
X713600D01*
X712800Y1346600D02*
Y1348200D01*
X551600Y1449600D02*
X553200D01*
X552400Y1448800D02*
Y1450400D01*
X835544Y1253756D02*
X837144D01*
X836344Y1252956D02*
Y1254556D01*
X791700Y1673000D02*
X793300D01*
X792500Y1672200D02*
Y1673800D01*
M02*
