G04*
G04 #@! TF.GenerationSoftware,Altium Limited,Altium Designer,24.4.1 (13)*
G04*
G04 Layer_Color=32896*
%FSLAX25Y25*%
%MOIN*%
G70*
G04*
G04 #@! TF.SameCoordinates,D6D0C77B-36A0-4D54-9E24-613302BCF265*
G04*
G04*
G04 #@! TF.FilePolarity,Positive*
G04*
G01*
G75*
%ADD10C,0.01000*%
%ADD12C,0.00787*%
%ADD13C,0.00400*%
%ADD15C,0.00500*%
D10*
X772766Y1360791D02*
G03*
X772766Y1360791I-177J0D01*
G01*
X574766D02*
G03*
X574766Y1360791I-177J0D01*
G01*
X673766Y1361291D02*
G03*
X673766Y1361291I-177J0D01*
G01*
X652904D02*
G03*
X652904Y1361291I-177J0D01*
G01*
X751903Y1360791D02*
G03*
X751903Y1360791I-177J0D01*
G01*
X553766Y1360532D02*
G03*
X553766Y1360532I-177J0D01*
G01*
X822468Y1237028D02*
G03*
X822468Y1237028I-177J0D01*
G01*
X821469Y1196028D02*
G03*
X821469Y1196028I-177J0D01*
G01*
X822968Y830028D02*
G03*
X822968Y830028I-177J0D01*
G01*
X822468Y1033528D02*
G03*
X822468Y1033528I-177J0D01*
G01*
X821968Y789028D02*
G03*
X821968Y789028I-177J0D01*
G01*
X821469Y992528D02*
G03*
X821469Y992528I-177J0D01*
G01*
X809600Y668463D02*
X806268D01*
Y667630D01*
X809600Y664298D01*
Y663464D01*
X806268D01*
X804602D02*
X802936D01*
X803769D01*
Y668463D01*
X804602Y667630D01*
X797937Y663464D02*
Y668463D01*
X800436Y665964D01*
X797104D01*
X506400Y1207037D02*
X509732D01*
Y1207870D01*
X506400Y1211202D01*
Y1212035D01*
X509732D01*
X511398D02*
X513064D01*
X512231D01*
Y1207037D01*
X511398Y1207870D01*
X515564D02*
X516397Y1207037D01*
X518063D01*
X518896Y1207870D01*
Y1208703D01*
X518063Y1209536D01*
X517230D01*
X518063D01*
X518896Y1210369D01*
Y1211202D01*
X518063Y1212035D01*
X516397D01*
X515564Y1211202D01*
X705165Y1302999D02*
X701833D01*
Y1302166D01*
X705165Y1298834D01*
Y1298001D01*
X701833D01*
X696835Y1302999D02*
X700167D01*
Y1300500D01*
X698501Y1301333D01*
X697668D01*
X696835Y1300500D01*
Y1298834D01*
X697668Y1298001D01*
X699334D01*
X700167Y1298834D01*
X608165Y1303499D02*
X604833D01*
Y1302666D01*
X608165Y1299334D01*
Y1298501D01*
X604833D01*
X603167Y1302666D02*
X602334Y1303499D01*
X600668D01*
X599835Y1302666D01*
Y1301833D01*
X600668Y1301000D01*
X601501D01*
X600668D01*
X599835Y1300167D01*
Y1299334D01*
X600668Y1298501D01*
X602334D01*
X603167Y1299334D01*
X508332Y1302499D02*
X505000D01*
Y1301666D01*
X508332Y1298334D01*
Y1297501D01*
X505000D01*
X503334D02*
X501668D01*
X502501D01*
Y1302499D01*
X503334Y1301666D01*
X799831Y842001D02*
Y846999D01*
X797331D01*
X796498Y846166D01*
Y844500D01*
X797331Y843667D01*
X799831D01*
X798165D02*
X796498Y842001D01*
X794832D02*
X793166D01*
X793999D01*
Y846999D01*
X794832Y846166D01*
X790667Y842001D02*
X789001D01*
X789834D01*
Y846999D01*
X790667Y846166D01*
X786502D02*
X785669Y846999D01*
X784002D01*
X783169Y846166D01*
Y845333D01*
X784002Y844500D01*
X783169Y843667D01*
Y842834D01*
X784002Y842001D01*
X785669D01*
X786502Y842834D01*
Y843667D01*
X785669Y844500D01*
X786502Y845333D01*
Y846166D01*
X785669Y844500D02*
X784002D01*
X799831Y835001D02*
Y839999D01*
X797331D01*
X796498Y839166D01*
Y837500D01*
X797331Y836667D01*
X799831D01*
X798165D02*
X796498Y835001D01*
X794832D02*
X793166D01*
X793999D01*
Y839999D01*
X794832Y839166D01*
X790667Y835001D02*
X789001D01*
X789834D01*
Y839999D01*
X790667Y839166D01*
X786502Y839999D02*
X783169D01*
Y839166D01*
X786502Y835834D01*
Y835001D01*
X798831Y804501D02*
Y809499D01*
X796332D01*
X795498Y808666D01*
Y807000D01*
X796332Y806167D01*
X798831D01*
X797164D02*
X795498Y804501D01*
X793832D02*
X792166D01*
X792999D01*
Y809499D01*
X793832Y808666D01*
X789667Y804501D02*
X788001D01*
X788834D01*
Y809499D01*
X789667Y808666D01*
X783002Y804501D02*
Y809499D01*
X785502Y807000D01*
X782169D01*
X797498Y794001D02*
Y798999D01*
X794998D01*
X794165Y798166D01*
Y796500D01*
X794998Y795667D01*
X797498D01*
X795831D02*
X794165Y794001D01*
X792499D02*
X790833D01*
X791666D01*
Y798999D01*
X792499Y798166D01*
X788334Y794001D02*
X786668D01*
X787501D01*
Y798999D01*
X788334Y798166D01*
X784168Y794001D02*
X782502D01*
X783335D01*
Y798999D01*
X784168Y798166D01*
X799331Y1049501D02*
Y1054499D01*
X796832D01*
X795998Y1053666D01*
Y1052000D01*
X796832Y1051167D01*
X799331D01*
X797664D02*
X795998Y1049501D01*
X794332D02*
X792666D01*
X793499D01*
Y1054499D01*
X794332Y1053666D01*
X790167Y1049501D02*
X788501D01*
X789334D01*
Y1054499D01*
X790167Y1053666D01*
X786002D02*
X785169Y1054499D01*
X783502D01*
X782669Y1053666D01*
Y1050334D01*
X783502Y1049501D01*
X785169D01*
X786002Y1050334D01*
Y1053666D01*
X799247Y1041501D02*
Y1046499D01*
X796748D01*
X795915Y1045666D01*
Y1044000D01*
X796748Y1043167D01*
X799247D01*
X797581D02*
X795915Y1041501D01*
X794249D02*
X792583D01*
X793416D01*
Y1046499D01*
X794249Y1045666D01*
X790084D02*
X789250Y1046499D01*
X787584D01*
X786751Y1045666D01*
Y1042334D01*
X787584Y1041501D01*
X789250D01*
X790084Y1042334D01*
Y1045666D01*
X785085Y1042334D02*
X784252Y1041501D01*
X782586D01*
X781753Y1042334D01*
Y1045666D01*
X782586Y1046499D01*
X784252D01*
X785085Y1045666D01*
Y1044833D01*
X784252Y1044000D01*
X781753D01*
X798747Y1006001D02*
Y1010999D01*
X796248D01*
X795415Y1010166D01*
Y1008500D01*
X796248Y1007667D01*
X798747D01*
X797081D02*
X795415Y1006001D01*
X793749D02*
X792083D01*
X792916D01*
Y1010999D01*
X793749Y1010166D01*
X789583D02*
X788750Y1010999D01*
X787084D01*
X786251Y1010166D01*
Y1006834D01*
X787084Y1006001D01*
X788750D01*
X789583Y1006834D01*
Y1010166D01*
X781253Y1010999D02*
X782919Y1010166D01*
X784585Y1008500D01*
Y1006834D01*
X783752Y1006001D01*
X782086D01*
X781253Y1006834D01*
Y1007667D01*
X782086Y1008500D01*
X784585D01*
X798247Y995001D02*
Y999999D01*
X795748D01*
X794915Y999166D01*
Y997500D01*
X795748Y996667D01*
X798247D01*
X796581D02*
X794915Y995001D01*
X793249D02*
X791583D01*
X792416D01*
Y999999D01*
X793249Y999166D01*
X789083D02*
X788250Y999999D01*
X786584D01*
X785751Y999166D01*
Y995834D01*
X786584Y995001D01*
X788250D01*
X789083Y995834D01*
Y999166D01*
X784085D02*
X783252Y999999D01*
X781586D01*
X780753Y999166D01*
Y998333D01*
X781586Y997500D01*
X782419D01*
X781586D01*
X780753Y996667D01*
Y995834D01*
X781586Y995001D01*
X783252D01*
X784085Y995834D01*
X799247Y1251501D02*
Y1256499D01*
X796748D01*
X795915Y1255666D01*
Y1254000D01*
X796748Y1253167D01*
X799247D01*
X797581D02*
X795915Y1251501D01*
X794249D02*
X792583D01*
X793416D01*
Y1256499D01*
X794249Y1255666D01*
X790084D02*
X789250Y1256499D01*
X787584D01*
X786751Y1255666D01*
Y1252334D01*
X787584Y1251501D01*
X789250D01*
X790084Y1252334D01*
Y1255666D01*
X781753Y1251501D02*
X785085D01*
X781753Y1254833D01*
Y1255666D01*
X782586Y1256499D01*
X784252D01*
X785085Y1255666D01*
X799414Y1236501D02*
Y1241499D01*
X796915D01*
X796082Y1240666D01*
Y1239000D01*
X796915Y1238167D01*
X799414D01*
X797748D02*
X796082Y1236501D01*
X794416D02*
X792750D01*
X793583D01*
Y1241499D01*
X794416Y1240666D01*
X790250D02*
X789417Y1241499D01*
X787751D01*
X786918Y1240666D01*
Y1237334D01*
X787751Y1236501D01*
X789417D01*
X790250Y1237334D01*
Y1240666D01*
X785252Y1236501D02*
X783586D01*
X784419D01*
Y1241499D01*
X785252Y1240666D01*
X798665Y1212501D02*
Y1217499D01*
X796165D01*
X795332Y1216666D01*
Y1215000D01*
X796165Y1214167D01*
X798665D01*
X796998D02*
X795332Y1212501D01*
X793666Y1213334D02*
X792833Y1212501D01*
X791167D01*
X790334Y1213334D01*
Y1216666D01*
X791167Y1217499D01*
X792833D01*
X793666Y1216666D01*
Y1215833D01*
X792833Y1215000D01*
X790334D01*
X788668Y1216666D02*
X787835Y1217499D01*
X786169D01*
X785335Y1216666D01*
Y1215833D01*
X786169Y1215000D01*
X785335Y1214167D01*
Y1213334D01*
X786169Y1212501D01*
X787835D01*
X788668Y1213334D01*
Y1214167D01*
X787835Y1215000D01*
X788668Y1215833D01*
Y1216666D01*
X787835Y1215000D02*
X786169D01*
X797164Y1201001D02*
Y1205999D01*
X794665D01*
X793832Y1205166D01*
Y1203500D01*
X794665Y1202667D01*
X797164D01*
X795498D02*
X793832Y1201001D01*
X792166Y1201834D02*
X791333Y1201001D01*
X789667D01*
X788834Y1201834D01*
Y1205166D01*
X789667Y1205999D01*
X791333D01*
X792166Y1205166D01*
Y1204333D01*
X791333Y1203500D01*
X788834D01*
X783836Y1205999D02*
X787168D01*
Y1203500D01*
X785502Y1204333D01*
X784669D01*
X783836Y1203500D01*
Y1201834D01*
X784669Y1201001D01*
X786335D01*
X787168Y1201834D01*
X789600Y657700D02*
Y662698D01*
X787101D01*
X786268Y661865D01*
Y660199D01*
X787101Y659366D01*
X789600D01*
X787934D02*
X786268Y657700D01*
X784602Y658533D02*
X783769Y657700D01*
X782102D01*
X781269Y658533D01*
Y661865D01*
X782102Y662698D01*
X783769D01*
X784602Y661865D01*
Y661032D01*
X783769Y660199D01*
X781269D01*
X779603Y657700D02*
X777937D01*
X778770D01*
Y662698D01*
X779603Y661865D01*
X523800Y1217800D02*
Y1212802D01*
X526299D01*
X527132Y1213635D01*
Y1215301D01*
X526299Y1216134D01*
X523800D01*
X525466D02*
X527132Y1217800D01*
X528798Y1216967D02*
X529631Y1217800D01*
X531298D01*
X532131Y1216967D01*
Y1213635D01*
X531298Y1212802D01*
X529631D01*
X528798Y1213635D01*
Y1214468D01*
X529631Y1215301D01*
X532131D01*
X533797Y1213635D02*
X534630Y1212802D01*
X536296D01*
X537129Y1213635D01*
Y1216967D01*
X536296Y1217800D01*
X534630D01*
X533797Y1216967D01*
Y1213635D01*
X707664Y1340501D02*
Y1345499D01*
X705165D01*
X704332Y1344666D01*
Y1343000D01*
X705165Y1342167D01*
X707664D01*
X705998D02*
X704332Y1340501D01*
X700167D02*
Y1345499D01*
X702666Y1343000D01*
X699334D01*
X697668Y1344666D02*
X696835Y1345499D01*
X695169D01*
X694336Y1344666D01*
Y1343833D01*
X695169Y1343000D01*
X694336Y1342167D01*
Y1341334D01*
X695169Y1340501D01*
X696835D01*
X697668Y1341334D01*
Y1342167D01*
X696835Y1343000D01*
X697668Y1343833D01*
Y1344666D01*
X696835Y1343000D02*
X695169D01*
X764001Y1300336D02*
X768999D01*
Y1302835D01*
X768166Y1303668D01*
X766500D01*
X765667Y1302835D01*
Y1300336D01*
Y1302002D02*
X764001Y1303668D01*
Y1307833D02*
X768999D01*
X766500Y1305334D01*
Y1308666D01*
X768999Y1313665D02*
X768166Y1311998D01*
X766500Y1310332D01*
X764834D01*
X764001Y1311165D01*
Y1312831D01*
X764834Y1313665D01*
X765667D01*
X766500Y1312831D01*
Y1310332D01*
X768164Y1348501D02*
Y1353499D01*
X765665D01*
X764832Y1352666D01*
Y1351000D01*
X765665Y1350167D01*
X768164D01*
X766498D02*
X764832Y1348501D01*
X760667D02*
Y1353499D01*
X763166Y1351000D01*
X759834D01*
X754836Y1353499D02*
X758168D01*
Y1351000D01*
X756502Y1351833D01*
X755669D01*
X754836Y1351000D01*
Y1349334D01*
X755669Y1348501D01*
X757335D01*
X758168Y1349334D01*
X746001Y1325336D02*
X750999D01*
Y1327835D01*
X750166Y1328668D01*
X748500D01*
X747667Y1327835D01*
Y1325336D01*
Y1327002D02*
X746001Y1328668D01*
Y1332833D02*
X750999D01*
X748500Y1330334D01*
Y1333666D01*
X750166Y1335332D02*
X750999Y1336165D01*
Y1337831D01*
X750166Y1338665D01*
X749333D01*
X748500Y1337831D01*
Y1336998D01*
Y1337831D01*
X747667Y1338665D01*
X746834D01*
X746001Y1337831D01*
Y1336165D01*
X746834Y1335332D01*
X724664Y1367501D02*
Y1372499D01*
X722165D01*
X721332Y1371666D01*
Y1370000D01*
X722165Y1369167D01*
X724664D01*
X722998D02*
X721332Y1367501D01*
X717167D02*
Y1372499D01*
X719666Y1370000D01*
X716334D01*
X711336Y1367501D02*
X714668D01*
X711336Y1370833D01*
Y1371666D01*
X712169Y1372499D01*
X713835D01*
X714668Y1371666D01*
X750165Y1317001D02*
Y1321999D01*
X747665D01*
X746832Y1321166D01*
Y1319500D01*
X747665Y1318667D01*
X750165D01*
X748498D02*
X746832Y1317001D01*
X742667D02*
Y1321999D01*
X745166Y1319500D01*
X741834D01*
X740168Y1321166D02*
X739335Y1321999D01*
X737669D01*
X736835Y1321166D01*
Y1317834D01*
X737669Y1317001D01*
X739335D01*
X740168Y1317834D01*
Y1321166D01*
X679999Y1332664D02*
X675001D01*
Y1330165D01*
X675834Y1329332D01*
X677500D01*
X678333Y1330165D01*
Y1332664D01*
Y1330998D02*
X679999Y1329332D01*
X675834Y1327666D02*
X675001Y1326833D01*
Y1325167D01*
X675834Y1324334D01*
X676667D01*
X677500Y1325167D01*
Y1326000D01*
Y1325167D01*
X678333Y1324334D01*
X679166D01*
X679999Y1325167D01*
Y1326833D01*
X679166Y1327666D01*
Y1322668D02*
X679999Y1321835D01*
Y1320169D01*
X679166Y1319335D01*
X675834D01*
X675001Y1320169D01*
Y1321835D01*
X675834Y1322668D01*
X676667D01*
X677500Y1321835D01*
Y1319335D01*
X698665Y1367001D02*
Y1371999D01*
X696165D01*
X695332Y1371166D01*
Y1369500D01*
X696165Y1368667D01*
X698665D01*
X696998D02*
X695332Y1367001D01*
X693666Y1371166D02*
X692833Y1371999D01*
X691167D01*
X690334Y1371166D01*
Y1370333D01*
X691167Y1369500D01*
X692000D01*
X691167D01*
X690334Y1368667D01*
Y1367834D01*
X691167Y1367001D01*
X692833D01*
X693666Y1367834D01*
X688668Y1371166D02*
X687835Y1371999D01*
X686169D01*
X685335Y1371166D01*
Y1370333D01*
X686169Y1369500D01*
X685335Y1368667D01*
Y1367834D01*
X686169Y1367001D01*
X687835D01*
X688668Y1367834D01*
Y1368667D01*
X687835Y1369500D01*
X688668Y1370333D01*
Y1371166D01*
X687835Y1369500D02*
X686169D01*
X606665Y1341501D02*
Y1346499D01*
X604165D01*
X603332Y1345666D01*
Y1344000D01*
X604165Y1343167D01*
X606665D01*
X604998D02*
X603332Y1341501D01*
X601666Y1345666D02*
X600833Y1346499D01*
X599167D01*
X598334Y1345666D01*
Y1344833D01*
X599167Y1344000D01*
X600000D01*
X599167D01*
X598334Y1343167D01*
Y1342334D01*
X599167Y1341501D01*
X600833D01*
X601666Y1342334D01*
X596668Y1346499D02*
X593335D01*
Y1345666D01*
X596668Y1342334D01*
Y1341501D01*
X668665Y1317501D02*
Y1322499D01*
X666165D01*
X665332Y1321666D01*
Y1320000D01*
X666165Y1319167D01*
X668665D01*
X666998D02*
X665332Y1317501D01*
X663666Y1321666D02*
X662833Y1322499D01*
X661167D01*
X660334Y1321666D01*
Y1320833D01*
X661167Y1320000D01*
X662000D01*
X661167D01*
X660334Y1319167D01*
Y1318334D01*
X661167Y1317501D01*
X662833D01*
X663666Y1318334D01*
X655336Y1322499D02*
X658668D01*
Y1320000D01*
X657002Y1320833D01*
X656169D01*
X655336Y1320000D01*
Y1318334D01*
X656169Y1317501D01*
X657835D01*
X658668Y1318334D01*
X669165Y1349001D02*
Y1353999D01*
X666665D01*
X665832Y1353166D01*
Y1351500D01*
X666665Y1350667D01*
X669165D01*
X667498D02*
X665832Y1349001D01*
X664166Y1353166D02*
X663333Y1353999D01*
X661667D01*
X660834Y1353166D01*
Y1352333D01*
X661667Y1351500D01*
X662500D01*
X661667D01*
X660834Y1350667D01*
Y1349834D01*
X661667Y1349001D01*
X663333D01*
X664166Y1349834D01*
X656669Y1349001D02*
Y1353999D01*
X659168Y1351500D01*
X655835D01*
X651164Y1349001D02*
Y1353999D01*
X648665D01*
X647832Y1353166D01*
Y1351500D01*
X648665Y1350667D01*
X651164D01*
X649498D02*
X647832Y1349001D01*
X646166Y1353166D02*
X645333Y1353999D01*
X643667D01*
X642834Y1353166D01*
Y1352333D01*
X643667Y1351500D01*
X644500D01*
X643667D01*
X642834Y1350667D01*
Y1349834D01*
X643667Y1349001D01*
X645333D01*
X646166Y1349834D01*
X637836Y1349001D02*
X641168D01*
X637836Y1352333D01*
Y1353166D01*
X638669Y1353999D01*
X640335D01*
X641168Y1353166D01*
X624831Y1367501D02*
Y1372499D01*
X622332D01*
X621499Y1371666D01*
Y1370000D01*
X622332Y1369167D01*
X624831D01*
X623165D02*
X621499Y1367501D01*
X619833Y1371666D02*
X619000Y1372499D01*
X617334D01*
X616501Y1371666D01*
Y1370833D01*
X617334Y1370000D01*
X618167D01*
X617334D01*
X616501Y1369167D01*
Y1368334D01*
X617334Y1367501D01*
X619000D01*
X619833Y1368334D01*
X614835Y1367501D02*
X613168D01*
X614002D01*
Y1372499D01*
X614835Y1371666D01*
X650665Y1317001D02*
Y1321999D01*
X648165D01*
X647332Y1321166D01*
Y1319500D01*
X648165Y1318667D01*
X650665D01*
X648998D02*
X647332Y1317001D01*
X642334D02*
X645666D01*
X642334Y1320333D01*
Y1321166D01*
X643167Y1321999D01*
X644833D01*
X645666Y1321166D01*
X640668Y1317834D02*
X639835Y1317001D01*
X638169D01*
X637335Y1317834D01*
Y1321166D01*
X638169Y1321999D01*
X639835D01*
X640668Y1321166D01*
Y1320333D01*
X639835Y1319500D01*
X637335D01*
X594001Y1322336D02*
X598999D01*
Y1324835D01*
X598166Y1325668D01*
X596500D01*
X595667Y1324835D01*
Y1322336D01*
Y1324002D02*
X594001Y1325668D01*
Y1330666D02*
Y1327334D01*
X597333Y1330666D01*
X598166D01*
X598999Y1329833D01*
Y1328167D01*
X598166Y1327334D01*
Y1332332D02*
X598999Y1333165D01*
Y1334831D01*
X598166Y1335664D01*
X597333D01*
X596500Y1334831D01*
X595667Y1335664D01*
X594834D01*
X594001Y1334831D01*
Y1333165D01*
X594834Y1332332D01*
X595667D01*
X596500Y1333165D01*
X597333Y1332332D01*
X598166D01*
X596500Y1333165D02*
Y1334831D01*
X599664Y1367501D02*
Y1372499D01*
X597165D01*
X596332Y1371666D01*
Y1370000D01*
X597165Y1369167D01*
X599664D01*
X597998D02*
X596332Y1367501D01*
X591334D02*
X594666D01*
X591334Y1370833D01*
Y1371666D01*
X592167Y1372499D01*
X593833D01*
X594666Y1371666D01*
X589668Y1372499D02*
X586336D01*
Y1371666D01*
X589668Y1368334D01*
Y1367501D01*
X512164Y1341501D02*
Y1346499D01*
X509665D01*
X508832Y1345666D01*
Y1344000D01*
X509665Y1343167D01*
X512164D01*
X510498D02*
X508832Y1341501D01*
X503834D02*
X507166D01*
X503834Y1344833D01*
Y1345666D01*
X504667Y1346499D01*
X506333D01*
X507166Y1345666D01*
X498836Y1346499D02*
X500502Y1345666D01*
X502168Y1344000D01*
Y1342334D01*
X501335Y1341501D01*
X499669D01*
X498836Y1342334D01*
Y1343167D01*
X499669Y1344000D01*
X502168D01*
X570164Y1317501D02*
Y1322499D01*
X567665D01*
X566832Y1321666D01*
Y1320000D01*
X567665Y1319167D01*
X570164D01*
X568498D02*
X566832Y1317501D01*
X561834D02*
X565166D01*
X561834Y1320833D01*
Y1321666D01*
X562667Y1322499D01*
X564333D01*
X565166Y1321666D01*
X557669Y1317501D02*
Y1322499D01*
X560168Y1320000D01*
X556836D01*
X566001Y1329335D02*
X570999D01*
Y1331835D01*
X570166Y1332668D01*
X568500D01*
X567667Y1331835D01*
Y1329335D01*
Y1331002D02*
X566001Y1332668D01*
Y1337666D02*
Y1334334D01*
X569333Y1337666D01*
X570166D01*
X570999Y1336833D01*
Y1335167D01*
X570166Y1334334D01*
Y1339332D02*
X570999Y1340165D01*
Y1341831D01*
X570166Y1342665D01*
X569333D01*
X568500Y1341831D01*
Y1340998D01*
Y1341831D01*
X567667Y1342665D01*
X566834D01*
X566001Y1341831D01*
Y1340165D01*
X566834Y1339332D01*
X548501Y1330669D02*
X553499D01*
Y1333168D01*
X552666Y1334001D01*
X551000D01*
X550167Y1333168D01*
Y1330669D01*
Y1332335D02*
X548501Y1334001D01*
Y1338999D02*
Y1335667D01*
X551833Y1338999D01*
X552666D01*
X553499Y1338166D01*
Y1336500D01*
X552666Y1335667D01*
X548501Y1340665D02*
Y1342332D01*
Y1341498D01*
X553499D01*
X552666Y1340665D01*
X531665Y1367001D02*
Y1371999D01*
X529165D01*
X528332Y1371166D01*
Y1369500D01*
X529165Y1368667D01*
X531665D01*
X529998D02*
X528332Y1367001D01*
X523334D02*
X526666D01*
X523334Y1370333D01*
Y1371166D01*
X524167Y1371999D01*
X525833D01*
X526666Y1371166D01*
X521668D02*
X520835Y1371999D01*
X519169D01*
X518335Y1371166D01*
Y1367834D01*
X519169Y1367001D01*
X520835D01*
X521668Y1367834D01*
Y1371166D01*
X550748Y1317001D02*
Y1321999D01*
X548249D01*
X547416Y1321166D01*
Y1319500D01*
X548249Y1318667D01*
X550748D01*
X549082D02*
X547416Y1317001D01*
X545750D02*
X544083D01*
X544916D01*
Y1321999D01*
X545750Y1321166D01*
X541584D02*
X540751Y1321999D01*
X539085D01*
X538252Y1321166D01*
Y1320333D01*
X539085Y1319500D01*
X538252Y1318667D01*
Y1317834D01*
X539085Y1317001D01*
X540751D01*
X541584Y1317834D01*
Y1318667D01*
X540751Y1319500D01*
X541584Y1320333D01*
Y1321166D01*
X540751Y1319500D02*
X539085D01*
X495248Y1341501D02*
Y1346499D01*
X492749D01*
X491916Y1345666D01*
Y1344000D01*
X492749Y1343167D01*
X495248D01*
X493582D02*
X491916Y1341501D01*
X490250D02*
X488584D01*
X489417D01*
Y1346499D01*
X490250Y1345666D01*
X486084Y1346499D02*
X482752D01*
Y1345666D01*
X486084Y1342334D01*
Y1341501D01*
X506248Y1367501D02*
Y1372499D01*
X503749D01*
X502916Y1371666D01*
Y1370000D01*
X503749Y1369167D01*
X506248D01*
X504582D02*
X502916Y1367501D01*
X501250D02*
X499583D01*
X500417D01*
Y1372499D01*
X501250Y1371666D01*
X493752Y1372499D02*
X495418Y1371666D01*
X497084Y1370000D01*
Y1368334D01*
X496251Y1367501D01*
X494585D01*
X493752Y1368334D01*
Y1369167D01*
X494585Y1370000D01*
X497084D01*
X829248Y857501D02*
Y862499D01*
X826749D01*
X825916Y861666D01*
Y860000D01*
X826749Y859167D01*
X829248D01*
X827582D02*
X825916Y857501D01*
X824250D02*
X822583D01*
X823417D01*
Y862499D01*
X824250Y861666D01*
X816752Y862499D02*
X820084D01*
Y860000D01*
X818418Y860833D01*
X817585D01*
X816752Y860000D01*
Y858334D01*
X817585Y857501D01*
X819251D01*
X820084Y858334D01*
X719748Y834001D02*
Y838999D01*
X717249D01*
X716416Y838166D01*
Y836500D01*
X717249Y835667D01*
X719748D01*
X718082D02*
X716416Y834001D01*
X714750D02*
X713084D01*
X713916D01*
Y838999D01*
X714750Y838166D01*
X708085Y834001D02*
Y838999D01*
X710584Y836500D01*
X707252D01*
X696248Y816001D02*
Y820999D01*
X693749D01*
X692916Y820166D01*
Y818500D01*
X693749Y817667D01*
X696248D01*
X694582D02*
X692916Y816001D01*
X691250D02*
X689583D01*
X690416D01*
Y820999D01*
X691250Y820166D01*
X687084D02*
X686251Y820999D01*
X684585D01*
X683752Y820166D01*
Y819333D01*
X684585Y818500D01*
X685418D01*
X684585D01*
X683752Y817667D01*
Y816834D01*
X684585Y816001D01*
X686251D01*
X687084Y816834D01*
X718248Y796501D02*
Y801499D01*
X715749D01*
X714916Y800666D01*
Y799000D01*
X715749Y798167D01*
X718248D01*
X716582D02*
X714916Y796501D01*
X713250D02*
X711584D01*
X712417D01*
Y801499D01*
X713250Y800666D01*
X705752Y796501D02*
X709084D01*
X705752Y799833D01*
Y800666D01*
X706585Y801499D01*
X708251D01*
X709084Y800666D01*
X813437Y824200D02*
Y829198D01*
X810938D01*
X810105Y828365D01*
Y826699D01*
X810938Y825866D01*
X813437D01*
X811771D02*
X810105Y824200D01*
X808439D02*
X806773D01*
X807605D01*
Y829198D01*
X808439Y828365D01*
X804273Y824200D02*
X802607D01*
X803440D01*
Y829198D01*
X804273Y828365D01*
X828748Y1061501D02*
Y1066499D01*
X826249D01*
X825416Y1065666D01*
Y1064000D01*
X826249Y1063167D01*
X828748D01*
X827082D02*
X825416Y1061501D01*
X823750D02*
X822083D01*
X822917D01*
Y1066499D01*
X823750Y1065666D01*
X819584D02*
X818751Y1066499D01*
X817085D01*
X816252Y1065666D01*
Y1062334D01*
X817085Y1061501D01*
X818751D01*
X819584Y1062334D01*
Y1065666D01*
X719165Y1037501D02*
Y1042499D01*
X716666D01*
X715833Y1041666D01*
Y1040000D01*
X716666Y1039167D01*
X719165D01*
X717499D02*
X715833Y1037501D01*
X714167Y1038334D02*
X713334Y1037501D01*
X711668D01*
X710835Y1038334D01*
Y1041666D01*
X711668Y1042499D01*
X713334D01*
X714167Y1041666D01*
Y1040833D01*
X713334Y1040000D01*
X710835D01*
X706665Y1027501D02*
Y1032499D01*
X704166D01*
X703333Y1031666D01*
Y1030000D01*
X704166Y1029167D01*
X706665D01*
X704999D02*
X703333Y1027501D01*
X701667Y1031666D02*
X700834Y1032499D01*
X699168D01*
X698335Y1031666D01*
Y1030833D01*
X699168Y1030000D01*
X698335Y1029167D01*
Y1028334D01*
X699168Y1027501D01*
X700834D01*
X701667Y1028334D01*
Y1029167D01*
X700834Y1030000D01*
X701667Y1030833D01*
Y1031666D01*
X700834Y1030000D02*
X699168D01*
X728165Y1008001D02*
Y1012999D01*
X725666D01*
X724833Y1012166D01*
Y1010500D01*
X725666Y1009667D01*
X728165D01*
X726499D02*
X724833Y1008001D01*
X723167Y1012999D02*
X719835D01*
Y1012166D01*
X723167Y1008834D01*
Y1008001D01*
X813665Y1026001D02*
Y1030999D01*
X811166D01*
X810333Y1030166D01*
Y1028500D01*
X811166Y1027667D01*
X813665D01*
X811999D02*
X810333Y1026001D01*
X805335Y1030999D02*
X807001Y1030166D01*
X808667Y1028500D01*
Y1026834D01*
X807834Y1026001D01*
X806168D01*
X805335Y1026834D01*
Y1027667D01*
X806168Y1028500D01*
X808667D01*
X824665Y1264501D02*
Y1269499D01*
X822166D01*
X821333Y1268666D01*
Y1267000D01*
X822166Y1266167D01*
X824665D01*
X822999D02*
X821333Y1264501D01*
X816335Y1269499D02*
X819667D01*
Y1267000D01*
X818001Y1267833D01*
X817168D01*
X816335Y1267000D01*
Y1265334D01*
X817168Y1264501D01*
X818834D01*
X819667Y1265334D01*
X719165Y1241001D02*
Y1245999D01*
X716666D01*
X715833Y1245166D01*
Y1243500D01*
X716666Y1242667D01*
X719165D01*
X717499D02*
X715833Y1241001D01*
X711668D02*
Y1245999D01*
X714167Y1243500D01*
X710835D01*
X706165Y1231001D02*
Y1235999D01*
X703666D01*
X702833Y1235166D01*
Y1233500D01*
X703666Y1232667D01*
X706165D01*
X704499D02*
X702833Y1231001D01*
X701167Y1235166D02*
X700334Y1235999D01*
X698668D01*
X697835Y1235166D01*
Y1234333D01*
X698668Y1233500D01*
X699501D01*
X698668D01*
X697835Y1232667D01*
Y1231834D01*
X698668Y1231001D01*
X700334D01*
X701167Y1231834D01*
X727665Y1212001D02*
Y1216999D01*
X725166D01*
X724333Y1216166D01*
Y1214500D01*
X725166Y1213667D01*
X727665D01*
X725999D02*
X724333Y1212001D01*
X719335D02*
X722667D01*
X719335Y1215333D01*
Y1216166D01*
X720168Y1216999D01*
X721834D01*
X722667Y1216166D01*
X813332Y1230001D02*
Y1234999D01*
X810833D01*
X810000Y1234166D01*
Y1232500D01*
X810833Y1231667D01*
X813332D01*
X811666D02*
X810000Y1230001D01*
X808334D02*
X806668D01*
X807501D01*
Y1234999D01*
X808334Y1234166D01*
X729748Y1314999D02*
X728082D01*
X728915D01*
Y1310001D01*
X729748D01*
X728082D01*
X722250Y1314166D02*
X723083Y1314999D01*
X724750D01*
X725583Y1314166D01*
Y1310834D01*
X724750Y1310001D01*
X723083D01*
X722250Y1310834D01*
X717252Y1314999D02*
X718918Y1314166D01*
X720584Y1312500D01*
Y1310834D01*
X719751Y1310001D01*
X718085D01*
X717252Y1310834D01*
Y1311667D01*
X718085Y1312500D01*
X720584D01*
X624248Y1352999D02*
X622582D01*
X623415D01*
Y1348001D01*
X624248D01*
X622582D01*
X616750Y1352166D02*
X617584Y1352999D01*
X619250D01*
X620083Y1352166D01*
Y1348834D01*
X619250Y1348001D01*
X617584D01*
X616750Y1348834D01*
X611752Y1352999D02*
X615084D01*
Y1350500D01*
X613418Y1351333D01*
X612585D01*
X611752Y1350500D01*
Y1348834D01*
X612585Y1348001D01*
X614251D01*
X615084Y1348834D01*
X520252Y1310001D02*
X521918D01*
X521085D01*
Y1314999D01*
X520252D01*
X521918D01*
X527750Y1310834D02*
X526917Y1310001D01*
X525250D01*
X524417Y1310834D01*
Y1314166D01*
X525250Y1314999D01*
X526917D01*
X527750Y1314166D01*
X531915Y1314999D02*
Y1310001D01*
X529416Y1312500D01*
X532748D01*
X736000Y795202D02*
X737666D01*
X736833D01*
Y800200D01*
X736000D01*
X737666D01*
X743498Y796035D02*
X742664Y795202D01*
X740998D01*
X740165Y796035D01*
Y799367D01*
X740998Y800200D01*
X742664D01*
X743498Y799367D01*
X745164Y796035D02*
X745997Y795202D01*
X747663D01*
X748496Y796035D01*
Y796868D01*
X747663Y797701D01*
X746830D01*
X747663D01*
X748496Y798534D01*
Y799367D01*
X747663Y800200D01*
X745997D01*
X745164Y799367D01*
X735500Y998702D02*
X737166D01*
X736333D01*
Y1003700D01*
X735500D01*
X737166D01*
X742998Y999535D02*
X742165Y998702D01*
X740498D01*
X739665Y999535D01*
Y1002867D01*
X740498Y1003700D01*
X742165D01*
X742998Y1002867D01*
X747996Y1003700D02*
X744664D01*
X747996Y1000368D01*
Y999535D01*
X747163Y998702D01*
X745497D01*
X744664Y999535D01*
X730585Y1203501D02*
X732251D01*
X731418D01*
Y1208499D01*
X730585D01*
X732251D01*
X738083Y1204334D02*
X737250Y1203501D01*
X735583D01*
X734750Y1204334D01*
Y1207666D01*
X735583Y1208499D01*
X737250D01*
X738083Y1207666D01*
X739749Y1208499D02*
X741415D01*
X740582D01*
Y1203501D01*
X739749Y1204334D01*
X772278Y1374658D02*
Y1369660D01*
X769779D01*
X768946Y1370493D01*
Y1373825D01*
X769779Y1374658D01*
X772278D01*
X767280Y1369660D02*
X765614D01*
X766447D01*
Y1374658D01*
X767280Y1373825D01*
X760615Y1369660D02*
Y1374658D01*
X763115Y1372159D01*
X759782D01*
X751416Y1374658D02*
Y1369660D01*
X748917D01*
X748084Y1370493D01*
Y1373825D01*
X748917Y1374658D01*
X751416D01*
X746418Y1369660D02*
X744752D01*
X745585D01*
Y1374658D01*
X746418Y1373825D01*
X742252D02*
X741419Y1374658D01*
X739753D01*
X738920Y1373825D01*
Y1372992D01*
X739753Y1372159D01*
X740586D01*
X739753D01*
X738920Y1371326D01*
Y1370493D01*
X739753Y1369660D01*
X741419D01*
X742252Y1370493D01*
X673278Y1375158D02*
Y1370160D01*
X670779D01*
X669946Y1370993D01*
Y1374325D01*
X670779Y1375158D01*
X673278D01*
X668280Y1370160D02*
X666614D01*
X667447D01*
Y1375158D01*
X668280Y1374325D01*
X664115Y1370160D02*
X662449D01*
X663282D01*
Y1375158D01*
X664115Y1374325D01*
X652416Y1375158D02*
Y1370160D01*
X649917D01*
X649084Y1370993D01*
Y1374325D01*
X649917Y1375158D01*
X652416D01*
X647418Y1370160D02*
X645752D01*
X646585D01*
Y1375158D01*
X647418Y1374325D01*
X643252D02*
X642419Y1375158D01*
X640753D01*
X639920Y1374325D01*
Y1370993D01*
X640753Y1370160D01*
X642419D01*
X643252Y1370993D01*
Y1374325D01*
X572665Y1373999D02*
Y1369001D01*
X570166D01*
X569333Y1369834D01*
Y1373166D01*
X570166Y1373999D01*
X572665D01*
X567667Y1373166D02*
X566834Y1373999D01*
X565168D01*
X564335Y1373166D01*
Y1372333D01*
X565168Y1371500D01*
X564335Y1370667D01*
Y1369834D01*
X565168Y1369001D01*
X566834D01*
X567667Y1369834D01*
Y1370667D01*
X566834Y1371500D01*
X567667Y1372333D01*
Y1373166D01*
X566834Y1371500D02*
X565168D01*
X553165Y1373999D02*
Y1369001D01*
X550666D01*
X549833Y1369834D01*
Y1373166D01*
X550666Y1373999D01*
X553165D01*
X548167D02*
X544835D01*
Y1373166D01*
X548167Y1369834D01*
Y1369001D01*
X828165Y854999D02*
Y850001D01*
X825666D01*
X824833Y850834D01*
Y854166D01*
X825666Y854999D01*
X828165D01*
X819835D02*
X821501Y854166D01*
X823167Y852500D01*
Y850834D01*
X822334Y850001D01*
X820668D01*
X819835Y850834D01*
Y851667D01*
X820668Y852500D01*
X823167D01*
X820165Y789999D02*
Y785001D01*
X817666D01*
X816833Y785834D01*
Y789166D01*
X817666Y789999D01*
X820165D01*
X811835D02*
X815167D01*
Y787500D01*
X813501Y788333D01*
X812668D01*
X811835Y787500D01*
Y785834D01*
X812668Y785001D01*
X814334D01*
X815167Y785834D01*
X827665Y1058499D02*
Y1053501D01*
X825166D01*
X824333Y1054334D01*
Y1057666D01*
X825166Y1058499D01*
X827665D01*
X820168Y1053501D02*
Y1058499D01*
X822667Y1056000D01*
X819335D01*
X827665Y1017499D02*
Y1012501D01*
X825166D01*
X824333Y1013334D01*
Y1016666D01*
X825166Y1017499D01*
X827665D01*
X822667Y1016666D02*
X821834Y1017499D01*
X820168D01*
X819335Y1016666D01*
Y1015833D01*
X820168Y1015000D01*
X821001D01*
X820168D01*
X819335Y1014167D01*
Y1013334D01*
X820168Y1012501D01*
X821834D01*
X822667Y1013334D01*
X827665Y1261999D02*
Y1257001D01*
X825166D01*
X824333Y1257834D01*
Y1261166D01*
X825166Y1261999D01*
X827665D01*
X819335Y1257001D02*
X822667D01*
X819335Y1260333D01*
Y1261166D01*
X820168Y1261999D01*
X821834D01*
X822667Y1261166D01*
X819332Y1196499D02*
Y1191501D01*
X816833D01*
X816000Y1192334D01*
Y1195666D01*
X816833Y1196499D01*
X819332D01*
X814334Y1191501D02*
X812668D01*
X813501D01*
Y1196499D01*
X814334Y1195666D01*
X778916Y858666D02*
X779749Y859499D01*
X781415D01*
X782248Y858666D01*
Y855334D01*
X781415Y854501D01*
X779749D01*
X778916Y855334D01*
X777250Y854501D02*
X775584D01*
X776416D01*
Y859499D01*
X777250Y858666D01*
X769752Y854501D02*
X773084D01*
X769752Y857833D01*
Y858666D01*
X770585Y859499D01*
X772251D01*
X773084Y858666D01*
X716083Y828666D02*
X716916Y829499D01*
X718582D01*
X719415Y828666D01*
Y825334D01*
X718582Y824501D01*
X716916D01*
X716083Y825334D01*
X714417Y824501D02*
X712750D01*
X713584D01*
Y829499D01*
X714417Y828666D01*
X710251Y824501D02*
X708585D01*
X709418D01*
Y829499D01*
X710251Y828666D01*
X692916Y847166D02*
X693749Y847999D01*
X695415D01*
X696248Y847166D01*
Y843834D01*
X695415Y843001D01*
X693749D01*
X692916Y843834D01*
X691250Y843001D02*
X689583D01*
X690416D01*
Y847999D01*
X691250Y847166D01*
X687084D02*
X686251Y847999D01*
X684585D01*
X683752Y847166D01*
Y843834D01*
X684585Y843001D01*
X686251D01*
X687084Y843834D01*
Y847166D01*
X796333Y827166D02*
X797166Y827999D01*
X798832D01*
X799665Y827166D01*
Y823834D01*
X798832Y823001D01*
X797166D01*
X796333Y823834D01*
X794667D02*
X793834Y823001D01*
X792168D01*
X791335Y823834D01*
Y827166D01*
X792168Y827999D01*
X793834D01*
X794667Y827166D01*
Y826333D01*
X793834Y825500D01*
X791335D01*
X777833Y1062166D02*
X778666Y1062999D01*
X780332D01*
X781165Y1062166D01*
Y1058834D01*
X780332Y1058001D01*
X778666D01*
X777833Y1058834D01*
X776167Y1062166D02*
X775334Y1062999D01*
X773668D01*
X772835Y1062166D01*
Y1061333D01*
X773668Y1060500D01*
X772835Y1059667D01*
Y1058834D01*
X773668Y1058001D01*
X775334D01*
X776167Y1058834D01*
Y1059667D01*
X775334Y1060500D01*
X776167Y1061333D01*
Y1062166D01*
X775334Y1060500D02*
X773668D01*
X715333Y1032166D02*
X716166Y1032999D01*
X717832D01*
X718665Y1032166D01*
Y1028834D01*
X717832Y1028001D01*
X716166D01*
X715333Y1028834D01*
X713667Y1032999D02*
X710335D01*
Y1032166D01*
X713667Y1028834D01*
Y1028001D01*
X692333Y1050166D02*
X693166Y1050999D01*
X694832D01*
X695665Y1050166D01*
Y1046834D01*
X694832Y1046001D01*
X693166D01*
X692333Y1046834D01*
X687335Y1050999D02*
X689001Y1050166D01*
X690667Y1048500D01*
Y1046834D01*
X689834Y1046001D01*
X688168D01*
X687335Y1046834D01*
Y1047667D01*
X688168Y1048500D01*
X690667D01*
X794833Y1030666D02*
X795666Y1031499D01*
X797332D01*
X798165Y1030666D01*
Y1027334D01*
X797332Y1026501D01*
X795666D01*
X794833Y1027334D01*
X789835Y1031499D02*
X793167D01*
Y1029000D01*
X791501Y1029833D01*
X790668D01*
X789835Y1029000D01*
Y1027334D01*
X790668Y1026501D01*
X792334D01*
X793167Y1027334D01*
X778333Y1265166D02*
X779166Y1265999D01*
X780832D01*
X781665Y1265166D01*
Y1261834D01*
X780832Y1261001D01*
X779166D01*
X778333Y1261834D01*
X774168Y1261001D02*
Y1265999D01*
X776667Y1263500D01*
X773335D01*
X715333Y1235666D02*
X716166Y1236499D01*
X717832D01*
X718665Y1235666D01*
Y1232334D01*
X717832Y1231501D01*
X716166D01*
X715333Y1232334D01*
X713667Y1235666D02*
X712834Y1236499D01*
X711168D01*
X710335Y1235666D01*
Y1234833D01*
X711168Y1234000D01*
X712001D01*
X711168D01*
X710335Y1233167D01*
Y1232334D01*
X711168Y1231501D01*
X712834D01*
X713667Y1232334D01*
X702833Y1245666D02*
X703666Y1246499D01*
X705332D01*
X706165Y1245666D01*
Y1242334D01*
X705332Y1241501D01*
X703666D01*
X702833Y1242334D01*
X697835Y1241501D02*
X701167D01*
X697835Y1244833D01*
Y1245666D01*
X698668Y1246499D01*
X700334D01*
X701167Y1245666D01*
X795000Y1233666D02*
X795833Y1234499D01*
X797499D01*
X798332Y1233666D01*
Y1230334D01*
X797499Y1229501D01*
X795833D01*
X795000Y1230334D01*
X793334Y1229501D02*
X791668D01*
X792501D01*
Y1234499D01*
X793334Y1233666D01*
D12*
X712240Y1252500D02*
G03*
X712240Y1252500I-197J0D01*
G01*
X784154Y1263500D02*
G03*
X784154Y1263500I-197J0D01*
G01*
X784197Y1224000D02*
G03*
X784197Y1224000I-197J0D01*
G01*
X784697Y817000D02*
G03*
X784697Y817000I-197J0D01*
G01*
X712740Y845500D02*
G03*
X712740Y845500I-197J0D01*
G01*
X784654Y856500D02*
G03*
X784654Y856500I-197J0D01*
G01*
X784154Y1060000D02*
G03*
X784154Y1060000I-197J0D01*
G01*
X712240Y1049000D02*
G03*
X712240Y1049000I-197J0D01*
G01*
X784197Y1020500D02*
G03*
X784197Y1020500I-197J0D01*
G01*
X622500Y1305763D02*
X632736Y1305783D01*
X610787Y1295744D02*
X632736D01*
X523500Y1305263D02*
X533736Y1305283D01*
X511787Y1295244D02*
X533736D01*
X721500Y1305263D02*
X731736Y1305283D01*
X709787Y1295244D02*
X731736D01*
X517000Y1229035D02*
X517020Y1218799D01*
X506980D02*
Y1240748D01*
X809020Y634752D02*
Y656701D01*
X798980D02*
X799000Y646464D01*
X614854Y1325500D02*
Y1336500D01*
Y1325500D02*
X634146D01*
Y1336500D01*
X614854D02*
X634146D01*
X614000Y1338496D02*
Y1344500D01*
X713854Y1325177D02*
Y1336177D01*
Y1325177D02*
X733146D01*
Y1336177D01*
X713854D02*
X733146D01*
X713000Y1338173D02*
Y1344177D01*
X515854Y1325000D02*
Y1336000D01*
Y1325000D02*
X535146D01*
Y1336000D01*
X515854D02*
X535146D01*
X515000Y1337996D02*
Y1344000D01*
X807500Y1251933D02*
Y1256067D01*
X807437Y1242433D02*
Y1246567D01*
X806874Y1211433D02*
Y1215567D01*
X806937Y1201433D02*
Y1205567D01*
Y1221933D02*
Y1226067D01*
X807500Y1261433D02*
Y1265567D01*
X735323Y1007500D02*
X743000D01*
X745500Y1008224D02*
Y1048776D01*
X770500D01*
Y1008224D02*
Y1048776D01*
X745500Y1008224D02*
X770500D01*
X807437Y814933D02*
Y819067D01*
X807374Y804433D02*
Y808567D01*
X808000Y854433D02*
Y858567D01*
X807437Y1038933D02*
Y1043067D01*
Y794433D02*
Y798567D01*
X808000Y844933D02*
Y849067D01*
X807937Y835433D02*
Y839567D01*
X806937Y997933D02*
Y1002067D01*
X807500Y1048433D02*
Y1052567D01*
Y1057933D02*
Y1062067D01*
X806874Y1007933D02*
Y1012067D01*
X806937Y1018433D02*
Y1022567D01*
X735823Y804000D02*
X743500D01*
X746000Y804724D02*
Y845276D01*
X771000D01*
Y804724D02*
Y845276D01*
X746000Y804724D02*
X771000D01*
X735323Y1211000D02*
X743000D01*
X745500Y1211724D02*
Y1252276D01*
X770500D01*
Y1211724D02*
Y1252276D01*
X745500Y1211724D02*
X770500D01*
D13*
X705000Y1217500D02*
X710000D01*
X705000Y1211500D02*
X710000D01*
X705000Y1222500D02*
X710000D01*
X705000Y1228500D02*
X710000D01*
X721500Y1243500D02*
Y1248500D01*
X727500Y1243500D02*
Y1248500D01*
X705000Y1008000D02*
X710000D01*
X705000Y1014000D02*
X710000D01*
X705000Y1025000D02*
X710000D01*
X705000Y1019000D02*
X710000D01*
X727500Y1040000D02*
Y1045000D01*
X721500Y1040000D02*
Y1045000D01*
X705500Y810500D02*
X710500D01*
X705500Y804500D02*
X710500D01*
X705500Y815500D02*
X710500D01*
X705500Y821500D02*
X710500D01*
X722000Y836500D02*
Y841500D01*
X728000Y836500D02*
Y841500D01*
X493500Y1363000D02*
X498500D01*
X493500Y1357000D02*
X498500D01*
X486100Y1326000D02*
Y1331000D01*
X492100Y1326000D02*
Y1331000D01*
X545600Y1301500D02*
Y1306500D01*
X539600Y1301500D02*
Y1306500D01*
X519500Y1363000D02*
X524500D01*
X519500Y1357000D02*
X524500D01*
X539600Y1333000D02*
Y1338000D01*
X545600Y1333000D02*
Y1338000D01*
X557100Y1333000D02*
Y1338000D01*
X563100Y1333000D02*
Y1338000D01*
Y1301500D02*
Y1306500D01*
X557100Y1301500D02*
Y1306500D01*
X509100Y1326000D02*
Y1331000D01*
X503100Y1326000D02*
Y1331000D01*
X592500Y1357500D02*
X597500D01*
X592500Y1363500D02*
X597500D01*
X591100Y1326500D02*
Y1331500D01*
X585100Y1326500D02*
Y1331500D01*
X638600Y1302000D02*
Y1307000D01*
X644600Y1302000D02*
Y1307000D01*
X618500Y1357500D02*
X623500D01*
X618500Y1363500D02*
X623500D01*
X644600Y1333500D02*
Y1338500D01*
X638600Y1333500D02*
Y1338500D01*
X655900Y1333500D02*
Y1338500D01*
X661900Y1333500D02*
Y1338500D01*
X656100Y1302000D02*
Y1307000D01*
X662100Y1302000D02*
Y1307000D01*
X602100Y1326500D02*
Y1331500D01*
X608100Y1326500D02*
Y1331500D01*
X691500Y1363000D02*
X696500D01*
X691500Y1357000D02*
X696500D01*
X684100Y1326000D02*
Y1331000D01*
X690100Y1326000D02*
Y1331000D01*
X743600Y1301500D02*
Y1306500D01*
X737600Y1301500D02*
Y1306500D01*
X717500Y1363000D02*
X722500D01*
X717500Y1357000D02*
X722500D01*
X737600Y1333000D02*
Y1338000D01*
X743600Y1333000D02*
Y1338000D01*
X755100Y1333000D02*
Y1338000D01*
X761100Y1333000D02*
Y1338000D01*
Y1301500D02*
Y1306500D01*
X755100Y1301500D02*
Y1306500D01*
X707100Y1326000D02*
Y1331000D01*
X701100Y1326000D02*
Y1331000D01*
X530000Y1228500D02*
Y1233500D01*
X524000Y1228500D02*
Y1233500D01*
X789500Y642000D02*
Y647000D01*
X783500Y642000D02*
Y647000D01*
D15*
X697000Y1210500D02*
X718000D01*
X697000D02*
Y1218500D01*
X718000D01*
Y1210500D02*
Y1218500D01*
Y1221500D02*
Y1229500D01*
X697000D02*
X718000D01*
X697000Y1221500D02*
Y1229500D01*
Y1221500D02*
X718000D01*
X728500Y1235500D02*
Y1256500D01*
X720500Y1235500D02*
X728500D01*
X720500D02*
Y1256500D01*
X728500D01*
X718000Y1007000D02*
Y1015000D01*
X697000D02*
X718000D01*
X697000Y1007000D02*
Y1015000D01*
Y1007000D02*
X718000D01*
X697000Y1018000D02*
X718000D01*
X697000D02*
Y1026000D01*
X718000D01*
Y1018000D02*
Y1026000D01*
X720500Y1053000D02*
X728500D01*
X720500Y1032000D02*
Y1053000D01*
Y1032000D02*
X728500D01*
Y1053000D01*
X697500Y803500D02*
X718500D01*
X697500D02*
Y811500D01*
X718500D01*
Y803500D02*
Y811500D01*
Y814500D02*
Y822500D01*
X697500D02*
X718500D01*
X697500Y814500D02*
Y822500D01*
Y814500D02*
X718500D01*
X729000Y828500D02*
Y849500D01*
X721000Y828500D02*
X729000D01*
X721000D02*
Y849500D01*
X729000D01*
X485500Y1356000D02*
Y1364000D01*
Y1356000D02*
X506500D01*
Y1364000D01*
X485500D02*
X506500D01*
X493100Y1318000D02*
Y1339000D01*
X485100Y1318000D02*
X493100D01*
X485100D02*
Y1339000D01*
X493100D01*
X538600Y1314500D02*
X546600D01*
X538600Y1293500D02*
Y1314500D01*
Y1293500D02*
X546600D01*
Y1314500D01*
X511500Y1356000D02*
Y1364000D01*
Y1356000D02*
X532500D01*
Y1364000D01*
X511500D02*
X532500D01*
X546600Y1325000D02*
Y1346000D01*
X538600Y1325000D02*
X546600D01*
X538600D02*
Y1346000D01*
X546600D01*
X564100Y1325000D02*
Y1346000D01*
X556100Y1325000D02*
X564100D01*
X556100D02*
Y1346000D01*
X564100D01*
X556100Y1314500D02*
X564100D01*
X556100Y1293500D02*
Y1314500D01*
Y1293500D02*
X564100D01*
Y1314500D01*
X502100Y1339000D02*
X510100D01*
X502100Y1318000D02*
Y1339000D01*
Y1318000D02*
X510100D01*
Y1339000D01*
X584500Y1364500D02*
X605500D01*
Y1356500D02*
Y1364500D01*
X584500Y1356500D02*
X605500D01*
X584500D02*
Y1364500D01*
X584100Y1339500D02*
X592100D01*
X584100Y1318500D02*
Y1339500D01*
Y1318500D02*
X592100D01*
Y1339500D01*
X645600Y1294000D02*
Y1315000D01*
X637600Y1294000D02*
X645600D01*
X637600D02*
Y1315000D01*
X645600D01*
X610500Y1364500D02*
X631500D01*
Y1356500D02*
Y1364500D01*
X610500Y1356500D02*
X631500D01*
X610500D02*
Y1364500D01*
X637600Y1346500D02*
X645600D01*
X637600Y1325500D02*
Y1346500D01*
Y1325500D02*
X645600D01*
Y1346500D01*
X654900Y1325500D02*
X662900D01*
Y1346500D01*
X654900D02*
X662900D01*
X654900Y1325500D02*
Y1346500D01*
X663100Y1294000D02*
Y1315000D01*
X655100Y1294000D02*
X663100D01*
X655100D02*
Y1315000D01*
X663100D01*
X609100Y1318500D02*
Y1339500D01*
X601100Y1318500D02*
X609100D01*
X601100D02*
Y1339500D01*
X609100D01*
X683500Y1356000D02*
Y1364000D01*
Y1356000D02*
X704500D01*
Y1364000D01*
X683500D02*
X704500D01*
X691100Y1318000D02*
Y1339000D01*
X683100Y1318000D02*
X691100D01*
X683100D02*
Y1339000D01*
X691100D01*
X736600Y1314500D02*
X744600D01*
X736600Y1293500D02*
Y1314500D01*
Y1293500D02*
X744600D01*
Y1314500D01*
X709500Y1356000D02*
Y1364000D01*
Y1356000D02*
X730500D01*
Y1364000D01*
X709500D02*
X730500D01*
X744600Y1325000D02*
Y1346000D01*
X736600Y1325000D02*
X744600D01*
X736600D02*
Y1346000D01*
X744600D01*
X762100Y1325000D02*
Y1346000D01*
X754100Y1325000D02*
X762100D01*
X754100D02*
Y1346000D01*
X762100D01*
X754100Y1314500D02*
X762100D01*
X754100Y1293500D02*
Y1314500D01*
Y1293500D02*
X762100D01*
Y1314500D01*
X700100Y1339000D02*
X708100D01*
X700100Y1318000D02*
Y1339000D01*
Y1318000D02*
X708100D01*
Y1339000D01*
X523000Y1241500D02*
X531000D01*
X523000Y1220500D02*
Y1241500D01*
Y1220500D02*
X531000D01*
Y1241500D01*
X782500Y634000D02*
Y655000D01*
X790500D01*
Y634000D02*
Y655000D01*
X782500Y634000D02*
X790500D01*
X720500Y1221768D02*
Y1233768D01*
X728500D01*
Y1221768D02*
Y1233768D01*
X720500Y1221768D02*
X728500D01*
X712043Y1248500D02*
Y1251000D01*
X697543Y1248500D02*
X712043D01*
X697543D02*
Y1256500D01*
X712043D01*
Y1254000D02*
Y1256500D01*
X800709Y1250063D02*
X814291D01*
X800709D02*
Y1257937D01*
X814291Y1250063D02*
Y1257937D01*
X800709D02*
X814291D01*
X800646Y1240563D02*
X814228D01*
X800646D02*
Y1248437D01*
X814228Y1240563D02*
Y1248437D01*
X800646D02*
X814228D01*
X800083Y1209563D02*
X813665D01*
X800083D02*
Y1217437D01*
X813665Y1209563D02*
Y1217437D01*
X800083D02*
X813665D01*
X800146Y1199563D02*
X813728D01*
X800146D02*
Y1207437D01*
X813728Y1199563D02*
Y1207437D01*
X800146D02*
X813728D01*
X800146Y1227937D02*
X813728D01*
Y1220063D02*
Y1227937D01*
X800146Y1220063D02*
Y1227937D01*
Y1220063D02*
X813728D01*
X800709Y1267437D02*
X814291D01*
Y1259563D02*
Y1267437D01*
X800709Y1259563D02*
Y1267437D01*
Y1259563D02*
X814291D01*
X783957Y1265000D02*
Y1267500D01*
X798457D01*
Y1259500D02*
Y1267500D01*
X783957Y1259500D02*
X798457D01*
X783957D02*
Y1262000D01*
X784000Y1225500D02*
Y1228000D01*
X798500D01*
Y1220000D02*
Y1228000D01*
X784000Y1220000D02*
X798500D01*
X784000D02*
Y1222500D01*
X800646Y820937D02*
X814228D01*
Y813063D02*
Y820937D01*
X800646Y813063D02*
Y820937D01*
Y813063D02*
X814228D01*
X800583Y802563D02*
X814165D01*
X800583D02*
Y810437D01*
X814165Y802563D02*
Y810437D01*
X800583D02*
X814165D01*
X784500Y818500D02*
Y821000D01*
X799000D01*
Y813000D02*
Y821000D01*
X784500Y813000D02*
X799000D01*
X784500D02*
Y815500D01*
X801209Y860437D02*
X814791D01*
Y852563D02*
Y860437D01*
X801209Y852563D02*
Y860437D01*
Y852563D02*
X814791D01*
X712543Y841500D02*
Y844000D01*
X698043Y841500D02*
X712543D01*
X698043D02*
Y849500D01*
X712543D01*
Y847000D02*
Y849500D01*
X800646Y1037063D02*
X814228D01*
X800646D02*
Y1044937D01*
X814228Y1037063D02*
Y1044937D01*
X800646D02*
X814228D01*
X800646Y792563D02*
X814228D01*
X800646D02*
Y800437D01*
X814228Y792563D02*
Y800437D01*
X800646D02*
X814228D01*
X801209Y843063D02*
X814791D01*
X801209D02*
Y850937D01*
X814791Y843063D02*
Y850937D01*
X801209D02*
X814791D01*
X801146Y833563D02*
X814728D01*
X801146D02*
Y841437D01*
X814728Y833563D02*
Y841437D01*
X801146D02*
X814728D01*
X784457Y858000D02*
Y860500D01*
X798957D01*
Y852500D02*
Y860500D01*
X784457Y852500D02*
X798957D01*
X784457D02*
Y855000D01*
X721000Y814768D02*
Y826768D01*
X729000D01*
Y814768D02*
Y826768D01*
X721000Y814768D02*
X729000D01*
X800146Y996063D02*
X813728D01*
X800146D02*
Y1003937D01*
X813728Y996063D02*
Y1003937D01*
X800146D02*
X813728D01*
X800709Y1046563D02*
X814291D01*
X800709D02*
Y1054437D01*
X814291Y1046563D02*
Y1054437D01*
X800709D02*
X814291D01*
X783957Y1061500D02*
Y1064000D01*
X798457D01*
Y1056000D02*
Y1064000D01*
X783957Y1056000D02*
X798457D01*
X783957D02*
Y1058500D01*
X800709Y1063937D02*
X814291D01*
Y1056063D02*
Y1063937D01*
X800709Y1056063D02*
Y1063937D01*
Y1056063D02*
X814291D01*
X800083Y1006063D02*
X813665D01*
X800083D02*
Y1013937D01*
X813665Y1006063D02*
Y1013937D01*
X800083D02*
X813665D01*
X712043Y1045000D02*
Y1047500D01*
X697543Y1045000D02*
X712043D01*
X697543D02*
Y1053000D01*
X712043D01*
Y1050500D02*
Y1053000D01*
X720500Y1018268D02*
Y1030268D01*
X728500D01*
Y1018268D02*
Y1030268D01*
X720500Y1018268D02*
X728500D01*
X800146Y1024437D02*
X813728D01*
Y1016563D02*
Y1024437D01*
X800146Y1016563D02*
Y1024437D01*
Y1016563D02*
X813728D01*
X784000Y1022000D02*
Y1024500D01*
X798500D01*
Y1016500D02*
Y1024500D01*
X784000Y1016500D02*
X798500D01*
X784000D02*
Y1019000D01*
M02*
