G04*
G04 #@! TF.GenerationSoftware,Altium Limited,Altium Designer,24.4.1 (13)*
G04*
G04 Layer_Color=255*
%FSLAX25Y25*%
%MOIN*%
G70*
G04*
G04 #@! TF.SameCoordinates,D6D0C77B-36A0-4D54-9E24-613302BCF265*
G04*
G04*
G04 #@! TF.FilePolarity,Positive*
G04*
G01*
G75*
%ADD16R,0.08858X0.06496*%
%ADD17R,0.06500X0.06000*%
%ADD18R,0.06000X0.06500*%
%ADD19R,0.04528X0.05709*%
%ADD20R,0.03000X0.05000*%
%ADD21R,0.10433X0.10000*%
%ADD24R,0.05787X0.03819*%
%ADD27R,0.02559X0.06004*%
%ADD80C,0.07087*%
%ADD81O,0.18898X0.26772*%
%ADD82C,0.08661*%
%ADD83C,0.12000*%
%ADD84O,0.09000X0.08300*%
%ADD85C,0.15748*%
%ADD86C,0.11811*%
%ADD87R,0.16000X0.10000*%
%ADD88R,0.10000X0.16000*%
%ADD89C,0.06791*%
%ADD90R,0.06791X0.06791*%
%ADD91R,0.04724X0.04724*%
%ADD92C,0.04724*%
%ADD93R,0.05248X0.05248*%
%ADD94C,0.05248*%
%ADD95C,0.11300*%
%ADD96C,0.08700*%
%ADD97C,0.14961*%
%ADD98O,0.08600X0.06000*%
%ADD99C,0.05906*%
%ADD100R,0.05906X0.05906*%
%ADD101C,0.12800*%
%ADD102O,0.09000X0.06500*%
%ADD103R,0.09000X0.06500*%
%ADD104C,0.12700*%
%ADD105C,0.05500*%
%ADD106R,0.05500X0.05500*%
%ADD110R,0.06496X0.08858*%
%ADD111R,0.03740X0.05709*%
%ADD112R,0.05000X0.03000*%
%ADD113R,0.10000X0.10433*%
%ADD114R,0.07677X0.02559*%
D16*
X630965Y1300763D02*
D03*
X614035D02*
D03*
X531964Y1300263D02*
D03*
X515035D02*
D03*
X729964D02*
D03*
X713035D02*
D03*
D17*
X724500Y1239500D02*
D03*
Y1252500D02*
D03*
Y1049000D02*
D03*
Y1036000D02*
D03*
X725000Y832500D02*
D03*
Y845500D02*
D03*
X489100Y1322000D02*
D03*
Y1335000D02*
D03*
X542600Y1310500D02*
D03*
Y1297500D02*
D03*
Y1329000D02*
D03*
Y1342000D02*
D03*
X560100Y1329000D02*
D03*
Y1342000D02*
D03*
Y1310500D02*
D03*
Y1297500D02*
D03*
X506100Y1335000D02*
D03*
Y1322000D02*
D03*
X588100Y1335500D02*
D03*
Y1322500D02*
D03*
X641600Y1298000D02*
D03*
Y1311000D02*
D03*
Y1342500D02*
D03*
Y1329500D02*
D03*
X658900D02*
D03*
Y1342500D02*
D03*
X659100Y1298000D02*
D03*
Y1311000D02*
D03*
X605100Y1322500D02*
D03*
Y1335500D02*
D03*
X687100Y1322000D02*
D03*
Y1335000D02*
D03*
X740600Y1310500D02*
D03*
Y1297500D02*
D03*
Y1329000D02*
D03*
Y1342000D02*
D03*
X758100Y1329000D02*
D03*
Y1342000D02*
D03*
Y1310500D02*
D03*
Y1297500D02*
D03*
X704100Y1335000D02*
D03*
Y1322000D02*
D03*
X527000Y1237500D02*
D03*
Y1224500D02*
D03*
X786500Y651000D02*
D03*
Y638000D02*
D03*
D18*
X701000Y1214500D02*
D03*
X714000D02*
D03*
Y1225500D02*
D03*
X701000D02*
D03*
X714000Y1011000D02*
D03*
X701000D02*
D03*
Y1022000D02*
D03*
X714000D02*
D03*
X701500Y807500D02*
D03*
X714500D02*
D03*
Y818500D02*
D03*
X701500D02*
D03*
X489500Y1360000D02*
D03*
X502500D02*
D03*
X515500D02*
D03*
X528500D02*
D03*
X601500Y1360500D02*
D03*
X588500D02*
D03*
X627500D02*
D03*
X614500D02*
D03*
X687500Y1360000D02*
D03*
X700500D02*
D03*
X713500D02*
D03*
X726500D02*
D03*
D19*
X701000Y1252500D02*
D03*
X708087D02*
D03*
X795000Y1263500D02*
D03*
X787913D02*
D03*
X795043Y1224000D02*
D03*
X787957D02*
D03*
X795543Y817000D02*
D03*
X788457D02*
D03*
X701500Y845500D02*
D03*
X708587D02*
D03*
X795500Y856500D02*
D03*
X788413D02*
D03*
X795000Y1060000D02*
D03*
X787913D02*
D03*
X701000Y1049000D02*
D03*
X708087D02*
D03*
X795043Y1020500D02*
D03*
X787957D02*
D03*
D20*
X755860Y1361500D02*
D03*
X557860D02*
D03*
X656860Y1362000D02*
D03*
X635998D02*
D03*
X734998Y1361500D02*
D03*
X536860Y1361240D02*
D03*
D21*
X765116Y1361500D02*
D03*
X567116D02*
D03*
X666116Y1362000D02*
D03*
X645254D02*
D03*
X744254Y1361500D02*
D03*
X546116Y1361240D02*
D03*
D24*
X724500Y1231035D02*
D03*
Y1224500D02*
D03*
X725000Y824035D02*
D03*
Y817500D02*
D03*
X724500Y1027535D02*
D03*
Y1021000D02*
D03*
D27*
X617000Y1341677D02*
D03*
X622000D02*
D03*
X627000D02*
D03*
X632000D02*
D03*
Y1320323D02*
D03*
X627000D02*
D03*
X622000D02*
D03*
X617000D02*
D03*
X716000Y1341354D02*
D03*
X721000D02*
D03*
X726000D02*
D03*
X731000D02*
D03*
Y1320000D02*
D03*
X726000D02*
D03*
X721000D02*
D03*
X716000D02*
D03*
X518000Y1341177D02*
D03*
X523000D02*
D03*
X528000D02*
D03*
X533000D02*
D03*
Y1319823D02*
D03*
X528000D02*
D03*
X523000D02*
D03*
X518000D02*
D03*
D80*
X619669Y1170500D02*
D03*
Y1250500D02*
D03*
X589669D02*
D03*
X559669D02*
D03*
Y1170500D02*
D03*
X619669Y990000D02*
D03*
Y1070000D02*
D03*
X589669D02*
D03*
X559669D02*
D03*
Y990000D02*
D03*
X512000D02*
D03*
Y1070000D02*
D03*
X482000D02*
D03*
X452000D02*
D03*
Y990000D02*
D03*
X512000Y1170500D02*
D03*
Y1250500D02*
D03*
X482000D02*
D03*
X452000D02*
D03*
Y1170500D02*
D03*
D81*
X412000Y583000D02*
D03*
X502000D02*
D03*
X668673D02*
D03*
X758673D02*
D03*
X539346D02*
D03*
X629346D02*
D03*
X888000D02*
D03*
X798000D02*
D03*
D82*
X459480Y528000D02*
D03*
Y638000D02*
D03*
Y618000D02*
D03*
X716154Y528000D02*
D03*
Y638000D02*
D03*
Y618000D02*
D03*
X586827Y528000D02*
D03*
Y638000D02*
D03*
Y618000D02*
D03*
X845480D02*
D03*
Y638000D02*
D03*
Y528000D02*
D03*
D83*
X818500Y964000D02*
D03*
X653146D02*
D03*
X818500Y1167500D02*
D03*
X653146D02*
D03*
X818500Y760500D02*
D03*
X653146D02*
D03*
D84*
X879748Y1212193D02*
D03*
Y1222193D02*
D03*
Y1182193D02*
D03*
Y1202193D02*
D03*
Y1125657D02*
D03*
Y1135658D02*
D03*
Y1095658D02*
D03*
Y1115658D02*
D03*
Y915658D02*
D03*
Y895658D02*
D03*
Y935658D02*
D03*
Y925657D02*
D03*
Y1002193D02*
D03*
Y982193D02*
D03*
Y1022193D02*
D03*
Y1012193D02*
D03*
Y812193D02*
D03*
Y822193D02*
D03*
Y782193D02*
D03*
Y802193D02*
D03*
Y725658D02*
D03*
Y735658D02*
D03*
Y695657D02*
D03*
Y715658D02*
D03*
D85*
X860000Y1068500D02*
D03*
Y1249350D02*
D03*
Y1049350D02*
D03*
Y868500D02*
D03*
Y668500D02*
D03*
Y849350D02*
D03*
D86*
X560000Y1116000D02*
D03*
Y1146000D02*
D03*
X559500Y935000D02*
D03*
Y965000D02*
D03*
X452000Y935000D02*
D03*
Y965000D02*
D03*
X512000Y935000D02*
D03*
Y965000D02*
D03*
X619500Y935000D02*
D03*
Y965000D02*
D03*
X512000Y1146000D02*
D03*
Y1116000D02*
D03*
X619500Y1146000D02*
D03*
Y1116000D02*
D03*
X452000Y1146000D02*
D03*
Y1116000D02*
D03*
D87*
X858000Y1753500D02*
D03*
D88*
X873000Y1733500D02*
D03*
X848000D02*
D03*
D89*
X617500Y1751500D02*
D03*
X681500D02*
D03*
D90*
X617500Y1741500D02*
D03*
X681500D02*
D03*
D91*
X750000Y1572500D02*
D03*
X883000Y1694000D02*
D03*
X883500Y1629500D02*
D03*
Y1399500D02*
D03*
Y1514500D02*
D03*
Y1572000D02*
D03*
Y1342000D02*
D03*
X750000Y1637500D02*
D03*
X883500Y1457000D02*
D03*
D92*
X690000Y1572500D02*
D03*
X680000D02*
D03*
Y1532500D02*
D03*
X690000D02*
D03*
X750000D02*
D03*
X823000Y1694000D02*
D03*
X813000D02*
D03*
Y1654000D02*
D03*
X823000D02*
D03*
X883000D02*
D03*
X823500Y1629500D02*
D03*
X813500D02*
D03*
Y1589500D02*
D03*
X823500D02*
D03*
X883500D02*
D03*
X823500Y1399500D02*
D03*
X813500D02*
D03*
Y1359500D02*
D03*
X823500D02*
D03*
X883500D02*
D03*
X823500Y1514500D02*
D03*
X813500D02*
D03*
Y1474500D02*
D03*
X823500D02*
D03*
X883500D02*
D03*
X823500Y1572000D02*
D03*
X813500D02*
D03*
Y1532000D02*
D03*
X823500D02*
D03*
X883500D02*
D03*
X823500Y1342000D02*
D03*
X813500D02*
D03*
Y1302000D02*
D03*
X823500D02*
D03*
X883500D02*
D03*
X690000Y1637500D02*
D03*
X680000D02*
D03*
Y1597500D02*
D03*
X690000D02*
D03*
X750000D02*
D03*
X823500Y1457000D02*
D03*
X813500D02*
D03*
Y1417000D02*
D03*
X823500D02*
D03*
X883500D02*
D03*
D93*
X506374Y1619500D02*
D03*
Y1672500D02*
D03*
D94*
Y1609500D02*
D03*
Y1599500D02*
D03*
Y1589500D02*
D03*
X537626D02*
D03*
Y1599500D02*
D03*
Y1609500D02*
D03*
Y1619500D02*
D03*
Y1672500D02*
D03*
Y1662500D02*
D03*
Y1652500D02*
D03*
Y1642500D02*
D03*
X506374D02*
D03*
Y1652500D02*
D03*
Y1662500D02*
D03*
D95*
X809652Y437500D02*
D03*
X829337D02*
D03*
X809652Y409941D02*
D03*
X829337D02*
D03*
X687326Y437500D02*
D03*
X707011D02*
D03*
X687326Y409941D02*
D03*
X707011D02*
D03*
X565000Y437500D02*
D03*
X584685D02*
D03*
X565000Y409941D02*
D03*
X584685D02*
D03*
X890500D02*
D03*
X870815D02*
D03*
X890500Y437500D02*
D03*
X870815D02*
D03*
X645848Y409941D02*
D03*
X626163D02*
D03*
X645848Y437500D02*
D03*
X626163D02*
D03*
X748489D02*
D03*
X768174D02*
D03*
X748489Y409941D02*
D03*
X768174D02*
D03*
D96*
X417000Y1423000D02*
D03*
Y1443000D02*
D03*
Y1463000D02*
D03*
Y1483000D02*
D03*
Y1503000D02*
D03*
Y1523000D02*
D03*
X415500Y1297500D02*
D03*
Y1312500D02*
D03*
X893000Y1022193D02*
D03*
Y1002193D02*
D03*
Y735657D02*
D03*
Y915657D02*
D03*
Y715657D02*
D03*
Y802193D02*
D03*
Y935657D02*
D03*
Y822193D02*
D03*
Y1135657D02*
D03*
Y1222193D02*
D03*
Y1202193D02*
D03*
Y1115657D02*
D03*
X417036Y1608000D02*
D03*
X626976Y1394500D02*
D03*
X417036Y1672500D02*
D03*
X880999Y490189D02*
D03*
X417036Y1651000D02*
D03*
Y1629500D02*
D03*
X614035Y1280000D02*
D03*
X713035Y1278000D02*
D03*
X515035Y1280000D02*
D03*
X626976Y1508000D02*
D03*
X538976Y1508000D02*
D03*
Y1394500D02*
D03*
X719476Y1508000D02*
D03*
Y1394500D02*
D03*
X632000Y1280000D02*
D03*
X533000D02*
D03*
X819836Y490189D02*
D03*
X758673D02*
D03*
X575184D02*
D03*
X697510D02*
D03*
X636347D02*
D03*
X730965Y1278000D02*
D03*
X407500Y1179500D02*
D03*
Y1202500D02*
D03*
Y1225500D02*
D03*
Y1246500D02*
D03*
D97*
X409449Y527559D02*
D03*
X889764D02*
D03*
X409449Y1275591D02*
D03*
X767717Y1748031D02*
D03*
X531496D02*
D03*
X889764Y1275591D02*
D03*
D98*
X410500Y1697500D02*
D03*
X420650Y1697450D02*
D03*
Y1727450D02*
D03*
Y1717450D02*
D03*
X410500Y1707500D02*
D03*
X420650Y1707450D02*
D03*
Y1757450D02*
D03*
X420800Y1747400D02*
D03*
X410500Y1727500D02*
D03*
X410700Y1737600D02*
D03*
Y1747500D02*
D03*
Y1757500D02*
D03*
X410500Y1717500D02*
D03*
X420650Y1737450D02*
D03*
D99*
X437000Y1424000D02*
D03*
Y1434000D02*
D03*
Y1444000D02*
D03*
Y1454000D02*
D03*
Y1464000D02*
D03*
Y1474000D02*
D03*
Y1484000D02*
D03*
Y1494000D02*
D03*
Y1504000D02*
D03*
Y1514000D02*
D03*
Y1524000D02*
D03*
Y1534000D02*
D03*
Y1544000D02*
D03*
Y1554000D02*
D03*
Y1564000D02*
D03*
Y1574000D02*
D03*
Y1584000D02*
D03*
Y1594000D02*
D03*
Y1604000D02*
D03*
Y1614000D02*
D03*
Y1624000D02*
D03*
X489500Y1732500D02*
D03*
Y1722500D02*
D03*
Y1712500D02*
D03*
Y1702500D02*
D03*
Y1692500D02*
D03*
Y1682500D02*
D03*
Y1672500D02*
D03*
Y1662500D02*
D03*
Y1652500D02*
D03*
Y1642500D02*
D03*
Y1632500D02*
D03*
Y1622500D02*
D03*
Y1612500D02*
D03*
Y1602500D02*
D03*
Y1592500D02*
D03*
Y1582500D02*
D03*
Y1572500D02*
D03*
Y1562500D02*
D03*
Y1552500D02*
D03*
Y1542500D02*
D03*
Y1532500D02*
D03*
Y1522500D02*
D03*
Y1512500D02*
D03*
Y1502500D02*
D03*
D100*
X437000Y1634000D02*
D03*
X489500Y1742500D02*
D03*
D101*
X458500Y741400D02*
D03*
Y702000D02*
D03*
Y865900D02*
D03*
Y826500D02*
D03*
X581500D02*
D03*
Y865900D02*
D03*
Y702000D02*
D03*
Y741400D02*
D03*
D102*
X490000Y1410000D02*
D03*
Y1430000D02*
D03*
Y1450000D02*
D03*
Y1460000D02*
D03*
Y1470000D02*
D03*
Y1440000D02*
D03*
Y1420000D02*
D03*
X437500Y1343000D02*
D03*
Y1363000D02*
D03*
Y1393000D02*
D03*
Y1383000D02*
D03*
Y1373000D02*
D03*
Y1353000D02*
D03*
Y1333000D02*
D03*
D103*
X490000Y1480000D02*
D03*
X437500Y1403000D02*
D03*
D104*
X463500Y1362000D02*
D03*
Y1672000D02*
D03*
D105*
X452200Y1374500D02*
D03*
X459700Y1379500D02*
D03*
X452200Y1384500D02*
D03*
X459700Y1389500D02*
D03*
X467200Y1384500D02*
D03*
X452200Y1394500D02*
D03*
X459700Y1399500D02*
D03*
X467200Y1394500D02*
D03*
X474700Y1379500D02*
D03*
Y1389500D02*
D03*
Y1399500D02*
D03*
X452200Y1434500D02*
D03*
X467200D02*
D03*
X452200Y1424500D02*
D03*
X467200D02*
D03*
Y1444500D02*
D03*
X452200D02*
D03*
Y1454500D02*
D03*
X467200D02*
D03*
X452200Y1464500D02*
D03*
X459700Y1469500D02*
D03*
X467200Y1464500D02*
D03*
X474700Y1469500D02*
D03*
Y1479500D02*
D03*
X467200Y1474500D02*
D03*
X459700Y1479500D02*
D03*
X452200Y1474500D02*
D03*
Y1484500D02*
D03*
X474700Y1489500D02*
D03*
X467200Y1484500D02*
D03*
X459700Y1489500D02*
D03*
X452200Y1494500D02*
D03*
X459700Y1499500D02*
D03*
X467200Y1494500D02*
D03*
X474700Y1499500D02*
D03*
Y1529500D02*
D03*
X467200Y1524500D02*
D03*
X459700Y1529500D02*
D03*
X452200Y1524500D02*
D03*
X467200Y1534500D02*
D03*
X452200D02*
D03*
X459700Y1539500D02*
D03*
X474700D02*
D03*
Y1549500D02*
D03*
X459700D02*
D03*
X452200Y1544500D02*
D03*
X474700Y1559500D02*
D03*
X467200Y1554500D02*
D03*
X459700Y1559500D02*
D03*
X452200Y1554500D02*
D03*
X467200Y1564500D02*
D03*
X452200D02*
D03*
X459700Y1569500D02*
D03*
X474700D02*
D03*
Y1579500D02*
D03*
X467200Y1574500D02*
D03*
X459700Y1579500D02*
D03*
X452200Y1574500D02*
D03*
X474700Y1589500D02*
D03*
X467200Y1584500D02*
D03*
X459700Y1589500D02*
D03*
X452200Y1584500D02*
D03*
Y1594500D02*
D03*
X459700Y1599500D02*
D03*
X474700D02*
D03*
Y1609500D02*
D03*
X467200Y1604500D02*
D03*
X459700Y1609500D02*
D03*
X452200Y1604500D02*
D03*
X474700Y1619500D02*
D03*
X467200Y1614500D02*
D03*
X459700Y1619500D02*
D03*
X452200Y1614500D02*
D03*
X474700Y1629500D02*
D03*
X467200Y1624500D02*
D03*
X459700Y1629500D02*
D03*
X452200Y1624500D02*
D03*
X474700Y1639500D02*
D03*
X467200Y1634500D02*
D03*
X459700Y1639500D02*
D03*
X452200Y1634500D02*
D03*
X474700Y1649500D02*
D03*
X459700D02*
D03*
X452200Y1644500D02*
D03*
X474700Y1659500D02*
D03*
X467200Y1654500D02*
D03*
X459700Y1659500D02*
D03*
X452200Y1654500D02*
D03*
X474700Y1459500D02*
D03*
Y1429500D02*
D03*
Y1449500D02*
D03*
X459700Y1459500D02*
D03*
Y1429500D02*
D03*
Y1449500D02*
D03*
Y1439500D02*
D03*
X467200Y1544500D02*
D03*
Y1644500D02*
D03*
Y1594500D02*
D03*
X474700Y1439500D02*
D03*
D106*
X467200Y1374500D02*
D03*
D110*
X512000Y1220571D02*
D03*
Y1237500D02*
D03*
X804000Y638000D02*
D03*
Y654929D02*
D03*
D111*
X803563Y1254000D02*
D03*
X811437D02*
D03*
X803500Y1244500D02*
D03*
X811374D02*
D03*
X802937Y1213500D02*
D03*
X810811D02*
D03*
X803000Y1203500D02*
D03*
X810874D02*
D03*
Y1224000D02*
D03*
X803000D02*
D03*
X811437Y1263500D02*
D03*
X803563D02*
D03*
X811374Y817000D02*
D03*
X803500D02*
D03*
X803437Y806500D02*
D03*
X811311D02*
D03*
X811937Y856500D02*
D03*
X804063D02*
D03*
X803500Y1041000D02*
D03*
X811374D02*
D03*
X803500Y796500D02*
D03*
X811374D02*
D03*
X804063Y847000D02*
D03*
X811937D02*
D03*
X804000Y837500D02*
D03*
X811874D02*
D03*
X803000Y1000000D02*
D03*
X810874D02*
D03*
X803563Y1050500D02*
D03*
X811437D02*
D03*
Y1060000D02*
D03*
X803563D02*
D03*
X802937Y1010000D02*
D03*
X810811D02*
D03*
X810874Y1020500D02*
D03*
X803000D02*
D03*
D112*
X823000Y1253756D02*
D03*
X822000Y1212756D02*
D03*
X823500Y846756D02*
D03*
X823000Y1050256D02*
D03*
X822500Y805756D02*
D03*
X822000Y1009256D02*
D03*
D113*
X823000Y1244500D02*
D03*
X822000Y1203500D02*
D03*
X823500Y837500D02*
D03*
X823000Y1041000D02*
D03*
X822500Y796500D02*
D03*
X822000Y1000000D02*
D03*
D114*
X776602Y1011000D02*
D03*
Y1016000D02*
D03*
Y1021000D02*
D03*
Y1026000D02*
D03*
Y1031000D02*
D03*
Y1036000D02*
D03*
Y1041000D02*
D03*
Y1046000D02*
D03*
X739398D02*
D03*
Y1041000D02*
D03*
Y1036000D02*
D03*
Y1031000D02*
D03*
Y1026000D02*
D03*
Y1021000D02*
D03*
Y1016000D02*
D03*
Y1011000D02*
D03*
X777102Y807500D02*
D03*
Y812500D02*
D03*
Y817500D02*
D03*
Y822500D02*
D03*
Y827500D02*
D03*
Y832500D02*
D03*
Y837500D02*
D03*
Y842500D02*
D03*
X739898D02*
D03*
Y837500D02*
D03*
Y832500D02*
D03*
Y827500D02*
D03*
Y822500D02*
D03*
Y817500D02*
D03*
Y812500D02*
D03*
Y807500D02*
D03*
X776602Y1214500D02*
D03*
Y1219500D02*
D03*
Y1224500D02*
D03*
Y1229500D02*
D03*
Y1234500D02*
D03*
Y1239500D02*
D03*
Y1244500D02*
D03*
Y1249500D02*
D03*
X739398D02*
D03*
Y1244500D02*
D03*
Y1239500D02*
D03*
Y1234500D02*
D03*
Y1229500D02*
D03*
Y1224500D02*
D03*
Y1219500D02*
D03*
Y1214500D02*
D03*
M02*
