G04*
G04 #@! TF.GenerationSoftware,Altium Limited,Altium Designer,24.4.1 (13)*
G04*
G04 Layer_Physical_Order=2*
G04 Layer_Color=36540*
%FSLAX25Y25*%
%MOIN*%
G70*
G04*
G04 #@! TF.SameCoordinates,D6D0C77B-36A0-4D54-9E24-613302BCF265*
G04*
G04*
G04 #@! TF.FilePolarity,Positive*
G04*
G01*
G75*
%ADD10C,0.01000*%
%ADD78C,0.10000*%
%ADD80C,0.07087*%
%ADD81O,0.18898X0.26772*%
%ADD82C,0.08661*%
%ADD83C,0.12000*%
%ADD84O,0.09000X0.08300*%
%ADD85C,0.15748*%
%ADD86C,0.11811*%
%ADD87R,0.16000X0.10000*%
%ADD88R,0.10000X0.16000*%
%ADD89C,0.06791*%
%ADD90R,0.06791X0.06791*%
%ADD91R,0.04724X0.04724*%
%ADD92C,0.04724*%
%ADD93R,0.05248X0.05248*%
%ADD94C,0.05248*%
%ADD95C,0.11300*%
%ADD96C,0.08700*%
%ADD97C,0.14961*%
%ADD98O,0.08600X0.06000*%
%ADD99C,0.05906*%
%ADD100R,0.05906X0.05906*%
%ADD101C,0.12800*%
%ADD102O,0.09000X0.06500*%
%ADD103R,0.09000X0.06500*%
%ADD104C,0.12700*%
%ADD105C,0.05500*%
%ADD106R,0.05500X0.05500*%
%ADD107C,0.03400*%
%ADD108C,0.05000*%
G36*
X897000Y1736000D02*
X897976D01*
Y1333976D01*
X893500Y1329500D01*
X884500D01*
X884000Y1329000D01*
X874500Y1338500D01*
Y1552500D01*
X866000Y1561000D01*
X747000D01*
X742000Y1566000D01*
Y1637000D01*
X747000Y1642000D01*
X819000D01*
X828000Y1651000D01*
Y1699000D01*
X813500Y1713500D01*
X811746D01*
X811500Y1713549D01*
X719451Y1713549D01*
X687396Y1745604D01*
Y1747396D01*
X675604D01*
Y1747000D01*
X623396D01*
Y1747396D01*
X612000D01*
X612000Y1759000D01*
X617000Y1764000D01*
X869000D01*
X897000Y1736000D01*
D02*
G37*
G36*
X878094Y1205639D02*
X879398Y1205511D01*
X880098D01*
X881402Y1205639D01*
X881518Y1205674D01*
X882000Y1205317D01*
Y1198500D01*
X877500D01*
X872500Y1193500D01*
Y1011000D01*
X872946Y1010554D01*
X873225Y1009636D01*
X873842Y1008480D01*
X874673Y1007468D01*
X875686Y1006637D01*
X876841Y1006019D01*
X878094Y1005639D01*
X879398Y1005511D01*
X880098D01*
X880900Y1005590D01*
X881500Y1005063D01*
Y998500D01*
X877500D01*
X872500Y993500D01*
Y811000D01*
X872946Y810554D01*
X873225Y809636D01*
X873842Y808480D01*
X874673Y807468D01*
X875686Y806637D01*
X876841Y806019D01*
X877759Y805741D01*
X882000Y801500D01*
Y798500D01*
X856000D01*
X840500Y814000D01*
Y1195000D01*
X851500Y1206000D01*
X851500D01*
X851500Y1206000D01*
X851500Y1206000D01*
X876905Y1206000D01*
X878094Y1205639D01*
D02*
G37*
G36*
X552000Y1748500D02*
Y1659000D01*
X563500Y1647500D01*
X627500D01*
X691000Y1711000D01*
X811500Y1711000D01*
X817500Y1705000D01*
Y1688500D01*
X810862Y1681862D01*
X771811D01*
X739000Y1649051D01*
Y1513500D01*
X766500Y1486000D01*
X766500Y756000D01*
X799500Y723000D01*
Y648500D01*
X761000D01*
X685500Y724000D01*
Y1150500D01*
X659000Y1177000D01*
X401237D01*
Y1268890D01*
X401837Y1269088D01*
X403087Y1267838D01*
X404721Y1266746D01*
X406538Y1265994D01*
X408466Y1265610D01*
X410432D01*
X412360Y1265994D01*
X414176Y1266746D01*
X415811Y1267838D01*
X417201Y1269228D01*
X418293Y1270863D01*
X419046Y1272679D01*
X419429Y1274608D01*
Y1276574D01*
X419046Y1278502D01*
X418293Y1280318D01*
X418191Y1280471D01*
X418474Y1281000D01*
X436500D01*
Y1196250D01*
X720500D01*
Y1287500D01*
X546026D01*
Y1295447D01*
X577379Y1326800D01*
X577853D01*
X578921Y1327086D01*
X579879Y1327639D01*
X580661Y1328421D01*
X581214Y1329379D01*
X581500Y1330447D01*
Y1331553D01*
X581214Y1332621D01*
X580661Y1333579D01*
X579879Y1334361D01*
X578921Y1334914D01*
X577853Y1335200D01*
X576747D01*
X575679Y1334914D01*
X574721Y1334361D01*
X573939Y1333579D01*
X573386Y1332621D01*
X573100Y1331553D01*
Y1331079D01*
X540860Y1298840D01*
X540379Y1298213D01*
X540077Y1297483D01*
X539974Y1296700D01*
Y1287500D01*
X512000D01*
X512000Y1348500D01*
X513458Y1349958D01*
X514046Y1349777D01*
X514074Y1349726D01*
X513800Y1348702D01*
Y1347596D01*
X514086Y1346528D01*
X514639Y1345571D01*
X515421Y1344789D01*
X516379Y1344236D01*
X517447Y1343949D01*
X518553D01*
X519621Y1344236D01*
X520579Y1344789D01*
X521361Y1345571D01*
X521914Y1346528D01*
X522200Y1347596D01*
Y1348702D01*
X521914Y1349771D01*
X521361Y1350728D01*
X520579Y1351510D01*
X519621Y1352063D01*
X518553Y1352349D01*
X517447D01*
X516424Y1352075D01*
X516373Y1352103D01*
X516192Y1352692D01*
X543500Y1380000D01*
X565585D01*
X566074Y1379400D01*
X566029Y1379055D01*
Y1378658D01*
X554078Y1366708D01*
X553682D01*
X552899Y1366605D01*
X552169Y1366302D01*
X551542Y1365821D01*
X539421Y1353700D01*
X538947D01*
X537879Y1353414D01*
X536921Y1352861D01*
X536139Y1352079D01*
X535716Y1351346D01*
X535035Y1351180D01*
X534879Y1351336D01*
X533921Y1351888D01*
X532853Y1352175D01*
X531747D01*
X530679Y1351888D01*
X529721Y1351336D01*
X528939Y1350554D01*
X528386Y1349596D01*
X528100Y1348528D01*
Y1347422D01*
X528386Y1346354D01*
X528939Y1345396D01*
X529721Y1344614D01*
X530679Y1344061D01*
X531747Y1343775D01*
X532853D01*
X533921Y1344061D01*
X534879Y1344614D01*
X535661Y1345396D01*
X536084Y1346128D01*
X536765Y1346295D01*
X536921Y1346139D01*
X537879Y1345586D01*
X538947Y1345300D01*
X540053D01*
X541121Y1345586D01*
X542079Y1346139D01*
X542861Y1346921D01*
X543414Y1347879D01*
X543700Y1348947D01*
Y1349421D01*
X554935Y1360656D01*
X555332D01*
X556115Y1360759D01*
X556845Y1361061D01*
X557472Y1361542D01*
X571194Y1375265D01*
X571675Y1375892D01*
X571977Y1376622D01*
X572081Y1377405D01*
Y1377801D01*
X574279Y1380000D01*
X716500D01*
X730000Y1366500D01*
Y1284792D01*
X728967Y1284587D01*
X727720Y1284070D01*
X726598Y1283321D01*
X725644Y1282367D01*
X724894Y1281245D01*
X724378Y1279998D01*
X724115Y1278675D01*
Y1277325D01*
X724378Y1276002D01*
X724894Y1274755D01*
X725644Y1273633D01*
X726598Y1272679D01*
X727720Y1271930D01*
X728967Y1271413D01*
X730000Y1271208D01*
Y1196250D01*
X750000D01*
Y1430000D01*
X695779D01*
X693700Y1432079D01*
Y1432553D01*
X693414Y1433621D01*
X692861Y1434579D01*
X692079Y1435361D01*
X691121Y1435914D01*
X690053Y1436200D01*
X688947D01*
X687879Y1435914D01*
X686921Y1435361D01*
X686139Y1434579D01*
X685586Y1433621D01*
X685300Y1432553D01*
Y1431447D01*
X685527Y1430600D01*
X685178Y1430000D01*
X594143D01*
X593800Y1430447D01*
Y1431553D01*
X593514Y1432621D01*
X592961Y1433579D01*
X592179Y1434361D01*
X591221Y1434914D01*
X590153Y1435200D01*
X589047D01*
X587979Y1434914D01*
X587021Y1434361D01*
X586239Y1433579D01*
X585686Y1432621D01*
X585400Y1431553D01*
Y1431079D01*
X584321Y1430000D01*
X563559D01*
Y1516059D01*
X521250Y1558369D01*
Y1722750D01*
X496000Y1748000D01*
X484000D01*
X441000Y1705000D01*
X420500D01*
X420500Y1731903D01*
X421950D01*
X423386Y1732092D01*
X424724Y1732646D01*
X425873Y1733527D01*
X426754Y1734676D01*
X427308Y1736014D01*
X427497Y1737450D01*
X427308Y1738886D01*
X426754Y1740224D01*
X425873Y1741373D01*
X424724Y1742254D01*
X423386Y1742808D01*
X421950Y1742998D01*
X420500D01*
X420500Y1751903D01*
X421950D01*
X423386Y1752092D01*
X424724Y1752646D01*
X425873Y1753527D01*
X426754Y1754676D01*
X427308Y1756014D01*
X427497Y1757450D01*
X427308Y1758886D01*
X426754Y1760224D01*
X425873Y1761373D01*
X424724Y1762254D01*
X423386Y1762808D01*
X422690Y1762900D01*
X422730Y1763500D01*
X537000Y1763500D01*
X552000Y1748500D01*
D02*
G37*
G36*
X591000Y833000D02*
X591000Y699500D01*
X584000Y692500D01*
X455000D01*
X447000Y700500D01*
Y832500D01*
X457000Y842500D01*
X581500D01*
X591000Y833000D01*
D02*
G37*
%LPC*%
G36*
X868500Y1761000D02*
X847500D01*
Y1746000D01*
X868500D01*
Y1761000D01*
D02*
G37*
G36*
X768700Y1758012D02*
X766734D01*
X764806Y1757628D01*
X762989Y1756876D01*
X761354Y1755784D01*
X759964Y1754394D01*
X758872Y1752759D01*
X758120Y1750943D01*
X757736Y1749014D01*
Y1747049D01*
X758120Y1745120D01*
X758872Y1743304D01*
X759964Y1741669D01*
X761354Y1740279D01*
X762989Y1739187D01*
X764806Y1738435D01*
X766734Y1738051D01*
X768700D01*
X770628Y1738435D01*
X772444Y1739187D01*
X774079Y1740279D01*
X775469Y1741669D01*
X776561Y1743304D01*
X777313Y1745120D01*
X777697Y1747049D01*
Y1749014D01*
X777313Y1750943D01*
X776561Y1752759D01*
X775469Y1754394D01*
X774079Y1755784D01*
X772444Y1756876D01*
X770628Y1757628D01*
X768700Y1758012D01*
D02*
G37*
G36*
X855500Y1744000D02*
X840500D01*
Y1723000D01*
X855500D01*
Y1744000D01*
D02*
G37*
G36*
X883640Y1658862D02*
X882360D01*
X881123Y1658531D01*
X880015Y1657891D01*
X879109Y1656985D01*
X878469Y1655877D01*
X878138Y1654640D01*
Y1653360D01*
X878469Y1652123D01*
X879109Y1651015D01*
X880015Y1650109D01*
X881123Y1649469D01*
X882360Y1649138D01*
X883640D01*
X884877Y1649469D01*
X885985Y1650109D01*
X886891Y1651015D01*
X887531Y1652123D01*
X887862Y1653360D01*
Y1654640D01*
X887531Y1655877D01*
X886891Y1656985D01*
X885985Y1657891D01*
X884877Y1658531D01*
X883640Y1658862D01*
D02*
G37*
G36*
X824140Y1634362D02*
X822860D01*
X821623Y1634031D01*
X820514Y1633391D01*
X819609Y1632486D01*
X818969Y1631377D01*
X818811Y1630785D01*
X818189D01*
X818031Y1631377D01*
X817391Y1632486D01*
X816486Y1633391D01*
X815377Y1634031D01*
X814140Y1634362D01*
X812860D01*
X811623Y1634031D01*
X810515Y1633391D01*
X809609Y1632486D01*
X808969Y1631377D01*
X808638Y1630140D01*
Y1628860D01*
X808969Y1627623D01*
X809609Y1626514D01*
X810515Y1625609D01*
X811623Y1624969D01*
X812860Y1624638D01*
X814140D01*
X815377Y1624969D01*
X816486Y1625609D01*
X817391Y1626514D01*
X818031Y1627623D01*
X818189Y1628215D01*
X818811D01*
X818969Y1627623D01*
X819609Y1626514D01*
X820514Y1625609D01*
X821623Y1624969D01*
X822860Y1624638D01*
X824140D01*
X825377Y1624969D01*
X826486Y1625609D01*
X827391Y1626514D01*
X828031Y1627623D01*
X828362Y1628860D01*
Y1630140D01*
X828031Y1631377D01*
X827391Y1632486D01*
X826486Y1633391D01*
X825377Y1634031D01*
X824140Y1634362D01*
D02*
G37*
G36*
X750640Y1602362D02*
X749360D01*
X748123Y1602031D01*
X747015Y1601391D01*
X746109Y1600485D01*
X745469Y1599377D01*
X745138Y1598140D01*
Y1596860D01*
X745469Y1595623D01*
X746109Y1594514D01*
X747015Y1593609D01*
X748123Y1592969D01*
X749360Y1592638D01*
X750640D01*
X751877Y1592969D01*
X752985Y1593609D01*
X753891Y1594514D01*
X754531Y1595623D01*
X754862Y1596860D01*
Y1598140D01*
X754531Y1599377D01*
X753891Y1600485D01*
X752985Y1601391D01*
X751877Y1602031D01*
X750640Y1602362D01*
D02*
G37*
G36*
X824140Y1594362D02*
X822860D01*
X821623Y1594031D01*
X820514Y1593391D01*
X819609Y1592486D01*
X818969Y1591377D01*
X818811Y1590785D01*
X818189D01*
X818031Y1591377D01*
X817391Y1592486D01*
X816486Y1593391D01*
X815377Y1594031D01*
X814140Y1594362D01*
X812860D01*
X811623Y1594031D01*
X810515Y1593391D01*
X809609Y1592486D01*
X808969Y1591377D01*
X808638Y1590140D01*
Y1588860D01*
X808969Y1587623D01*
X809609Y1586514D01*
X810515Y1585609D01*
X811623Y1584969D01*
X812860Y1584638D01*
X814140D01*
X815377Y1584969D01*
X816486Y1585609D01*
X817391Y1586514D01*
X818031Y1587623D01*
X818189Y1588215D01*
X818811D01*
X818969Y1587623D01*
X819609Y1586514D01*
X820514Y1585609D01*
X821623Y1584969D01*
X822860Y1584638D01*
X824140D01*
X825377Y1584969D01*
X826486Y1585609D01*
X827391Y1586514D01*
X828031Y1587623D01*
X828362Y1588860D01*
Y1590140D01*
X828031Y1591377D01*
X827391Y1592486D01*
X826486Y1593391D01*
X825377Y1594031D01*
X824140Y1594362D01*
D02*
G37*
G36*
X884140D02*
X882860D01*
X881623Y1594031D01*
X880515Y1593391D01*
X879609Y1592486D01*
X878969Y1591377D01*
X878638Y1590140D01*
Y1588860D01*
X878969Y1587623D01*
X879609Y1586514D01*
X880515Y1585609D01*
X881623Y1584969D01*
X882860Y1584638D01*
X884140D01*
X885377Y1584969D01*
X886485Y1585609D01*
X887391Y1586514D01*
X888031Y1587623D01*
X888362Y1588860D01*
Y1590140D01*
X888031Y1591377D01*
X887391Y1592486D01*
X886485Y1593391D01*
X885377Y1594031D01*
X884140Y1594362D01*
D02*
G37*
G36*
X824140Y1576862D02*
X822860D01*
X821623Y1576531D01*
X820514Y1575891D01*
X819609Y1574986D01*
X818969Y1573877D01*
X818811Y1573285D01*
X818189D01*
X818031Y1573877D01*
X817391Y1574986D01*
X816486Y1575891D01*
X815377Y1576531D01*
X814140Y1576862D01*
X812860D01*
X811623Y1576531D01*
X810515Y1575891D01*
X809609Y1574986D01*
X808969Y1573877D01*
X808638Y1572640D01*
Y1571360D01*
X808969Y1570123D01*
X809609Y1569014D01*
X810515Y1568109D01*
X811623Y1567469D01*
X812860Y1567138D01*
X814140D01*
X815377Y1567469D01*
X816486Y1568109D01*
X817391Y1569014D01*
X818031Y1570123D01*
X818189Y1570715D01*
X818811D01*
X818969Y1570123D01*
X819609Y1569014D01*
X820514Y1568109D01*
X821623Y1567469D01*
X822860Y1567138D01*
X824140D01*
X825377Y1567469D01*
X826486Y1568109D01*
X827391Y1569014D01*
X828031Y1570123D01*
X828362Y1571360D01*
Y1572640D01*
X828031Y1573877D01*
X827391Y1574986D01*
X826486Y1575891D01*
X825377Y1576531D01*
X824140Y1576862D01*
D02*
G37*
G36*
X884140Y1536862D02*
X882860D01*
X881623Y1536531D01*
X880515Y1535891D01*
X879609Y1534986D01*
X878969Y1533877D01*
X878638Y1532640D01*
Y1531360D01*
X878969Y1530123D01*
X879609Y1529014D01*
X880515Y1528109D01*
X881623Y1527469D01*
X882860Y1527138D01*
X884140D01*
X885377Y1527469D01*
X886485Y1528109D01*
X887391Y1529014D01*
X888031Y1530123D01*
X888362Y1531360D01*
Y1532640D01*
X888031Y1533877D01*
X887391Y1534986D01*
X886485Y1535891D01*
X885377Y1536531D01*
X884140Y1536862D01*
D02*
G37*
G36*
Y1479362D02*
X882860D01*
X881623Y1479031D01*
X880515Y1478391D01*
X879609Y1477485D01*
X878969Y1476377D01*
X878638Y1475140D01*
Y1473860D01*
X878969Y1472623D01*
X879609Y1471515D01*
X880515Y1470609D01*
X881623Y1469969D01*
X882860Y1469638D01*
X884140D01*
X885377Y1469969D01*
X886485Y1470609D01*
X887391Y1471515D01*
X888031Y1472623D01*
X888362Y1473860D01*
Y1475140D01*
X888031Y1476377D01*
X887391Y1477485D01*
X886485Y1478391D01*
X885377Y1479031D01*
X884140Y1479362D01*
D02*
G37*
G36*
Y1421862D02*
X882860D01*
X881623Y1421531D01*
X880515Y1420891D01*
X879609Y1419985D01*
X878969Y1418877D01*
X878638Y1417640D01*
Y1416360D01*
X878969Y1415123D01*
X879609Y1414015D01*
X880515Y1413109D01*
X881623Y1412469D01*
X882860Y1412138D01*
X884140D01*
X885377Y1412469D01*
X886485Y1413109D01*
X887391Y1414015D01*
X888031Y1415123D01*
X888362Y1416360D01*
Y1417640D01*
X888031Y1418877D01*
X887391Y1419985D01*
X886485Y1420891D01*
X885377Y1421531D01*
X884140Y1421862D01*
D02*
G37*
G36*
Y1364362D02*
X882860D01*
X881623Y1364031D01*
X880515Y1363391D01*
X879609Y1362486D01*
X878969Y1361377D01*
X878638Y1360140D01*
Y1358860D01*
X878969Y1357623D01*
X879609Y1356514D01*
X880515Y1355609D01*
X881623Y1354969D01*
X882860Y1354638D01*
X884140D01*
X885377Y1354969D01*
X886485Y1355609D01*
X887391Y1356514D01*
X888031Y1357623D01*
X888362Y1358860D01*
Y1360140D01*
X888031Y1361377D01*
X887391Y1362486D01*
X886485Y1363391D01*
X885377Y1364031D01*
X884140Y1364362D01*
D02*
G37*
G36*
X860816Y1078874D02*
X859184D01*
X857571Y1078619D01*
X856018Y1078114D01*
X854563Y1077373D01*
X853242Y1076413D01*
X852087Y1075258D01*
X851127Y1073937D01*
X850386Y1072482D01*
X849881Y1070929D01*
X849626Y1069316D01*
Y1067684D01*
X849881Y1066071D01*
X850386Y1064518D01*
X851127Y1063063D01*
X852087Y1061742D01*
X853242Y1060587D01*
X854563Y1059627D01*
X855352Y1059225D01*
Y1058625D01*
X854563Y1058223D01*
X853242Y1057263D01*
X852087Y1056109D01*
X851127Y1054788D01*
X850386Y1053333D01*
X849881Y1051780D01*
X849626Y1050167D01*
Y1048534D01*
X849881Y1046921D01*
X850386Y1045368D01*
X851127Y1043913D01*
X852087Y1042592D01*
X853242Y1041438D01*
X854563Y1040478D01*
X856018Y1039736D01*
X857571Y1039232D01*
X859184Y1038976D01*
X860816D01*
X862429Y1039232D01*
X863982Y1039736D01*
X865437Y1040478D01*
X866758Y1041438D01*
X867913Y1042592D01*
X868873Y1043913D01*
X869614Y1045368D01*
X870119Y1046921D01*
X870374Y1048534D01*
Y1050167D01*
X870119Y1051780D01*
X869614Y1053333D01*
X868873Y1054788D01*
X867913Y1056109D01*
X866758Y1057263D01*
X865437Y1058223D01*
X864648Y1058625D01*
Y1059225D01*
X865437Y1059627D01*
X866758Y1060587D01*
X867913Y1061742D01*
X868873Y1063063D01*
X869614Y1064518D01*
X870119Y1066071D01*
X870374Y1067684D01*
Y1069316D01*
X870119Y1070929D01*
X869614Y1072482D01*
X868873Y1073937D01*
X867913Y1075258D01*
X866758Y1076413D01*
X865437Y1077373D01*
X863982Y1078114D01*
X862429Y1078619D01*
X860816Y1078874D01*
D02*
G37*
G36*
Y878874D02*
X859184D01*
X857571Y878619D01*
X856018Y878114D01*
X854563Y877373D01*
X853242Y876413D01*
X852087Y875258D01*
X851127Y873937D01*
X850386Y872482D01*
X849881Y870929D01*
X849626Y869316D01*
Y867684D01*
X849881Y866071D01*
X850386Y864518D01*
X851127Y863063D01*
X852087Y861742D01*
X853242Y860587D01*
X854563Y859627D01*
X855352Y859225D01*
Y858625D01*
X854563Y858223D01*
X853242Y857263D01*
X852087Y856109D01*
X851127Y854788D01*
X850386Y853333D01*
X849881Y851780D01*
X849626Y850167D01*
Y848534D01*
X849881Y846921D01*
X850386Y845368D01*
X851127Y843913D01*
X852087Y842592D01*
X853242Y841438D01*
X854563Y840478D01*
X856018Y839736D01*
X857571Y839232D01*
X859184Y838976D01*
X860816D01*
X862429Y839232D01*
X863982Y839736D01*
X865437Y840478D01*
X866758Y841438D01*
X867913Y842592D01*
X868873Y843913D01*
X869614Y845368D01*
X870119Y846921D01*
X870374Y848534D01*
Y850167D01*
X870119Y851780D01*
X869614Y853333D01*
X868873Y854788D01*
X867913Y856109D01*
X866758Y857263D01*
X865437Y858223D01*
X864648Y858625D01*
Y859225D01*
X865437Y859627D01*
X866758Y860587D01*
X867913Y861742D01*
X868873Y863063D01*
X869614Y864518D01*
X870119Y866071D01*
X870374Y867684D01*
Y869316D01*
X870119Y870929D01*
X869614Y872482D01*
X868873Y873937D01*
X867913Y875258D01*
X866758Y876413D01*
X865437Y877373D01*
X863982Y878114D01*
X862429Y878619D01*
X860816Y878874D01*
D02*
G37*
G36*
X532479Y1758012D02*
X530513D01*
X528585Y1757628D01*
X526768Y1756876D01*
X525134Y1755784D01*
X523744Y1754394D01*
X522652Y1752759D01*
X521899Y1750943D01*
X521516Y1749014D01*
Y1747049D01*
X521899Y1745120D01*
X522652Y1743304D01*
X523744Y1741669D01*
X525134Y1740279D01*
X526768Y1739187D01*
X528585Y1738435D01*
X530513Y1738051D01*
X532479D01*
X534407Y1738435D01*
X536223Y1739187D01*
X537858Y1740279D01*
X539248Y1741669D01*
X540340Y1743304D01*
X541093Y1745120D01*
X541476Y1747049D01*
Y1749014D01*
X541093Y1750943D01*
X540340Y1752759D01*
X539248Y1754394D01*
X537858Y1755784D01*
X536223Y1756876D01*
X534407Y1757628D01*
X532479Y1758012D01*
D02*
G37*
G36*
X538301Y1677624D02*
X536951D01*
X535648Y1677275D01*
X534480Y1676600D01*
X533526Y1675646D01*
X532851Y1674478D01*
X532502Y1673175D01*
Y1671825D01*
X532851Y1670522D01*
X533526Y1669354D01*
X534480Y1668400D01*
X535463Y1667832D01*
X535495Y1667737D01*
Y1667263D01*
X535463Y1667168D01*
X534480Y1666600D01*
X533526Y1665646D01*
X532851Y1664478D01*
X532502Y1663175D01*
Y1661825D01*
X532851Y1660522D01*
X533526Y1659354D01*
X534480Y1658400D01*
X535648Y1657725D01*
X536951Y1657376D01*
X538301D01*
X539604Y1657725D01*
X540772Y1658400D01*
X541726Y1659354D01*
X542401Y1660522D01*
X542750Y1661825D01*
Y1663175D01*
X542401Y1664478D01*
X541726Y1665646D01*
X540772Y1666600D01*
X539788Y1667168D01*
X539757Y1667263D01*
Y1667737D01*
X539788Y1667832D01*
X540772Y1668400D01*
X541726Y1669354D01*
X542401Y1670522D01*
X542750Y1671825D01*
Y1673175D01*
X542401Y1674478D01*
X541726Y1675646D01*
X540772Y1676600D01*
X539604Y1677275D01*
X538301Y1677624D01*
D02*
G37*
G36*
X690640Y1642362D02*
X689360D01*
X688123Y1642031D01*
X687014Y1641391D01*
X686109Y1640486D01*
X685469Y1639377D01*
X685311Y1638785D01*
X684689D01*
X684531Y1639377D01*
X683891Y1640486D01*
X682985Y1641391D01*
X681877Y1642031D01*
X680640Y1642362D01*
X679360D01*
X678123Y1642031D01*
X677014Y1641391D01*
X676109Y1640486D01*
X675469Y1639377D01*
X675138Y1638140D01*
Y1636860D01*
X675469Y1635623D01*
X676109Y1634514D01*
X677014Y1633609D01*
X678123Y1632969D01*
X679360Y1632638D01*
X680640D01*
X681877Y1632969D01*
X682985Y1633609D01*
X683891Y1634514D01*
X684531Y1635623D01*
X684689Y1636215D01*
X685311D01*
X685469Y1635623D01*
X686109Y1634514D01*
X687014Y1633609D01*
X688123Y1632969D01*
X689360Y1632638D01*
X690640D01*
X691877Y1632969D01*
X692985Y1633609D01*
X693891Y1634514D01*
X694531Y1635623D01*
X694862Y1636860D01*
Y1638140D01*
X694531Y1639377D01*
X693891Y1640486D01*
X692985Y1641391D01*
X691877Y1642031D01*
X690640Y1642362D01*
D02*
G37*
G36*
X538301Y1647624D02*
X536951D01*
X535648Y1647275D01*
X534480Y1646600D01*
X533526Y1645646D01*
X532851Y1644478D01*
X532502Y1643175D01*
Y1641825D01*
X532851Y1640522D01*
X533526Y1639354D01*
X534480Y1638400D01*
X535648Y1637725D01*
X536951Y1637376D01*
X538301D01*
X539604Y1637725D01*
X540772Y1638400D01*
X541726Y1639354D01*
X542401Y1640522D01*
X542750Y1641825D01*
Y1643175D01*
X542401Y1644478D01*
X541726Y1645646D01*
X540772Y1646600D01*
X539604Y1647275D01*
X538301Y1647624D01*
D02*
G37*
G36*
Y1624624D02*
X536951D01*
X535648Y1624275D01*
X534480Y1623600D01*
X533526Y1622646D01*
X532851Y1621478D01*
X532502Y1620175D01*
Y1618825D01*
X532851Y1617522D01*
X533526Y1616354D01*
X534480Y1615400D01*
X535463Y1614832D01*
X535495Y1614737D01*
Y1614263D01*
X535463Y1614168D01*
X534480Y1613600D01*
X533526Y1612646D01*
X532851Y1611478D01*
X532502Y1610175D01*
Y1608825D01*
X532851Y1607522D01*
X533526Y1606354D01*
X534480Y1605400D01*
X535648Y1604725D01*
X536951Y1604376D01*
X538301D01*
X539604Y1604725D01*
X540772Y1605400D01*
X541726Y1606354D01*
X542401Y1607522D01*
X542750Y1608825D01*
Y1610175D01*
X542401Y1611478D01*
X541726Y1612646D01*
X540772Y1613600D01*
X539788Y1614168D01*
X539757Y1614263D01*
Y1614737D01*
X539788Y1614832D01*
X540772Y1615400D01*
X541726Y1616354D01*
X542401Y1617522D01*
X542750Y1618825D01*
Y1620175D01*
X542401Y1621478D01*
X541726Y1622646D01*
X540772Y1623600D01*
X539604Y1624275D01*
X538301Y1624624D01*
D02*
G37*
G36*
X690640Y1602362D02*
X689360D01*
X688123Y1602031D01*
X687014Y1601391D01*
X686109Y1600485D01*
X685469Y1599377D01*
X685138Y1598140D01*
Y1596860D01*
X685469Y1595623D01*
X686109Y1594514D01*
X687014Y1593609D01*
X688123Y1592969D01*
X689360Y1592638D01*
X690640D01*
X691877Y1592969D01*
X692985Y1593609D01*
X693891Y1594514D01*
X694531Y1595623D01*
X694862Y1596860D01*
Y1598140D01*
X694531Y1599377D01*
X693891Y1600485D01*
X692985Y1601391D01*
X691877Y1602031D01*
X690640Y1602362D01*
D02*
G37*
G36*
X538301Y1594624D02*
X536951D01*
X535648Y1594275D01*
X534480Y1593600D01*
X533526Y1592646D01*
X532851Y1591478D01*
X532502Y1590175D01*
Y1588825D01*
X532851Y1587522D01*
X533526Y1586354D01*
X534480Y1585400D01*
X535648Y1584725D01*
X536951Y1584376D01*
X538301D01*
X539604Y1584725D01*
X540772Y1585400D01*
X541726Y1586354D01*
X542401Y1587522D01*
X542750Y1588825D01*
Y1590175D01*
X542401Y1591478D01*
X541726Y1592646D01*
X540772Y1593600D01*
X539604Y1594275D01*
X538301Y1594624D01*
D02*
G37*
G36*
X690640Y1577362D02*
X689360D01*
X688123Y1577031D01*
X687014Y1576391D01*
X686109Y1575486D01*
X685469Y1574377D01*
X685311Y1573785D01*
X684689D01*
X684531Y1574377D01*
X683891Y1575486D01*
X682985Y1576391D01*
X681877Y1577031D01*
X680640Y1577362D01*
X679360D01*
X678123Y1577031D01*
X677014Y1576391D01*
X676109Y1575486D01*
X675469Y1574377D01*
X675138Y1573140D01*
Y1571860D01*
X675469Y1570623D01*
X676109Y1569514D01*
X677014Y1568609D01*
X678123Y1567969D01*
X679360Y1567638D01*
X680640D01*
X681877Y1567969D01*
X682985Y1568609D01*
X683891Y1569514D01*
X684531Y1570623D01*
X684689Y1571215D01*
X685311D01*
X685469Y1570623D01*
X686109Y1569514D01*
X687014Y1568609D01*
X688123Y1567969D01*
X689360Y1567638D01*
X690640D01*
X691877Y1567969D01*
X692985Y1568609D01*
X693891Y1569514D01*
X694531Y1570623D01*
X694862Y1571860D01*
Y1573140D01*
X694531Y1574377D01*
X693891Y1575486D01*
X692985Y1576391D01*
X691877Y1577031D01*
X690640Y1577362D01*
D02*
G37*
G36*
X680640Y1537362D02*
X679360D01*
X678123Y1537031D01*
X677014Y1536391D01*
X676109Y1535485D01*
X675469Y1534377D01*
X675138Y1533140D01*
Y1531860D01*
X675469Y1530623D01*
X676109Y1529515D01*
X677014Y1528609D01*
X678123Y1527969D01*
X679360Y1527638D01*
X680640D01*
X681877Y1527969D01*
X682985Y1528609D01*
X683891Y1529515D01*
X684531Y1530623D01*
X684862Y1531860D01*
Y1533140D01*
X684531Y1534377D01*
X683891Y1535485D01*
X682985Y1536391D01*
X681877Y1537031D01*
X680640Y1537362D01*
D02*
G37*
G36*
X720151Y1514850D02*
X718801D01*
X717478Y1514587D01*
X716231Y1514070D01*
X715109Y1513321D01*
X714155Y1512367D01*
X713406Y1511245D01*
X712889Y1509998D01*
X712626Y1508675D01*
Y1507325D01*
X712889Y1506002D01*
X712935Y1505892D01*
D01*
X713406Y1504755D01*
X714155Y1503633D01*
X715109Y1502679D01*
X716231Y1501930D01*
X717478Y1501413D01*
X718801Y1501150D01*
X720151D01*
X721474Y1501413D01*
X722721Y1501930D01*
X723843Y1502679D01*
X724797Y1503633D01*
X725546Y1504755D01*
X726063Y1506002D01*
X726326Y1507325D01*
Y1508675D01*
X726063Y1509998D01*
X725546Y1511245D01*
X724797Y1512367D01*
X723843Y1513321D01*
X722721Y1514070D01*
X721474Y1514587D01*
X720151Y1514850D01*
D02*
G37*
G36*
X627651D02*
X626301D01*
X624978Y1514587D01*
X623731Y1514070D01*
X622609Y1513321D01*
X621655Y1512367D01*
X620906Y1511245D01*
X620389Y1509998D01*
X620126Y1508675D01*
Y1507325D01*
X620389Y1506002D01*
X620906Y1504755D01*
X621655Y1503633D01*
X622609Y1502679D01*
X623731Y1501930D01*
X624978Y1501413D01*
X626301Y1501150D01*
X627651D01*
X628974Y1501413D01*
X630221Y1501930D01*
X631343Y1502679D01*
X632297Y1503633D01*
X633046Y1504755D01*
X633563Y1506002D01*
X633826Y1507325D01*
Y1508675D01*
X633563Y1509998D01*
X633046Y1511245D01*
X632297Y1512367D01*
X631343Y1513321D01*
X630221Y1514070D01*
X628974Y1514587D01*
X627651Y1514850D01*
D02*
G37*
G36*
X723053Y1480200D02*
X721947D01*
X720879Y1479914D01*
X719921Y1479361D01*
X719139Y1478579D01*
X718586Y1477621D01*
X718300Y1476553D01*
Y1475447D01*
X718586Y1474379D01*
X719139Y1473421D01*
X719921Y1472639D01*
X720879Y1472086D01*
X721947Y1471800D01*
X723053D01*
X724121Y1472086D01*
X725079Y1472639D01*
X725861Y1473421D01*
X726414Y1474379D01*
X726700Y1475447D01*
Y1476553D01*
X726414Y1477621D01*
X725861Y1478579D01*
X725079Y1479361D01*
X724121Y1479914D01*
X723053Y1480200D01*
D02*
G37*
G36*
X734553Y1472200D02*
X733447D01*
X732379Y1471914D01*
X731421Y1471361D01*
X730639Y1470579D01*
X730086Y1469621D01*
X729800Y1468553D01*
Y1467447D01*
X730086Y1466379D01*
X730639Y1465421D01*
X731421Y1464639D01*
X732379Y1464086D01*
X733447Y1463800D01*
X734553D01*
X735621Y1464086D01*
X736579Y1464639D01*
X737361Y1465421D01*
X737914Y1466379D01*
X738200Y1467447D01*
Y1468553D01*
X737914Y1469621D01*
X737361Y1470579D01*
X736579Y1471361D01*
X735621Y1471914D01*
X734553Y1472200D01*
D02*
G37*
G36*
X650553Y1471500D02*
X649447D01*
X648379Y1471214D01*
X647421Y1470661D01*
X646639Y1469879D01*
X646086Y1468921D01*
X645800Y1467853D01*
Y1466747D01*
X646086Y1465679D01*
X646639Y1464721D01*
X647421Y1463939D01*
X648379Y1463386D01*
X649447Y1463100D01*
X650553D01*
X651621Y1463386D01*
X652579Y1463939D01*
X653361Y1464721D01*
X653914Y1465679D01*
X654200Y1466747D01*
Y1467853D01*
X653914Y1468921D01*
X653361Y1469879D01*
X652579Y1470661D01*
X651621Y1471214D01*
X650553Y1471500D01*
D02*
G37*
G36*
X656509Y1453200D02*
X655404D01*
X654335Y1452914D01*
X653377Y1452361D01*
X652596Y1451579D01*
X652043Y1450621D01*
X651756Y1449553D01*
Y1448447D01*
X652043Y1447379D01*
X652596Y1446421D01*
X653377Y1445639D01*
X654335Y1445086D01*
X655404Y1444800D01*
X656509D01*
X657578Y1445086D01*
X658535Y1445639D01*
X659317Y1446421D01*
X659870Y1447379D01*
X660156Y1448447D01*
Y1449553D01*
X659870Y1450621D01*
X659317Y1451579D01*
X658535Y1452361D01*
X657578Y1452914D01*
X656509Y1453200D01*
D02*
G37*
G36*
X584553Y1449200D02*
X583447D01*
X582379Y1448914D01*
X581421Y1448361D01*
X580639Y1447579D01*
X580086Y1446621D01*
X579800Y1445553D01*
Y1444447D01*
X580086Y1443379D01*
X580639Y1442421D01*
X581421Y1441639D01*
X582379Y1441086D01*
X583447Y1440800D01*
X584553D01*
X585621Y1441086D01*
X586579Y1441639D01*
X587361Y1442421D01*
X587914Y1443379D01*
X588200Y1444447D01*
Y1445553D01*
X587914Y1446621D01*
X587361Y1447579D01*
X586579Y1448361D01*
X585621Y1448914D01*
X584553Y1449200D01*
D02*
G37*
G36*
X629053Y1354700D02*
X627947D01*
X626879Y1354414D01*
X625921Y1353861D01*
X625139Y1353079D01*
X624586Y1352121D01*
X624300Y1351053D01*
Y1349947D01*
X624586Y1348879D01*
X625139Y1347921D01*
X625921Y1347139D01*
X626879Y1346586D01*
X627947Y1346300D01*
X629053D01*
X630121Y1346586D01*
X631079Y1347139D01*
X631861Y1347921D01*
X632414Y1348879D01*
X632700Y1349947D01*
Y1351053D01*
X632414Y1352121D01*
X631861Y1353079D01*
X631079Y1353861D01*
X630121Y1354414D01*
X629053Y1354700D01*
D02*
G37*
G36*
X713353Y1351600D02*
X712247D01*
X711179Y1351314D01*
X710221Y1350761D01*
X709439Y1349979D01*
X708886Y1349021D01*
X708600Y1347953D01*
Y1346847D01*
X708886Y1345779D01*
X709439Y1344821D01*
X710221Y1344039D01*
X711179Y1343486D01*
X712247Y1343200D01*
X713353D01*
X714421Y1343486D01*
X715379Y1344039D01*
X716161Y1344821D01*
X716714Y1345779D01*
X717000Y1346847D01*
Y1347953D01*
X716714Y1349021D01*
X716161Y1349979D01*
X715379Y1350761D01*
X714421Y1351314D01*
X713353Y1351600D01*
D02*
G37*
G36*
X611053Y1348700D02*
X609947D01*
X608879Y1348414D01*
X607921Y1347861D01*
X607139Y1347079D01*
X606586Y1346121D01*
X606300Y1345053D01*
Y1343947D01*
X606586Y1342879D01*
X607139Y1341921D01*
X607921Y1341139D01*
X608879Y1340586D01*
X609947Y1340300D01*
X611053D01*
X612121Y1340586D01*
X613079Y1341139D01*
X613861Y1341921D01*
X614414Y1342879D01*
X614700Y1343947D01*
Y1345053D01*
X614414Y1346121D01*
X613861Y1347079D01*
X613079Y1347861D01*
X612121Y1348414D01*
X611053Y1348700D01*
D02*
G37*
G36*
X720653Y1332900D02*
X719547D01*
X718479Y1332614D01*
X717521Y1332061D01*
X716739Y1331279D01*
X716186Y1330321D01*
X715900Y1329253D01*
Y1328147D01*
X716186Y1327079D01*
X716739Y1326121D01*
X717521Y1325339D01*
X718479Y1324786D01*
X719547Y1324500D01*
X720653D01*
X721721Y1324786D01*
X722679Y1325339D01*
X723461Y1326121D01*
X724014Y1327079D01*
X724300Y1328147D01*
Y1329253D01*
X724014Y1330321D01*
X723461Y1331279D01*
X722679Y1332061D01*
X721721Y1332614D01*
X720653Y1332900D01*
D02*
G37*
G36*
X605553Y1320200D02*
X604447D01*
X603379Y1319914D01*
X602421Y1319361D01*
X601639Y1318579D01*
X601086Y1317621D01*
X600800Y1316553D01*
Y1315447D01*
X601086Y1314379D01*
X601639Y1313421D01*
X602421Y1312639D01*
X603379Y1312086D01*
X604447Y1311800D01*
X605553D01*
X606621Y1312086D01*
X607579Y1312639D01*
X608361Y1313421D01*
X608914Y1314379D01*
X609200Y1315447D01*
Y1316553D01*
X608914Y1317621D01*
X608361Y1318579D01*
X607579Y1319361D01*
X606621Y1319914D01*
X605553Y1320200D01*
D02*
G37*
G36*
X630132Y1318200D02*
X629027D01*
X627958Y1317914D01*
X627001Y1317361D01*
X626219Y1316579D01*
X625666Y1315621D01*
X625380Y1314553D01*
Y1314300D01*
X624684Y1314114D01*
X623726Y1313561D01*
X622944Y1312779D01*
X622391Y1311821D01*
X622105Y1310753D01*
Y1309647D01*
X622391Y1308579D01*
X622944Y1307621D01*
X623726Y1306839D01*
X624684Y1306286D01*
X625752Y1306000D01*
X626858D01*
X627926Y1306286D01*
X628884Y1306839D01*
X629666Y1307621D01*
X630218Y1308579D01*
X630505Y1309647D01*
Y1309900D01*
X631201Y1310086D01*
X632158Y1310639D01*
X632940Y1311421D01*
X633493Y1312379D01*
X633779Y1313447D01*
Y1314553D01*
X633493Y1315621D01*
X632940Y1316579D01*
X632158Y1317361D01*
X631201Y1317914D01*
X630132Y1318200D01*
D02*
G37*
G36*
X582377Y750300D02*
X580623D01*
X578904Y749958D01*
X577284Y749287D01*
X575827Y748313D01*
X574587Y747073D01*
X573613Y745616D01*
X572942Y743996D01*
X572600Y742277D01*
Y740523D01*
X572942Y738804D01*
X573613Y737184D01*
X574587Y735727D01*
X575827Y734487D01*
X577284Y733513D01*
X578904Y732842D01*
X580623Y732500D01*
X582377D01*
X584096Y732842D01*
X585716Y733513D01*
X587173Y734487D01*
X588413Y735727D01*
X589387Y737184D01*
X590058Y738804D01*
X590400Y740523D01*
Y742277D01*
X590058Y743996D01*
X589387Y745616D01*
X588413Y747073D01*
X587173Y748313D01*
X585716Y749287D01*
X584096Y749958D01*
X582377Y750300D01*
D02*
G37*
G36*
X459377D02*
X457623D01*
X455904Y749958D01*
X454284Y749287D01*
X452827Y748313D01*
X451587Y747073D01*
X450613Y745616D01*
X449942Y743996D01*
X449600Y742277D01*
Y740523D01*
X449942Y738804D01*
X450613Y737184D01*
X451587Y735727D01*
X452827Y734487D01*
X454284Y733513D01*
X455904Y732842D01*
X457623Y732500D01*
X459377D01*
X461096Y732842D01*
X462716Y733513D01*
X464173Y734487D01*
X465413Y735727D01*
X466387Y737184D01*
X467058Y738804D01*
X467400Y740523D01*
Y742277D01*
X467058Y743996D01*
X466387Y745616D01*
X465413Y747073D01*
X464173Y748313D01*
X462716Y749287D01*
X461096Y749958D01*
X459377Y750300D01*
D02*
G37*
%LPD*%
D10*
X809000Y1290500D02*
X812500D01*
X817400Y1295400D01*
X825000Y1108149D02*
X826000Y1109149D01*
X825000Y1107500D02*
Y1108149D01*
X826000Y1109149D02*
Y1195600D01*
X817400Y1295400D02*
Y1401600D01*
X817041Y805459D02*
X817500Y805918D01*
Y811000D01*
X817041Y805459D02*
X817500Y805000D01*
X736100Y1446500D02*
X738475D01*
X739300Y1447325D02*
X742325D01*
X742500Y1447500D01*
X738475Y1446500D02*
X739300Y1447325D01*
X569055Y1379055D02*
X595500Y1405500D01*
X661351D02*
X662351Y1406500D01*
X595500Y1405500D02*
X661351D01*
X662351Y1406500D02*
X663000D01*
X538976Y1394500D02*
Y1395644D01*
X543000Y1399668D02*
Y1476500D01*
X538976Y1395644D02*
X543000Y1399668D01*
X555332Y1363682D02*
X569055Y1377405D01*
X539500Y1349500D02*
X553682Y1363682D01*
X555332D01*
X569055Y1377405D02*
Y1379055D01*
X553500Y1273500D02*
X708535D01*
X713035Y1278000D01*
X791700Y1033500D02*
X803500D01*
X786000Y1039200D02*
X791700Y1033500D01*
X785438Y1242912D02*
X790351Y1238000D01*
X785438Y1242912D02*
Y1244562D01*
X785000Y1245000D02*
X785438Y1244562D01*
X690000Y1492600D02*
X736100Y1446500D01*
X794300Y1462300D02*
Y1536200D01*
X785500Y1545000D02*
X794300Y1536200D01*
X543000Y1226000D02*
X548000Y1221000D01*
X543000Y1226000D02*
Y1296700D01*
X577300Y1331000D01*
X790351Y1238000D02*
X803500D01*
X786000Y1433000D02*
Y1481000D01*
Y1433000D02*
X817400Y1401600D01*
X667730Y1470330D02*
X690000Y1492600D01*
X667730Y1443730D02*
Y1470330D01*
X744700Y1202300D02*
Y1351000D01*
X401701Y1698635D02*
Y1756914D01*
Y1698635D02*
X441586Y1658750D01*
X777400Y819171D02*
X786071Y810500D01*
X777400Y819171D02*
Y1415400D01*
X779400Y1033100D02*
X785000Y1027500D01*
X785500D01*
X779400Y1033100D02*
Y1365400D01*
X777400Y1415400D02*
X786000Y1424000D01*
X718430Y1405270D02*
X744700Y1379000D01*
X716230Y1405270D02*
X718430D01*
X689500Y1432000D02*
X716230Y1405270D01*
X441586Y1658750D02*
X453961D01*
X464482Y1523000D02*
X465982Y1524500D01*
X453960Y1528750D02*
X459710Y1523000D01*
X464482D01*
X444908Y1523218D02*
X450440Y1528750D01*
X444079Y1523218D02*
X444908D01*
X435156Y1528453D02*
X438844D01*
X429703Y1523000D02*
X435156Y1528453D01*
X450440Y1528750D02*
X453960D01*
X465982Y1524500D02*
X481500D01*
X438844Y1528453D02*
X444079Y1523218D01*
X417000Y1523000D02*
X429703D01*
X417000Y1503000D02*
Y1512000D01*
X418000Y1464000D02*
X437000D01*
X417000Y1463000D02*
X418000Y1464000D01*
X888807Y1212193D02*
X893000Y1208000D01*
Y1202193D02*
Y1208000D01*
X879748Y1212193D02*
X888807D01*
X879748Y1135657D02*
X893000D01*
Y1115657D02*
Y1121157D01*
Y1002193D02*
Y1007693D01*
Y915657D02*
Y921157D01*
Y802193D02*
Y807693D01*
X879748Y735657D02*
X893000D01*
Y715657D02*
Y721157D01*
X482136Y1685136D02*
X489500Y1692500D01*
X473690Y1644500D02*
X475710D01*
X470450Y1641260D02*
X473690Y1644500D01*
X470450Y1637380D02*
Y1641260D01*
Y1631500D02*
X471450Y1632500D01*
Y1636380D01*
X470450Y1627740D02*
Y1631500D01*
X471450Y1622740D02*
Y1626740D01*
X470450Y1637380D02*
X471450Y1636380D01*
X467460Y1618750D02*
X471450Y1622740D01*
X470450Y1627740D02*
X471450Y1626740D01*
X475710Y1644500D02*
X482136Y1650925D01*
X467460Y1614760D02*
Y1618750D01*
X482136Y1650925D02*
Y1685136D01*
X467200Y1614500D02*
X467460Y1614760D01*
X513400Y1522500D02*
Y1689300D01*
X402286Y1757500D02*
X410700D01*
X401701Y1756914D02*
X402286Y1757500D01*
X513400Y1522500D02*
X538976Y1496924D01*
X870949Y480139D02*
X872000Y479088D01*
X870815Y437500D02*
X872000Y438685D01*
Y479088D01*
X486900Y1430000D02*
Y1434000D01*
X437000Y1634000D02*
X452200D01*
X779400Y1365400D02*
X813500Y1399500D01*
X819600Y1202000D02*
X826000Y1195600D01*
X819600Y1202000D02*
Y1437000D01*
X794300Y1462300D02*
X819600Y1437000D01*
X690000Y1492600D02*
Y1532500D01*
X437000Y1564000D02*
X442500Y1569500D01*
X453211D01*
X456450Y1572739D01*
Y1576261D01*
X454000Y1578711D02*
X456450Y1576261D01*
X454000Y1578711D02*
Y1580289D01*
X459700Y1585989D01*
Y1589500D01*
X855500Y807000D02*
X864000D01*
X744700Y1351000D02*
Y1379000D01*
X538976Y1394500D02*
Y1496924D01*
X879748Y725657D02*
X888500D01*
X893000Y721157D01*
X879748Y925657D02*
X888500D01*
X893000Y921157D01*
X879748Y1125657D02*
X888500D01*
X893000Y1121157D01*
X508800Y1350200D02*
X589600Y1431000D01*
X508800Y1260900D02*
Y1350200D01*
X455700Y1207800D02*
X508800Y1260900D01*
X409600Y1696600D02*
X445450Y1660750D01*
X458450D01*
X459700Y1659500D01*
X453961Y1658750D02*
X458211Y1654500D01*
X467200D01*
X437000Y1434000D02*
X443453Y1440453D01*
Y1476800D01*
X445653Y1479000D01*
X452711D01*
X459700Y1485989D01*
Y1489500D01*
X437500Y1403000D02*
Y1414500D01*
X432500Y1419500D02*
X437500Y1414500D01*
X432500Y1419500D02*
Y1446847D01*
X435200Y1449547D01*
X439800D01*
X441453Y1451200D01*
Y1483753D01*
X452200Y1494500D01*
X485000Y1548000D02*
X489500Y1552500D01*
X485000Y1540616D02*
Y1548000D01*
X478884Y1534500D02*
X485000Y1540616D01*
X467200Y1534500D02*
X478884D01*
X474700Y1529500D02*
X479800D01*
X489500Y1539200D01*
Y1542500D01*
X437000Y1614000D02*
X447500Y1624500D01*
X452200D01*
X435200Y1609500D02*
X459700D01*
X432500Y1606800D02*
X435200Y1609500D01*
X432500Y1598500D02*
Y1606800D01*
Y1598500D02*
X437000Y1594000D01*
X488000Y1470000D02*
X490000D01*
X484000Y1474000D02*
X488000Y1470000D01*
X484000Y1474000D02*
Y1480500D01*
X480000Y1484500D02*
X484000Y1480500D01*
X467200Y1484500D02*
X480000D01*
X488000Y1460000D02*
X490000D01*
X484000Y1464000D02*
X488000Y1460000D01*
X484000Y1464000D02*
Y1470500D01*
X480000Y1474500D02*
X484000Y1470500D01*
X467200Y1474500D02*
X480000D01*
X488000Y1450000D02*
X490000D01*
X484000Y1454000D02*
X488000Y1450000D01*
X484000Y1454000D02*
Y1460500D01*
X480000Y1464500D02*
X484000Y1460500D01*
X467200Y1464500D02*
X480000D01*
X484800Y1440000D02*
X490000D01*
X484000Y1440800D02*
X484800Y1440000D01*
X484000Y1440800D02*
Y1450500D01*
X480000Y1454500D02*
X484000Y1450500D01*
X467200Y1454500D02*
X480000D01*
X484800Y1420000D02*
X490000D01*
X484000Y1420800D02*
X484800Y1420000D01*
X484000Y1420800D02*
Y1430500D01*
X480000Y1434500D02*
X484000Y1430500D01*
X467200Y1434500D02*
X480000D01*
X467200Y1444500D02*
X476400D01*
X486900Y1434000D01*
Y1430000D02*
X490000D01*
X481700Y1410000D02*
X490000D01*
X467200Y1424500D02*
X481700Y1410000D01*
X867907Y1222193D02*
X879748D01*
X836344Y1253756D02*
X867907Y1222193D01*
X879748Y812193D02*
X888500D01*
X893000Y807693D01*
X879748Y1012193D02*
X888500D01*
X893000Y1007693D01*
X446700Y1519000D02*
X452200Y1524500D01*
X424000Y1519000D02*
X446700D01*
X417000Y1512000D02*
X424000Y1519000D01*
X481500Y1524500D02*
X489500Y1532500D01*
X437000Y1624000D02*
X442500Y1629500D01*
X459700D01*
X452200Y1634000D02*
Y1634500D01*
X459700Y1459500D02*
X474700D01*
X466189Y1399500D02*
X474700D01*
X462200Y1395511D02*
X466189Y1399500D01*
X460800Y1395511D02*
X462200D01*
X459700Y1396611D02*
X460800Y1395511D01*
X459700Y1396611D02*
Y1399500D01*
X889100Y1222193D02*
X893000D01*
X889100Y1222193D02*
X889100Y1222193D01*
X879748Y1222193D02*
X889100D01*
X879748Y935657D02*
X893000D01*
X889100Y1022193D02*
X893000D01*
X889100Y1022193D02*
X889100Y1022193D01*
X879748Y1022193D02*
X889100D01*
X889100Y822193D02*
X893000D01*
X889100Y822193D02*
X889100Y822193D01*
X879748Y822193D02*
X889100D01*
D78*
X870815Y480139D02*
Y490189D01*
X870815Y490189D02*
X880999D01*
X870815Y490189D02*
X870815Y490189D01*
X870815Y490189D02*
Y554685D01*
Y437852D02*
Y480139D01*
X435500Y681000D02*
Y1099500D01*
X452000Y1116000D01*
X435500Y681000D02*
X510000Y606500D01*
X793899D01*
X798000Y602399D01*
Y491000D02*
Y602399D01*
X581500Y702000D02*
X632500Y651000D01*
X717763D02*
X740763Y628000D01*
X632500Y651000D02*
X717763D01*
X740763Y628000D02*
X798000D01*
X800000Y630000D01*
X860500Y690500D01*
X855500Y807000D02*
X860500Y802000D01*
X870815Y437500D02*
Y437852D01*
X798000Y449152D02*
Y491000D01*
X798811Y490189D01*
X819836D01*
X798000Y449152D02*
X809652Y437500D01*
X800000Y625500D02*
X870815Y554685D01*
X800000Y625500D02*
Y630000D01*
X860500Y690500D02*
Y802000D01*
D80*
X619669Y1170500D02*
D03*
Y1250500D02*
D03*
X589669D02*
D03*
X559669D02*
D03*
Y1170500D02*
D03*
X619669Y990000D02*
D03*
Y1070000D02*
D03*
X589669D02*
D03*
X559669D02*
D03*
Y990000D02*
D03*
X512000D02*
D03*
Y1070000D02*
D03*
X482000D02*
D03*
X452000D02*
D03*
Y990000D02*
D03*
X512000Y1170500D02*
D03*
Y1250500D02*
D03*
X482000D02*
D03*
X452000D02*
D03*
Y1170500D02*
D03*
D81*
X412000Y583000D02*
D03*
X502000D02*
D03*
X668673D02*
D03*
X758673D02*
D03*
X539346D02*
D03*
X629346D02*
D03*
X888000D02*
D03*
X798000D02*
D03*
D82*
X459480Y528000D02*
D03*
Y638000D02*
D03*
Y618000D02*
D03*
X716154Y528000D02*
D03*
Y638000D02*
D03*
Y618000D02*
D03*
X586827Y528000D02*
D03*
Y638000D02*
D03*
Y618000D02*
D03*
X845480D02*
D03*
Y638000D02*
D03*
Y528000D02*
D03*
D83*
X818500Y964000D02*
D03*
X653146D02*
D03*
X818500Y1167500D02*
D03*
X653146D02*
D03*
X818500Y760500D02*
D03*
X653146D02*
D03*
D84*
X879748Y1212193D02*
D03*
Y1222193D02*
D03*
Y1182193D02*
D03*
Y1202193D02*
D03*
Y1125657D02*
D03*
Y1135658D02*
D03*
Y1095658D02*
D03*
Y1115658D02*
D03*
Y915658D02*
D03*
Y895658D02*
D03*
Y935658D02*
D03*
Y925657D02*
D03*
Y1002193D02*
D03*
Y982193D02*
D03*
Y1022193D02*
D03*
Y1012193D02*
D03*
Y812193D02*
D03*
Y822193D02*
D03*
Y782193D02*
D03*
Y802193D02*
D03*
Y725658D02*
D03*
Y735658D02*
D03*
Y695657D02*
D03*
Y715658D02*
D03*
D85*
X860000Y1068500D02*
D03*
Y1249350D02*
D03*
Y1049350D02*
D03*
Y868500D02*
D03*
Y668500D02*
D03*
Y849350D02*
D03*
D86*
X560000Y1116000D02*
D03*
Y1146000D02*
D03*
X559500Y935000D02*
D03*
Y965000D02*
D03*
X452000Y935000D02*
D03*
Y965000D02*
D03*
X512000Y935000D02*
D03*
Y965000D02*
D03*
X619500Y935000D02*
D03*
Y965000D02*
D03*
X512000Y1146000D02*
D03*
Y1116000D02*
D03*
X619500Y1146000D02*
D03*
Y1116000D02*
D03*
X452000Y1146000D02*
D03*
Y1116000D02*
D03*
D87*
X858000Y1753500D02*
D03*
D88*
X873000Y1733500D02*
D03*
X848000D02*
D03*
D89*
X617500Y1751500D02*
D03*
X681500D02*
D03*
D90*
X617500Y1741500D02*
D03*
X681500D02*
D03*
D91*
X750000Y1572500D02*
D03*
X883000Y1694000D02*
D03*
X883500Y1629500D02*
D03*
Y1399500D02*
D03*
Y1514500D02*
D03*
Y1572000D02*
D03*
Y1342000D02*
D03*
X750000Y1637500D02*
D03*
X883500Y1457000D02*
D03*
D92*
X690000Y1572500D02*
D03*
X680000D02*
D03*
Y1532500D02*
D03*
X690000D02*
D03*
X750000D02*
D03*
X823000Y1694000D02*
D03*
X813000D02*
D03*
Y1654000D02*
D03*
X823000D02*
D03*
X883000D02*
D03*
X823500Y1629500D02*
D03*
X813500D02*
D03*
Y1589500D02*
D03*
X823500D02*
D03*
X883500D02*
D03*
X823500Y1399500D02*
D03*
X813500D02*
D03*
Y1359500D02*
D03*
X823500D02*
D03*
X883500D02*
D03*
X823500Y1514500D02*
D03*
X813500D02*
D03*
Y1474500D02*
D03*
X823500D02*
D03*
X883500D02*
D03*
X823500Y1572000D02*
D03*
X813500D02*
D03*
Y1532000D02*
D03*
X823500D02*
D03*
X883500D02*
D03*
X823500Y1342000D02*
D03*
X813500D02*
D03*
Y1302000D02*
D03*
X823500D02*
D03*
X883500D02*
D03*
X690000Y1637500D02*
D03*
X680000D02*
D03*
Y1597500D02*
D03*
X690000D02*
D03*
X750000D02*
D03*
X823500Y1457000D02*
D03*
X813500D02*
D03*
Y1417000D02*
D03*
X823500D02*
D03*
X883500D02*
D03*
D93*
X506374Y1619500D02*
D03*
Y1672500D02*
D03*
D94*
Y1609500D02*
D03*
Y1599500D02*
D03*
Y1589500D02*
D03*
X537626D02*
D03*
Y1599500D02*
D03*
Y1609500D02*
D03*
Y1619500D02*
D03*
Y1672500D02*
D03*
Y1662500D02*
D03*
Y1652500D02*
D03*
Y1642500D02*
D03*
X506374D02*
D03*
Y1652500D02*
D03*
Y1662500D02*
D03*
D95*
X809652Y437500D02*
D03*
X829337D02*
D03*
X809652Y409941D02*
D03*
X829337D02*
D03*
X687326Y437500D02*
D03*
X707011D02*
D03*
X687326Y409941D02*
D03*
X707011D02*
D03*
X565000Y437500D02*
D03*
X584685D02*
D03*
X565000Y409941D02*
D03*
X584685D02*
D03*
X890500D02*
D03*
X870815D02*
D03*
X890500Y437500D02*
D03*
X870815D02*
D03*
X645848Y409941D02*
D03*
X626163D02*
D03*
X645848Y437500D02*
D03*
X626163D02*
D03*
X748489D02*
D03*
X768174D02*
D03*
X748489Y409941D02*
D03*
X768174D02*
D03*
D96*
X417000Y1423000D02*
D03*
Y1443000D02*
D03*
Y1463000D02*
D03*
Y1483000D02*
D03*
Y1503000D02*
D03*
Y1523000D02*
D03*
X415500Y1297500D02*
D03*
Y1312500D02*
D03*
X893000Y1022193D02*
D03*
Y1002193D02*
D03*
Y735657D02*
D03*
Y915657D02*
D03*
Y715657D02*
D03*
Y802193D02*
D03*
Y935657D02*
D03*
Y822193D02*
D03*
Y1135657D02*
D03*
Y1222193D02*
D03*
Y1202193D02*
D03*
Y1115657D02*
D03*
X417036Y1608000D02*
D03*
X626976Y1394500D02*
D03*
X417036Y1672500D02*
D03*
X880999Y490189D02*
D03*
X417036Y1651000D02*
D03*
Y1629500D02*
D03*
X614035Y1280000D02*
D03*
X713035Y1278000D02*
D03*
X515035Y1280000D02*
D03*
X626976Y1508000D02*
D03*
X538976Y1508000D02*
D03*
Y1394500D02*
D03*
X719476Y1508000D02*
D03*
Y1394500D02*
D03*
X632000Y1280000D02*
D03*
X533000D02*
D03*
X819836Y490189D02*
D03*
X758673D02*
D03*
X575184D02*
D03*
X697510D02*
D03*
X636347D02*
D03*
X730965Y1278000D02*
D03*
X407500Y1179500D02*
D03*
Y1202500D02*
D03*
Y1225500D02*
D03*
Y1246500D02*
D03*
D97*
X409449Y527559D02*
D03*
X889764D02*
D03*
X409449Y1275591D02*
D03*
X767717Y1748031D02*
D03*
X531496D02*
D03*
X889764Y1275591D02*
D03*
D98*
X410500Y1697500D02*
D03*
X420650Y1697450D02*
D03*
Y1727450D02*
D03*
Y1717450D02*
D03*
X410500Y1707500D02*
D03*
X420650Y1707450D02*
D03*
Y1757450D02*
D03*
X420800Y1747400D02*
D03*
X410500Y1727500D02*
D03*
X410700Y1737600D02*
D03*
Y1747500D02*
D03*
Y1757500D02*
D03*
X410500Y1717500D02*
D03*
X420650Y1737450D02*
D03*
D99*
X437000Y1424000D02*
D03*
Y1434000D02*
D03*
Y1444000D02*
D03*
Y1454000D02*
D03*
Y1464000D02*
D03*
Y1474000D02*
D03*
Y1484000D02*
D03*
Y1494000D02*
D03*
Y1504000D02*
D03*
Y1514000D02*
D03*
Y1524000D02*
D03*
Y1534000D02*
D03*
Y1544000D02*
D03*
Y1554000D02*
D03*
Y1564000D02*
D03*
Y1574000D02*
D03*
Y1584000D02*
D03*
Y1594000D02*
D03*
Y1604000D02*
D03*
Y1614000D02*
D03*
Y1624000D02*
D03*
X489500Y1732500D02*
D03*
Y1722500D02*
D03*
Y1712500D02*
D03*
Y1702500D02*
D03*
Y1692500D02*
D03*
Y1682500D02*
D03*
Y1672500D02*
D03*
Y1662500D02*
D03*
Y1652500D02*
D03*
Y1642500D02*
D03*
Y1632500D02*
D03*
Y1622500D02*
D03*
Y1612500D02*
D03*
Y1602500D02*
D03*
Y1592500D02*
D03*
Y1582500D02*
D03*
Y1572500D02*
D03*
Y1562500D02*
D03*
Y1552500D02*
D03*
Y1542500D02*
D03*
Y1532500D02*
D03*
Y1522500D02*
D03*
Y1512500D02*
D03*
Y1502500D02*
D03*
D100*
X437000Y1634000D02*
D03*
X489500Y1742500D02*
D03*
D101*
X458500Y741400D02*
D03*
Y702000D02*
D03*
Y865900D02*
D03*
Y826500D02*
D03*
X581500D02*
D03*
Y865900D02*
D03*
Y702000D02*
D03*
Y741400D02*
D03*
D102*
X490000Y1410000D02*
D03*
Y1430000D02*
D03*
Y1450000D02*
D03*
Y1460000D02*
D03*
Y1470000D02*
D03*
Y1440000D02*
D03*
Y1420000D02*
D03*
X437500Y1343000D02*
D03*
Y1363000D02*
D03*
Y1393000D02*
D03*
Y1383000D02*
D03*
Y1373000D02*
D03*
Y1353000D02*
D03*
Y1333000D02*
D03*
D103*
X490000Y1480000D02*
D03*
X437500Y1403000D02*
D03*
D104*
X463500Y1362000D02*
D03*
Y1672000D02*
D03*
D105*
X452200Y1374500D02*
D03*
X459700Y1379500D02*
D03*
X452200Y1384500D02*
D03*
X459700Y1389500D02*
D03*
X467200Y1384500D02*
D03*
X452200Y1394500D02*
D03*
X459700Y1399500D02*
D03*
X467200Y1394500D02*
D03*
X474700Y1379500D02*
D03*
Y1389500D02*
D03*
Y1399500D02*
D03*
X452200Y1434500D02*
D03*
X467200D02*
D03*
X452200Y1424500D02*
D03*
X467200D02*
D03*
Y1444500D02*
D03*
X452200D02*
D03*
Y1454500D02*
D03*
X467200D02*
D03*
X452200Y1464500D02*
D03*
X459700Y1469500D02*
D03*
X467200Y1464500D02*
D03*
X474700Y1469500D02*
D03*
Y1479500D02*
D03*
X467200Y1474500D02*
D03*
X459700Y1479500D02*
D03*
X452200Y1474500D02*
D03*
Y1484500D02*
D03*
X474700Y1489500D02*
D03*
X467200Y1484500D02*
D03*
X459700Y1489500D02*
D03*
X452200Y1494500D02*
D03*
X459700Y1499500D02*
D03*
X467200Y1494500D02*
D03*
X474700Y1499500D02*
D03*
Y1529500D02*
D03*
X467200Y1524500D02*
D03*
X459700Y1529500D02*
D03*
X452200Y1524500D02*
D03*
X467200Y1534500D02*
D03*
X452200D02*
D03*
X459700Y1539500D02*
D03*
X474700D02*
D03*
Y1549500D02*
D03*
X459700D02*
D03*
X452200Y1544500D02*
D03*
X474700Y1559500D02*
D03*
X467200Y1554500D02*
D03*
X459700Y1559500D02*
D03*
X452200Y1554500D02*
D03*
X467200Y1564500D02*
D03*
X452200D02*
D03*
X459700Y1569500D02*
D03*
X474700D02*
D03*
Y1579500D02*
D03*
X467200Y1574500D02*
D03*
X459700Y1579500D02*
D03*
X452200Y1574500D02*
D03*
X474700Y1589500D02*
D03*
X467200Y1584500D02*
D03*
X459700Y1589500D02*
D03*
X452200Y1584500D02*
D03*
Y1594500D02*
D03*
X459700Y1599500D02*
D03*
X474700D02*
D03*
Y1609500D02*
D03*
X467200Y1604500D02*
D03*
X459700Y1609500D02*
D03*
X452200Y1604500D02*
D03*
X474700Y1619500D02*
D03*
X467200Y1614500D02*
D03*
X459700Y1619500D02*
D03*
X452200Y1614500D02*
D03*
X474700Y1629500D02*
D03*
X467200Y1624500D02*
D03*
X459700Y1629500D02*
D03*
X452200Y1624500D02*
D03*
X474700Y1639500D02*
D03*
X467200Y1634500D02*
D03*
X459700Y1639500D02*
D03*
X452200Y1634500D02*
D03*
X474700Y1649500D02*
D03*
X459700D02*
D03*
X452200Y1644500D02*
D03*
X474700Y1659500D02*
D03*
X467200Y1654500D02*
D03*
X459700Y1659500D02*
D03*
X452200Y1654500D02*
D03*
X474700Y1459500D02*
D03*
Y1429500D02*
D03*
Y1449500D02*
D03*
X459700Y1459500D02*
D03*
Y1429500D02*
D03*
Y1449500D02*
D03*
Y1439500D02*
D03*
X467200Y1544500D02*
D03*
Y1644500D02*
D03*
Y1594500D02*
D03*
X474700Y1439500D02*
D03*
D106*
X467200Y1374500D02*
D03*
D107*
X701200Y1036500D02*
D03*
X809000Y1290500D02*
D03*
X825000Y1107500D02*
D03*
X817500Y811000D02*
D03*
Y805000D02*
D03*
X758500Y1529000D02*
D03*
X742500Y1447500D02*
D03*
X663000Y1406500D02*
D03*
X584000Y1445000D02*
D03*
X543000Y1476500D02*
D03*
X532300Y1347975D02*
D03*
X539500Y1349500D02*
D03*
X518000Y1348149D02*
D03*
X522997Y1347997D02*
D03*
X788000Y1233500D02*
D03*
X784000Y1231500D02*
D03*
X783500Y1003000D02*
D03*
X553500Y1273500D02*
D03*
X788000Y1209000D02*
D03*
X789500Y801500D02*
D03*
X786000Y1039200D02*
D03*
X788500Y1014000D02*
D03*
X785000Y1245000D02*
D03*
X734000Y1468000D02*
D03*
X614000Y1309000D02*
D03*
X626305Y1310200D02*
D03*
X629579Y1314000D02*
D03*
X569500Y1308500D02*
D03*
X712000Y1489000D02*
D03*
X565378Y1451122D02*
D03*
X823500Y1218500D02*
D03*
X515000Y1309000D02*
D03*
X647000Y1430500D02*
D03*
X785500Y1545000D02*
D03*
X628500Y1350500D02*
D03*
X548000Y1221000D02*
D03*
X786000Y1481000D02*
D03*
X744700Y1202300D02*
D03*
X758100Y1319750D02*
D03*
X610500Y1344500D02*
D03*
X727200Y1349500D02*
D03*
X605000Y1316000D02*
D03*
X799000Y1481500D02*
D03*
X803500Y1238000D02*
D03*
X788225Y824224D02*
D03*
X786071Y810500D02*
D03*
X803500Y1033500D02*
D03*
X785500Y1027500D02*
D03*
X786000Y1660500D02*
D03*
Y1424000D02*
D03*
X689500Y1432000D02*
D03*
X513400Y1689300D02*
D03*
X701500Y832125D02*
D03*
X795000Y655000D02*
D03*
X785300Y832500D02*
D03*
Y849900D02*
D03*
X655956Y1449000D02*
D03*
X511300Y1467300D02*
D03*
X650000D02*
D03*
X722500Y1476000D02*
D03*
X586800Y683000D02*
D03*
X577300Y1331000D02*
D03*
X755500Y1504600D02*
D03*
X744700Y1351000D02*
D03*
X720100Y1328700D02*
D03*
X589600Y1431000D02*
D03*
X455700Y1207800D02*
D03*
X712800Y1347400D02*
D03*
X552400Y1449600D02*
D03*
X836344Y1253756D02*
D03*
X792500Y1673000D02*
D03*
D108*
X650500Y1516000D02*
D03*
M02*
