G04*
G04 #@! TF.GenerationSoftware,Altium Limited,Altium Designer,24.4.1 (13)*
G04*
G04 Layer_Color=255*
%FSLAX25Y25*%
%MOIN*%
G70*
G04*
G04 #@! TF.SameCoordinates,D6D0C77B-36A0-4D54-9E24-613302BCF265*
G04*
G04*
G04 #@! TF.FilePolarity,Positive*
G04*
G01*
G75*
%ADD16R,0.08858X0.06496*%
%ADD17R,0.06500X0.06000*%
%ADD18R,0.06000X0.06500*%
%ADD19R,0.04528X0.05709*%
%ADD20R,0.03000X0.05000*%
%ADD21R,0.10433X0.10000*%
%ADD22R,0.05709X0.04724*%
%ADD23R,0.23819X0.26772*%
%ADD24R,0.05787X0.03819*%
%ADD25R,0.05709X0.04528*%
%ADD26R,0.05512X0.03543*%
%ADD27R,0.02559X0.06004*%
%ADD28R,0.04724X0.05709*%
%ADD29R,0.03819X0.05787*%
%ADD30R,0.02559X0.07874*%
%ADD31R,0.12598X0.07874*%
%ADD32R,0.07087X0.04528*%
%ADD33R,0.03543X0.05512*%
%ADD80C,0.07087*%
%ADD81O,0.18898X0.26772*%
%ADD82C,0.08661*%
%ADD83C,0.12000*%
%ADD84O,0.09000X0.08300*%
%ADD85C,0.15748*%
%ADD86C,0.11811*%
%ADD87R,0.16000X0.10000*%
%ADD88R,0.10000X0.16000*%
%ADD89C,0.06791*%
%ADD90R,0.06791X0.06791*%
%ADD91R,0.04724X0.04724*%
%ADD92C,0.04724*%
%ADD93R,0.05248X0.05248*%
%ADD94C,0.05248*%
%ADD95C,0.11300*%
%ADD96C,0.08700*%
%ADD97C,0.14961*%
%ADD98O,0.08600X0.06000*%
%ADD99C,0.05906*%
%ADD100R,0.05906X0.05906*%
%ADD101C,0.12800*%
%ADD102O,0.09000X0.06500*%
%ADD103R,0.09000X0.06500*%
%ADD104C,0.12700*%
%ADD105C,0.05500*%
%ADD106R,0.05500X0.05500*%
D16*
X534071Y1427500D02*
D03*
X551000D02*
D03*
X534071Y1476000D02*
D03*
X551000D02*
D03*
X622071Y1427500D02*
D03*
X639000D02*
D03*
X515035Y1300263D02*
D03*
X531965D02*
D03*
X622071Y1476000D02*
D03*
X639000D02*
D03*
X614035Y1300763D02*
D03*
X630965D02*
D03*
X714571Y1427500D02*
D03*
X731500D02*
D03*
X713035Y1300500D02*
D03*
X729965D02*
D03*
X714571Y1476000D02*
D03*
X731500D02*
D03*
D17*
X518003Y1464500D02*
D03*
Y1477500D02*
D03*
X518103Y1433500D02*
D03*
Y1446500D02*
D03*
X606003Y1464500D02*
D03*
Y1477500D02*
D03*
X489000Y1335000D02*
D03*
Y1322000D02*
D03*
X542400Y1297500D02*
D03*
Y1310500D02*
D03*
X606103Y1433500D02*
D03*
Y1446500D02*
D03*
X542400Y1342000D02*
D03*
Y1329000D02*
D03*
X560000Y1342000D02*
D03*
Y1329000D02*
D03*
Y1297500D02*
D03*
Y1310500D02*
D03*
X506000Y1322000D02*
D03*
Y1335000D02*
D03*
X588000Y1322500D02*
D03*
Y1335500D02*
D03*
X641400Y1311000D02*
D03*
Y1298000D02*
D03*
X698503Y1464500D02*
D03*
Y1477500D02*
D03*
X641400Y1329500D02*
D03*
Y1342500D02*
D03*
X659000D02*
D03*
Y1329500D02*
D03*
Y1298000D02*
D03*
Y1311000D02*
D03*
X605000Y1322500D02*
D03*
Y1335500D02*
D03*
X687000Y1335000D02*
D03*
Y1322000D02*
D03*
X740400Y1297500D02*
D03*
Y1310500D02*
D03*
X698603Y1433500D02*
D03*
Y1446500D02*
D03*
X740400Y1342000D02*
D03*
Y1329000D02*
D03*
X758000D02*
D03*
Y1342000D02*
D03*
Y1310500D02*
D03*
Y1297500D02*
D03*
X704000Y1335000D02*
D03*
Y1322000D02*
D03*
X643500Y1557000D02*
D03*
Y1544000D02*
D03*
X759260Y1681095D02*
D03*
Y1668095D02*
D03*
D18*
X575000Y1489500D02*
D03*
X562000D02*
D03*
X538976D02*
D03*
X551976D02*
D03*
X562000Y1414500D02*
D03*
X575000D02*
D03*
X551976D02*
D03*
X538976D02*
D03*
X663000Y1489500D02*
D03*
X650000D02*
D03*
X626976D02*
D03*
X639976D02*
D03*
X489500Y1360193D02*
D03*
X502500D02*
D03*
X515500D02*
D03*
X528500D02*
D03*
X650000Y1414500D02*
D03*
X663000D02*
D03*
X639976D02*
D03*
X626976D02*
D03*
X601500Y1360693D02*
D03*
X588500D02*
D03*
X627500D02*
D03*
X614500D02*
D03*
X755500Y1489500D02*
D03*
X742500D02*
D03*
X719476D02*
D03*
X732476D02*
D03*
X687500Y1360193D02*
D03*
X700500D02*
D03*
X713500D02*
D03*
X726500D02*
D03*
X742500Y1414500D02*
D03*
X755500D02*
D03*
X732476D02*
D03*
X719476D02*
D03*
D19*
X699000Y1413421D02*
D03*
X706087D02*
D03*
X699000Y1490499D02*
D03*
X706087D02*
D03*
X606500D02*
D03*
X613587D02*
D03*
X747516Y1476500D02*
D03*
X754603D02*
D03*
X574103D02*
D03*
X567016D02*
D03*
X518500Y1413421D02*
D03*
X525587D02*
D03*
X655016Y1476500D02*
D03*
X662103D02*
D03*
X606500Y1413421D02*
D03*
X613587D02*
D03*
X518500Y1490499D02*
D03*
X525587D02*
D03*
X747516Y1429000D02*
D03*
X754603D02*
D03*
X574103D02*
D03*
X567016D02*
D03*
X655016D02*
D03*
X662103D02*
D03*
X653957Y1555500D02*
D03*
X661043D02*
D03*
X647457Y1630500D02*
D03*
X654543D02*
D03*
X759760Y1694095D02*
D03*
X752673D02*
D03*
D20*
X734429Y1459000D02*
D03*
X641929D02*
D03*
Y1439500D02*
D03*
X734429D02*
D03*
X750618Y1361240D02*
D03*
X771618D02*
D03*
X553929Y1459000D02*
D03*
X552618Y1361240D02*
D03*
X651618Y1361740D02*
D03*
X573618Y1361240D02*
D03*
X672618Y1361740D02*
D03*
X553929Y1439500D02*
D03*
D21*
X725173Y1459000D02*
D03*
X632673D02*
D03*
Y1439500D02*
D03*
X725173D02*
D03*
X741362Y1361240D02*
D03*
X762362D02*
D03*
X544673Y1459000D02*
D03*
X543362Y1361240D02*
D03*
X642362Y1361740D02*
D03*
X564362Y1361240D02*
D03*
X663362Y1361740D02*
D03*
X544673Y1439500D02*
D03*
D22*
X792500Y1481193D02*
D03*
Y1474500D02*
D03*
Y1538693D02*
D03*
Y1532000D02*
D03*
Y1366193D02*
D03*
Y1359500D02*
D03*
Y1424193D02*
D03*
Y1417500D02*
D03*
Y1308693D02*
D03*
Y1302000D02*
D03*
Y1589500D02*
D03*
Y1596193D02*
D03*
Y1660693D02*
D03*
Y1654000D02*
D03*
X647500Y1621346D02*
D03*
Y1614654D02*
D03*
D23*
X467750Y491689D02*
D03*
Y415311D02*
D03*
X421000Y491689D02*
D03*
Y415311D02*
D03*
X514500Y491689D02*
D03*
Y415311D02*
D03*
D24*
X779500Y1302000D02*
D03*
Y1308535D02*
D03*
Y1589500D02*
D03*
Y1596035D02*
D03*
Y1532000D02*
D03*
Y1538535D02*
D03*
X829000Y1740035D02*
D03*
Y1733500D02*
D03*
X779500Y1359500D02*
D03*
Y1366035D02*
D03*
X660000Y1533732D02*
D03*
Y1540268D02*
D03*
X779500Y1417500D02*
D03*
Y1424035D02*
D03*
Y1474500D02*
D03*
Y1481035D02*
D03*
Y1654000D02*
D03*
Y1660535D02*
D03*
X729260Y1668095D02*
D03*
Y1674630D02*
D03*
D25*
X792500Y1399500D02*
D03*
Y1392413D02*
D03*
Y1572000D02*
D03*
Y1564913D02*
D03*
Y1457000D02*
D03*
Y1449913D02*
D03*
Y1342000D02*
D03*
Y1334913D02*
D03*
Y1694000D02*
D03*
Y1686913D02*
D03*
Y1507413D02*
D03*
Y1514500D02*
D03*
Y1622413D02*
D03*
Y1629500D02*
D03*
D26*
X643500Y1565260D02*
D03*
Y1572740D02*
D03*
D27*
X663256Y1460177D02*
D03*
X658256D02*
D03*
X653256D02*
D03*
X648256D02*
D03*
Y1438823D02*
D03*
X653256D02*
D03*
X658256D02*
D03*
X663256D02*
D03*
X755756D02*
D03*
X750756D02*
D03*
X745756D02*
D03*
X740756D02*
D03*
Y1460177D02*
D03*
X745756D02*
D03*
X750756D02*
D03*
X755756D02*
D03*
X575256D02*
D03*
X570256D02*
D03*
X565256D02*
D03*
X560256D02*
D03*
Y1438823D02*
D03*
X565256D02*
D03*
X570256D02*
D03*
X575256D02*
D03*
X533000Y1320000D02*
D03*
X528000D02*
D03*
X523000D02*
D03*
X518000D02*
D03*
Y1341354D02*
D03*
X523000D02*
D03*
X528000D02*
D03*
X533000D02*
D03*
X632000Y1341677D02*
D03*
X627000D02*
D03*
X622000D02*
D03*
X617000D02*
D03*
Y1320323D02*
D03*
X622000D02*
D03*
X627000D02*
D03*
X632000D02*
D03*
X731000Y1341177D02*
D03*
X726000D02*
D03*
X721000D02*
D03*
X716000D02*
D03*
Y1319823D02*
D03*
X721000D02*
D03*
X726000D02*
D03*
X731000D02*
D03*
D28*
X650346Y1534000D02*
D03*
X643654D02*
D03*
D29*
X653768Y1604500D02*
D03*
X647232D02*
D03*
D30*
X737760Y1705784D02*
D03*
X742760D02*
D03*
X747760D02*
D03*
X752760D02*
D03*
X757760D02*
D03*
D31*
X747760Y1729406D02*
D03*
D32*
X742760Y1682189D02*
D03*
Y1694000D02*
D03*
D33*
X742520Y1668095D02*
D03*
X750000D02*
D03*
D80*
X619669Y1170500D02*
D03*
Y1250500D02*
D03*
X589669D02*
D03*
X559669D02*
D03*
Y1170500D02*
D03*
X619669Y990000D02*
D03*
Y1070000D02*
D03*
X589669D02*
D03*
X559669D02*
D03*
Y990000D02*
D03*
X512000D02*
D03*
Y1070000D02*
D03*
X482000D02*
D03*
X452000D02*
D03*
Y990000D02*
D03*
X512000Y1170500D02*
D03*
Y1250500D02*
D03*
X482000D02*
D03*
X452000D02*
D03*
Y1170500D02*
D03*
D81*
X412000Y583000D02*
D03*
X502000D02*
D03*
X668673D02*
D03*
X758673D02*
D03*
X539346D02*
D03*
X629346D02*
D03*
X888000D02*
D03*
X798000D02*
D03*
D82*
X459480Y528000D02*
D03*
Y638000D02*
D03*
Y618000D02*
D03*
X716154Y528000D02*
D03*
Y638000D02*
D03*
Y618000D02*
D03*
X586827Y528000D02*
D03*
Y638000D02*
D03*
Y618000D02*
D03*
X845480D02*
D03*
Y638000D02*
D03*
Y528000D02*
D03*
D83*
X818500Y964000D02*
D03*
X653146D02*
D03*
X818500Y1167500D02*
D03*
X653146D02*
D03*
X818500Y760500D02*
D03*
X653146D02*
D03*
D84*
X879748Y1212193D02*
D03*
Y1222193D02*
D03*
Y1182193D02*
D03*
Y1202193D02*
D03*
Y1125657D02*
D03*
Y1135658D02*
D03*
Y1095658D02*
D03*
Y1115658D02*
D03*
Y915658D02*
D03*
Y895658D02*
D03*
Y935658D02*
D03*
Y925657D02*
D03*
Y1002193D02*
D03*
Y982193D02*
D03*
Y1022193D02*
D03*
Y1012193D02*
D03*
Y812193D02*
D03*
Y822193D02*
D03*
Y782193D02*
D03*
Y802193D02*
D03*
Y725658D02*
D03*
Y735658D02*
D03*
Y695657D02*
D03*
Y715658D02*
D03*
D85*
X860000Y1068500D02*
D03*
Y1249350D02*
D03*
Y1049350D02*
D03*
Y868500D02*
D03*
Y668500D02*
D03*
Y849350D02*
D03*
D86*
X560000Y1116000D02*
D03*
Y1146000D02*
D03*
X559500Y935000D02*
D03*
Y965000D02*
D03*
X452000Y935000D02*
D03*
Y965000D02*
D03*
X512000Y935000D02*
D03*
Y965000D02*
D03*
X619500Y935000D02*
D03*
Y965000D02*
D03*
X512000Y1146000D02*
D03*
Y1116000D02*
D03*
X619500Y1146000D02*
D03*
Y1116000D02*
D03*
X452000Y1146000D02*
D03*
Y1116000D02*
D03*
D87*
X858000Y1753500D02*
D03*
D88*
X873000Y1733500D02*
D03*
X848000D02*
D03*
D89*
X617500Y1751500D02*
D03*
X681500D02*
D03*
D90*
X617500Y1741500D02*
D03*
X681500D02*
D03*
D91*
X750000Y1572500D02*
D03*
X883000Y1694000D02*
D03*
X883500Y1629500D02*
D03*
Y1399500D02*
D03*
Y1514500D02*
D03*
Y1572000D02*
D03*
Y1342000D02*
D03*
X750000Y1637500D02*
D03*
X883500Y1457000D02*
D03*
D92*
X690000Y1572500D02*
D03*
X680000D02*
D03*
Y1532500D02*
D03*
X690000D02*
D03*
X750000D02*
D03*
X823000Y1694000D02*
D03*
X813000D02*
D03*
Y1654000D02*
D03*
X823000D02*
D03*
X883000D02*
D03*
X823500Y1629500D02*
D03*
X813500D02*
D03*
Y1589500D02*
D03*
X823500D02*
D03*
X883500D02*
D03*
X823500Y1399500D02*
D03*
X813500D02*
D03*
Y1359500D02*
D03*
X823500D02*
D03*
X883500D02*
D03*
X823500Y1514500D02*
D03*
X813500D02*
D03*
Y1474500D02*
D03*
X823500D02*
D03*
X883500D02*
D03*
X823500Y1572000D02*
D03*
X813500D02*
D03*
Y1532000D02*
D03*
X823500D02*
D03*
X883500D02*
D03*
X823500Y1342000D02*
D03*
X813500D02*
D03*
Y1302000D02*
D03*
X823500D02*
D03*
X883500D02*
D03*
X690000Y1637500D02*
D03*
X680000D02*
D03*
Y1597500D02*
D03*
X690000D02*
D03*
X750000D02*
D03*
X823500Y1457000D02*
D03*
X813500D02*
D03*
Y1417000D02*
D03*
X823500D02*
D03*
X883500D02*
D03*
D93*
X506374Y1619500D02*
D03*
Y1672500D02*
D03*
D94*
Y1609500D02*
D03*
Y1599500D02*
D03*
Y1589500D02*
D03*
X537626D02*
D03*
Y1599500D02*
D03*
Y1609500D02*
D03*
Y1619500D02*
D03*
Y1672500D02*
D03*
Y1662500D02*
D03*
Y1652500D02*
D03*
Y1642500D02*
D03*
X506374D02*
D03*
Y1652500D02*
D03*
Y1662500D02*
D03*
D95*
X809652Y437500D02*
D03*
X829337D02*
D03*
X809652Y409941D02*
D03*
X829337D02*
D03*
X687326Y437500D02*
D03*
X707011D02*
D03*
X687326Y409941D02*
D03*
X707011D02*
D03*
X565000Y437500D02*
D03*
X584685D02*
D03*
X565000Y409941D02*
D03*
X584685D02*
D03*
X890500D02*
D03*
X870815D02*
D03*
X890500Y437500D02*
D03*
X870815D02*
D03*
X645848Y409941D02*
D03*
X626163D02*
D03*
X645848Y437500D02*
D03*
X626163D02*
D03*
X748489D02*
D03*
X768174D02*
D03*
X748489Y409941D02*
D03*
X768174D02*
D03*
D96*
X417000Y1423000D02*
D03*
Y1443000D02*
D03*
Y1463000D02*
D03*
Y1483000D02*
D03*
Y1503000D02*
D03*
Y1523000D02*
D03*
X415500Y1297500D02*
D03*
Y1312500D02*
D03*
X893000Y1022193D02*
D03*
Y1002193D02*
D03*
Y735657D02*
D03*
Y915657D02*
D03*
Y715657D02*
D03*
Y802193D02*
D03*
Y935657D02*
D03*
Y822193D02*
D03*
Y1135657D02*
D03*
Y1222193D02*
D03*
Y1202193D02*
D03*
Y1115657D02*
D03*
X417036Y1608000D02*
D03*
X626976Y1394500D02*
D03*
X417036Y1672500D02*
D03*
X880999Y490189D02*
D03*
X417036Y1651000D02*
D03*
Y1629500D02*
D03*
X614035Y1280000D02*
D03*
X713035Y1278000D02*
D03*
X515035Y1280000D02*
D03*
X626976Y1508000D02*
D03*
X538976Y1508000D02*
D03*
Y1394500D02*
D03*
X719476Y1508000D02*
D03*
Y1394500D02*
D03*
X632000Y1280000D02*
D03*
X533000D02*
D03*
X819836Y490189D02*
D03*
X758673D02*
D03*
X575184D02*
D03*
X697510D02*
D03*
X636347D02*
D03*
X730965Y1278000D02*
D03*
X407500Y1179500D02*
D03*
Y1202500D02*
D03*
Y1225500D02*
D03*
Y1246500D02*
D03*
D97*
X409449Y527559D02*
D03*
X889764D02*
D03*
X409449Y1275591D02*
D03*
X767717Y1748031D02*
D03*
X531496D02*
D03*
X889764Y1275591D02*
D03*
D98*
X410500Y1697500D02*
D03*
X420650Y1697450D02*
D03*
Y1727450D02*
D03*
Y1717450D02*
D03*
X410500Y1707500D02*
D03*
X420650Y1707450D02*
D03*
Y1757450D02*
D03*
X420800Y1747400D02*
D03*
X410500Y1727500D02*
D03*
X410700Y1737600D02*
D03*
Y1747500D02*
D03*
Y1757500D02*
D03*
X410500Y1717500D02*
D03*
X420650Y1737450D02*
D03*
D99*
X437000Y1424000D02*
D03*
Y1434000D02*
D03*
Y1444000D02*
D03*
Y1454000D02*
D03*
Y1464000D02*
D03*
Y1474000D02*
D03*
Y1484000D02*
D03*
Y1494000D02*
D03*
Y1504000D02*
D03*
Y1514000D02*
D03*
Y1524000D02*
D03*
Y1534000D02*
D03*
Y1544000D02*
D03*
Y1554000D02*
D03*
Y1564000D02*
D03*
Y1574000D02*
D03*
Y1584000D02*
D03*
Y1594000D02*
D03*
Y1604000D02*
D03*
Y1614000D02*
D03*
Y1624000D02*
D03*
X489500Y1732500D02*
D03*
Y1722500D02*
D03*
Y1712500D02*
D03*
Y1702500D02*
D03*
Y1692500D02*
D03*
Y1682500D02*
D03*
Y1672500D02*
D03*
Y1662500D02*
D03*
Y1652500D02*
D03*
Y1642500D02*
D03*
Y1632500D02*
D03*
Y1622500D02*
D03*
Y1612500D02*
D03*
Y1602500D02*
D03*
Y1592500D02*
D03*
Y1582500D02*
D03*
Y1572500D02*
D03*
Y1562500D02*
D03*
Y1552500D02*
D03*
Y1542500D02*
D03*
Y1532500D02*
D03*
Y1522500D02*
D03*
Y1512500D02*
D03*
Y1502500D02*
D03*
D100*
X437000Y1634000D02*
D03*
X489500Y1742500D02*
D03*
D101*
X458500Y741400D02*
D03*
Y702000D02*
D03*
Y865900D02*
D03*
Y826500D02*
D03*
X581500D02*
D03*
Y865900D02*
D03*
Y702000D02*
D03*
Y741400D02*
D03*
D102*
X490000Y1410000D02*
D03*
Y1430000D02*
D03*
Y1450000D02*
D03*
Y1460000D02*
D03*
Y1470000D02*
D03*
Y1440000D02*
D03*
Y1420000D02*
D03*
X437500Y1343000D02*
D03*
Y1363000D02*
D03*
Y1393000D02*
D03*
Y1383000D02*
D03*
Y1373000D02*
D03*
Y1353000D02*
D03*
Y1333000D02*
D03*
D103*
X490000Y1480000D02*
D03*
X437500Y1403000D02*
D03*
D104*
X463500Y1362000D02*
D03*
Y1672000D02*
D03*
D105*
X452200Y1374500D02*
D03*
X459700Y1379500D02*
D03*
X452200Y1384500D02*
D03*
X459700Y1389500D02*
D03*
X467200Y1384500D02*
D03*
X452200Y1394500D02*
D03*
X459700Y1399500D02*
D03*
X467200Y1394500D02*
D03*
X474700Y1379500D02*
D03*
Y1389500D02*
D03*
Y1399500D02*
D03*
X452200Y1434500D02*
D03*
X467200D02*
D03*
X452200Y1424500D02*
D03*
X467200D02*
D03*
Y1444500D02*
D03*
X452200D02*
D03*
Y1454500D02*
D03*
X467200D02*
D03*
X452200Y1464500D02*
D03*
X459700Y1469500D02*
D03*
X467200Y1464500D02*
D03*
X474700Y1469500D02*
D03*
Y1479500D02*
D03*
X467200Y1474500D02*
D03*
X459700Y1479500D02*
D03*
X452200Y1474500D02*
D03*
Y1484500D02*
D03*
X474700Y1489500D02*
D03*
X467200Y1484500D02*
D03*
X459700Y1489500D02*
D03*
X452200Y1494500D02*
D03*
X459700Y1499500D02*
D03*
X467200Y1494500D02*
D03*
X474700Y1499500D02*
D03*
Y1529500D02*
D03*
X467200Y1524500D02*
D03*
X459700Y1529500D02*
D03*
X452200Y1524500D02*
D03*
X467200Y1534500D02*
D03*
X452200D02*
D03*
X459700Y1539500D02*
D03*
X474700D02*
D03*
Y1549500D02*
D03*
X459700D02*
D03*
X452200Y1544500D02*
D03*
X474700Y1559500D02*
D03*
X467200Y1554500D02*
D03*
X459700Y1559500D02*
D03*
X452200Y1554500D02*
D03*
X467200Y1564500D02*
D03*
X452200D02*
D03*
X459700Y1569500D02*
D03*
X474700D02*
D03*
Y1579500D02*
D03*
X467200Y1574500D02*
D03*
X459700Y1579500D02*
D03*
X452200Y1574500D02*
D03*
X474700Y1589500D02*
D03*
X467200Y1584500D02*
D03*
X459700Y1589500D02*
D03*
X452200Y1584500D02*
D03*
Y1594500D02*
D03*
X459700Y1599500D02*
D03*
X474700D02*
D03*
Y1609500D02*
D03*
X467200Y1604500D02*
D03*
X459700Y1609500D02*
D03*
X452200Y1604500D02*
D03*
X474700Y1619500D02*
D03*
X467200Y1614500D02*
D03*
X459700Y1619500D02*
D03*
X452200Y1614500D02*
D03*
X474700Y1629500D02*
D03*
X467200Y1624500D02*
D03*
X459700Y1629500D02*
D03*
X452200Y1624500D02*
D03*
X474700Y1639500D02*
D03*
X467200Y1634500D02*
D03*
X459700Y1639500D02*
D03*
X452200Y1634500D02*
D03*
X474700Y1649500D02*
D03*
X459700D02*
D03*
X452200Y1644500D02*
D03*
X474700Y1659500D02*
D03*
X467200Y1654500D02*
D03*
X459700Y1659500D02*
D03*
X452200Y1654500D02*
D03*
X474700Y1459500D02*
D03*
Y1429500D02*
D03*
Y1449500D02*
D03*
X459700Y1459500D02*
D03*
Y1429500D02*
D03*
Y1449500D02*
D03*
Y1439500D02*
D03*
X467200Y1544500D02*
D03*
Y1644500D02*
D03*
Y1594500D02*
D03*
X474700Y1439500D02*
D03*
D106*
X467200Y1374500D02*
D03*
M02*
